<svg width="1769" height="302" viewBox="0 0 1769 302" fill="none" xmlns="http://www.w3.org/2000/svg">
<g clip-path="url(#clip0_9369_16692)">
<g style="mix-blend-mode:overlay" clip-path="url(#clip1_9369_16692)">
<path d="M1831.4 -4.38342L1542.46 285.195H1715.92L1831.4 171.183V-4.38342Z" fill="url(#paint0_linear_9369_16692)"/>
<path opacity="0.61" d="M1407.68 289.802L1707.76 -4.21068L1768.77 -4.38342L1407.68 355.791" fill="url(#paint1_linear_9369_16692)"/>
<path d="M1483 315.483L1695.12 101.279H1759.29L1483 387V315.483Z" fill="url(#paint2_linear_9369_16692)"/>
<g opacity="0.83">
<path d="M1604.57 -107.57C1609.92 -107.57 1615.32 -105.497 1619.4 -101.409C1627.61 -93.1745 1627.61 -79.8731 1619.4 -71.6965L1472.37 75.7129C1464.16 83.9471 1450.88 83.9471 1442.73 75.7129C1434.51 67.4787 1434.51 54.1773 1442.73 46.0007L1589.75 -101.409C1593.89 -105.497 1599.23 -107.57 1604.57 -107.57Z" fill="url(#paint3_linear_9369_16692)"/>
</g>
<path d="M1870.35 -71.4086C1875.7 -71.4086 1881.1 -69.3356 1885.18 -65.2473C1893.39 -57.0131 1893.39 -43.7117 1885.18 -35.5351L1738.15 111.874C1729.94 120.108 1716.66 120.108 1708.51 111.874C1700.29 103.64 1700.29 90.3387 1708.51 82.162L1855.53 -65.2473C1859.61 -69.3356 1864.95 -71.4086 1870.35 -71.4086Z" fill="url(#paint4_linear_9369_16692)"/>
<path d="M1816.58 -134C1821.92 -134 1827.32 -131.927 1831.4 -127.839C1839.61 -119.605 1839.61 -106.303 1831.4 -98.1265L1684.38 49.2253C1676.16 57.4595 1662.89 57.4595 1654.73 49.2253C1646.51 40.9911 1646.51 27.6897 1654.73 19.513L1801.75 -127.839C1805.83 -131.927 1811.23 -134 1816.58 -134Z" fill="url(#paint5_linear_9369_16692)"/>
<g opacity="0.44">
<path d="M1628.01 118C1633.35 118 1638.75 120.073 1642.83 124.161C1651.05 132.396 1651.05 145.697 1642.83 153.874L1495.81 301.283C1487.59 309.517 1474.32 309.517 1466.16 301.283C1457.95 293.049 1457.95 279.747 1466.16 271.571L1613.19 124.219C1617.27 120.073 1622.67 118 1628.01 118Z" fill="url(#paint6_linear_9369_16692)"/>
</g>
<path d="M1874.03 195.541C1879.37 195.541 1884.77 197.613 1888.85 201.702C1897.07 209.936 1897.07 223.237 1888.85 231.414L1741.83 378.766C1733.61 387 1720.34 387 1712.18 378.766C1703.97 370.532 1703.97 357.23 1712.18 349.054L1859.21 201.702C1863.34 197.613 1868.69 195.541 1874.03 195.541Z" fill="url(#paint7_linear_9369_16692)"/>
<g opacity="0.36">
<path d="M1860.7 42.5458C1866.04 42.5458 1871.44 44.6187 1875.52 48.707C1883.74 56.9412 1883.74 70.2426 1875.52 78.4192L1728.5 225.829C1720.28 234.063 1707.01 234.063 1698.85 225.829C1690.64 217.594 1690.64 204.293 1698.85 196.116L1845.88 48.7646C1850.01 44.6187 1855.36 42.5458 1860.7 42.5458Z" fill="url(#paint8_linear_9369_16692)"/>
</g>
</g>
<g style="mix-blend-mode:overlay" clip-path="url(#clip2_9369_16692)">
<path opacity="0.61" d="M-45 232.332L193.992 -1.86241L242.587 -2L-45 284.895" fill="url(#paint9_linear_9369_16692)"/>
<path d="M-8.1283 277.034L160.809 106.411H211.92L-8.1283 334V277.034Z" fill="url(#paint10_linear_9369_16692)"/>
<g opacity="0.83">
<path d="M88.6951 -59.9473C92.9505 -59.9473 97.2517 -58.2961 100.501 -55.0396C107.044 -48.4806 107.044 -37.8855 100.501 -31.3724L-16.5933 86.0458C-23.1367 92.6047 -33.7067 92.6047 -40.2043 86.0458C-46.7477 79.4869 -46.7477 68.8917 -40.2043 62.3787L76.8896 -55.0396C80.1841 -58.2961 84.4396 -59.9473 88.6951 -59.9473Z" fill="url(#paint11_linear_9369_16692)"/>
</g>
<path opacity="0.5" d="M255.219 -31.1431C259.474 -31.1431 263.776 -29.4919 267.024 -26.2354C273.568 -19.6764 273.568 -9.08128 267.024 -2.56824L149.931 114.85C143.387 121.409 132.817 121.409 126.32 114.85C119.776 108.291 119.776 97.6959 126.32 91.1829L243.414 -26.2354C246.662 -29.4919 250.918 -31.1431 255.219 -31.1431Z" fill="url(#paint12_linear_9369_16692)"/>
<path d="M239.901 -86.138C244.156 -86.0759 248.433 -84.3621 251.634 -81.0586C258.081 -74.4049 257.926 -63.8109 251.289 -57.394L132.495 58.2577C125.857 64.7205 115.288 64.5663 108.887 57.9133C102.44 51.2596 102.594 40.6656 109.232 34.2487L228.026 -81.403C231.321 -84.6118 235.646 -86.2 239.901 -86.138Z" fill="url(#paint13_linear_9369_16692)"/>
<g opacity="0.44">
<path d="M77.0961 74.3264C81.3515 74.3264 85.6527 75.9776 88.9015 79.2341C95.4449 85.793 95.4449 96.3882 88.9015 102.901L-28.1923 220.319C-34.7357 226.878 -45.3057 226.878 -51.8033 220.319C-58.3467 213.761 -58.3467 203.165 -51.8033 196.652L65.2906 79.28C68.5394 75.9776 72.8406 74.3264 77.0961 74.3264Z" fill="url(#paint14_linear_9369_16692)"/>
</g>
<path opacity="0.3" d="M194.967 181.494C199.223 181.494 203.524 183.145 206.773 186.402C213.316 192.961 213.316 203.556 206.773 210.069L89.679 327.441C83.1357 334 72.5657 334 66.0681 327.441C59.5247 320.882 59.5247 310.287 66.0681 303.774L183.162 186.402C186.457 183.145 190.712 181.494 194.967 181.494Z" fill="url(#paint15_linear_9369_16692)"/>
<g opacity="0.36">
<path d="M247.532 59.6267C251.787 59.6267 256.088 61.2779 259.337 64.5344C265.881 71.0933 265.881 81.6885 259.337 88.2015L142.243 205.62C135.7 212.179 125.13 212.179 118.632 205.62C112.089 199.061 112.089 188.466 118.632 181.953L235.726 64.5803C239.021 61.2779 243.276 59.6267 247.532 59.6267Z" fill="url(#paint16_linear_9369_16692)"/>
</g>
</g>
</g>
<defs>
<linearGradient id="paint0_linear_9369_16692" x1="1905.58" y1="-3.03151" x2="1664.57" y2="250.738" gradientUnits="userSpaceOnUse">
<stop stop-color="white"/>
<stop offset="0.0975644" stop-color="white" stop-opacity="0.9024"/>
<stop offset="1" stop-color="white" stop-opacity="0"/>
</linearGradient>
<linearGradient id="paint1_linear_9369_16692" x1="1578.77" y1="162.741" x2="1536.46" y2="105.04" gradientUnits="userSpaceOnUse">
<stop offset="0.1905" stop-opacity="0"/>
<stop offset="0.669" stop-color="#060606" stop-opacity="0.4824"/>
<stop offset="0.6946" stop-color="#0D0C0C" stop-opacity="0.5223"/>
<stop offset="0.7703" stop-color="#1C1A1A" stop-opacity="0.6408"/>
<stop offset="0.8603" stop-color="#242223" stop-opacity="0.7815"/>
<stop offset="1" stop-color="#272425"/>
</linearGradient>
<linearGradient id="paint2_linear_9369_16692" x1="1653.65" y1="232.927" x2="1414.28" y2="274.207" gradientUnits="userSpaceOnUse">
<stop offset="0.1905" stop-opacity="0"/>
<stop offset="0.669" stop-color="#060606" stop-opacity="0.57"/>
<stop offset="0.6946" stop-color="#0D0C0C" stop-opacity="0.6032"/>
<stop offset="0.7703" stop-color="#1C1A1A" stop-opacity="0.7016"/>
<stop offset="0.8603" stop-color="#242223" stop-opacity="0.8185"/>
<stop offset="1" stop-color="#272425"/>
</linearGradient>
<linearGradient id="paint3_linear_9369_16692" x1="1648.24" y1="-137.92" x2="1443.88" y2="79.2842" gradientUnits="userSpaceOnUse">
<stop stop-color="white"/>
<stop offset="1" stop-color="white" stop-opacity="0"/>
</linearGradient>
<linearGradient id="paint4_linear_9369_16692" x1="1913.98" y1="-101.767" x2="1709.62" y2="115.437" gradientUnits="userSpaceOnUse">
<stop stop-color="white"/>
<stop offset="1" stop-color="white" stop-opacity="0"/>
</linearGradient>
<linearGradient id="paint5_linear_9369_16692" x1="1860.22" y1="-164.378" x2="1655.86" y2="52.8268" gradientUnits="userSpaceOnUse">
<stop stop-color="white"/>
<stop offset="1" stop-color="white" stop-opacity="0"/>
</linearGradient>
<linearGradient id="paint6_linear_9369_16692" x1="1671.67" y1="87.6417" x2="1467.3" y2="304.846" gradientUnits="userSpaceOnUse">
<stop stop-color="white"/>
<stop offset="1" stop-color="white" stop-opacity="0"/>
</linearGradient>
<linearGradient id="paint7_linear_9369_16692" x1="1917.7" y1="165.166" x2="1713.34" y2="382.37" gradientUnits="userSpaceOnUse">
<stop stop-color="white"/>
<stop offset="1" stop-color="white" stop-opacity="0"/>
</linearGradient>
<linearGradient id="paint8_linear_9369_16692" x1="1904.37" y1="12.1902" x2="1700.01" y2="229.395" gradientUnits="userSpaceOnUse">
<stop stop-color="white" stop-opacity="0"/>
<stop offset="1" stop-color="white"/>
</linearGradient>
<linearGradient id="paint9_linear_9369_16692" x1="91.2626" y1="131.122" x2="57.5563" y2="85.1651" gradientUnits="userSpaceOnUse">
<stop offset="0.1905" stop-opacity="0"/>
<stop offset="0.669" stop-color="#060606" stop-opacity="0.4824"/>
<stop offset="0.6946" stop-color="#0D0C0C" stop-opacity="0.5223"/>
<stop offset="0.7703" stop-color="#1C1A1A" stop-opacity="0.6408"/>
<stop offset="0.8603" stop-color="#242223" stop-opacity="0.7815"/>
<stop offset="1" stop-color="#272425"/>
</linearGradient>
<linearGradient id="paint10_linear_9369_16692" x1="127.778" y1="211.274" x2="-62.8615" y2="244.146" gradientUnits="userSpaceOnUse">
<stop offset="0.1905" stop-opacity="0"/>
<stop offset="0.669" stop-color="#060606" stop-opacity="0.57"/>
<stop offset="0.6946" stop-color="#0D0C0C" stop-opacity="0.6032"/>
<stop offset="0.7703" stop-color="#1C1A1A" stop-opacity="0.7016"/>
<stop offset="0.8603" stop-color="#242223" stop-opacity="0.8185"/>
<stop offset="1" stop-color="#272425"/>
</linearGradient>
<linearGradient id="paint11_linear_9369_16692" x1="123.474" y1="-84.1228" x2="-39.3107" y2="88.8667" gradientUnits="userSpaceOnUse">
<stop stop-color="white"/>
<stop offset="1" stop-color="white" stop-opacity="0"/>
</linearGradient>
<linearGradient id="paint12_linear_9369_16692" x1="289.969" y1="-55.325" x2="127.184" y2="117.664" gradientUnits="userSpaceOnUse">
<stop stop-color="white"/>
<stop offset="1" stop-color="white" stop-opacity="0"/>
</linearGradient>
<linearGradient id="paint13_linear_9369_16692" x1="275.009" y1="-109.826" x2="109.718" y2="60.7707" gradientUnits="userSpaceOnUse">
<stop stop-color="white"/>
<stop offset="1" stop-color="white" stop-opacity="0"/>
</linearGradient>
<linearGradient id="paint14_linear_9369_16692" x1="111.865" y1="50.1446" x2="-50.9194" y2="223.134" gradientUnits="userSpaceOnUse">
<stop stop-color="white"/>
<stop offset="1" stop-color="white" stop-opacity="0"/>
</linearGradient>
<linearGradient id="paint15_linear_9369_16692" x1="229.746" y1="157.299" x2="66.9615" y2="330.288" gradientUnits="userSpaceOnUse">
<stop stop-color="white"/>
<stop offset="1" stop-color="white" stop-opacity="0"/>
</linearGradient>
<linearGradient id="paint16_linear_9369_16692" x1="282.309" y1="35.4471" x2="119.525" y2="208.437" gradientUnits="userSpaceOnUse">
<stop stop-color="white" stop-opacity="0"/>
<stop offset="1" stop-color="white"/>
</linearGradient>
<clipPath id="clip0_9369_16692">
<rect width="1769" height="302" rx="10" fill="white"/>
</clipPath>
<clipPath id="clip1_9369_16692">
<rect width="560" height="521" fill="white" transform="translate(1335 -134)"/>
</clipPath>
<clipPath id="clip2_9369_16692">
<rect width="446" height="415" fill="white" transform="translate(-126 -81)"/>
</clipPath>
</defs>
</svg>
