<svg id="Layer_1" data-name="Layer 1" xmlns="http://www.w3.org/2000/svg" viewBox="0 0 1024 1024"><defs><style>.cls-1{fill:#ede7a4;}</style></defs><title>bar-2</title><path class="cls-1" d="M862.32,150.91a21.62,21.62,0,0,1,21.55-21.56h118.57A21.62,21.62,0,0,1,1024,150.91V894.65H862.32Z"/><path class="cls-1" d="M668.29,280.25a21.62,21.62,0,0,0-21.55,21.56V894.65H808.42V301.81a21.62,21.62,0,0,0-21.56-21.56Z"/><path class="cls-1" d="M431.16,452.72a21.62,21.62,0,0,1,21.56-21.56H571.28a21.62,21.62,0,0,1,21.56,21.56V894.65H431.16Z"/><path class="cls-1" d="M237.14,582.06a21.62,21.62,0,0,0-21.56,21.56v291H377.26v-291a21.62,21.62,0,0,0-21.55-21.56Z"/><path class="cls-1" d="M0,754.53A21.62,21.62,0,0,1,21.56,733H140.13a21.62,21.62,0,0,1,21.55,21.56V894.65H0Z"/></svg>