<svg id="Layer_1" data-name="Layer 1" xmlns="http://www.w3.org/2000/svg" viewBox="0 0 1024 1024"><defs><style>.cls-1{fill:#a82f0b;}.cls-2{fill:#c6674a;}.cls-3{fill:#eab19b;}</style></defs><title>bar_step-3</title><path class="cls-1" d="M862.32,150.91a21.62,21.62,0,0,1,21.55-21.56h118.57A21.62,21.62,0,0,1,1024,150.91v97H862.32Z"/><rect class="cls-2" x="862.32" y="247.92" width="161.68" height="312.59"/><rect class="cls-3" x="862.32" y="560.51" width="161.68" height="334.15"/><rect class="cls-3" x="646.74" y="625.18" width="161.68" height="269.47"/><rect class="cls-3" x="431.16" y="689.85" width="161.68" height="204.8"/><rect class="cls-3" x="215.58" y="786.86" width="161.68" height="107.79"/><rect class="cls-2" x="646.74" y="452.72" width="161.68" height="172.46"/><rect class="cls-2" x="431.16" y="549.73" width="161.68" height="140.13"/><rect class="cls-2" x="215.58" y="646.74" width="161.68" height="140.13"/><rect class="cls-2" y="829.98" width="161.68" height="64.67"/><path class="cls-1" d="M646.74,301.81a21.62,21.62,0,0,1,21.55-21.56H786.86a21.62,21.62,0,0,1,21.56,21.56V452.72H646.74Z"/><path class="cls-1" d="M431.16,452.72a21.62,21.62,0,0,1,21.56-21.56H571.28a21.62,21.62,0,0,1,21.56,21.56v97H431.16Z"/><path class="cls-1" d="M215.58,603.62a21.62,21.62,0,0,1,21.56-21.56H355.71a21.62,21.62,0,0,1,21.55,21.56v43.12H215.58Z"/><path class="cls-1" d="M0,754.53A21.62,21.62,0,0,1,21.56,733H140.13a21.62,21.62,0,0,1,21.55,21.56V830H0Z"/></svg>