<svg version="1.1" id="Layer_1" xmlns="http://www.w3.org/2000/svg" xmlns:xlink="http://www.w3.org/1999/xlink" x="0px" y="0px"
	 viewBox="0 0 129 130" style="enable-background:new 0 0 129 130;" xml:space="preserve">
<style type="text/css">
	.st0{clip-path:url(#SVGID_2_);}
	.st1{fill:#EBEBEB;}
	.st2{fill:#DBDBDB;}
	.st3{fill:#263238;}
	.st4{fill:#FFFFFF;}
	.st5{fill:url(#SVGID_3_);}
	.st6{fill:url(#SVGID_4_);}
	.st7{fill:url(#SVGID_5_);}
	.st8{fill:#1A73E8;}
	.st9{fill:#4399FF;}
	.st10{fill:#7F7F7F;}
	.st11{fill:#C7C7C7;}
	.st12{fill:#A9A9A9;}
	.st13{fill:#989898;}
	.st14{opacity:0.2;enable-background:new    ;}
	.st15{opacity:0.1;enable-background:new    ;}
	.st16{clip-path:url(#SVGID_7_);}
	.st17{fill:#5C69A5;}
	.st18{fill:#F48462;}
	.st19{fill:#1980FF;}
	.st20{fill:#35456D;}
	.st21{fill:#363A41;}
	.st22{fill:#40507F;}
	.st23{clip-path:url(#SVGID_9_);}
	.st24{fill:#7A7A7A;}
	.st25{opacity:0.3;enable-background:new    ;}
	.st26{fill:#898989;}
</style>
<g>
	<defs>
		<rect id="SVGID_1_" width="129" height="130"/>
	</defs>
	<clipPath id="SVGID_2_">
		<use xlink:href="#SVGID_1_"  style="overflow:visible;"/>
	</clipPath>
	<g class="st0">
		<path class="st1" d="M12.8,86l-4,0.1l-2,0c-0.7,0-1.4,0-2,0H4.7V86l0-3.4v-0.2h0.2l4,0c1.3,0,2.7,0,4,0.1h0.1v0.1
			c0,0.6,0,1.1,0,1.7L12.8,86z M12.8,86l0-1.7c0-0.6,0-1.1,0-1.7l0.1,0.1c-1.3,0-2.7,0.1-4,0.1l-4,0L5,82.7L5,86l-0.1-0.1
			c0.7,0,1.3,0,2,0l2,0L12.8,86z"/>
		<path class="st1" d="M8.4,90.2l-4,0.1l-2,0c-0.7,0-1.4,0-2,0H0.3v-0.1l0-3.4v-0.2h0.2l4,0c1.3,0,2.7,0,4,0.1h0.1v0.1
			c0,0.6,0,1.1,0,1.7L8.4,90.2z M8.4,90.2l0-1.7c0-0.6,0-1.1,0-1.7L8.4,87c-1.3,0-2.7,0.1-4,0.1l-4,0l0.2-0.2l0,3.4l-0.1-0.1
			c0.7,0,1.3,0,2,0l2,0L8.4,90.2z"/>
		<path class="st1" d="M110.7,48.6l-4,0.1l-2,0c-0.7,0-1.4,0-2,0h-0.1v-0.1l0-3.4v-0.2h0.2l4,0c1.3,0,2.7,0,4,0.1h0.1v0.1
			c0,0.6,0,1.1,0,1.7L110.7,48.6z M110.7,48.6l0-1.7c0-0.6,0-1.1,0-1.7l0.1,0.1c-1.3,0-2.7,0.1-4,0.1l-4,0l0.2-0.2l0,3.4l-0.1-0.1
			c0.7,0,1.3,0,2,0l2,0L110.7,48.6z"/>
		<path class="st1" d="M106.3,52.8l-4,0.1l-2,0c-0.7,0-1.4,0-2,0h-0.1v-0.1l0-3.4v-0.2h0.2l4,0c1.3,0,2.7,0,4,0.1h0.1v0.1
			c0,0.6,0,1.1,0,1.7L106.3,52.8z M106.3,52.8l0-1.7c0-0.6,0-1.1,0-1.7l0.1,0.1c-1.3,0-2.7,0.1-4,0.1l-4,0l0.2-0.2l0,3.4l-0.1-0.1
			c0.7,0,1.3,0,2,0l2,0L106.3,52.8z"/>
		<path class="st1" d="M101.8,48.6l-4,0.1l-2,0c-0.7,0-1.4,0-2,0h-0.1v-0.1l0-3.4v-0.2h0.2l4,0c1.3,0,2.7,0,4,0.1h0.1v0.1
			c0,0.6,0,1.1,0,1.7L101.8,48.6z M101.8,48.6l0-1.7c0-0.6,0-1.1,0-1.7l0.1,0.1c-1.3,0-2.7,0.1-4,0.1l-4,0l0.2-0.2l0,3.4l-0.1-0.1
			c0.7,0,1.3,0,2,0l2,0L101.8,48.6z"/>
		<path class="st1" d="M126.5,90.2l-4,0.1l-2,0c-0.7,0-1.4,0-2,0h-0.1v-0.1l0-3.4v-0.2h0.2l4,0c1.3,0,2.7,0,4,0.1h0.1v0.1
			c0,0.6,0,1.1,0,1.7L126.5,90.2z M126.5,90.2l0-1.7c0-0.6,0-1.1,0-1.7l0.1,0.1c-1.3,0-2.7,0.1-4,0.1l-4,0l0.2-0.2l0,3.4l-0.1-0.1
			c0.7,0,1.3,0,2,0l2,0L126.5,90.2z"/>
		<path class="st1" d="M122,8l-4,0.1l-2,0c-0.7,0-1.4,0-2,0h-0.1V8.1l0-3.4V4.6h0.2l4,0c1.3,0,2.7,0,4,0.1h0.1v0.1
			c0,0.6,0,1.1,0,1.7L122,8z M122,8l0-1.7c0-0.6,0-1.1,0-1.7l0.1,0.1c-1.3,0-2.7,0.1-4,0.1l-4,0l0.2-0.2l0,3.4L114,8
			c0.7,0,1.3,0,2,0l2,0L122,8z"/>
		<path class="st1" d="M126.5,12.3l-4,0.1l-2,0c-0.7,0-1.4,0-2,0h-0.1v-0.1l0-3.4V8.8h0.2l4,0c1.3,0,2.7,0,4,0.1h0.1V9
			c0,0.6,0,1.1,0,1.7L126.5,12.3z M126.5,12.3l0-1.7c0-0.6,0-1.1,0-1.7l0.1,0.1c-1.3,0-2.7,0.1-4,0.1l-4,0l0.2-0.2l0,3.4l-0.1-0.1
			c0.7,0,1.3,0,2,0l2,0L126.5,12.3z"/>
		<path class="st1" d="M12.8,8l-4,0.1l-2,0c-0.7,0-1.4,0-2,0H4.7V8.1l0-3.4V4.6h0.2l4,0c1.3,0,2.7,0,4,0.1h0.1v0.1
			c0,0.6,0,1.1,0,1.7L12.8,8z M12.8,8l0-1.7c0-0.6,0-1.1,0-1.7l0.1,0.1c-1.3,0-2.7,0.1-4,0.1l-4,0L5,4.7l0,3.4L4.9,8
			c0.7,0,1.3,0,2,0l2,0L12.8,8z"/>
		<path class="st2" d="M17.7,28.9H3.1v18.6h14.7V28.9z"/>
		<path class="st1" d="M65.4,130c35.1,0,63.6-2.1,63.6-4.7c0-2.6-28.5-4.7-63.6-4.7c-35.1,0-63.6,2.1-63.6,4.7
			C1.9,127.9,30.3,130,65.4,130z"/>
		<path class="st3" d="M0.4,120.6l15.8-0.1l15.7,0l31.5-0.1l31.5,0.1l15.7,0l15.8,0.1l-15.8,0.1H94.9l-31.5,0.1l-31.5-0.1H16.2
			L0.4,120.6z"/>
		<path class="st3" d="M74.8,5.6H23.7c-2.8,0-5.2,2.3-5.2,5.2v104.5c0,2.9,2.3,5.2,5.2,5.2h51.1c2.8,0,5.2-2.3,5.2-5.2V10.8
			C80,8,77.7,5.6,74.8,5.6z M76.8,112.1c0,2.8-2.1,5-4.6,5H26.4c-2.6,0-4.6-2.2-4.6-5V14.8c0-5.6,2.1-5.9,4.6-5.9h9.2
			c0.5,0,1,0.6,1,1.4v0.3c0,1.7,1,1.7,2.1,1.7h21.2c1.2,0,2.1,0,2.1-1.7v-0.3c0-0.8,0.4-1.4,1-1.4h9.2c2.6,0,4.6,0.8,4.6,5.9V112.1z
			"/>
		<path class="st4" d="M76.8,14.8v97.3c0,2.8-2.1,5-4.6,5H26.4c-2.6,0-4.6-2.2-4.6-5V14.8c0-5.6,2.1-5.9,4.6-5.9h9.2
			c0.5,0,1,0.6,1,1.4v0.3c0,1.7,1,1.7,2.1,1.7h21.2c1.2,0,2.1,0,2.1-1.7v-0.3c0-0.8,0.4-1.4,1-1.4h9.2C74.7,8.9,76.8,9.7,76.8,14.8z
			"/>
		<path class="st2" d="M34,11.1C34,11.1,34,11.2,34,11.1c-0.1,0.1-0.1,0.1-0.2,0.2c-0.2-0.2-0.5-0.4-0.8-0.4c-0.3,0-0.6,0.1-0.8,0.4
			c0,0,0,0-0.1-0.1c0,0-0.1-0.1-0.1-0.1c0,0,0.1-0.1,0.1-0.1c0.1-0.1,0.2-0.1,0.3-0.2c0.1-0.1,0.2-0.1,0.3-0.1c0.1,0,0.1,0,0.2,0
			c0,0,0.2,0,0.2,0c0,0,0.1,0,0.1,0c0.1,0,0.2,0,0.3,0.1c0.1,0,0.2,0.1,0.2,0.1C33.8,10.9,33.9,11,34,11.1C34,11.1,34,11.1,34,11.1z
			"/>
		<path class="st2" d="M32.4,11.5c-0.1-0.1-0.1-0.1-0.2-0.2c0.2-0.2,0.3-0.2,0.6-0.3c0.3,0,0.6,0.1,0.8,0.3
			c-0.1,0.1-0.1,0.1-0.2,0.2c-0.2-0.2-0.4-0.2-0.6-0.2C32.8,11.3,32.6,11.4,32.4,11.5z"/>
		<path class="st2" d="M33.4,11.7c-0.1,0.1-0.1,0.1-0.2,0.2c-0.1-0.1-0.2-0.1-0.3-0.1c-0.1,0-0.2,0-0.3,0.1
			c-0.1-0.1-0.1-0.1-0.2-0.2C32.8,11.4,33.2,11.4,33.4,11.7z"/>
		<path class="st2" d="M33.1,11.9c0,0.1-0.1,0.1-0.1,0.1c-0.1,0-0.1-0.1-0.1-0.1c0-0.1,0.1-0.1,0.1-0.1
			C33.1,11.8,33.1,11.9,33.1,11.9z"/>
		<path class="st2" d="M25.4,11.4c0-0.2,0.2-0.4,0.4-0.4s0.4,0.2,0.4,0.4c0,0.2-0.2,0.4-0.4,0.4C25.6,11.7,25.4,11.6,25.4,11.4z"/>
		<path class="st2" d="M26.5,11.4c0-0.2,0.2-0.4,0.4-0.4c0.2,0,0.4,0.2,0.4,0.4c0,0.2-0.2,0.4-0.4,0.4
			C26.7,11.7,26.5,11.6,26.5,11.4z"/>
		<path class="st2" d="M27.7,11.4c0-0.2,0.2-0.4,0.4-0.4s0.4,0.2,0.4,0.4c0,0.2-0.2,0.4-0.4,0.4S27.7,11.6,27.7,11.4z"/>
		<path class="st2" d="M28.8,11.4c0-0.2,0.2-0.4,0.4-0.4c0.2,0,0.4,0.2,0.4,0.4c0,0.2-0.2,0.4-0.4,0.4C29,11.7,28.8,11.6,28.8,11.4z
			"/>
		<path class="st2" d="M30,11.4c0-0.2,0.2-0.4,0.4-0.4c0.2,0,0.4,0.2,0.4,0.4c0,0.2-0.2,0.4-0.4,0.4C30.2,11.7,30,11.6,30,11.4z"/>
		<path class="st2" d="M72.6,12.2h-3v-1.4h3V12.2z M69.8,12h2.7V11h-2.7V12z"/>
		<path class="st2" d="M71.8,11h-1.9v0.9h1.9V11z"/>
		<path class="st2" d="M72.9,11.1h-0.3v0.7h0.3V11.1z"/>
		<path class="st4" d="M52.2,10.2h-5.8c-0.2,0-0.4-0.2-0.4-0.4c0-0.2,0.2-0.4,0.4-0.4h5.8c0.2,0,0.4,0.2,0.4,0.4
			C52.5,10,52.4,10.2,52.2,10.2z"/>
		<g id="new">
			
				<linearGradient id="SVGID_3_" gradientUnits="userSpaceOnUse" x1="36.0329" y1="68.6678" x2="63.746" y2="68.6678" gradientTransform="matrix(1 0 0 -1 0 132)">
				<stop  offset="0" style="stop-color:#D93025"/>
				<stop  offset="1" style="stop-color:#EA4335"/>
			</linearGradient>
			<path class="st5" d="M63.7,58.7c-4.4-7.7-14.2-10.3-21.9-5.9c-2.4,1.4-4.5,3.4-5.9,5.9L37,76L63.7,58.7z"/>
			
				<linearGradient id="SVGID_4_" gradientUnits="userSpaceOnUse" x1="55.7718" y1="52.7002" x2="41.9152" y2="76.7012" gradientTransform="matrix(1 0 0 -1 0 132)">
				<stop  offset="0" style="stop-color:#1E8E3E"/>
				<stop  offset="1" style="stop-color:#34A853"/>
			</linearGradient>
			<path class="st6" d="M43,70.7l-6.9-12c-4.4,7.7-1.8,17.4,5.9,21.9c2.4,1.4,5.2,2.1,8,2.1l15.7-16L43,70.7z"/>
			
				<linearGradient id="SVGID_5_" gradientUnits="userSpaceOnUse" x1="47.5645" y1="49.3014" x2="61.421" y2="73.2608" gradientTransform="matrix(1 0 0 -1 0 132)">
				<stop  offset="0" style="stop-color:#FCC934"/>
				<stop  offset="1" style="stop-color:#FBBC04"/>
			</linearGradient>
			<path class="st7" d="M56.8,70.7l-6.9,12c8.8,0,16-7.2,16-16c0-2.8-0.7-5.6-2.1-8H49.9L56.8,70.7z"/>
			<path class="st4" d="M49.9,74.7c4.4,0,8-3.6,8-8s-3.6-8-8-8s-8,3.6-8,8S45.5,74.7,49.9,74.7z"/>
			<path class="st8" d="M49.9,73c3.5,0,6.3-2.8,6.3-6.3c0-3.5-2.8-6.3-6.3-6.3c0,0,0,0,0,0c-3.5,0-6.3,2.8-6.3,6.3
				C43.6,70.2,46.4,73,49.9,73z"/>
		</g>
		<path class="st9" d="M49.7,87.9c-0.2,0-0.3,0-0.5,0v-0.3c0.3,0,0.6,0,0.9,0v0.3C50,87.9,49.9,87.9,49.7,87.9z M48.4,87.8
			c-0.3,0-0.6,0-0.9-0.1l0-0.3c0.3,0,0.6,0.1,0.9,0.1L48.4,87.8z M51.1,87.8l0-0.3c0.3,0,0.6,0,0.9-0.1l0,0.3
			C51.7,87.8,51.4,87.8,51.1,87.8z M46.6,87.6c-0.3-0.1-0.6-0.1-0.9-0.2l0.1-0.3c0.3,0.1,0.6,0.1,0.9,0.2L46.6,87.6z M52.9,87.6
			l0-0.3c0.3,0,0.6-0.1,0.9-0.2l0.1,0.3C53.5,87.5,53.2,87.6,52.9,87.6z M44.7,87.3c-0.3-0.1-0.6-0.2-0.9-0.2l0.1-0.3
			c0.3,0.1,0.6,0.2,0.9,0.2L44.7,87.3z M54.7,87.3L54.7,87c0.3-0.1,0.6-0.2,0.9-0.2l0.1,0.3C55.3,87.1,55,87.2,54.7,87.3z M43,86.8
			c-0.3-0.1-0.6-0.2-0.9-0.3l0.1-0.3c0.3,0.1,0.6,0.2,0.8,0.3L43,86.8z M56.5,86.8l-0.1-0.3c0.3-0.1,0.6-0.2,0.8-0.3l0.1,0.3
			C57,86.6,56.8,86.7,56.5,86.8z M41.3,86.2c-0.3-0.1-0.5-0.2-0.8-0.4l0.1-0.3c0.3,0.1,0.5,0.2,0.8,0.4L41.3,86.2z M58.2,86.1
			L58,85.9c0.3-0.1,0.5-0.2,0.8-0.4l0.1,0.3C58.7,85.9,58.5,86,58.2,86.1z M39.6,85.3c-0.3-0.2-0.5-0.3-0.8-0.5l0.2-0.3
			c0.3,0.2,0.5,0.3,0.8,0.5L39.6,85.3z M59.8,85.3l-0.2-0.3c0.3-0.2,0.5-0.3,0.8-0.5l0.2,0.3C60.3,85,60.1,85.2,59.8,85.3z
			 M38.1,84.4c-0.2-0.2-0.5-0.3-0.8-0.5l0.2-0.2c0.2,0.2,0.5,0.3,0.8,0.5L38.1,84.4z M61.4,84.4l-0.2-0.2c0.2-0.2,0.5-0.3,0.8-0.5
			l0.2,0.2C61.9,84.1,61.6,84.2,61.4,84.4z M62.8,83.4l-0.2-0.2c0.2-0.2,0.5-0.4,0.7-0.6l0.2,0.2C63.3,83,63.1,83.2,62.8,83.4z
			 M36.6,83.4c-0.2-0.2-0.5-0.4-0.7-0.6l0.2-0.2c0.2,0.2,0.5,0.4,0.7,0.6L36.6,83.4z M64.2,82.2L64,82c0.2-0.2,0.4-0.4,0.6-0.6
			l0.2,0.2C64.7,81.7,64.5,82,64.2,82.2z M35.2,82.2c-0.2-0.2-0.5-0.4-0.7-0.6l0.2-0.2c0.2,0.2,0.4,0.4,0.6,0.6L35.2,82.2z
			 M65.5,80.9l-0.2-0.2c0.2-0.2,0.4-0.5,0.6-0.7l0.2,0.2C65.9,80.4,65.7,80.7,65.5,80.9z M33.9,80.9c-0.2-0.2-0.4-0.5-0.6-0.7
			l0.2-0.2c0.2,0.2,0.4,0.5,0.6,0.7L33.9,80.9z M66.7,79.5l-0.2-0.2c0.2-0.2,0.4-0.5,0.5-0.7l0.2,0.2C67,79,66.9,79.2,66.7,79.5z
			 M32.7,79.5c-0.2-0.2-0.4-0.5-0.5-0.7l0.2-0.2c0.2,0.2,0.3,0.5,0.5,0.7L32.7,79.5z M31.7,78c-0.2-0.3-0.3-0.5-0.5-0.8l0.3-0.2
			c0.2,0.3,0.3,0.5,0.5,0.8L31.7,78z M67.7,78l-0.2-0.2c0.2-0.2,0.3-0.5,0.5-0.8l0.3,0.2C68,77.4,67.9,77.7,67.7,78z M30.8,76.4
			c-0.2-0.3-0.3-0.5-0.4-0.8l0.3-0.1c0.1,0.3,0.2,0.5,0.4,0.8L30.8,76.4z M68.6,76.4l-0.3-0.2c0.2-0.3,0.3-0.5,0.4-0.8l0.3,0.1
			C68.9,75.9,68.8,76.1,68.6,76.4z M30.1,74.7c-0.1-0.3-0.2-0.6-0.3-0.8l0.3-0.1c0.1,0.3,0.2,0.6,0.3,0.8L30.1,74.7z M69.4,74.7
			l-0.3-0.1c0.1-0.3,0.2-0.6,0.3-0.8l0.3,0.1C69.6,74.2,69.5,74.5,69.4,74.7z M29.4,73.1c-0.1-0.3-0.2-0.6-0.2-0.9l0.3-0.1
			c0.1,0.3,0.2,0.6,0.2,0.9L29.4,73.1z M70,73l-0.3-0.1c0.1-0.3,0.2-0.6,0.2-0.9l0.3,0.1C70.2,72.5,70.1,72.7,70,73z M29,71.3
			c-0.1-0.3-0.1-0.6-0.2-0.9l0.3-0.1c0.1,0.3,0.1,0.6,0.2,0.9L29,71.3z M70.5,71.3l-0.3-0.1c0.1-0.3,0.1-0.6,0.2-0.9l0.3,0.1
			C70.6,70.7,70.5,71,70.5,71.3z M28.7,69.5c0-0.3-0.1-0.6-0.1-0.9l0.3,0c0,0.3,0.1,0.6,0.1,0.9L28.7,69.5z M70.8,69.5l-0.3,0
			c0-0.3,0.1-0.6,0.1-0.9l0.3,0C70.8,68.9,70.8,69.2,70.8,69.5z M28.5,67.7c0-0.3,0-0.6,0-0.9h0.3c0,0.3,0,0.6,0,0.9H28.5z
			 M70.9,67.7h-0.3c0-0.3,0-0.6,0-0.9v0H71v0C71,67.1,70.9,67.4,70.9,67.7z M28.8,65.9h-0.3c0-0.3,0-0.6,0.1-0.9l0.3,0
			C28.8,65.3,28.8,65.6,28.8,65.9z M70.6,65.8c0-0.3,0-0.6-0.1-0.9l0.3,0c0,0.3,0.1,0.6,0.1,0.9L70.6,65.8z M28.9,64.1l-0.3,0
			c0-0.3,0.1-0.6,0.1-0.9l0.3,0.1C29,63.5,29,63.8,28.9,64.1z M70.5,64.1c0-0.3-0.1-0.6-0.1-0.9l0.3-0.1c0.1,0.3,0.1,0.6,0.2,0.9
			L70.5,64.1z M29.3,62.3L29,62.3c0.1-0.3,0.1-0.6,0.2-0.9l0.3,0.1C29.4,61.8,29.3,62,29.3,62.3z M70.1,62.3
			c-0.1-0.3-0.1-0.6-0.2-0.9l0.3-0.1c0.1,0.3,0.2,0.6,0.2,0.9L70.1,62.3z M29.7,60.6l-0.3-0.1c0.1-0.3,0.2-0.6,0.3-0.9l0.3,0.1
			C29.9,60,29.8,60.3,29.7,60.6z M69.7,60.5c-0.1-0.3-0.2-0.6-0.3-0.8l0.3-0.1c0.1,0.3,0.2,0.6,0.3,0.9L69.7,60.5z M30.3,58.9
			l-0.3-0.1c0.1-0.3,0.2-0.6,0.4-0.8l0.3,0.1C30.5,58.4,30.5,58.6,30.3,58.9z M69.1,58.9c-0.1-0.3-0.2-0.5-0.4-0.8l0.3-0.1
			c0.1,0.3,0.2,0.5,0.4,0.8L69.1,58.9z M31.1,57.3l-0.3-0.2c0.2-0.3,0.3-0.5,0.4-0.8l0.3,0.2C31.4,56.8,31.2,57,31.1,57.3z
			 M68.3,57.2c-0.2-0.3-0.3-0.5-0.4-0.8l0.3-0.2c0.2,0.3,0.3,0.5,0.4,0.8L68.3,57.2z M32,55.7l-0.2-0.2c0.2-0.3,0.3-0.5,0.5-0.8
			l0.2,0.2C32.3,55.2,32.1,55.5,32,55.7z M67.5,55.7c-0.2-0.2-0.3-0.5-0.5-0.8l0.2-0.2c0.2,0.2,0.3,0.5,0.5,0.8L67.5,55.7z M33,54.3
			l-0.2-0.2c0.2-0.2,0.4-0.5,0.6-0.7l0.2,0.2C33.4,53.8,33.2,54,33,54.3z M66.4,54.2c-0.2-0.2-0.4-0.5-0.5-0.7l0.2-0.2
			c0.2,0.2,0.4,0.5,0.6,0.7L66.4,54.2z M34.1,52.9l-0.2-0.2c0.2-0.2,0.4-0.5,0.6-0.7l0.2,0.2C34.5,52.4,34.3,52.6,34.1,52.9z
			 M65.3,52.9c-0.2-0.2-0.4-0.5-0.6-0.7l0.2-0.2c0.2,0.2,0.4,0.5,0.6,0.7L65.3,52.9z M35.4,51.6l-0.2-0.2c0.2-0.2,0.5-0.4,0.7-0.6
			L36,51C35.8,51.2,35.6,51.4,35.4,51.6z M64,51.6c-0.2-0.2-0.5-0.4-0.7-0.6l0.2-0.2c0.2,0.2,0.5,0.4,0.7,0.6L64,51.6z M36.8,50.4
			l-0.2-0.2c0.2-0.2,0.5-0.4,0.7-0.5l0.2,0.2C37.2,50.1,37,50.2,36.8,50.4z M62.7,50.4c-0.2-0.2-0.5-0.4-0.7-0.5l0.2-0.2
			c0.2,0.2,0.5,0.4,0.7,0.5L62.7,50.4z M38.2,49.4L38,49.1c0.2-0.2,0.5-0.3,0.8-0.5l0.2,0.3C38.7,49.1,38.5,49.2,38.2,49.4z
			 M61.2,49.4c-0.2-0.2-0.5-0.3-0.8-0.5l0.2-0.3c0.3,0.2,0.5,0.3,0.8,0.5L61.2,49.4z M39.8,48.5l-0.2-0.3c0.3-0.2,0.5-0.3,0.8-0.4
			l0.1,0.3C40.3,48.2,40,48.3,39.8,48.5z M59.6,48.4c-0.3-0.2-0.5-0.3-0.8-0.4l0.1-0.3c0.3,0.1,0.5,0.3,0.8,0.4L59.6,48.4z
			 M41.4,47.7l-0.1-0.3c0.3-0.1,0.6-0.2,0.8-0.3l0.1,0.3C41.9,47.4,41.7,47.6,41.4,47.7z M58,47.7c-0.3-0.1-0.5-0.2-0.8-0.3l0.1-0.3
			c0.3,0.1,0.6,0.2,0.8,0.3L58,47.7z M43.1,47L43,46.8c0.3-0.1,0.6-0.2,0.9-0.3l0.1,0.3C43.6,46.8,43.3,46.9,43.1,47z M56.3,47
			c-0.3-0.1-0.6-0.2-0.8-0.3l0.1-0.3c0.3,0.1,0.6,0.2,0.9,0.3L56.3,47z M44.8,46.5l-0.1-0.3c0.3-0.1,0.6-0.2,0.9-0.2l0.1,0.3
			C45.4,46.4,45.1,46.5,44.8,46.5z M54.6,46.5c-0.3-0.1-0.6-0.1-0.9-0.2l0.1-0.3c0.3,0.1,0.6,0.1,0.9,0.2L54.6,46.5z M46.6,46.2
			l-0.1-0.3c0.3-0.1,0.6-0.1,0.9-0.1l0,0.3C47.1,46.1,46.9,46.2,46.6,46.2z M52.8,46.2c-0.3,0-0.6-0.1-0.9-0.1l0-0.3
			c0.3,0,0.6,0.1,0.9,0.1L52.8,46.2z M48.3,46l0-0.3c0.3,0,0.6,0,0.9,0V46C48.9,46,48.6,46,48.3,46z M51,46c-0.3,0-0.6,0-0.9,0v-0.3
			c0.3,0,0.6,0,0.9,0V46z"/>
		<path class="st3" d="M62.8,87.2l1.4,3.2L62.8,91l-1.4-3.2l-2.2,1.7v-9l6.4,6.4L62.8,87.2z"/>
		<path class="st3" d="M59.2,79.4c-0.1-0.2-0.1-0.3-0.1-0.5c0-0.2,0-0.3,0.1-0.5c0.1,0.2,0.1,0.3,0.1,0.5
			C59.3,79.1,59.3,79.3,59.2,79.4z"/>
		<path class="st3" d="M58.5,79.8c-0.2-0.1-0.3-0.2-0.4-0.3c-0.1-0.1-0.2-0.2-0.3-0.4c0.2,0.1,0.3,0.2,0.4,0.3
			C58.3,79.5,58.4,79.6,58.5,79.8z"/>
		<path class="st3" d="M58.1,80.5c-0.2,0.1-0.3,0.1-0.5,0.1s-0.3,0-0.5-0.1c0.2-0.1,0.3-0.1,0.5-0.1S58,80.5,58.1,80.5z"/>
		<path class="st3" d="M58.5,81.3c-0.1,0.2-0.2,0.3-0.3,0.4c-0.1,0.1-0.2,0.2-0.4,0.3c0.1-0.2,0.2-0.3,0.3-0.4
			C58.2,81.5,58.3,81.4,58.5,81.3z"/>
		<path class="st3" d="M60.4,80.5c0.2-0.1,0.3-0.1,0.5-0.1c0.2,0,0.3,0,0.5,0.1c-0.2,0.1-0.3,0.1-0.5,0.1
			C60.7,80.6,60.5,80.6,60.4,80.5z"/>
		<path class="st3" d="M60,79.8c0.1-0.2,0.2-0.3,0.3-0.4c0.1-0.1,0.2-0.2,0.4-0.3c-0.1,0.2-0.2,0.3-0.3,0.4
			C60.3,79.6,60.2,79.7,60,79.8z"/>
		<path class="st4" d="M69.3,32.5H29.2v3.8h40.1V32.5z"/>
		<path class="st4" d="M69.3,36.3H29.2v-3.9h40.2L69.3,36.3L69.3,36.3z"/>
		<path class="st2" d="M69.5,36.4H29.1v-4.1h40.4V36.4z M29.3,36.2h39.9v-3.7H29.3V36.2z"/>
		<path class="st10" d="M69.3,32.4h-3.9v3.9h3.9V32.4z"/>
		<path class="st4" d="M68.6,35.4l-0.4,0.3l-0.7-0.9l-0.2-0.3c0.1,0,0.1,0,0.2-0.1c0.1-0.1,0.2-0.2,0.2-0.2l0.2,0.3L68.6,35.4z"/>
		<path class="st4" d="M67.9,33.4c-0.3-0.4-0.9-0.5-1.4-0.2c-0.4,0.3-0.5,0.9-0.2,1.4c0.3,0.4,0.8,0.5,1.2,0.3
			c0.1,0,0.1-0.1,0.1-0.1c0.1-0.1,0.2-0.1,0.2-0.2C68.2,34.2,68.2,33.8,67.9,33.4z M67.5,34.4c0,0-0.1,0.1-0.2,0.1
			c-0.2,0.1-0.5,0-0.7-0.2c-0.2-0.2-0.2-0.6,0.1-0.8c0.2-0.2,0.6-0.2,0.8,0.1c0.1,0.2,0.2,0.4,0.1,0.6
			C67.6,34.3,67.6,34.4,67.5,34.4z"/>
		<path class="st11" d="M30.3,33.2h-0.2v2.3h0.2V33.2z"/>
		<path class="st1" d="M32.4,18.1H4.8v27.4h27.6V18.1z"/>
		<path class="st1" d="M87.7,96.1H60.1v27.4h27.6V96.1z"/>
		<path class="st12" d="M73.9,120.2c5.7,0,10.4-4.6,10.4-10.3c0-5.7-4.6-10.3-10.4-10.3c-5.7,0-10.4,4.6-10.4,10.3
			C63.6,115.5,68.2,120.2,73.9,120.2z"/>
		<path class="st4" d="M73.9,102.2c0-0.3,0-0.6,0-0.9c0-0.3,0-0.6,0-0.9c0,0.3,0,0.6,0,0.9C74,101.6,74,101.9,73.9,102.2z"/>
		<path class="st4" d="M70.1,103.2c-0.2-0.2-0.3-0.5-0.5-0.8c-0.2-0.3-0.3-0.5-0.4-0.8c0.2,0.2,0.3,0.5,0.5,0.8
			C69.8,102.7,70,102.9,70.1,103.2z"/>
		<path class="st4" d="M67.3,106c-0.3-0.1-0.5-0.3-0.8-0.4c-0.3-0.2-0.5-0.3-0.8-0.5c0.3,0.1,0.5,0.3,0.8,0.4
			C66.8,105.7,67,105.9,67.3,106z"/>
		<path class="st4" d="M66.3,109.8c-0.3,0-0.6,0-0.9,0s-0.6,0-0.9,0c0.3,0,0.6,0,0.9,0S66,109.8,66.3,109.8z"/>
		<path class="st4" d="M67.3,113.7c-0.2,0.2-0.5,0.3-0.8,0.5c-0.3,0.2-0.5,0.3-0.8,0.4c0.2-0.2,0.5-0.3,0.8-0.5
			C66.7,113.9,67,113.8,67.3,113.7z"/>
		<path class="st4" d="M70.1,116.5c-0.1,0.3-0.3,0.5-0.4,0.8c-0.2,0.3-0.3,0.5-0.5,0.8c0.1-0.3,0.3-0.5,0.4-0.8
			C69.8,117,69.9,116.7,70.1,116.5z"/>
		<path class="st4" d="M73.9,117.5c0,0.3,0,0.6,0,0.9c0,0.3,0,0.6,0,0.9c0-0.3,0-0.6,0-0.9C73.9,118.1,73.9,117.8,73.9,117.5z"/>
		<path class="st4" d="M77.8,116.5c0.2,0.2,0.3,0.5,0.5,0.8c0.2,0.3,0.3,0.5,0.4,0.8c-0.2-0.2-0.3-0.5-0.5-0.8
			C78.1,117,77.9,116.7,77.8,116.5z"/>
		<path class="st4" d="M80.6,113.7c0.3,0.1,0.5,0.3,0.8,0.4c0.3,0.2,0.5,0.3,0.8,0.5c-0.3-0.1-0.5-0.3-0.8-0.4
			C81.1,114,80.8,113.8,80.6,113.7z"/>
		<path class="st4" d="M81.6,109.8c0.3,0,0.6,0,0.9,0c0.3,0,0.6,0,0.9,0c-0.3,0-0.6,0-0.9,0C82.2,109.9,81.9,109.9,81.6,109.8z"/>
		<path class="st4" d="M80.6,106c0.2-0.2,0.5-0.3,0.8-0.5c0.3-0.2,0.5-0.3,0.8-0.4c-0.2,0.2-0.5,0.3-0.8,0.5
			C81.1,105.8,80.9,105.9,80.6,106z"/>
		<path class="st4" d="M77.8,103.2c0.1-0.3,0.3-0.5,0.4-0.8c0.2-0.3,0.3-0.5,0.5-0.8c-0.1,0.3-0.3,0.5-0.4,0.8
			C78.1,102.7,77.9,103,77.8,103.2z"/>
		<path class="st4" d="M73.2,100.6c0.1,0.2,0.1,0.4,0.1,0.6c0,0.2,0,0.4,0,0.7c-0.1-0.2-0.1-0.4-0.1-0.6
			C73.2,101,73.1,100.8,73.2,100.6z"/>
		<path class="st4" d="M72.4,100.7c0.1,0.2,0.1,0.4,0.2,0.6c0,0.2,0.1,0.4,0.1,0.7c-0.1-0.2-0.1-0.4-0.2-0.6
			C72.4,101.1,72.4,100.9,72.4,100.7z"/>
		<path class="st4" d="M71.5,100.8c0.1,0.2,0.2,0.4,0.2,0.6c0.1,0.2,0.1,0.4,0.1,0.6c-0.1-0.2-0.2-0.4-0.2-0.6
			C71.6,101.3,71.6,101.1,71.5,100.8z"/>
		<path class="st4" d="M70.8,101.1c0.1,0.2,0.2,0.4,0.2,0.6c0.1,0.2,0.2,0.4,0.2,0.6c-0.1-0.2-0.2-0.4-0.2-0.6
			C70.9,101.5,70.8,101.3,70.8,101.1z"/>
		<path class="st4" d="M70,101.4c0.1,0.2,0.2,0.4,0.3,0.6c0.1,0.2,0.2,0.4,0.2,0.6c-0.1-0.2-0.2-0.4-0.3-0.6
			C70.1,101.8,70.1,101.6,70,101.4z"/>
		<path class="st4" d="M68.6,102.2c0.2,0.2,0.3,0.3,0.4,0.5c0.1,0.2,0.2,0.4,0.3,0.6c-0.2-0.2-0.3-0.3-0.4-0.5
			C68.8,102.6,68.7,102.4,68.6,102.2z"/>
		<path class="st4" d="M67.9,102.7c0.2,0.2,0.3,0.3,0.5,0.5c0.1,0.2,0.3,0.3,0.4,0.5c-0.2-0.2-0.3-0.3-0.5-0.5
			C68.2,103,68.1,102.9,67.9,102.7z"/>
		<path class="st4" d="M67.3,103.2c0.2,0.1,0.3,0.3,0.5,0.5c0.2,0.2,0.3,0.3,0.4,0.5c-0.2-0.1-0.3-0.3-0.5-0.5
			S67.5,103.4,67.3,103.2z"/>
		<path class="st4" d="M66.8,103.8c0.2,0.1,0.4,0.3,0.5,0.4c0.2,0.1,0.3,0.3,0.5,0.5c-0.2-0.1-0.4-0.3-0.5-0.4
			C67.1,104.1,66.9,104,66.8,103.8z"/>
		<path class="st4" d="M66.3,104.5c0.2,0.1,0.4,0.2,0.5,0.4c0.2,0.1,0.4,0.3,0.5,0.4c-0.2-0.1-0.4-0.2-0.5-0.4
			C66.6,104.7,66.4,104.6,66.3,104.5z"/>
		<path class="st4" d="M65.5,105.9c0.2,0.1,0.4,0.2,0.6,0.2c0.2,0.1,0.4,0.2,0.6,0.3c-0.2-0.1-0.4-0.2-0.6-0.2
			C65.8,106.1,65.6,106,65.5,105.9z"/>
		<path class="st4" d="M65.1,106.6c0.2,0.1,0.4,0.1,0.6,0.2c0.2,0.1,0.4,0.1,0.6,0.3c-0.2-0.1-0.4-0.1-0.6-0.2
			C65.5,106.8,65.3,106.7,65.1,106.6z"/>
		<path class="st4" d="M64.9,107.4c0.2,0,0.4,0.1,0.6,0.2c0.2,0.1,0.4,0.1,0.6,0.2c-0.2,0-0.4-0.1-0.6-0.2
			C65.3,107.5,65.1,107.5,64.9,107.4z"/>
		<path class="st4" d="M64.7,108.2c0.2,0,0.4,0.1,0.6,0.1s0.4,0.1,0.6,0.2c-0.2,0-0.4-0.1-0.7-0.1C65.1,108.3,64.9,108.3,64.7,108.2
			z"/>
		<path class="st4" d="M64.6,109c0.2,0,0.4,0,0.7,0c0.2,0,0.4,0.1,0.6,0.1c-0.2,0-0.4,0-0.7,0C65,109.1,64.8,109,64.6,109z"/>
		<path class="st4" d="M64.6,110.6c0.2-0.1,0.4-0.1,0.6-0.1c0.2,0,0.4,0,0.7,0c-0.2,0.1-0.4,0.1-0.6,0.1
			C65,110.6,64.8,110.6,64.6,110.6z"/>
		<path class="st4" d="M64.7,111.4c0.2-0.1,0.4-0.1,0.6-0.2c0.2,0,0.4-0.1,0.7-0.1c-0.2,0.1-0.4,0.1-0.6,0.2
			C65.1,111.4,64.9,111.4,64.7,111.4z"/>
		<path class="st4" d="M64.9,112.2c0.2-0.1,0.4-0.2,0.6-0.2s0.4-0.1,0.6-0.1c-0.2,0.1-0.4,0.2-0.6,0.2
			C65.3,112.1,65.1,112.2,64.9,112.2z"/>
		<path class="st4" d="M65.1,113c0.2-0.1,0.4-0.2,0.6-0.2c0.2-0.1,0.4-0.2,0.6-0.2c-0.2,0.1-0.4,0.2-0.6,0.2
			C65.5,112.9,65.3,112.9,65.1,113z"/>
		<path class="st4" d="M65.4,113.8c0.2-0.1,0.4-0.2,0.6-0.3c0.2-0.1,0.4-0.2,0.6-0.2c-0.2,0.1-0.4,0.2-0.6,0.3
			C65.8,113.6,65.6,113.7,65.4,113.8z"/>
		<path class="st4" d="M66.2,115.2c0.2-0.2,0.3-0.3,0.5-0.4c0.2-0.1,0.4-0.2,0.6-0.3c-0.2,0.2-0.3,0.3-0.5,0.4
			C66.6,114.9,66.4,115,66.2,115.2z"/>
		<path class="st4" d="M66.7,115.8c0.2-0.1,0.3-0.3,0.5-0.5c0.2-0.1,0.3-0.3,0.5-0.4c-0.2,0.2-0.3,0.3-0.5,0.4
			C67.1,115.6,66.9,115.7,66.7,115.8z"/>
		<path class="st4" d="M67.3,116.4c0.1-0.2,0.3-0.3,0.5-0.5s0.3-0.3,0.5-0.4c-0.1,0.2-0.3,0.3-0.5,0.5
			C67.6,116.1,67.5,116.3,67.3,116.4z"/>
		<path class="st4" d="M67.9,117c0.1-0.2,0.3-0.4,0.4-0.5c0.2-0.2,0.3-0.3,0.5-0.5c-0.1,0.2-0.3,0.4-0.4,0.5
			C68.2,116.6,68,116.8,67.9,117z"/>
		<path class="st4" d="M68.5,117.4c0.1-0.2,0.2-0.4,0.4-0.5c0.1-0.2,0.3-0.4,0.4-0.5c-0.1,0.2-0.2,0.4-0.4,0.5
			C68.8,117.1,68.7,117.3,68.5,117.4z"/>
		<path class="st4" d="M69.9,118.3c0.1-0.2,0.2-0.4,0.2-0.6c0.1-0.2,0.2-0.4,0.3-0.6c-0.1,0.2-0.2,0.4-0.2,0.6
			C70.1,117.9,70.1,118.1,69.9,118.3z"/>
		<path class="st4" d="M70.7,118.6c0.1-0.2,0.1-0.4,0.2-0.6c0.1-0.2,0.2-0.4,0.3-0.6c-0.1,0.2-0.1,0.4-0.2,0.6
			C70.9,118.2,70.8,118.4,70.7,118.6z"/>
		<path class="st4" d="M71.5,118.8c0-0.2,0.1-0.4,0.2-0.6s0.1-0.4,0.2-0.6c0,0.2-0.1,0.4-0.2,0.6C71.6,118.4,71.6,118.6,71.5,118.8z
			"/>
		<path class="st4" d="M72.3,119c0-0.2,0.1-0.4,0.1-0.7c0-0.2,0.1-0.4,0.2-0.6c0,0.2-0.1,0.4-0.1,0.7
			C72.4,118.6,72.3,118.8,72.3,119z"/>
		<path class="st4" d="M73.1,119.1c0-0.2,0-0.4,0-0.7c0-0.2,0.1-0.4,0.1-0.6c0,0.2,0,0.4,0,0.7C73.1,118.7,73.1,118.9,73.1,119.1z"
			/>
		<path class="st4" d="M74.7,119.1c-0.1-0.2-0.1-0.4-0.1-0.6c0-0.2,0-0.4,0-0.7c0.1,0.2,0.1,0.4,0.1,0.6
			C74.7,118.7,74.7,118.9,74.7,119.1z"/>
		<path class="st4" d="M75.5,119c-0.1-0.2-0.1-0.4-0.2-0.6c0-0.2-0.1-0.4-0.1-0.7c0.1,0.2,0.1,0.4,0.2,0.6
			C75.5,118.6,75.5,118.8,75.5,119z"/>
		<path class="st4" d="M76.3,118.9c-0.1-0.2-0.2-0.4-0.2-0.6c-0.1-0.2-0.1-0.4-0.1-0.6c0.1,0.2,0.2,0.4,0.2,0.6
			C76.3,118.4,76.3,118.6,76.3,118.9z"/>
		<path class="st4" d="M77.1,118.6c-0.1-0.2-0.2-0.4-0.2-0.6s-0.2-0.4-0.2-0.6c0.1,0.2,0.2,0.4,0.2,0.6
			C77,118.2,77.1,118.4,77.1,118.6z"/>
		<path class="st4" d="M77.9,118.3c-0.1-0.2-0.2-0.4-0.3-0.6c-0.1-0.2-0.2-0.4-0.2-0.6c0.1,0.2,0.2,0.4,0.3,0.6
			C77.7,117.9,77.8,118.1,77.9,118.3z"/>
		<path class="st4" d="M79.3,117.5c-0.2-0.2-0.3-0.3-0.4-0.5c-0.1-0.2-0.2-0.4-0.3-0.6c0.2,0.2,0.3,0.3,0.4,0.5
			C79.1,117.1,79.2,117.3,79.3,117.5z"/>
		<path class="st4" d="M79.9,117c-0.2-0.2-0.3-0.3-0.5-0.5c-0.1-0.2-0.3-0.3-0.4-0.5c0.2,0.2,0.3,0.3,0.5,0.5
			C79.7,116.6,79.8,116.8,79.9,117z"/>
		<path class="st4" d="M80.5,116.5c-0.2-0.1-0.3-0.3-0.5-0.5c-0.2-0.1-0.3-0.3-0.4-0.5c0.2,0.1,0.3,0.3,0.5,0.4
			C80.2,116.1,80.4,116.3,80.5,116.5z"/>
		<path class="st4" d="M81.1,115.9c-0.2-0.1-0.4-0.3-0.5-0.4c-0.2-0.1-0.3-0.3-0.5-0.4c0.2,0.1,0.4,0.3,0.5,0.4
			C80.8,115.6,80.9,115.7,81.1,115.9z"/>
		<path class="st4" d="M81.6,115.2c-0.2-0.1-0.4-0.2-0.5-0.4c-0.2-0.1-0.4-0.3-0.5-0.4c0.2,0.1,0.4,0.2,0.5,0.4
			C81.3,115,81.4,115.1,81.6,115.2z"/>
		<path class="st4" d="M82.4,113.8c-0.2-0.1-0.4-0.2-0.6-0.2c-0.2-0.1-0.4-0.2-0.6-0.3c0.2,0.1,0.4,0.1,0.6,0.2
			C82,113.6,82.2,113.7,82.4,113.8z"/>
		<path class="st4" d="M82.7,113.1c-0.2-0.1-0.4-0.1-0.6-0.2c-0.2-0.1-0.4-0.2-0.6-0.3c0.2,0.1,0.4,0.1,0.6,0.2
			C82.3,112.9,82.5,113,82.7,113.1z"/>
		<path class="st4" d="M83,112.3c-0.2,0-0.4-0.1-0.6-0.1c-0.2-0.1-0.4-0.1-0.6-0.2c0.2,0,0.4,0.1,0.6,0.2
			C82.6,112.1,82.8,112.2,83,112.3z"/>
		<path class="st4" d="M83.2,111.5c-0.2,0-0.4-0.1-0.6-0.1c-0.2,0-0.4-0.1-0.6-0.2c0.2,0,0.4,0.1,0.6,0.1
			C82.7,111.4,83,111.4,83.2,111.5z"/>
		<path class="st4" d="M83.3,110.7c-0.2,0-0.4,0-0.7,0c-0.2,0-0.4-0.1-0.6-0.1c0.2,0,0.4,0,0.7,0C82.8,110.6,83,110.6,83.3,110.7z"
			/>
		<path class="st4" d="M83.3,109.1c-0.2,0.1-0.4,0.1-0.6,0.1c-0.2,0-0.4,0-0.7,0c0.2-0.1,0.4-0.1,0.6-0.1
			C82.8,109.1,83,109.1,83.3,109.1z"/>
		<path class="st4" d="M83.2,108.3c-0.2,0.1-0.4,0.1-0.6,0.1c-0.2,0-0.4,0.1-0.7,0.1c0.2-0.1,0.4-0.1,0.6-0.2
			C82.7,108.3,83,108.3,83.2,108.3z"/>
		<path class="st4" d="M83,107.5c-0.2,0.1-0.4,0.2-0.6,0.2c-0.2,0.1-0.4,0.1-0.6,0.1c0.2-0.1,0.4-0.2,0.6-0.2
			C82.6,107.5,82.8,107.5,83,107.5z"/>
		<path class="st4" d="M82.7,106.7c-0.2,0.1-0.4,0.2-0.6,0.2c-0.2,0.1-0.4,0.2-0.6,0.2c0.2-0.1,0.4-0.2,0.6-0.2
			S82.5,106.7,82.7,106.7z"/>
		<path class="st4" d="M82.4,105.9c-0.2,0.1-0.4,0.2-0.6,0.3c-0.2,0.1-0.4,0.2-0.6,0.2c0.2-0.1,0.4-0.2,0.6-0.3
			C82,106.1,82.2,106,82.4,105.9z"/>
		<path class="st4" d="M81.6,104.5c-0.2,0.1-0.3,0.3-0.5,0.4c-0.2,0.1-0.4,0.2-0.6,0.3c0.2-0.1,0.3-0.3,0.5-0.4
			C81.3,104.7,81.4,104.6,81.6,104.5z"/>
		<path class="st4" d="M81.1,103.9c-0.2,0.2-0.3,0.3-0.5,0.4c-0.2,0.1-0.3,0.3-0.5,0.4c0.2-0.1,0.3-0.3,0.5-0.5
			C80.8,104.1,81,104,81.1,103.9z"/>
		<path class="st4" d="M80.6,103.3c-0.1,0.2-0.3,0.3-0.5,0.5c-0.2,0.2-0.3,0.3-0.5,0.4c0.1-0.2,0.3-0.3,0.5-0.5
			C80.2,103.6,80.4,103.4,80.6,103.3z"/>
		<path class="st4" d="M80,102.7c-0.1,0.2-0.3,0.4-0.4,0.5c-0.2,0.2-0.3,0.3-0.5,0.5c0.1-0.2,0.3-0.4,0.4-0.5
			C79.7,103,79.8,102.9,80,102.7z"/>
		<path class="st4" d="M79.3,102.2c-0.1,0.2-0.2,0.4-0.4,0.5c-0.1,0.2-0.3,0.4-0.4,0.5c0.1-0.2,0.2-0.4,0.4-0.5
			C79.1,102.6,79.2,102.4,79.3,102.2z"/>
		<path class="st4" d="M77.9,101.4c-0.1,0.2-0.2,0.4-0.2,0.6c-0.1,0.2-0.2,0.4-0.3,0.6c0.1-0.2,0.2-0.4,0.2-0.6
			C77.7,101.8,77.8,101.6,77.9,101.4z"/>
		<path class="st4" d="M77.2,101.1c-0.1,0.2-0.1,0.4-0.2,0.6c-0.1,0.2-0.2,0.4-0.3,0.6c0.1-0.2,0.1-0.4,0.2-0.6
			C77,101.5,77.1,101.3,77.2,101.1z"/>
		<path class="st4" d="M76.4,100.9c0,0.2-0.1,0.4-0.2,0.6c-0.1,0.2-0.1,0.4-0.2,0.6c0-0.2,0.1-0.4,0.2-0.6
			C76.3,101.3,76.3,101.1,76.4,100.9z"/>
		<path class="st4" d="M75.6,100.7c0,0.2-0.1,0.4-0.1,0.7c0,0.2-0.1,0.4-0.2,0.6c0-0.2,0.1-0.4,0.1-0.6
			C75.5,101.1,75.5,100.9,75.6,100.7z"/>
		<path class="st4" d="M74.8,100.6c0,0.2,0,0.4,0,0.7c0,0.2-0.1,0.4-0.1,0.6c0-0.2,0-0.4,0-0.7C74.7,101,74.7,100.8,74.8,100.6z"/>
		<path class="st4" d="M73,108.9l1.9,2l-8,5.9L73,108.9z"/>
		<path class="st9" d="M74.9,110.8l-1.9-2l8-5.8L74.9,110.8z"/>
		<path class="st1" d="M43,96.1H15.4v27.4H43V96.1z"/>
		<path class="st13" d="M29.2,99.6c-5.7,0-10.3,4.6-10.3,10.3c0,5.7,4.6,10.3,10.3,10.3c5.7,0,10.3-4.6,10.3-10.3
			C39.5,104.2,34.9,99.6,29.2,99.6z M28.4,117.1c-3.7,0-6.8-3.3-6.8-7.3s3.1-7.3,6.8-7.3c3.7,0,6.8,3.3,6.8,7.3
			S32.1,117.1,28.4,117.1z"/>
		<path class="st14" d="M29.2,99.6c-5.7,0-10.3,4.6-10.3,10.3c0,5.7,4.6,10.3,10.3,10.3c5.7,0,10.3-4.6,10.3-10.3
			C39.5,104.2,34.9,99.6,29.2,99.6z M28.4,117.1c-3.7,0-6.8-3.3-6.8-7.3s3.1-7.3,6.8-7.3c3.7,0,6.8,3.3,6.8,7.3
			S32.1,117.1,28.4,117.1z"/>
		<path class="st13" d="M32.7,118.6c0.8,0,1.5-0.1,2.2-0.3c-1.6,1.1-3.6,1.7-5.8,1.7c-5.7,0-10.3-4.6-10.3-10.3s4.6-10.3,10.3-10.3
			c2.2,0,4.2,0.7,5.9,1.8c-0.7-0.2-1.5-0.3-2.3-0.3c-4.9,0-8.8,3.9-8.8,8.8C23.9,114.7,27.9,118.6,32.7,118.6z"/>
		<path class="st15" d="M32.7,118.6c0.8,0,1.5-0.1,2.2-0.3c-1.6,1.1-3.6,1.7-5.8,1.7c-5.7,0-10.3-4.6-10.3-10.3s4.6-10.3,10.3-10.3
			c2.2,0,4.2,0.7,5.9,1.8c-0.7-0.2-1.5-0.3-2.3-0.3c-4.9,0-8.8,3.9-8.8,8.8C23.9,114.7,27.9,118.6,32.7,118.6z"/>
		<g>
			<defs>
				<rect id="SVGID_6_" x="71.6" y="24.8" width="53" height="100.8"/>
			</defs>
			<clipPath id="SVGID_7_">
				<use xlink:href="#SVGID_6_"  style="overflow:visible;"/>
			</clipPath>
			<g class="st16">
				<path class="st17" d="M79.5,49.9c0,0-7.4-9.4-7.9-8.8c-0.5,0.6,6.7,9.4,6.7,9.4L79.5,49.9z"/>
				<path class="st18" d="M85.2,55.2c0,0-2.7,0-3.9-1c-1.2-1.1,1.3-3.5,1.3-3.5l2.6,1.8V55.2z"/>
				<path class="st18" d="M81.5,49.4c-0.3-0.2-0.7-0.4-1.1-0.4c-1.3-0.2-5.1,0-5.6,1.3c-0.4,1.3,1.7,1.3,1.7,1.3s-1.7,0.4-1.1,1.5
					c0.6,0.9,1.7,0.7,1.7,0.7s-1.7,0.6-0.5,1.6c1.3,1,5.2,0.5,6.4-0.2c1.2-0.7-0.5-1.8-0.5-1.8s1.2-0.9,0.8-1.6
					c-0.4-0.8-1.6-0.5-1.6-0.5S82.7,50.3,81.5,49.4z"/>
				<path class="st18" d="M86.2,48.9c0,0-4.9-2.4-5.8-2.3c-0.9,0.1-4.3,3-3.5,3.8c0.8,0.8,3.5-1.2,3.5-1.2s2.7,4.5,4.5,4
					C86.7,52.7,86.2,48.9,86.2,48.9z"/>
				<path d="M76.5,51.8l4.9-0.2c0.1,0,0.1-0.1,0.1-0.2c0-0.1-0.1-0.2-0.2-0.1l-4.8,0.2c-0.1,0-0.1,0.1-0.1,0.2
					C76.3,51.7,76.4,51.8,76.5,51.8z"/>
				<path d="M77.1,53.9l4.9-0.3c0.1,0,0.1-0.1,0.1-0.2c0-0.1-0.1-0.1-0.2-0.1L77,53.7c-0.1,0-0.1,0.1-0.1,0.2
					C76.9,53.9,77,53.9,77.1,53.9z"/>
				<path d="M117.1,30.5c0.2-0.2,4.5,1.7,5.3,7.5c0.9,5.7-3.8,6.8-3.8,6.8l-6.4-3.6l2.5-10.9L117.1,30.5z"/>
				<path class="st19" d="M103.3,39.4c0,0-2.5,3.7-8.2,7C90.9,48.8,84.6,48,84.6,48L84,56.6c0,0,13.8,4.7,19.1-1.3
					C110.1,47.7,103.3,39.4,103.3,39.4z"/>
				<path class="st20" d="M103.9,107.5c0,0-2.7,3.8-2.8,4.6c-0.1,0.8,2,2.1,2,2.1l-5,6.3h11.2l0.6-12.1L103.9,107.5z"/>
				<path d="M111.2,25.3c0,0,4.3-2,6.2,1.5c1.9,3.4-0.9,6.6-0.9,6.6l-4.7-4.9L111.2,25.3z"/>
				<path class="st18" d="M107.4,109.3l8.4-0.2l0.2,9.7l-8.4,0.2L107.4,109.3z"/>
				<path class="st21" d="M116.7,64c0,0,1.5,5.5,1.6,16.3c0.1,9.3,1.8,30,1.1,30.9c-0.7,1-15,0.4-15.6,0.2c-0.6-0.3-0.7-6.7-0.7-6.7
					S93.6,88.7,92.4,86c-1.3-2.6,7-25.9,7-25.9L116.7,64z"/>
				<path class="st19" d="M113.4,37.8c0,0,6.7,2.4,7.6,6.2c0.8,3.8-5.1,18.8-6.6,19.3c-1.5,0.5-13.9-2.2-15-3.1
					c-1.1-0.9,0.2-10.2,0.4-11.5c0.3-1.3,1.4-6.5,3-8.7c1.6-2.2,2.8-2.3,4.4-2.3C108.7,37.6,113.4,37.8,113.4,37.8z"/>
				<path class="st4" d="M114.6,37.2c0,0,1.3,0.4,1.7,1c0.4,0.7-0.4,2.4-2.7,3.8c-1.7,1-3.1,1.3-3.1,1.3s-1.5-2-1.7-3.2
					c-0.3-1.2,0.8-2.8,0.8-2.8L114.6,37.2z"/>
				<path class="st18" d="M114.7,35.1l-0.4,3.7c0,0-0.8,1-2.9,0.9c-1.6,0-2.1-0.4-2.1-0.4l0.4-1.8l0.4-1.8l4-0.5L114.7,35.1z"/>
				<path d="M114.1,35.1c0,0.1-0.1,0.2-0.2,0.4c-1,1.7-3.3,1.9-4.2,1.9l0.4-1.8L114.1,35.1z"/>
				<path class="st18" d="M110.1,27.2c0,0-2.4,4.4-1.9,7c0.5,2.6,2.9,2.4,4.3,2c1.4-0.4,2.2-1.2,2.2-1.2s1.3,0.6,2.3-0.6
					c1-1.1,0.6-2.6-0.2-3c-0.7-0.4-1.7,0.1-1.7,0.1l0.8-1.3C116,30.3,113.6,23.3,110.1,27.2z"/>
				<path class="st22" d="M115.5,124.6c0.6,0,1.1-0.6,1.1-1.2c0-2.6,0-8.7-0.5-8.7c-0.6,0-6.5,1.9-6.5,1.9s-0.2-3.6-2.7-3
					c-2,0.5-4.3,2.8-5.2,3.9c-0.3,0.3-0.7,0.6-1.1,0.7c-1.9,0.4-6.9,1.9-7,4.6c-0.1,3.3,1.2,2.9,1.9,2.9
					C96,125.6,111.2,124.9,115.5,124.6z"/>
				<path d="M115.2,31.6c0,0-2,0.2-3.2-2c-1.2-2.3-1-3.2-1-3.2l-1.5,2.2c0,0-0.2-1.6,0.5-2.5c0.7-0.9,1.3-0.7,1.3-0.7l4.3,1.3
					l0.9,3.6L115.2,31.6z"/>
				<path class="st18" d="M101.6,54.7c0,0-1.8-2.2-3.1-2.8c-0.6-0.3-3.1-0.7-3.3-0.1c-0.2,0.6,2.1,1.9,2.1,1.9s-5.6-2.1-6.6-1.7
					c-1.1,0.6,0.5,1.3,0.5,1.3s-1.8,0.1-1.5,0.7c0.3,0.6,1.4,1.3,1.4,1.3s-2-0.4-0.9,1.1c1.1,1.4,9.6,5.8,12.3,3.4
					C103.7,58.5,101.6,54.7,101.6,54.7z"/>
				<path d="M95.4,55c0,0,0.1,0,0.1-0.1c0-0.1,0-0.2-0.1-0.2l-4.2-1.7c-0.1,0-0.2,0-0.2,0.1c0,0.1,0,0.2,0.1,0.2L95.4,55
					C95.4,55,95.4,55,95.4,55z"/>
				<path d="M94.6,56.8c0,0,0.1,0,0.1-0.1c0-0.1,0-0.2-0.1-0.2l-3.5-1.4c-0.1,0-0.2,0-0.2,0.1c0,0.1,0,0.2,0.1,0.2L94.6,56.8
					C94.5,56.7,94.5,56.8,94.6,56.8z"/>
				<path d="M98.6,54c0.1,0,0.1,0,0.1-0.1c0-0.1,0-0.2-0.1-0.2l-1.3-0.2c-0.1,0-0.2,0-0.2,0.1c0,0.1,0,0.2,0.1,0.2L98.6,54z"/>
				<path class="st19" d="M120.3,42.5c0,0,7.1,8.2,2.9,17.1c-3.7,7.9-12.5,8.2-17,6.8c-4.5-1.4-8.4-5.1-8.4-5.1l4.2-7.3
					c0,0,7,1.2,11.5,0.8C118,54.5,120.3,42.5,120.3,42.5z"/>
				<path class="st4" d="M102.9,103.2c0.1,0,0.2-0.1,0.2-0.2l-0.1-32.5c0,0,0-0.1,0-0.1l-3.2-3.2c0,0-0.2,0-0.2,0c0,0,0,0.2,0,0.2
					l3.2,3.2l0.1,32.5C102.8,103.2,102.8,103.2,102.9,103.2z"/>
				<path class="st4" d="M116,73.2c0.1,0,0.1,0,0.1-0.1c0-0.1,0-0.2-0.1-0.2c-1.3-0.2-2.4-0.7-3-1.6c-1.1-1.4-0.8-3.3-0.8-3.4
					c0-0.1,0-0.2-0.1-0.2c-0.1,0-0.2,0-0.2,0.1c0,0.1-0.3,2,0.8,3.6C113.5,72.4,114.6,73,116,73.2z"/>
				<path class="st4" d="M116.4,55.5c0.6,0,1-0.1,1.1-0.3c0.1-0.2-0.1-0.5-0.2-0.6c-1.4-1.3-4.2,0.2-4.4,0.2c0,0-0.1,0.1-0.1,0.2
					c0,0,0,0.1,0.1,0.1C113.6,55.2,115.2,55.5,116.4,55.5z M115.7,54.4c0.5,0,1,0.1,1.4,0.5c0.2,0.2,0.2,0.2,0.2,0.2
					c-0.2,0.3-2,0.1-3.8-0.2C113.9,54.7,114.8,54.4,115.7,54.4z"/>
				<path d="M109.4,28.7C109.4,28.7,109.4,28.7,109.4,28.7l0.6-0.1c0.1,0,0.1-0.1,0.1-0.2c0-0.1-0.1-0.1-0.2-0.1l-0.6,0.1
					c-0.1,0-0.1,0.1-0.1,0.2C109.3,28.6,109.4,28.7,109.4,28.7z"/>
				<path d="M112.1,28.9c0.1,0,0.1,0,0.1-0.1c0-0.1,0-0.2-0.1-0.2l-1-0.2c-0.1,0-0.2,0-0.2,0.1c0,0.1,0,0.2,0.1,0.2L112.1,28.9
					C112,28.9,112.1,28.9,112.1,28.9z"/>
				<path d="M111.7,31.2c0.1,0,0.1,0,0.1-0.1l0.1-0.8c0,0,0-0.1,0-0.1l-0.5-0.4c-0.1,0-0.2,0-0.2,0c0,0.1,0,0.2,0,0.2l0.4,0.3
					l-0.1,0.7C111.5,31.1,111.6,31.2,111.7,31.2z"/>
				<path d="M109.2,30.7c0.1,0,0.1,0,0.1-0.1l0.1-0.8c0,0,0-0.1,0-0.1l-0.5-0.4c-0.1,0-0.2,0-0.2,0c0,0.1,0,0.2,0,0.2l0.4,0.3
					l-0.1,0.7C109,30.6,109.1,30.6,109.2,30.7C109.2,30.7,109.2,30.7,109.2,30.7z"/>
				<path d="M109.7,32.7L109.7,32.7c0.1,0,0.2-0.1,0.1-0.2c-0.3-0.9,0.3-1.9,0.3-1.9c0-0.1,0-0.2,0-0.2c-0.1,0-0.2,0-0.2,0
					c0,0-0.6,1.2-0.3,2.1C109.6,32.7,109.7,32.7,109.7,32.7z"/>
				<path d="M110.5,34.6c0.6,0,0.9-0.8,0.9-0.8c0,0,0-0.1,0-0.1c0,0-0.1,0-0.1,0h-1.6c0,0-0.1,0-0.1,0c0,0,0,0.1,0,0.1
					C109.6,33.8,109.9,34.6,110.5,34.6z M111.1,33.9c-0.1,0.2-0.3,0.4-0.6,0.4s-0.5-0.2-0.6-0.4H111.1z"/>
				<path d="M115,33.7C115,33.7,115,33.7,115,33.7l1.7-1.3c0.1,0,0.1-0.1,0-0.2c0-0.1-0.1-0.1-0.2,0l-1.7,1.2c-0.1,0-0.1,0.1,0,0.2
					C114.9,33.7,114.9,33.7,115,33.7z"/>
				<path d="M116.6,33.9c0,0,0.1,0,0.1-0.1c0-0.1,0-0.2,0-0.2l-1.1-0.6c-0.1,0-0.2,0-0.2,0c0,0.1,0,0.2,0,0.2L116.6,33.9
					C116.6,33.9,116.6,33.9,116.6,33.9z"/>
				<path class="st4" d="M114.5,37.3c0,0-2,1.8-3.4,1.8c-1.5,0-1.4-1.3-1.4-1.3l-0.6,2.1l1.8,1.8l3.2-1.3l1.8-2L114.5,37.3z"/>
				<path class="st4" d="M111.9,41.9c0,0,1.1,1.5,1.3,3.8c0.2,2.3-1.1,4.9-1.1,4.9s-2.2-2.4-2.5-4.3c-0.3-1.9,0.7-4.5,0.7-4.5
					s-1,2.3-1.2,3.6c-0.2,1.4-0.6,3.1-0.6,3.1s-1.3-1.7-1.2-3.8c0.1-2.1,2.3-3.4,2.3-3.4L111.9,41.9z"/>
				<path class="st22" d="M111.6,42.6c0.2,0,0.3,0,0.4,0c0.7-0.2,0.8-1.7,0.6-2.4c0-0.1-0.1-0.1-0.2-0.1c-0.1,0-0.1,0.1-0.1,0.2
					c0.2,0.7,0,1.9-0.4,2.1c-0.4,0.1-1.1,0-1.5-0.2c0.2-0.4,0.6-1.6,0.2-2.2c-0.1-0.2-0.3-0.3-0.5-0.3c-0.2,0-0.4,0.1-0.5,0.2
					c-0.4,0.6,0.3,2.2,0.4,2.4c0,0,0,0,0.1,0.1c0,0,0,0,0,0C110.2,42.4,111,42.6,111.6,42.6z M110.1,40C110.1,40,110.1,40,110.1,40
					c0.2,0,0.2,0,0.3,0.2c0.2,0.4,0,1.2-0.2,1.7c-0.2-0.7-0.5-1.5-0.3-1.8C109.9,40,110,40,110.1,40z"/>
				<path class="st22" d="M111.5,45.7c0.2,0,0.3-0.1,0.4-0.2c0.4-0.6-0.4-2.8-0.4-3.1c0,0-0.1-0.1-0.2-0.1c-0.1,0-0.1,0-0.1,0.1
					c0,0.2-0.5,2.4,0,3.1C111.2,45.7,111.4,45.7,111.5,45.7z M111.4,43c0.3,0.9,0.5,2,0.3,2.3c0,0-0.1,0.1-0.1,0.1
					c-0.1,0-0.1,0-0.2-0.1C111.1,45,111.2,43.8,111.4,43z"/>
				<path d="M84,53.4c0.1,0,0.1,0,0.1-0.1c0-0.1,0-0.2-0.1-0.2c0,0-2.8-0.9-3.5-3.9c0-0.1-0.1-0.1-0.2-0.1c-0.1,0-0.1,0.1-0.1,0.2
					C81,52.5,84,53.4,84,53.4z"/>
				<path class="st4" d="M102.2,53.4c0.1,0,0.1,0,0.1-0.1l0.7-3c0,0,0-0.1,0-0.1s-0.8-1.6-0.6-3.5c0.1-1.9,1.7-4.1,1.7-4.1
					c0-0.1,0-0.2,0-0.2c-0.1,0-0.2,0-0.2,0c-0.1,0.1-1.7,2.3-1.8,4.3c-0.1,1.8,0.5,3.3,0.6,3.6l-0.7,3
					C102,53.3,102.1,53.4,102.2,53.4C102.2,53.4,102.2,53.4,102.2,53.4z"/>
				<path class="st4" d="M113.1,55c0.1,0,0.1,0,0.2-0.1c0-0.1,0-0.2-0.1-0.2l-3.2-0.1c-0.1,0-0.2,0-0.2,0.1s0,0.2,0.1,0.2L113.1,55z
					"/>
			</g>
		</g>
		<g>
			<defs>
				<rect id="SVGID_8_" x="9" y="22" width="20" height="20"/>
			</defs>
			<clipPath id="SVGID_9_">
				<use xlink:href="#SVGID_8_"  style="overflow:visible;"/>
			</clipPath>
			<g class="st23">
				<path class="st24" d="M21.3,41.7c2.6-0.6,4.8-2.2,6.2-4.4c0.2-0.3-0.1-0.6-0.4-0.4c-1.1,0.6-2.3,0.9-3.7,0.9
					c-3.8,0-6.8-2.5-6.9-5.7c0-1.1,0.6-2,1.5-2.4l0,0c-0.5,0.2-1.2,0.3-1.6,0.6c-1.8,1.2-2.9,3.6-2.7,5.6c0.2,2,1.4,4.4,3.5,5.4
					C18.4,41.9,19.8,41.8,21.3,41.7z"/>
				<path class="st25" d="M21.2,35c0.7,0.2,1.4,0.4,2.2,0.4c3.1,0,5.5-2.1,5.5-4.7c0-5.1-4.8-8.7-9.8-8.7C13.6,22,9.1,26.4,9,31.9
					c0,0,1.4-4.3,6.3-4.3c3.3,0,5.7,2,6,3.5c0.1,0.3,0.2,0.6,0.2,0.9c0,0.6-0.2,1.2-0.6,1.7C20.5,34.1,20.7,34.8,21.2,35z"/>
				<path class="st26" d="M21.4,31.1c-0.4-1.5-1.7-4.4-5.8-4.4c-6.4,0-6.5,5.2-6.5,5.2C9,37.5,13.5,42,19,42c0.8,0,1.5-0.1,2.3-0.3
					c-8.1,0.4-8.9-10.1-3.2-12l0,0c0.3-0.1,0.6-0.2,0.9-0.2C20.1,29.5,21,30.2,21.4,31.1z"/>
			</g>
		</g>
	</g>
</g>
</svg>
