<svg id="Layer_1" data-name="Layer 1" xmlns="http://www.w3.org/2000/svg" viewBox="0 0 1024 1024"><defs><style>.cls-1{font-size:127.76px;font-family:ArialMT, Arial;}</style></defs><title>Codabar_updated</title><rect x="1008.08" y="175.26" width="15.92" height="490.47"/><rect x="937.11" y="175.26" width="31.84" height="490.47"/><rect x="862.97" y="175.26" width="51.99" height="490.47"/><rect x="814.28" y="175.26" width="21.23" height="490.47"/><rect x="665.23" y="175.26" width="21.23" height="490.47"/><rect x="766.74" y="175.26" width="15.85" height="490.47"/><rect x="519.74" y="175.26" width="28.63" height="490.47"/><rect x="717.03" y="175.26" width="25.45" height="490.47"/><rect x="613.08" y="175.26" width="29.34" height="490.47"/><rect x="328.56" y="175.26" width="25.42" height="490.47"/><rect x="415.48" y="175.26" width="15.92" height="490.47"/><rect x="457.75" y="175.26" width="31.84" height="490.47"/><rect x="578.67" y="175.26" width="10.62" height="490.47"/><rect x="380.64" y="175.26" width="10.62" height="490.47"/><rect x="286.82" y="175.26" width="21.23" height="490.47"/><rect x="169.01" y="175.26" width="37.15" height="490.47"/><rect x="236.47" y="175.26" width="22.68" height="490.99"/><rect x="112.71" y="175.26" width="21.23" height="490.99"/><rect x="41.22" y="175.26" width="42.46" height="490.47"/><rect y="175.26" width="15.92" height="490.47"/><text class="cls-1" transform="translate(80.43 807.26)">1/2$34+5-.61:5</text></svg>