<svg id="Layer_1" data-name="Layer 1" xmlns="http://www.w3.org/2000/svg" viewBox="0 0 1024 1024"><defs><style>.cls-1{font-size:123.78px;font-family:ArialMT, Arial;}</style></defs><title>code128</title><rect y="101.02" width="82.35" height="664.46"/><rect x="114.5" y="101.02" width="14.53" height="664.46"/><rect x="182.98" y="101.02" width="38.75" height="664.46"/><rect x="273.26" y="101.02" width="19.38" height="664.46"/><rect x="346.58" y="101.02" width="33.91" height="664.46"/><rect x="402.95" y="101.02" width="82.35" height="664.46"/><rect x="517.45" y="101.02" width="14.53" height="664.46"/><rect x="585.93" y="101.02" width="38.75" height="664.46"/><rect x="671.36" y="101.02" width="29.06" height="664.46"/><rect x="739.84" y="101.02" width="53.29" height="664.46"/><rect x="837.39" y="101.02" width="19.38" height="664.46"/><rect x="910.71" y="101.02" width="33.91" height="664.46"/><rect x="543.82" y="101.02" width="27.71" height="664.46"/><rect x="150.82" y="101.02" width="19.31" height="664.46"/><rect x="865.17" y="101.02" width="19.38" height="664.46"/><rect x="962.31" y="101.02" width="61.69" height="664.46"/><text class="cls-1" transform="translate(258.39 882.79)">1234abcd</text></svg>