<svg id="Layer_1" data-name="Layer 1" xmlns="http://www.w3.org/2000/svg" viewBox="0 0 1024 1024"><defs><style>.cls-1{font-size:75.72px;font-family:ArialMT, Arial;}.cls-2{letter-spacing:-0.07em;}</style></defs><title>code39</title><rect x="969.36" y="312.41" width="25.16" height="290.71"/><rect x="1014.56" y="312.41" width="9.44" height="290.71"/><rect x="938.3" y="312.41" width="12.58" height="290.71"/><rect x="896.24" y="312.41" width="22.02" height="290.71"/><rect x="849.46" y="312.41" width="40.89" height="291.01"/><rect x="826.27" y="312.41" width="12.58" height="291.01"/><rect x="782.64" y="312.41" width="25.16" height="290.71"/><rect x="753.16" y="312.41" width="9.44" height="290.71"/><rect x="711.1" y="312.41" width="18.87" height="290.71"/><rect x="665.89" y="312.41" width="34.6" height="290.71"/><rect x="639.56" y="312.41" width="12.58" height="290.71"/><rect x="597.49" y="312.41" width="22.02" height="290.71"/><rect x="561.72" y="312.41" width="18.87" height="290.71"/><rect x="516.52" y="312.41" width="34.6" height="290.71"/><rect x="371.86" y="312.41" width="25.16" height="290.71"/><rect x="417.07" y="312.41" width="9.44" height="290.71"/><rect x="449.69" y="312.41" width="18.87" height="290.71"/><rect x="479.17" y="312.41" width="34.6" height="290.71"/><rect x="340.81" y="312.41" width="12.58" height="290.71"/><rect x="298.75" y="312.41" width="22.02" height="290.71"/><rect x="251.97" y="312.41" width="40.89" height="291.01"/><rect x="228.78" y="312.41" width="12.58" height="291.01"/><rect x="185.14" y="312.41" width="25.16" height="290.71"/><rect x="155.67" y="312.41" width="9.43" height="290.71"/><rect x="113.6" y="312.41" width="18.87" height="290.71"/><rect x="68.4" y="312.41" width="34.6" height="290.71"/><rect x="42.06" y="312.41" width="12.58" height="290.71"/><rect y="312.41" width="22.02" height="290.71"/><text class="cls-1" transform="translate(283.24 687)">123$abc/<tspan class="cls-2" x="311.59" y="0">1</tspan><tspan x="348.08" y="0">1%</tspan></text></svg>