<?xml version="1.0" encoding="utf-8"?>
<!-- Generator: Adobe Illustrator 22.0.0, SVG Export Plug-In . SVG Version: 6.00 Build 0)  -->
<svg version="1.1" id="Layer_1" xmlns="http://www.w3.org/2000/svg" xmlns:xlink="http://www.w3.org/1999/xlink" x="0px" y="0px"
	 viewBox="0 0 1024 1024" style="enable-background:new 0 0 1024 1024;" xml:space="preserve">
<style type="text/css">
	.st0{fill:#EAB19B;}
	.st1{fill:#F4C4B5;}
	.st2{fill:#C6674A;}
	.st3{fill:#DB7F6A;}
	.st4{display:none;}
	.st5{display:inline;fill:#B7EF7D;}
	.st6{fill:#A82F0B;}
	.st7{fill:#BF4326;}
	.st8{fill:#7F1800;}
	.st9{fill:#9B2E18;}
	.st10{fill:#844F42;}
	.st11{fill:#9B695F;}
</style>
<g>
	<g>
		<g>
			<path class="st0" d="M126.9,508.4c0-9.3-6.5-18.3-18.3-25c-12.5-7.2-29-10.8-45.5-10.8s-32.8,3.6-45.4,10.8
				C6.4,490,0,498.9,0,508l0,0v224c0,9.3,5.3,18.3,17.1,25.1c25.1,14.4,65.8,14.4,90.8,0c11.5-6.7,19.1-15.5,19.2-24.7L126.9,508.4
				L126.9,508.4z"/>
			<g>
				<path class="st1" d="M103.8,487.4c-11.1-5.8-25.9-8.7-40.4-8.7c-14.7,0-29.2,2.9-40.3,8.7c-10.3,5.4-16,12.5-16,20
					c0,7.5,5.8,14.7,16.3,20.2c22.4,11.7,58.6,11.6,80.8,0c10.3-5.4,16-12.5,16-20C119.9,500.1,114.2,492.9,103.8,487.4z"/>
			</g>
		</g>
	</g>
	<g>
		<g>
			<path class="st2" d="M353,412.2c0-9.3-6.5-18.3-18.3-25c-12.5-7.2-29-10.8-45.5-10.8s-32.8,3.6-45.4,10.8
				c-11.5,6.7-17.9,15.5-18,24.7l0,0v368.3c0,9.3,5.3,18.3,17.1,25.1c25.1,14.4,65.8,14.4,90.8,0c11.5-6.7,19.1-15.5,19.2-24.7
				L353,412.2L353,412.2z"/>
			<g>
				<path class="st3" d="M329.8,391.2c-11.1-5.8-25.9-8.7-40.4-8.7c-14.7,0-29.2,2.9-40.3,8.7c-10.3,5.4-16,12.5-16,20
					c0,7.5,5.8,14.7,16.3,20.2c22.4,11.7,58.6,11.6,80.8,0c10.3-5.4,16-12.5,16-20C346,403.8,340.3,396.7,329.8,391.2z"/>
			</g>
			<g class="st4">
				<path class="st5" d="M331.3,323.9c-12.5-7.2-29-10.8-45.5-10.8s-32.8,3.6-45.4,10.8c-11.6,6.7-18,15.6-18,24.8
					c0,9.3,6.5,18.3,18.3,25c25.1,14.5,65.8,14.4,90.8,0c11.6-6.7,18-15.6,18-24.8C349.5,339.5,343.1,330.7,331.3,323.9z"/>
			</g>
		</g>
	</g>
	<g>
		<g>
			<path class="st6" d="M574.3,313.5c0-9.3-6.5-18.3-18.3-25c-12.5-7.2-29-10.8-45.5-10.8c-16.5,0-32.8,3.6-45.4,10.8
				c-11.5,6.7-17.9,15.5-18,24.7l0,0v512.6c0,9.3,5.3,18.3,17.1,25.1c25.1,14.4,65.8,14.4,90.8,0c11.5-6.7,19.1-15.5,19.2-24.7
				L574.3,313.5L574.3,313.5z"/>
			<g>
				<path class="st7" d="M551.1,292.7c-11.1-5.8-25.9-8.7-40.4-8.7c-14.7,0-29.2,2.9-40.3,8.7c-10.3,5.4-16,12.5-16,20
					c0,7.5,5.8,14.7,16.3,20.2c22.4,11.7,58.6,11.6,80.8,0c10.3-5.4,16-12.5,16-20C567.2,305.3,561.5,298.1,551.1,292.7z"/>
			</g>
		</g>
	</g>
	<g>
		<g>
			<path class="st8" d="M797.9,219.8c0-9.3-6.5-18.3-18.3-25c-12.5-7.2-29-10.8-45.5-10.8c-16.5,0-32.8,3.6-45.4,10.8
				c-11.5,6.7-17.9,15.5-18,24.7l0,0v656.8c0,9.3,5.3,18.3,17.1,25.1c25.1,14.4,65.8,14.4,90.8,0c11.5-6.7,19.1-15.5,19.2-24.7
				L797.9,219.8L797.9,219.8z"/>
			<g>
				<path class="st9" d="M774.7,198.8c-11.1-5.8-25.9-8.7-40.4-8.7c-14.7,0-29.2,2.9-40.3,8.7c-10.3,5.4-16,12.5-16,20
					c0,7.5,5.8,14.7,16.3,20.2c22.4,11.7,58.6,11.6,80.8,0c10.3-5.4,16-12.5,16-20C790.9,211.5,785.2,204.2,774.7,198.8z"/>
			</g>
			<g class="st4">
				<path class="st5" d="M776.3,420.1c-12.5-7.2-29-10.8-45.5-10.8c-16.5,0-32.8,3.6-45.4,10.8c-11.6,6.7-18,15.6-18,24.8
					c0,9.3,6.5,18.3,18.3,25c25.1,14.5,65.8,14.4,90.8,0c11.6-6.7,18-15.6,18-24.8C794.4,435.7,788,426.8,776.3,420.1z"/>
			</g>
		</g>
	</g>
	<g>
		<g>
			<path class="st10" d="M1024,99.5c0-9.3-6.5-18.3-18.3-25c-12.5-7.2-29-10.8-45.5-10.8c-16.5,0-32.8,3.6-45.4,10.8
				c-11.5,6.7-17.9,15.5-18,24.7l0,0v825.2c0,9.3,5.3,18.3,17.1,25.1c25.1,14.4,65.8,14.4,90.8,0c11.5-6.7,19.1-15.5,19.2-24.7
				L1024,99.5L1024,99.5z"/>
			<g>
				<path class="st11" d="M1000.8,78.6c-11.1-5.8-25.9-8.7-40.4-8.7c-14.7,0-29.2,2.9-40.3,8.7c-10.3,5.4-16,12.5-16,20
					c0,7.5,5.8,14.7,16.3,20.2c22.4,11.7,58.6,11.6,80.8,0c10.3-5.4,16-12.5,16-20C1017,91.2,1011.3,84,1000.8,78.6z"/>
			</g>
			<g class="st4">
				<path class="st5" d="M1002.3,468.2c-12.5-7.2-29-10.8-45.5-10.8c-16.5,0-32.8,3.6-45.4,10.8c-11.6,6.7-18,15.6-18,24.8
					c0,9.3,6.5,18.3,18.3,25c25.1,14.5,65.8,14.4,90.8,0c11.6-6.7,18-15.6,18-24.8C1020.5,483.8,1014.1,475,1002.3,468.2z"/>
			</g>
		</g>
	</g>
</g>
</svg>
