<svg id="Layer_1" data-name="Layer 1" xmlns="http://www.w3.org/2000/svg" viewBox="0 0 1024 1024"><defs><style>.cls-1{fill:#6b5b00;}.cls-2{fill:#7f7844;}.cls-3{fill:#d8cc5d;}.cls-4{fill:#968806;}.cls-5{fill:#ede7a4;}</style></defs><title>donut-2</title><path class="cls-1" d="M513.1,0C282.75,0,81.83,154.88,21.68,378.84l245.71,66.54C296.82,334.05,397.92,256,513.1,256Z"/><path class="cls-2" d="M28.08,353.24c-71.67,220.12,12.8,460.71,206,587.4L373.61,726.92c-96-62.7-138.21-183-102.38-293.06Z"/><path class="cls-3" d="M213.64,926.56c185.56,135.66,439,129.26,618.11-16.63l-160-198.36c-89.59,72.94-216.28,75.5-309.7,7.68Z"/><path class="cls-4" d="M811.28,926.56c185.56-135.65,258.5-380.08,176.6-596.35l-238,90.86c40.95,107.5,5.12,230.35-88.3,298.18Z"/><path class="cls-5" d="M996.84,353.24C927.73,140.8,729.37-2.53,508,0l2.56,256C621.88,254.7,720.42,326.37,755,432.58Z"/></svg>