<?xml version="1.0" encoding="utf-8"?>
<!-- Generator: Adobe Illustrator 22.0.0, SVG Export Plug-In . SVG Version: 6.00 Build 0)  -->
<svg version="1.1" id="Layer_1" xmlns="http://www.w3.org/2000/svg" xmlns:xlink="http://www.w3.org/1999/xlink" x="0px" y="0px"
	 viewBox="0 0 1024 1024" style="enable-background:new 0 0 1024 1024;" xml:space="preserve">
<style type="text/css">
	.st0{fill:#8C791C;}
	.st1{fill:#B7A627;}
	.st2{fill:#F7F2CB;}
	.st3{fill:#9BCE9B;}
	.st4{fill:#A09970;}
	.st5{fill:#E8DB7C;}
	.st6{fill:#D8CC5D;}
	.st7{fill:#7F7844;}
	.st8{fill:#EDE7A4;}
	.st9{fill:#6B5B00;}
	.st10{fill:#968806;}
</style>
<g>
	<path class="st0" d="M525.4,445.5c59.1,0,113,11,154,29.2l176-99.7c-87.9-38.9-203.4-62.4-330-62.4c-85.8,0-166.6,10.8-237.1,29.9
		l126.4,117C447.7,450.6,485.4,445.5,525.4,445.5z"/>
	<path class="st1" d="M679.4,375v99.7c48.2,21.3,78.7,52.5,78.7,87.2c0,23.4-13.9,45.2-37.6,63.4l223,72.5
		c50.9-39.1,80.6-85.8,80.6-135.9v-99.7L679.4,375z"/>
	<path class="st2" d="M292.8,561.9c0-44.2,49.4-82.7,122-102.4v-99.7L0.2,454.6L0,542.6c0,147.6,158.1,240.2,439.3,264.7l46-130.8
		C375.9,666.9,292.8,619.3,292.8,561.9z"/>
	<path class="st3" d="M292.9,564.9c-0.1-1-0.1-2-0.1-3c0-18.6,8.7-36.2,24.3-51.8l0,0l-20.4-77.7l-46.1-6.4L196,473.1l24.6,108.2
		L292.9,564.9z"/>
	<path class="st4" d="M274.7,466.7l25.2,61.1l17.1-17.7c0,0,0,0,0,0c21.4-21.5,55.7-39.2,97.7-50.6v-99.7L180,413.5L274.7,466.7z"/>
	<path class="st5" d="M439.4,702.7v104.7c28,2.4,56.7,3.7,86.1,3.7c175.1,0,329.1-45.1,418-113.4V598L439.4,702.7z"/>
	<path class="st6" d="M943.4,598l-223-72.5c-41.5,31.9-113.3,52.9-195,52.9c-13.7,0-27.1-0.6-40.2-1.8l-45.9,131
		c28,2.4,56.7,3.7,86.1,3.7C700.5,711.4,854.5,666.3,943.4,598z"/>
	<path class="st7" d="M485.7,576.7c-111-9.5-196.5-57.7-196.5-115.4c0-44.5,51.7-81.8,125.5-101.5L290,242.3
		C120.1,282.7,0,364.1,0,461.9C0,587,190.7,690.7,439.4,707.6L485.7,576.7z"/>
	<path class="st8" d="M289.3,463.5H0c1.6,124.4,191.7,227.3,439.4,244.1l46.3-130.9C376.1,567.4,291.3,520.2,289.3,463.5z"/>
	<path class="st9" d="M525.4,345.8c59.1,0,113,11,154,29.2l176-99.7c-87.9-38.9-203.4-62.4-330-62.4c-85.8,0-166.6,10.8-237.1,29.9
		l126.4,117C447.7,350.9,485.4,345.8,525.4,345.8z"/>
	<path class="st10" d="M758.1,462.1c0,23.4-13.9,45.2-37.6,63.4l223,72.5c50.9-39.1,80.6-85.8,80.6-135.9
		c0-74.4-65.2-141.2-168.5-186.8l-176,99.7C727.7,396.3,758.1,427.4,758.1,462.1z"/>
</g>
</svg>
