<svg id="Layer_1" data-name="Layer 1" xmlns="http://www.w3.org/2000/svg" viewBox="0 0 1024 1024"><defs><style>.cls-1,.cls-2{fill:#0f1934;}.cls-2{font-size:124.8px;font-family:ArialMT, Arial;}.cls-3{letter-spacing:-0.07em;}</style></defs><title>EAN8</title><rect class="cls-1" y="66.38" width="53.27" height="813.76"/><rect class="cls-1" x="83.51" y="66.38" width="17.76" height="813.76"/><rect class="cls-1" x="138.54" y="69.86" width="47.35" height="652.21"/><rect class="cls-1" x="226.85" y="69.86" width="47.35" height="651.52"/><rect class="cls-1" x="312.11" y="69.86" width="65.11" height="651.52"/><rect class="cls-1" x="419.93" y="69.86" width="23.68" height="651.52"/><rect class="cls-1" x="479.45" y="66.38" width="41.43" height="813.08"/><rect class="cls-1" x="597.67" y="69.86" width="60.31" height="652.21"/><rect class="cls-1" x="698.3" y="69.86" width="17.44" height="652.21"/><rect class="cls-1" x="554.13" y="69.86" width="10.4" height="652.21"/><rect class="cls-1" x="740.85" y="69.86" width="38.22" height="651.52"/><rect class="cls-1" x="815.87" y="69.86" width="17.76" height="651.52"/><rect class="cls-1" x="865.62" y="69.86" width="47.35" height="651.52"/><rect class="cls-1" x="935.21" y="66.38" width="23.68" height="813.08"/><rect class="cls-1" x="982.57" y="66.38" width="41.43" height="813.08"/><text class="cls-2" transform="translate(157.76 915.02)"><tspan class="cls-3">111</tspan><tspan x="180.44" y="0">1</tspan></text><text class="cls-2" transform="translate(596.64 917.1)"><tspan class="cls-3">11</tspan><tspan x="120.29" y="0">15</tspan></text></svg>