<svg id="Layer_1" data-name="Layer 1" xmlns="http://www.w3.org/2000/svg" viewBox="0 0 1024 1024"><defs><style>.cls-1{font-size:140px;font-family:ArialMT, Arial;}</style></defs><title>ITF_14_Updated</title><rect x="1005.42" y="116.96" width="18.58" height="572.54"/><rect x="952.35" y="116.96" width="27.34" height="572.54"/><rect x="863.37" y="116.96" width="60.68" height="572.54"/><rect x="813.99" y="116.96" width="24.78" height="572.54"/><rect x="741.09" y="116.96" width="43.36" height="572.54"/><rect x="495.02" y="116.96" width="33.42" height="572.54"/><rect x="670.64" y="116.96" width="37.17" height="572.54"/><rect x="596.52" y="116.96" width="53.23" height="572.54"/><rect x="281.8" y="116.96" width="49.56" height="572.54"/><rect x="370.83" y="116.96" width="18.59" height="572.54"/><rect x="435.09" y="116.96" width="37.17" height="572.54"/><rect x="556.35" y="116.96" width="12.4" height="572.54"/><rect x="220.64" y="116.96" width="24.78" height="572.54"/><rect x="152.72" y="116.96" width="43.36" height="572.54"/><rect x="45.14" y="116.96" width="34.8" height="572.54"/><rect x="104.26" y="116.96" width="17.4" height="573.14"/><rect y="116.96" width="24.78" height="573.14"/><text class="cls-1" transform="translate(5.9 861.59)">1234567890123</text></svg>