<svg id="Layer_1" data-name="Layer 1" xmlns="http://www.w3.org/2000/svg" viewBox="0 0 1024 1024"><defs><style>.cls-1,.cls-2,.cls-3{fill:none;stroke-linecap:round;stroke-linejoin:round;stroke-width:34.91px;}.cls-1{stroke:#968806;}.cls-2{stroke:#d8cc5d;}.cls-3{stroke:#ede7a4;}.cls-4{fill:#ede7a4;}.cls-4,.cls-5,.cls-6{fill-rule:evenodd;}.cls-5{fill:#d8cc5d;}.cls-6{fill:#968806;}</style></defs><title>M_line-2</title><path class="cls-1" d="M34.91,907.64,267.64,704,513.16,354.91l243.2,108.22,232.73-62.84"/><path class="cls-2" d="M34.91,733.09,268.8,849.45,512,613.24l245.53,54.69L989.09,116.36"/><path class="cls-3" d="M34.91,629.53,267.64,432.87,512,508.51l244.36-217.6,232.73-24.44"/><path class="cls-4" d="M267.64,477.09c19.78,0,34.91-15.13,34.91-34.91s-15.13-34.91-34.91-34.91-34.91,15.13-34.91,34.91S247.85,477.09,267.64,477.09Z"/><path class="cls-4" d="M34.91,663.27c19.78,0,34.91-15.12,34.91-34.91s-15.13-34.91-34.91-34.91S0,608.58,0,628.36,15.13,663.27,34.91,663.27Z"/><path class="cls-5" d="M34.91,768c19.78,0,34.91-15.13,34.91-34.91s-15.13-34.91-34.91-34.91S0,713.31,0,733.09,15.13,768,34.91,768Z"/><path class="cls-6" d="M34.91,942.55c19.78,0,34.91-15.13,34.91-34.91s-15.13-34.91-34.91-34.91S0,887.85,0,907.64,15.13,942.55,34.91,942.55Z"/><path class="cls-6" d="M267.64,733.09c19.78,0,34.91-15.13,34.91-34.91s-15.13-34.91-34.91-34.91-34.91,15.13-34.91,34.91S247.85,733.09,267.64,733.09Z"/><path class="cls-5" d="M267.64,884.36c19.78,0,34.91-15.12,34.91-34.91s-15.13-34.9-34.91-34.9-34.91,15.12-34.91,34.9S247.85,884.36,267.64,884.36Z"/><path class="cls-4" d="M512,535.27c19.78,0,34.91-15.12,34.91-34.91S531.78,465.45,512,465.45s-34.91,15.13-34.91,34.91S492.22,535.27,512,535.27Z"/><path class="cls-5" d="M512,651.64c19.78,0,34.91-15.13,34.91-34.91S531.78,581.82,512,581.82,477.09,597,477.09,616.73,492.22,651.64,512,651.64Z"/><path class="cls-6" d="M512,395.64c19.78,0,34.91-15.13,34.91-34.91S531.78,325.82,512,325.82,477.09,341,477.09,360.73,492.22,395.64,512,395.64Z"/><path class="cls-4" d="M756.36,325.82c19.79,0,34.91-15.13,34.91-34.91S776.15,256,756.36,256s-34.91,15.13-34.91,34.91S736.58,325.82,756.36,325.82Z"/><path class="cls-4" d="M989.09,302.55c19.78,0,34.91-15.13,34.91-34.91s-15.13-34.91-34.91-34.91-34.91,15.12-34.91,34.91S969.31,302.55,989.09,302.55Z"/><path class="cls-5" d="M989.09,151.27c19.78,0,34.91-15.12,34.91-34.91s-15.13-34.91-34.91-34.91-34.91,15.13-34.91,34.91S969.31,151.27,989.09,151.27Z"/><path class="cls-6" d="M989.09,430.55c19.78,0,34.91-15.13,34.91-34.91s-15.13-34.91-34.91-34.91-34.91,15.12-34.91,34.91S969.31,430.55,989.09,430.55Z"/><path class="cls-6" d="M756.36,488.73c19.79,0,34.91-15.13,34.91-34.91s-15.12-34.91-34.91-34.91S721.45,434,721.45,453.82,736.58,488.73,756.36,488.73Z"/><path class="cls-5" d="M756.36,698.18c19.79,0,34.91-15.13,34.91-34.91s-15.12-34.91-34.91-34.91-34.91,15.13-34.91,34.91S736.58,698.18,756.36,698.18Z"/></svg>