<svg id="Layer_1" data-name="Layer 1" xmlns="http://www.w3.org/2000/svg" viewBox="0 0 1024 1024"><defs><style>.cls-1{fill:#eab19b;}</style></defs><title>raw-bar-3</title><path class="cls-1" d="M0,161.39V295H500.87a22.33,22.33,0,0,0,22.26-22.26v-89a22.33,22.33,0,0,0-22.26-22.26Z"/><path class="cls-1" d="M667.83,350.61H0V484.17H667.83a22.32,22.32,0,0,0,22.26-22.26v-89A22.33,22.33,0,0,0,667.83,350.61Z"/><path class="cls-1" d="M834.78,539.83A22.32,22.32,0,0,1,857,562.09v89a22.32,22.32,0,0,1-22.26,22.26H0V539.83Z"/><path class="cls-1" d="M1001.74,729H0V862.61H1001.74A22.33,22.33,0,0,0,1024,840.35V751.3A22.33,22.33,0,0,0,1001.74,729Z"/></svg>