<svg id="Layer_1" data-name="Layer 1" xmlns="http://www.w3.org/2000/svg" viewBox="0 0 1024 1024"><defs><style>.cls-1{fill:#968806;}.cls-2{fill:#d8cc5d;}.cls-3{fill:#ede7a4;}</style></defs><title>raw-bar-step-2</title><path class="cls-1" d="M400.7,161.39H500.87a22.33,22.33,0,0,1,22.26,22.26v89A22.33,22.33,0,0,1,500.87,295H400.7Z"/><path class="cls-1" d="M478.61,350.61H667.83a22.33,22.33,0,0,1,22.26,22.26v89a22.32,22.32,0,0,1-22.26,22.26H478.61Z"/><path class="cls-1" d="M679,539.83H834.78A22.32,22.32,0,0,1,857,562.09v89a22.32,22.32,0,0,1-22.26,22.26H679Z"/><path class="cls-1" d="M834.78,729h167A22.33,22.33,0,0,1,1024,751.3v89.05a22.33,22.33,0,0,1-22.26,22.26h-167Z"/><rect class="cls-2" x="456.35" y="729.04" width="378.43" height="133.57"/><rect class="cls-2" x="411.83" y="539.83" width="267.13" height="133.57"/><rect class="cls-2" x="278.26" y="350.61" width="200.35" height="133.57"/><rect class="cls-2" x="200.35" y="161.39" width="200.35" height="133.57"/><rect class="cls-3" y="729.04" width="456.35" height="133.57"/><rect class="cls-3" y="539.83" width="411.83" height="133.57"/><rect class="cls-3" y="350.61" width="278.26" height="133.57"/><rect class="cls-3" y="161.39" width="200.35" height="133.57"/></svg>