<svg width="450" height="385" viewBox="0 0 450 385" fill="none" xmlns="http://www.w3.org/2000/svg">
<path d="M440.183 193.006C426.319 171.894 438.977 149.193 436.869 125.714C434.762 102.234 412.443 97.1056 416.67 77.2446C421.562 54.1712 408.521 32.0107 393.743 32.0107C378.966 32.0107 365.936 54.1712 370.828 77.2446C375.055 97.1507 352.793 102.279 350.629 125.714C348.464 149.148 361.179 171.928 347.303 193.006C333.428 214.085 337.08 242.073 344.891 255.948C346.972 259.628 349.476 263.052 352.353 266.149C357.647 271.833 364.055 276.365 371.176 279.464C378.298 282.563 385.982 284.162 393.749 284.162C401.516 284.162 409.2 282.563 416.321 279.464C423.443 276.365 429.851 271.833 435.145 266.149C438.015 263.049 440.515 259.625 442.595 255.948C450.418 242.073 454.059 214.107 440.183 193.006Z" fill="#E0E0E0"/>
<path d="M393.743 209.024C395.603 209.024 397.386 209.763 398.701 211.078C400.016 212.393 400.755 214.176 400.755 216.036V334.097H386.732V216.036C386.732 214.176 387.471 212.393 388.786 211.078C390.101 209.763 391.884 209.024 393.743 209.024Z" fill="#F0F0F0"/>
<path d="M305.598 334.096H286.537V216.046C286.543 213.516 287.551 211.091 289.34 209.302C291.129 207.513 293.554 206.505 296.084 206.499C298.615 206.505 301.04 207.513 302.829 209.302C304.618 211.091 305.626 213.516 305.632 216.046L305.598 334.096Z" fill="#E0E0E0"/>
<path d="M296.05 302.254C328.528 302.254 354.855 275.926 354.855 243.449C354.855 210.972 328.528 184.644 296.05 184.644C263.573 184.644 237.245 210.972 237.245 243.449C237.245 275.926 263.573 302.254 296.05 302.254Z" fill="#F0F0F0"/>
<path d="M365.14 225.803C368.226 213.382 360.657 200.811 348.235 197.725C335.814 194.64 323.243 202.208 320.157 214.63C317.072 227.051 324.64 239.622 337.062 242.708C349.483 245.794 362.054 238.225 365.14 225.803Z" fill="#F0F0F0"/>
<path d="M262.027 208.694C263.245 201.216 258.17 194.167 250.693 192.949C243.215 191.732 236.166 196.806 234.948 204.284C233.73 211.761 238.805 218.81 246.283 220.028C253.76 221.246 260.809 216.171 262.027 208.694Z" fill="#F0F0F0"/>
<path d="M263.407 209.024C268.724 209.024 273.034 204.714 273.034 199.398C273.034 194.081 268.724 189.771 263.407 189.771C258.091 189.771 253.781 194.081 253.781 199.398C253.781 204.714 258.091 209.024 263.407 209.024Z" fill="#F0F0F0"/>
<path d="M174.945 263.636C165.801 264.998 157.062 268.332 149.336 273.408C149.268 264.481 147.634 256.005 143.44 249.163C137.061 255.385 131.887 263.433 127.66 272.09C126.116 255.813 121.844 240.033 112.387 230.091C98.2178 239.007 90.9137 253.863 87.442 269.599C81.7142 258.968 73.3888 249.96 63.2413 243.414C54.5733 252.544 51.8004 265.169 52.0371 278.098C42.1855 266.634 31.2518 257.684 20.5887 256.625C17.9623 274.829 23.5532 291.951 30.6657 305.409C35.2834 314.088 42.1819 321.341 50.6177 326.388C59.0536 331.436 68.7068 334.085 78.5372 334.051H124.853C144.59 334.051 163.099 323.512 172.353 306.086C178.203 295.096 180.998 280.87 174.945 263.636Z" fill="#E0E0E0"/>
<path d="M161.712 29.4637C167.427 12.6912 162.84 0.765625 148.896 0.765625C140.127 0.765625 129.249 5.45471 118.654 13.1646C117.459 8.80245 114.089 6.18738 108.667 6.18738C99.1199 6.18738 85.9656 14.2693 75.6519 25.6539C72.7481 22.895 68.9039 21.3436 64.8986 21.3142C55.7571 20.7957 44.6994 25.4397 35.0845 32.9805C34.6028 32.3062 33.9667 31.757 33.2294 31.3785C32.4922 31.0001 31.6751 30.8035 30.8463 30.8051C25.5824 30.512 18.4473 35.2011 14.9192 41.2541L14.3105 42.3813H164.485C164.936 37.0384 164.001 32.6311 161.712 29.4637Z" fill="#F0F0F0"/>
<path d="M162.174 131.237C164.97 123.042 162.749 117.215 155.918 117.215C151.624 117.215 146.315 119.469 141.141 123.245C140.555 121.115 138.887 119.864 136.26 119.864C131.605 119.864 125.18 123.809 120.13 129.377C118.713 128.026 116.836 127.264 114.878 127.247C110.369 126.999 105.015 129.264 100.314 132.95C100.093 132.614 99.7947 132.336 99.4435 132.14C99.0923 131.944 98.6989 131.835 98.2968 131.823C95.7268 131.677 92.2438 133.965 90.5192 136.929C90.4065 137.11 90.3163 137.29 90.2148 137.47H163.572C163.865 135.292 163.369 133.081 162.174 131.237Z" fill="#F0F0F0"/>
<path d="M331.365 69.3098C330.786 69.2284 330.202 69.187 329.618 69.1858C330.159 61.0024 327.037 55.7836 320.352 55.7836C315.539 55.7836 309.622 58.5114 303.602 63.1215C305.327 47.2508 299.804 36.9258 287.292 36.9258C277.215 36.9258 264.444 43.6889 251.831 54.5888C250.704 48.3554 247.007 44.6244 240.762 44.6244C229.794 44.6244 214.205 56.1668 201.705 72.4321C200.283 70.5537 198.456 69.0192 196.361 67.9422C194.265 66.8652 191.954 66.2732 189.599 66.21C179.161 65.4774 166.187 72.1052 154.656 82.9036C154.237 81.9917 153.57 81.2163 152.731 80.6661C151.891 80.1159 150.914 79.8131 149.911 79.7926C144.196 79.3981 136.385 85.3496 131.752 93.3188H340.552C345.455 81.2467 341.555 70.6737 331.365 69.3098Z" fill="#F0F0F0"/>
<path d="M226.796 385C347.497 385 445.346 379.287 445.346 372.24C445.346 365.193 347.497 359.48 226.796 359.48C106.094 359.48 8.24609 365.193 8.24609 372.24C8.24609 379.287 106.094 385 226.796 385Z" fill="#F5F5F5"/>
<path d="M0.0742188 72.7695L257.038 109.752L291.519 144.56L0.0742188 72.7695Z" fill="#407BFF"/>
<path opacity="0.6" d="M0.0742188 72.7695L257.038 109.752L291.519 144.56L0.0742188 72.7695Z" fill="white"/>
<path d="M0.0742188 72.7695L257.038 109.752L245.113 160.081L0.0742188 72.7695Z" fill="#407BFF"/>
<path opacity="0.2" d="M0.0742188 72.7695L257.038 109.752L245.113 160.081L0.0742188 72.7695Z" fill="black"/>
<path d="M239.837 14.5058L254.75 84.3912C255.135 86.2158 254.781 88.1185 253.768 89.6836C252.754 91.2487 251.162 92.3488 249.339 92.7436L116.241 121.149C114.417 121.533 112.514 121.18 110.949 120.167C109.384 119.153 108.284 117.561 107.889 115.738L92.965 45.8528C92.5774 44.0263 92.9307 42.1206 93.9473 40.5545C94.9639 38.9883 96.5607 37.8898 98.3868 37.5003L231.485 9.09528C233.309 8.71045 235.212 9.06352 236.777 10.0773C238.342 11.0912 239.442 12.6833 239.837 14.5058Z" fill="#407BFF"/>
<path opacity="0.4" d="M239.837 14.5058L254.75 84.3912C255.135 86.2158 254.781 88.1185 253.768 89.6836C252.754 91.2487 251.162 92.3488 249.339 92.7436L116.241 121.149C114.417 121.533 112.514 121.18 110.949 120.167C109.384 119.153 108.284 117.561 107.889 115.738L92.965 45.8528C92.5774 44.0263 92.9307 42.1206 93.9473 40.5545C94.9639 38.9883 96.5607 37.8898 98.3868 37.5003L231.485 9.09528C233.309 8.71045 235.212 9.06352 236.777 10.0773C238.342 11.0912 239.442 12.6833 239.837 14.5058Z" fill="black"/>
<path d="M236.558 9.94066L192.09 64.5302C187.974 69.6008 182.249 73.1136 175.864 74.487C169.478 75.8604 162.816 75.012 156.978 72.0823L94.0928 40.3408C95.1138 38.8852 96.6483 37.8703 98.3873 37.5003L231.485 9.09527C233.222 8.72561 235.034 9.02768 236.558 9.94066Z" fill="#407BFF"/>
<path d="M0.0742188 72.7695L212.019 123.132L245.113 160.081L0.0742188 72.7695Z" fill="#407BFF"/>
<path opacity="0.6" d="M0.0742188 72.7695L212.019 123.132L245.113 160.081L0.0742188 72.7695Z" fill="white"/>
<path d="M77.3715 121.325L76.8018 122.298L100.388 136.113L100.957 135.141L77.3715 121.325Z" fill="#407BFF"/>
<path d="M111.382 141.231L110.812 142.204L119.294 147.172L119.863 146.199L111.382 141.231Z" fill="#407BFF"/>
<path d="M0.0742188 72.7695L212.019 123.132L170.82 172.796L0.0742188 72.7695Z" fill="#407BFF"/>
<path d="M283.561 190.786C283.276 190.781 282.994 190.728 282.727 190.628L248.213 176.91C247.661 176.687 247.219 176.256 246.984 175.709C246.749 175.162 246.74 174.544 246.959 173.99C247.177 173.437 247.606 172.992 248.152 172.753C248.697 172.515 249.315 172.502 249.87 172.717L284.407 186.39C284.895 186.583 285.301 186.94 285.554 187.4C285.807 187.861 285.891 188.395 285.792 188.911C285.693 189.426 285.417 189.891 285.012 190.226C284.607 190.56 284.098 190.742 283.573 190.74L283.561 190.786Z" fill="#407BFF"/>
<path opacity="0.3" d="M283.561 190.786C283.276 190.781 282.994 190.728 282.727 190.628L248.213 176.91C247.661 176.687 247.219 176.256 246.984 175.709C246.749 175.162 246.74 174.544 246.959 173.99C247.177 173.437 247.606 172.992 248.152 172.753C248.697 172.515 249.315 172.502 249.87 172.717L284.407 186.39C284.895 186.583 285.301 186.94 285.554 187.4C285.807 187.861 285.891 188.395 285.792 188.911C285.693 189.426 285.417 189.891 285.012 190.226C284.607 190.56 284.098 190.742 283.573 190.74L283.561 190.786Z" fill="black"/>
<path d="M281.521 170.981C281.239 170.983 280.959 170.93 280.698 170.823L262.156 163.485C261.878 163.378 261.625 163.217 261.41 163.011C261.196 162.805 261.024 162.559 260.905 162.287C260.786 162.014 260.722 161.721 260.716 161.424C260.711 161.127 260.764 160.831 260.874 160.555C260.983 160.278 261.146 160.026 261.353 159.813C261.56 159.6 261.807 159.429 262.08 159.312C262.354 159.195 262.647 159.132 262.944 159.129C263.242 159.126 263.537 159.181 263.813 159.292L282.355 166.63C282.843 166.823 283.249 167.181 283.502 167.641C283.755 168.101 283.839 168.635 283.74 169.151C283.641 169.667 283.365 170.132 282.96 170.466C282.555 170.8 282.046 170.982 281.521 170.981Z" fill="#407BFF"/>
<path opacity="0.5" d="M281.521 170.981C281.239 170.983 280.959 170.93 280.698 170.823L262.156 163.485C261.878 163.378 261.625 163.217 261.41 163.011C261.196 162.805 261.024 162.559 260.905 162.287C260.786 162.014 260.722 161.721 260.716 161.424C260.711 161.127 260.764 160.831 260.874 160.555C260.983 160.278 261.146 160.026 261.353 159.813C261.56 159.6 261.807 159.429 262.08 159.312C262.354 159.195 262.647 159.132 262.944 159.129C263.242 159.126 263.537 159.181 263.813 159.292L282.355 166.63C282.843 166.823 283.249 167.181 283.502 167.641C283.755 168.101 283.839 168.635 283.74 169.151C283.641 169.667 283.365 170.132 282.96 170.466C282.555 170.8 282.046 170.982 281.521 170.981Z" fill="white"/>
<path d="M242.757 190.436C242.474 190.435 242.194 190.377 241.934 190.267L208.265 176.91C207.988 176.803 207.735 176.641 207.52 176.436C207.305 176.23 207.133 175.984 207.014 175.712C206.895 175.439 206.831 175.146 206.826 174.849C206.82 174.551 206.874 174.256 206.983 173.98C207.092 173.703 207.255 173.451 207.462 173.238C207.669 173.024 207.917 172.854 208.19 172.737C208.463 172.619 208.757 172.557 209.054 172.554C209.351 172.55 209.646 172.606 209.922 172.717L243.591 186.052C244.079 186.245 244.485 186.602 244.738 187.062C244.991 187.523 245.075 188.057 244.976 188.573C244.877 189.088 244.602 189.553 244.196 189.888C243.791 190.222 243.282 190.404 242.757 190.403V190.436Z" fill="#407BFF"/>
<path opacity="0.3" d="M242.757 190.436C242.474 190.435 242.194 190.377 241.934 190.267L208.265 176.91C207.988 176.803 207.735 176.641 207.52 176.436C207.305 176.23 207.133 175.984 207.014 175.712C206.895 175.439 206.831 175.146 206.826 174.849C206.82 174.551 206.874 174.256 206.983 173.98C207.092 173.703 207.255 173.451 207.462 173.238C207.669 173.024 207.917 172.854 208.19 172.737C208.463 172.619 208.757 172.557 209.054 172.554C209.351 172.55 209.646 172.606 209.922 172.717L243.591 186.052C244.079 186.245 244.485 186.602 244.738 187.062C244.991 187.523 245.075 188.057 244.976 188.573C244.877 189.088 244.602 189.553 244.196 189.888C243.791 190.222 243.282 190.404 242.757 190.403V190.436Z" fill="black"/>
<path d="M364.651 88.8438C367.638 94.6713 370.377 100.51 372.98 106.484C375.584 112.458 378.008 118.511 380.127 124.846L380.893 127.258C381.029 127.687 381.22 128.385 381.333 128.881C381.446 129.377 381.547 129.941 381.603 130.414C381.862 132.233 381.994 134.067 381.998 135.904C382.013 139.272 381.855 142.64 381.525 145.992C380.895 152.518 379.871 159 378.459 165.402L372.27 164.714C372.191 158.368 372.135 151.955 371.91 145.699C371.808 142.577 371.628 139.466 371.312 136.524C371.168 135.151 370.943 133.789 370.636 132.443C370.58 132.128 370.489 131.88 370.422 131.62C370.354 131.361 370.287 131.282 370.174 130.944L369.317 128.814C366.961 123.11 364.312 117.35 361.607 111.624L353.424 94.4571L364.651 88.8438Z" fill="#E4897B"/>
<path d="M372.36 162.787L369.475 168.186L378.695 170.756C378.695 170.756 380.453 166.405 378.357 162.99L372.36 162.787Z" fill="#E4897B"/>
<path d="M365.947 175.963L374.424 176.628L378.696 170.756L369.475 168.186L365.947 175.963Z" fill="#E4897B"/>
<path d="M325.842 49.8883C325.718 50.542 325.256 51.0154 324.828 50.914C324.399 50.8126 324.163 50.2264 324.298 49.5726C324.433 48.9189 324.884 48.4455 325.312 48.5469C325.741 48.6484 325.989 49.2345 325.842 49.8883Z" fill="#263238"/>
<path d="M325.324 51.0156C324.132 52.8554 322.695 54.524 321.052 55.9752C321.434 56.3869 321.901 56.7101 322.421 56.9223C322.941 57.1345 323.5 57.2306 324.061 57.2039L325.324 51.0156Z" fill="#DE5753"/>
<path d="M328.975 46.7437C328.869 46.7409 328.767 46.6964 328.693 46.6197C328.371 46.2471 327.965 45.9567 327.508 45.7724C327.052 45.5882 326.558 45.5154 326.067 45.5601C325.964 45.5764 325.859 45.5511 325.774 45.4898C325.69 45.4285 325.633 45.3363 325.616 45.2332C325.607 45.1828 325.607 45.131 325.618 45.0808C325.629 45.0306 325.649 44.983 325.679 44.941C325.708 44.8989 325.746 44.8632 325.789 44.836C325.833 44.8087 325.881 44.7905 325.932 44.7824C326.559 44.7102 327.195 44.7915 327.784 45.0193C328.373 45.2471 328.898 45.6144 329.313 46.0899C329.386 46.1636 329.426 46.2628 329.426 46.366C329.426 46.4693 329.386 46.5685 329.313 46.6422C329.268 46.6835 329.215 46.7141 329.156 46.7316C329.097 46.7492 329.036 46.7533 328.975 46.7437Z" fill="#263238"/>
<path d="M344.486 59.0967C343.302 65.1497 342.119 76.2524 346.357 80.299C346.357 80.299 344.7 86.4422 333.439 86.4422C321.04 86.4422 327.533 80.299 327.533 80.299C334.296 78.6871 334.104 73.6712 332.932 68.9595L344.486 59.0967Z" fill="#E4897B"/>
<path d="M348.059 84.1206C348.949 81.1561 349.93 77.752 347.901 76.6924C345.647 75.5652 333.394 74.3253 329.167 76.5233C324.94 78.7214 326.147 84.7405 326.147 84.7405L348.059 84.1206Z" fill="#263238"/>
<path d="M374.051 365.229C373.7 365.275 373.344 365.249 373.003 365.154C372.663 365.059 372.344 364.897 372.067 364.677C371.968 364.543 371.915 364.381 371.915 364.215C371.915 364.049 371.968 363.887 372.067 363.753C372.132 363.636 372.22 363.534 372.327 363.455C372.434 363.375 372.557 363.319 372.687 363.291C373.905 363.009 376.181 364.576 376.283 364.643C376.312 364.665 376.335 364.695 376.349 364.728C376.363 364.762 376.367 364.799 376.362 364.835C376.356 364.873 376.339 364.908 376.313 364.936C376.287 364.965 376.253 364.984 376.215 364.993C375.504 365.146 374.779 365.226 374.051 365.229ZM373.014 363.651C372.936 363.64 372.856 363.64 372.777 363.651C372.702 363.667 372.631 363.698 372.569 363.742C372.507 363.787 372.455 363.844 372.417 363.911C372.236 364.238 372.338 364.373 372.417 364.418C372.766 364.88 374.457 364.891 375.697 364.688C374.891 364.147 373.974 363.793 373.014 363.651Z" fill="#407BFF"/>
<path d="M376.17 364.992C376.141 365.004 376.109 365.004 376.08 364.992C375.224 364.53 373.567 362.738 373.736 361.791C373.769 361.648 373.849 361.52 373.963 361.428C374.078 361.336 374.22 361.285 374.367 361.284C374.515 361.268 374.666 361.282 374.809 361.324C374.952 361.367 375.085 361.437 375.201 361.532C376.159 362.321 376.328 364.71 376.328 364.812C376.333 364.848 376.327 364.884 376.311 364.916C376.295 364.948 376.269 364.975 376.238 364.992C376.216 364.998 376.193 364.998 376.17 364.992ZM374.502 361.611H374.457C374.198 361.611 374.175 361.757 374.164 361.814C374.063 362.355 375.122 363.73 375.967 364.372C375.911 363.431 375.573 362.528 374.998 361.78C374.921 361.722 374.834 361.681 374.741 361.658C374.648 361.635 374.552 361.63 374.457 361.645L374.502 361.611Z" fill="#407BFF"/>
<path d="M324.331 365.229C323.272 365.229 322.246 365.082 321.896 364.609C321.809 364.481 321.762 364.33 321.762 364.175C321.762 364.02 321.809 363.869 321.896 363.741C322.039 363.513 322.266 363.351 322.528 363.29C323.892 362.918 326.8 364.564 326.924 364.631C326.957 364.653 326.983 364.683 326.999 364.719C327.015 364.755 327.02 364.795 327.014 364.834C327.007 364.874 326.989 364.91 326.96 364.938C326.932 364.967 326.895 364.986 326.856 364.992C326.023 365.149 325.178 365.228 324.331 365.229ZM323.012 363.617C322.889 363.605 322.764 363.605 322.64 363.617C322.481 363.657 322.343 363.758 322.257 363.899C322.111 364.135 322.167 364.259 322.257 364.327C322.629 364.846 324.726 364.868 326.281 364.654C325.269 364.099 324.159 363.747 323.012 363.617Z" fill="#407BFF"/>
<path d="M326.834 364.993H326.755C325.752 364.542 323.779 362.738 323.926 361.814C323.926 361.6 324.117 361.329 324.658 361.273C324.859 361.243 325.063 361.257 325.258 361.314C325.452 361.37 325.632 361.468 325.786 361.6C326.845 362.468 327.059 364.7 327.071 364.79C327.076 364.824 327.072 364.86 327.058 364.892C327.044 364.924 327.021 364.951 326.992 364.97C326.968 364.985 326.942 364.995 326.915 364.999C326.888 365.003 326.86 365.001 326.834 364.993ZM324.816 361.611H324.692C324.343 361.611 324.32 361.792 324.309 361.837C324.219 362.4 325.571 363.809 326.563 364.418C326.461 363.469 326.067 362.575 325.436 361.859C325.271 361.731 325.07 361.656 324.861 361.645L324.816 361.611Z" fill="#407BFF"/>
<path d="M335.942 364.8H327.657L326.834 345.627H335.119L335.942 364.8Z" fill="#E4897B"/>
<path d="M385.662 364.8H377.377L373.218 345.627H381.491L385.662 364.8Z" fill="#E4897B"/>
<path d="M376.79 363.843H386.09C386.254 363.843 386.413 363.899 386.542 364.002C386.671 364.104 386.762 364.246 386.8 364.406L388.434 371.767C388.473 371.947 388.471 372.134 388.428 372.313C388.385 372.492 388.301 372.659 388.184 372.801C388.067 372.943 387.919 373.057 387.751 373.133C387.584 373.21 387.401 373.248 387.217 373.243C383.97 373.187 382.392 372.996 378.301 372.996C375.787 372.996 370.602 373.255 367.119 373.255C363.636 373.255 363.196 369.817 364.617 369.513C370.996 368.115 373.397 366.187 375.438 364.35C375.812 364.023 376.293 363.842 376.79 363.843Z" fill="#263238"/>
<path d="M327.713 363.843H336.73C336.895 363.843 337.054 363.899 337.183 364.002C337.312 364.104 337.403 364.246 337.44 364.406L339.075 371.767C339.116 371.945 339.116 372.131 339.075 372.309C339.034 372.487 338.952 372.654 338.837 372.796C338.722 372.939 338.576 373.053 338.41 373.13C338.244 373.208 338.063 373.246 337.88 373.243C334.623 373.187 329.911 372.996 325.808 372.996C321.017 372.996 316.869 373.255 311.245 373.255C307.863 373.255 306.905 369.817 308.325 369.513C314.807 368.092 320.093 367.946 325.695 364.485C326.295 364.088 326.994 363.866 327.713 363.843Z" fill="#263238"/>
<path d="M323.734 94.8399C316.81 94.2978 309.921 93.3834 303.095 92.1008C299.714 91.4358 296.265 90.7031 292.838 89.7901C289.324 88.896 285.875 87.7663 282.513 86.4085C281.645 86.0591 280.766 85.6533 279.898 85.2813C278.924 84.7992 277.982 84.2532 277.08 83.6469C275.457 82.5197 274.059 81.4602 272.673 80.3555C269.911 78.1012 267.352 75.8468 264.782 73.5924C259.744 68.9259 254.965 64.1015 250.354 59.0292L254.503 54.3965L270.869 66.0065C273.563 67.9565 276.291 69.8615 278.974 71.6424C280.304 72.5216 281.668 73.367 282.919 74.0659C283.44 74.3718 283.982 74.6393 284.542 74.8661C285.207 75.1254 285.883 75.3847 286.593 75.6214C292.683 77.508 298.913 78.9026 305.226 79.7919C311.662 80.8177 318.312 81.6518 324.737 82.3168L323.734 94.8399Z" fill="#E4897B"/>
<path d="M361.179 82.2274C368.946 84.0083 376.791 106.699 376.791 106.699L360.819 118.094C360.819 118.094 356.31 107.533 351.959 98.2898C347.405 88.6073 353.244 80.345 361.179 82.2274Z" fill="#407BFF"/>
<path opacity="0.4" d="M361.179 82.2274C368.946 84.0083 376.791 106.699 376.791 106.699L360.819 118.094C360.819 118.094 356.31 107.533 351.959 98.2898C347.405 88.6073 353.244 80.345 361.179 82.2274Z" fill="black"/>
<path d="M356.704 94.626L353.537 101.716C356.817 108.795 359.816 115.806 360.616 117.677C360.503 109.279 358.914 98.8529 356.704 94.626Z" fill="#407BFF"/>
<path opacity="0.6" d="M356.704 94.626L353.537 101.716C356.817 108.795 359.816 115.806 360.616 117.677C360.503 109.279 358.914 98.8529 356.704 94.626Z" fill="black"/>
<path d="M314.795 82.5985C314.795 82.5985 305.981 92.5515 314.299 154.163H358.586C358.902 147.4 354.63 114.205 361.179 82.1702C356.284 81.2275 351.333 80.6025 346.356 80.299C340.087 79.9381 333.802 79.9381 327.533 80.299C323.233 80.7322 318.975 81.501 314.795 82.5985Z" fill="#407BFF"/>
<path opacity="0.4" d="M314.795 82.5985C314.795 82.5985 305.981 92.5515 314.299 154.163H358.586C358.902 147.4 354.63 114.205 361.179 82.1702C356.284 81.2275 351.333 80.6025 346.356 80.299C340.087 79.9381 333.802 79.9381 327.533 80.299C323.233 80.7322 318.975 81.501 314.795 82.5985Z" fill="black"/>
<path d="M311.516 94.626C311.223 96.9592 310.997 99.7209 310.851 102.978C315.224 101.666 319.38 99.7134 323.182 97.1847L311.516 94.626Z" fill="#407BFF"/>
<path opacity="0.6" d="M311.516 94.626C311.223 96.9592 310.997 99.7209 310.851 102.978C315.224 101.666 319.38 99.7134 323.182 97.1847L311.516 94.626Z" fill="black"/>
<path d="M330.497 95.7533C324.568 101.006 301.934 100.476 301.934 100.476L301.19 78.6201C308.834 79.7088 316.543 80.2662 324.264 80.2883C336.877 80.0291 336.967 90.0159 330.497 95.7533Z" fill="#407BFF"/>
<path opacity="0.4" d="M330.497 95.7533C324.568 101.006 301.934 100.476 301.934 100.476L301.19 78.6201C308.834 79.7088 316.543 80.2662 324.264 80.2883C336.877 80.0291 336.967 90.0159 330.497 95.7533Z" fill="black"/>
<path d="M254.716 54.3745L249.08 47.7354L243.005 54.4985C243.005 54.4985 246.747 60.7881 252.687 59.7962L254.716 54.3745Z" fill="#E4897B"/>
<path d="M241.01 39.9912L238.823 48.648L242.96 54.453L249.036 47.735L241.01 39.9912Z" fill="#E4897B"/>
<path d="M326.834 345.627L327.262 355.512H335.547L335.119 345.627H326.834Z" fill="#CE6F64"/>
<path d="M381.503 345.627H373.218L375.359 355.512H383.644L381.503 345.627Z" fill="#CE6F64"/>
<path d="M331.816 41.6483C324.388 38.2668 322.043 23.2414 343.415 26.9949C343.415 26.9949 340.191 30.5681 346.729 32.8225C353.266 35.0769 347.8 49.0427 331.816 41.6483Z" fill="#263238"/>
<path d="M347.957 52.9205C345.827 60.8108 344.993 65.6126 340.067 68.9153C332.695 73.8749 323.531 68.1826 323.238 59.7625C322.979 52.1879 326.507 40.4764 335.017 38.8871C336.895 38.5188 338.837 38.6379 340.656 39.233C342.476 39.8282 344.112 40.8795 345.41 42.2867C346.707 43.694 347.623 45.4102 348.069 47.2718C348.515 49.1333 348.476 51.0781 347.957 52.9205Z" fill="#E4897B"/>
<path d="M343.122 30.9856C348.183 33.8149 355.036 35.4944 354.393 39.5184C353.548 44.4104 358.53 41.3445 357.369 48.6486C356.614 53.4166 347.822 67.8671 341.589 67.157C332.278 66.0974 333.462 51.8836 333.428 44.4104C333.405 40.0144 333.202 25.4399 343.122 30.9856Z" fill="#263238"/>
<path d="M332.312 37.3203C330.058 37.8501 327.07 50.8465 335.806 51.9737C345.849 53.4052 332.312 37.3203 332.312 37.3203Z" fill="#263238"/>
<path d="M332.537 41.9305C329.776 42.1785 323.52 38.8533 324.286 33.8486C324.286 33.8486 328.243 39.6987 332.537 41.9305Z" fill="#263238"/>
<path d="M336.641 53.0781C335.792 54.9383 334.354 56.4674 332.549 57.429C330.171 58.6689 328.829 56.8541 329.37 54.4758C329.855 52.3341 331.681 49.0991 334.127 48.8398C336.573 48.5806 337.621 50.8237 336.641 53.0781Z" fill="#E4897B"/>
<path d="M349.039 43.9029C350.724 43.1719 352.2 42.0345 353.338 40.5925C354.475 39.1506 355.236 37.4492 355.554 35.6406C355.554 35.6406 359.274 46.0333 349.039 43.9029Z" fill="#263238"/>
<path d="M358.44 43.7897C357.655 43.2629 356.753 42.9388 355.812 42.8464C354.872 42.7539 353.924 42.896 353.052 43.26C353.052 43.26 356.523 38.7512 358.44 43.7897Z" fill="#263238"/>
<path d="M330.013 154.164C330.013 154.164 339.413 217.489 344.565 241.16C350.201 267.085 371.504 353.597 371.504 353.597H386.665C386.665 353.597 372.632 269.216 369.408 243.516C365.913 215.618 358.587 154.164 358.587 154.164H330.013Z" fill="#407BFF"/>
<path opacity="0.5" d="M330.013 154.164C330.013 154.164 339.413 217.489 344.565 241.16C350.201 267.085 371.504 353.597 371.504 353.597H386.665C386.665 353.597 372.632 269.216 369.408 243.516C365.913 215.618 358.587 154.164 358.587 154.164H330.013Z" fill="white"/>
<path d="M369.08 348.017C369.013 348.017 370.647 353.833 370.647 353.833H387.713L387.397 348.637L369.08 348.017Z" fill="#407BFF"/>
<path opacity="0.1" d="M369.08 348.017C369.013 348.017 370.647 353.833 370.647 353.833H387.713L387.397 348.637L369.08 348.017Z" fill="black"/>
<path d="M335.953 176.719C346.819 178.849 345.669 219.371 344.362 240.213C341.228 225.481 336.64 197.132 333.507 177.012C334.265 176.638 335.128 176.535 335.953 176.719Z" fill="#407BFF"/>
<path opacity="0.4" d="M335.953 176.719C346.819 178.849 345.669 219.371 344.362 240.213C341.228 225.481 336.64 197.132 333.507 177.012C334.265 176.638 335.128 176.535 335.953 176.719Z" fill="white"/>
<path d="M314.3 154.164C314.3 154.164 313.173 216.08 314.063 241.329C314.999 267.604 324.208 353.597 324.208 353.597H338.23C338.23 353.597 338.749 269.137 339.357 243.336C340.045 215.156 343.438 154.164 343.438 154.164H314.3Z" fill="#407BFF"/>
<path opacity="0.5" d="M314.3 154.164C314.3 154.164 313.173 216.08 314.063 241.329C314.999 267.604 324.208 353.597 324.208 353.597H338.23C338.23 353.597 338.749 269.137 339.357 243.336C340.045 215.156 343.438 154.164 343.438 154.164H314.3Z" fill="white"/>
<path d="M327.116 343.519C327.099 343.521 327.081 343.519 327.065 343.513C327.048 343.508 327.033 343.499 327.021 343.487C327.008 343.476 326.998 343.461 326.991 343.446C326.984 343.43 326.98 343.413 326.98 343.395C324.501 319.6 318.673 262.001 317.963 241.34C317.208 220.251 317.895 172.931 318.121 158.932C318.119 158.913 318.122 158.894 318.128 158.876C318.134 158.859 318.143 158.842 318.156 158.829C318.169 158.815 318.184 158.804 318.202 158.796C318.219 158.789 318.237 158.785 318.256 158.785C318.294 158.788 318.33 158.804 318.357 158.831C318.384 158.858 318.4 158.894 318.403 158.932C318.177 172.931 317.49 220.239 318.245 241.329C318.977 261.979 324.805 319.567 327.262 343.373C327.264 343.391 327.262 343.41 327.255 343.428C327.249 343.446 327.24 343.462 327.227 343.476C327.214 343.49 327.199 343.501 327.182 343.508C327.164 343.516 327.146 343.519 327.127 343.519H327.116Z" fill="#407BFF"/>
<path opacity="0.4" d="M327.116 343.519C327.099 343.521 327.081 343.519 327.065 343.513C327.048 343.508 327.033 343.499 327.021 343.487C327.008 343.476 326.998 343.461 326.991 343.446C326.984 343.43 326.98 343.413 326.98 343.395C324.501 319.6 318.673 262.001 317.963 241.34C317.208 220.251 317.895 172.931 318.121 158.932C318.119 158.913 318.122 158.894 318.128 158.876C318.134 158.859 318.143 158.842 318.156 158.829C318.169 158.815 318.184 158.804 318.202 158.796C318.219 158.789 318.237 158.785 318.256 158.785C318.294 158.788 318.33 158.804 318.357 158.831C318.384 158.858 318.4 158.894 318.403 158.932C318.177 172.931 317.49 220.239 318.245 241.329C318.977 261.979 324.805 319.567 327.262 343.373C327.264 343.391 327.262 343.41 327.255 343.428C327.249 343.446 327.24 343.462 327.227 343.476C327.214 343.49 327.199 343.501 327.182 343.508C327.164 343.516 327.146 343.519 327.127 343.519H327.116Z" fill="white"/>
<path d="M321.479 348.017C321.423 348.017 322.28 353.833 322.28 353.833H339.334L339.796 348.637L321.479 348.017Z" fill="#407BFF"/>
<path opacity="0.1" d="M321.479 348.017C321.423 348.017 322.28 353.833 322.28 353.833H339.334L339.796 348.637L321.479 348.017Z" fill="black"/>
</svg>
