<svg width="444" height="422" viewBox="0 0 444 422" fill="none" xmlns="http://www.w3.org/2000/svg">
<g clip-path="url(#clip0_2094_9072)">
<path d="M401.518 162.117C390.94 157.603 378.483 160.61 371.809 168.767C370.912 169.831 370.127 170.987 369.467 172.213L349.183 210.035C346.133 215.788 336.434 213.824 336.434 207.449V47.1626C336.407 44.2791 335.768 41.4342 334.558 38.8165C333.349 36.1988 331.597 33.8681 329.418 31.9789C324.719 27.8649 318.668 25.6278 312.423 25.6956C299.142 25.6956 288.393 35.3158 288.393 47.1626V161.733C288.393 165.393 285.093 168.315 281.024 168.315C276.955 168.315 273.655 165.369 273.655 161.733V21.5413C273.655 9.68223 262.925 0.0742188 249.632 0.0742188C236.339 0.0742188 225.603 9.68223 225.603 21.5413V161.733C225.603 165.393 222.303 168.315 218.234 168.315C214.165 168.315 210.864 165.369 210.864 161.733V37.6522C210.864 25.8298 200.494 15.6911 187.293 15.4775C173.817 15.2579 162.812 24.9513 162.812 36.9385V161.733C162.812 165.393 159.518 168.315 155.443 168.315C151.368 168.315 148.08 165.369 148.08 161.733V67.0131C148.08 55.1907 137.709 45.0519 124.502 44.8384C111.026 44.6066 100.046 54.3122 100.046 66.2994V168.291V238.701C100.046 305.646 161.348 362.049 236.284 361.885C294.055 361.756 343.327 329.449 362.866 283.947L412.828 190.752C414.369 187.908 415.182 184.727 415.195 181.492C415.164 173.488 410.132 165.814 401.518 162.117Z" fill="#E0EAFF"/>
<path d="M290.754 101.858C290.868 101.848 290.973 101.793 291.048 101.707C291.123 101.621 291.162 101.509 291.157 101.395C291.164 101.28 291.126 101.167 291.053 101.078C290.979 100.99 290.874 100.933 290.76 100.919C289.507 100.919 288.255 100.919 287.002 100.919C286.888 100.932 286.782 100.987 286.705 101.073C286.628 101.159 286.586 101.27 286.586 101.386C286.586 101.501 286.628 101.612 286.705 101.698C286.782 101.784 286.888 101.839 287.002 101.852C288.251 101.852 289.499 101.852 290.748 101.852L290.754 101.858Z" fill="#325899"/>
<path d="M292.42 102.133L280.073 103.054L283.764 95.7334L292.42 102.133Z" fill="#244885"/>
<path d="M340.411 399.16C341.347 399.102 342.249 398.788 343.018 398.251C343.787 397.715 344.393 396.977 344.77 396.118C345.498 394.376 345.563 392.427 344.95 390.641C344.344 388.876 343.443 387.227 342.286 385.763C340.449 383.275 338.213 380.966 335.508 379.522C339.886 378.27 344.354 377.357 348.873 376.792L350.104 376.648L350.646 386.356C350.766 388.515 350.901 390.728 351.816 392.688C352.731 394.648 354.636 396.309 356.797 396.277C357.733 396.22 358.635 395.906 359.405 395.37C360.175 394.834 360.782 394.097 361.161 393.239C361.886 391.495 361.951 389.546 361.345 387.757C360.737 385.993 359.836 384.344 358.68 382.879C356.778 380.312 354.472 377.921 351.64 376.505C356.665 376.022 361.722 375.962 366.758 376.325L367.695 386.142C367.897 388.296 368.12 390.507 369.111 392.429C370.101 394.35 372.064 395.933 374.23 395.825C375.163 395.732 376.053 395.384 376.801 394.819C377.549 394.253 378.126 393.492 378.47 392.62C379.131 390.851 379.122 388.901 378.442 387.139C377.754 385.4 376.776 383.79 375.551 382.377C373.743 379.973 371.445 377.98 368.81 376.529C372.445 376.877 376.056 377.444 379.622 378.228C380.675 378.463 381.725 378.725 382.758 378.991L384.042 389.046C384.313 391.194 384.606 393.399 385.664 395.284C386.721 397.169 388.723 398.703 390.887 398.508C391.816 398.385 392.694 398.008 393.422 397.418C394.151 396.829 394.703 396.05 395.018 395.167C395.621 393.377 395.549 391.429 394.814 389.689C394.075 387.966 393.05 386.38 391.784 384.997C390.081 382.916 388.018 381.158 385.693 379.807C389.206 380.863 392.647 382.143 395.996 383.638L401.767 391.669C403.031 393.425 404.339 395.225 406.162 396.383C407.984 397.542 410.486 397.926 412.295 396.739C413.054 396.188 413.647 395.439 414.007 394.572C414.368 393.706 414.482 392.757 414.337 391.83C414.008 389.98 413.019 388.313 411.554 387.136C410.085 385.972 408.431 385.064 406.659 384.45C403.443 383.215 399.931 382.405 396.543 382.945L396.518 382.929C392.95 381.304 389.275 379.926 385.52 378.803C388.323 378.545 391.05 377.751 393.554 376.465C395.27 375.712 396.846 374.674 398.215 373.393C399.587 372.098 400.441 370.347 400.616 368.467C400.684 367.532 400.492 366.596 400.062 365.763C399.632 364.929 398.981 364.231 398.179 363.743C396.281 362.703 393.825 363.284 392.095 364.586C390.364 365.888 389.204 367.804 388.112 369.647L383.013 378.111C378.396 376.889 373.688 376.043 368.936 375.58C371.757 374.664 374.358 373.174 376.576 371.204C378.047 370.051 379.313 368.659 380.322 367.086C381.329 365.489 381.72 363.579 381.422 361.714C381.255 360.791 380.836 359.931 380.212 359.23C379.589 358.529 378.783 358.013 377.885 357.74C375.792 357.206 373.557 358.379 372.21 360.066C370.863 361.752 370.222 363.864 369.589 365.953C368.648 369.105 367.705 372.258 366.758 375.412L366.309 375.377C361.39 375.049 356.452 375.122 351.544 375.595C354.559 374.292 357.046 371.881 359.079 369.308C360.289 367.879 361.249 366.254 361.917 364.504C362.581 362.737 362.576 360.789 361.903 359.025C361.554 358.154 360.971 357.396 360.218 356.835C359.466 356.274 358.573 355.932 357.639 355.845C355.476 355.745 353.524 357.347 352.536 359.265C351.548 361.182 351.33 363.393 351.164 365.556C350.869 368.945 350.574 372.33 350.28 375.71L350.077 375.732L350 375.682C350 375.71 350.002 375.737 350.005 375.765C345.241 376.302 340.528 377.218 335.91 378.503C337.892 376.269 339.397 373.654 340.334 370.817C341.047 369.045 341.452 367.165 341.534 365.256C341.605 363.334 340.976 361.452 339.763 359.96C339.145 359.231 338.338 358.687 337.432 358.386C336.525 358.085 335.553 358.04 334.622 358.254C332.501 358.855 331.132 361.028 330.805 363.204C330.478 365.38 330.997 367.594 331.506 369.735L333.68 378.868L333.693 379.152C328.639 380.692 323.738 382.696 319.053 385.138C318.561 385.394 318.872 386.219 319.371 385.952C323.972 383.549 328.78 381.567 333.738 380.029L334.262 389.224C334.381 391.383 334.514 393.601 335.437 395.559C336.36 397.518 338.245 399.188 340.411 399.16Z" fill="#507CC7"/>
<path d="M106.561 237.885C105.788 237.355 105.176 236.622 104.793 235.766C104.41 234.91 104.27 233.965 104.39 233.035C104.661 231.168 105.608 229.464 107.049 228.247C108.486 227.043 110.115 226.09 111.869 225.428C114.73 224.245 117.829 223.403 120.897 223.568C117.796 220.242 114.443 217.161 110.868 214.35C110.545 214.094 110.215 213.844 109.886 213.594L104.432 221.628C103.212 223.415 101.962 225.245 100.162 226.453C98.3626 227.661 95.8919 228.106 94.0618 226.972C93.284 226.438 92.6688 225.7 92.2844 224.839C91.9001 223.977 91.7615 223.027 91.884 222.091C92.1726 220.242 93.1219 218.56 94.556 217.357C95.9922 216.155 97.6216 215.204 99.3752 214.545C102.328 213.325 105.537 212.459 108.69 212.715C104.629 209.716 100.324 207.063 95.8187 204.785L89.9807 212.715C88.6936 214.454 87.3698 216.235 85.5275 217.376C83.6852 218.517 81.1901 218.864 79.4272 217.656C78.673 217.097 78.0882 216.34 77.7372 215.469C77.3863 214.598 77.2829 213.647 77.4384 212.721C77.7836 210.865 78.7945 209.199 80.2812 208.036C81.765 206.891 83.4314 206.004 85.2103 205.413C87.9797 204.282 90.9559 203.746 93.9459 203.839C90.6523 202.263 87.2642 200.891 83.8011 199.734C82.7701 199.392 81.7392 199.075 80.7021 198.77L74.4249 206.737C73.0889 208.433 71.7041 210.171 69.8252 211.245C67.9463 212.319 65.4452 212.593 63.6883 211.324C62.9529 210.742 62.3928 209.968 62.0698 209.087C61.7469 208.207 61.6736 207.254 61.8582 206.334C62.2616 204.488 63.3272 202.854 64.8535 201.741C66.3734 200.651 68.0667 199.826 69.8618 199.301C72.3885 198.391 75.0582 197.942 77.7435 197.977C74.1893 197.074 70.5805 196.402 66.9398 195.964L57.8564 199.88C55.8738 200.734 53.8241 201.606 51.6646 201.661C49.5051 201.716 47.1625 200.758 46.2231 198.812C45.8575 197.951 45.7369 197.005 45.8747 196.079C46.0125 195.154 46.4033 194.284 47.0039 193.566C48.2382 192.137 49.9521 191.209 51.8232 190.955C53.6826 190.712 55.5696 190.784 57.405 191.169C60.8029 191.779 64.2312 192.877 66.8544 195.085H66.891C70.7663 195.536 74.6063 196.251 78.384 197.226C76.1088 195.563 74.1728 193.48 72.6802 191.089C71.5902 189.561 70.7653 187.859 70.2401 186.057C69.7284 184.239 69.8998 182.297 70.722 180.597C71.1446 179.761 71.7894 179.057 72.5858 178.563C73.3821 178.069 74.2992 177.804 75.2362 177.797C77.4018 177.888 79.2075 179.627 80.0189 181.652C80.8302 183.678 80.8424 185.88 80.8485 188.045C80.8485 191.331 80.8485 194.624 80.8485 197.922C85.4358 199.259 89.9077 200.965 94.2204 203.022C92.2838 200.78 90.8301 198.164 89.9502 195.335C89.2796 193.58 88.9124 191.723 88.8644 189.845C88.8204 187.957 89.4717 186.118 90.6945 184.678C91.3125 183.972 92.1131 183.45 93.0085 183.169C93.9038 182.888 94.8593 182.859 95.7699 183.086C97.844 183.696 99.1556 185.862 99.4301 188.003C99.7046 190.144 99.18 192.303 98.6432 194.402L96.203 203.961C96.3312 204.034 96.4715 204.095 96.6057 204.169C101.007 206.42 105.218 209.025 109.197 211.959C107.281 209.293 106.391 205.968 105.964 202.698C105.663 200.849 105.678 198.962 106.006 197.117C106.345 195.26 107.352 193.591 108.837 192.425C109.585 191.858 110.475 191.508 111.41 191.415C112.344 191.321 113.286 191.487 114.132 191.895C116.035 192.92 116.883 195.293 116.731 197.452C116.578 199.612 115.614 201.613 114.663 203.552L110.197 212.703L110.362 212.831L110.453 212.801L110.411 212.868C114.222 215.778 117.796 218.987 121.098 222.463C120.544 219.527 120.598 216.508 121.257 213.594C121.559 211.71 122.177 209.89 123.087 208.213C124.021 206.524 125.54 205.233 127.357 204.583C128.262 204.274 129.235 204.221 130.169 204.43C131.102 204.639 131.959 205.102 132.646 205.767C134.153 207.371 134.208 209.939 133.366 211.971C132.524 214.002 130.926 215.631 129.407 217.211L122.849 223.921L122.685 224.159C126.204 228.101 129.353 232.359 132.091 236.879C132.378 237.354 131.689 237.903 131.396 237.421C128.691 232.99 125.587 228.814 122.123 224.946L116.944 232.572C115.724 234.365 114.504 236.195 112.674 237.403C110.844 238.611 108.404 239.026 106.561 237.885Z" fill="#507CC7"/>
<path d="M271.556 117.737H203.184C197.087 117.739 191.051 118.941 185.42 121.276C179.788 123.61 174.672 127.031 170.363 131.343C166.054 135.655 162.636 140.774 160.305 146.407C157.974 152.04 156.776 158.077 156.778 164.173V261.668H178.953V166.912C178.953 159.751 181.798 152.884 186.861 147.82C191.925 142.757 198.792 139.912 205.953 139.912H268.786C275.947 139.912 282.815 142.757 287.878 147.82C292.942 152.884 295.786 159.751 295.786 166.912V261.668H317.961V164.173C317.964 158.077 316.765 152.04 314.434 146.407C312.103 140.774 308.686 135.655 304.377 131.343C300.067 127.031 294.951 123.61 289.32 121.276C283.688 118.941 277.652 117.739 271.556 117.737Z" fill="#1F4380"/>
<path d="M106.39 254.409V290.035C106.39 362.373 165.032 420.997 237.37 420.997C309.707 420.997 368.35 362.354 368.35 290.017V254.391C368.35 244.168 364.289 234.364 357.062 227.135C349.834 219.906 340.031 215.844 329.808 215.843H144.932C139.868 215.844 134.855 216.842 130.177 218.781C125.5 220.719 121.251 223.56 117.671 227.142C114.092 230.723 111.254 234.975 109.318 239.653C107.382 244.332 106.387 249.346 106.39 254.409Z" fill="#1980FF"/>
<path d="M241.756 367.356C271.933 367.356 296.396 342.893 296.396 312.716C296.396 282.539 271.933 258.075 241.756 258.075C211.579 258.075 187.115 282.539 187.115 312.716C187.115 342.893 211.579 367.356 241.756 367.356Z" fill="white"/>
<path d="M259.961 356.666C284.233 346.612 295.759 318.785 285.705 294.512C275.651 270.24 247.824 258.713 223.552 268.767C199.279 278.821 187.753 306.648 197.807 330.921C207.861 355.193 235.688 366.72 259.961 356.666Z" fill="#0069FF"/>
<path d="M257.593 296.757C257.605 293.981 256.888 291.25 255.514 288.837C254.14 286.425 252.157 284.415 249.763 283.01C247.369 281.604 244.648 280.851 241.871 280.827C239.095 280.802 236.361 281.507 233.943 282.871C231.524 284.234 229.506 286.208 228.09 288.596C226.674 290.984 225.909 293.702 225.872 296.478C225.836 299.254 226.529 301.991 227.882 304.416C229.234 306.84 231.2 308.867 233.582 310.294L230.708 346.572C230.68 346.924 230.724 347.278 230.84 347.612C230.955 347.946 231.138 348.252 231.378 348.511C231.618 348.77 231.909 348.977 232.232 349.118C232.556 349.259 232.905 349.331 233.258 349.33H250.26C250.613 349.33 250.962 349.257 251.285 349.116C251.608 348.975 251.899 348.768 252.138 348.509C252.378 348.25 252.561 347.944 252.677 347.611C252.792 347.278 252.838 346.924 252.81 346.572L249.937 310.324C252.276 308.917 254.211 306.927 255.553 304.55C256.895 302.172 257.597 299.487 257.593 296.757Z" fill="white"/>
<path d="M357.681 156.005C357.782 156.173 357.85 156.359 357.879 156.552C357.909 156.746 357.899 156.944 357.852 157.134C357.792 157.386 357.666 157.618 357.487 157.806C357.308 157.994 357.082 158.13 356.833 158.201L351.873 159.647C351.626 159.716 351.364 159.719 351.115 159.655C350.865 159.592 350.637 159.465 350.452 159.286C350.267 159.107 350.132 158.883 350.061 158.636C349.989 158.389 349.983 158.128 350.043 157.878L351.263 152.857C351.327 152.609 351.455 152.382 351.633 152.198C351.811 152.013 352.033 151.878 352.279 151.806C352.525 151.733 352.786 151.726 353.035 151.784C353.285 151.842 353.515 151.964 353.703 152.138L357.437 155.712C357.53 155.8 357.612 155.898 357.681 156.005ZM351.19 158.39C351.204 158.413 351.22 158.433 351.239 158.451C351.278 158.491 351.327 158.519 351.38 158.533C351.434 158.547 351.491 158.546 351.544 158.531L356.503 157.085C356.557 157.069 356.605 157.04 356.642 156.999C356.68 156.958 356.706 156.908 356.717 156.853C356.732 156.8 356.731 156.744 356.716 156.692C356.701 156.639 356.672 156.591 356.632 156.554L352.898 152.985C352.859 152.946 352.81 152.918 352.756 152.904C352.703 152.89 352.646 152.891 352.593 152.906C352.541 152.923 352.494 152.954 352.456 152.994C352.419 153.035 352.393 153.084 352.38 153.138L351.16 158.152C351.148 158.192 351.144 158.234 351.149 158.275C351.155 158.316 351.169 158.355 351.19 158.39Z" fill="url(#paint0_linear_2094_9072)"/>
<path d="M7.70526 254.58C7.80792 254.747 7.87642 254.933 7.90679 255.127C7.93715 255.32 7.92879 255.518 7.88217 255.709C7.82156 255.961 7.69467 256.194 7.51455 256.381C7.33442 256.569 7.10757 256.705 6.85731 256.776L1.89775 258.222C1.64994 258.291 1.38845 258.294 1.13919 258.23C0.889916 258.167 0.661513 258.04 0.4766 257.861C0.291686 257.682 0.156678 257.458 0.0849477 257.211C0.0132174 256.964 0.00725386 256.703 0.0676477 256.453L1.28771 251.432C1.35322 251.185 1.48126 250.959 1.65949 250.776C1.83773 250.593 2.06015 250.458 2.30533 250.386C2.5505 250.314 2.81018 250.306 3.05933 250.363C3.30848 250.42 3.53871 250.54 3.72784 250.712L7.46124 254.287C7.55278 254.376 7.63459 254.474 7.70526 254.58ZM1.22061 256.965C1.23414 256.988 1.25055 257.008 1.26941 257.026C1.30859 257.065 1.35751 257.093 1.41114 257.107C1.46476 257.121 1.52113 257.121 1.57443 257.106L6.52789 255.678C6.58188 255.665 6.63104 255.636 6.66983 255.596C6.70863 255.557 6.73553 255.507 6.74751 255.452C6.76064 255.399 6.75907 255.343 6.74296 255.29C6.72685 255.238 6.6968 255.19 6.656 255.153L2.9226 251.585C2.88347 251.547 2.83501 251.52 2.78208 251.506C2.72915 251.493 2.67363 251.493 2.62108 251.508C2.56854 251.523 2.52082 251.552 2.48273 251.591C2.44464 251.63 2.41751 251.678 2.40407 251.731L1.18401 256.752C1.16847 256.825 1.18156 256.901 1.22061 256.965Z" fill="url(#paint1_linear_2094_9072)"/>
<path d="M101.551 408.172L103.381 406.342C103.579 406.144 103.691 405.875 103.691 405.595C103.691 405.315 103.579 405.046 103.381 404.848C103.183 404.649 102.914 404.538 102.634 404.538C102.354 404.538 102.085 404.649 101.887 404.848L100.056 406.678L98.2263 404.848C98.0281 404.649 97.7593 404.538 97.4791 404.538C97.1988 404.538 96.93 404.649 96.7318 404.848C96.5336 405.046 96.4222 405.315 96.4222 405.595C96.4222 405.875 96.5336 406.144 96.7318 406.342L98.5619 408.172L96.7318 410.002C96.6292 410.1 96.5473 410.217 96.4907 410.347C96.4342 410.477 96.4041 410.617 96.4024 410.758C96.4007 410.9 96.4273 411.04 96.4807 411.171C96.5341 411.302 96.6131 411.422 96.7132 411.522C96.8133 411.622 96.9325 411.701 97.0636 411.754C97.1947 411.808 97.3352 411.834 97.4767 411.832C97.6183 411.831 97.7581 411.801 97.8879 411.744C98.0177 411.688 98.1348 411.606 98.2324 411.503L100.063 409.673L101.893 411.503C102.093 411.694 102.361 411.799 102.638 411.796C102.915 411.792 103.179 411.681 103.375 411.485C103.571 411.289 103.683 411.024 103.686 410.747C103.689 410.47 103.584 410.203 103.393 410.002L101.551 408.172Z" fill="url(#paint2_linear_2094_9072)"/>
<path d="M200.212 389.523L202.042 387.693C202.24 387.495 202.352 387.226 202.352 386.946C202.352 386.665 202.24 386.396 202.042 386.198C201.844 386 201.575 385.889 201.295 385.889C201.015 385.889 200.746 386 200.548 386.198L198.718 388.028L196.887 386.198C196.689 386 196.42 385.889 196.14 385.889C195.86 385.889 195.591 386 195.393 386.198C195.195 386.396 195.083 386.665 195.083 386.946C195.083 387.226 195.195 387.495 195.393 387.693L197.223 389.523L195.393 391.353C195.29 391.451 195.208 391.568 195.152 391.698C195.095 391.827 195.065 391.967 195.064 392.109C195.062 392.25 195.088 392.391 195.142 392.522C195.195 392.653 195.274 392.772 195.374 392.872C195.474 392.972 195.594 393.051 195.725 393.105C195.856 393.158 195.996 393.185 196.138 393.183C196.279 393.181 196.419 393.151 196.549 393.095C196.679 393.038 196.796 392.956 196.894 392.854L198.724 391.024L200.554 392.854C200.754 393.045 201.022 393.15 201.299 393.146C201.576 393.143 201.84 393.032 202.036 392.836C202.232 392.64 202.344 392.375 202.347 392.098C202.351 391.821 202.246 391.554 202.054 391.353L200.212 389.523Z" fill="white"/>
<path d="M428.348 382.248L430.178 380.418C430.355 380.215 430.447 379.952 430.438 379.683C430.428 379.414 430.317 379.159 430.126 378.97C429.935 378.78 429.68 378.669 429.411 378.661C429.142 378.652 428.88 378.746 428.678 378.923L426.848 380.753L425.017 378.923C424.815 378.746 424.553 378.652 424.284 378.661C424.015 378.669 423.76 378.78 423.569 378.97C423.379 379.159 423.267 379.414 423.257 379.683C423.248 379.952 423.34 380.215 423.517 380.418L425.347 382.248L423.517 384.078C423.318 384.277 423.206 384.547 423.206 384.828C423.206 385.11 423.318 385.379 423.517 385.579C423.615 385.677 423.731 385.755 423.859 385.808C423.988 385.861 424.125 385.889 424.264 385.889C424.403 385.889 424.54 385.861 424.669 385.808C424.797 385.755 424.913 385.677 425.011 385.579L426.841 383.748L428.672 385.579C428.872 385.77 429.139 385.875 429.416 385.871C429.693 385.868 429.958 385.756 430.154 385.56C430.35 385.365 430.462 385.1 430.465 384.823C430.468 384.546 430.363 384.278 430.172 384.078L428.348 382.248Z" fill="url(#paint3_linear_2094_9072)"/>
<path d="M84.8745 162.709C84.0505 162.709 83.2449 162.465 82.5597 162.007C81.8745 161.549 81.3405 160.898 81.0252 160.137C80.7098 159.376 80.6273 158.538 80.7881 157.73C80.9488 156.921 81.3457 156.179 81.9284 155.596C82.5111 155.014 83.2535 154.617 84.0617 154.456C84.8699 154.295 85.7077 154.378 86.469 154.693C87.2303 155.008 87.881 155.543 88.3389 156.228C88.7967 156.913 89.0411 157.718 89.0411 158.542C89.0394 159.647 88.5999 160.706 87.8189 161.487C87.0379 162.268 85.9791 162.707 84.8745 162.709ZM84.8745 155.681C84.3087 155.681 83.7555 155.849 83.285 156.164C82.8145 156.478 82.4478 156.925 82.2313 157.448C82.0147 157.97 81.9581 158.546 82.0685 159.101C82.1788 159.656 82.4513 160.165 82.8515 160.566C83.2516 160.966 83.7614 161.238 84.3164 161.349C84.8714 161.459 85.4466 161.402 85.9694 161.186C86.4922 160.969 86.939 160.603 87.2534 160.132C87.5678 159.662 87.7356 159.108 87.7356 158.542C87.734 157.784 87.432 157.057 86.8958 156.521C86.3596 155.985 85.6328 155.683 84.8745 155.681Z" fill="url(#paint4_linear_2094_9072)"/>
<path d="M438.949 275.095C438.124 275.095 437.317 274.851 436.631 274.392C435.945 273.934 435.41 273.282 435.094 272.519C434.778 271.757 434.696 270.918 434.857 270.109C435.018 269.299 435.415 268.556 435.998 267.972C436.582 267.389 437.326 266.991 438.135 266.83C438.944 266.669 439.783 266.752 440.546 267.068C441.308 267.383 441.96 267.918 442.418 268.604C442.877 269.291 443.122 270.097 443.122 270.923C443.12 272.029 442.68 273.089 441.898 273.871C441.116 274.654 440.055 275.094 438.949 275.095ZM438.949 268.062C438.382 268.062 437.827 268.23 437.355 268.545C436.884 268.861 436.516 269.309 436.3 269.833C436.083 270.357 436.026 270.934 436.137 271.49C436.249 272.047 436.522 272.558 436.924 272.958C437.325 273.359 437.837 273.632 438.393 273.742C438.95 273.851 439.527 273.794 440.05 273.576C440.574 273.358 441.022 272.989 441.336 272.517C441.65 272.045 441.817 271.49 441.816 270.923C441.815 270.163 441.512 269.436 440.974 268.899C440.437 268.363 439.708 268.062 438.949 268.062Z" fill="url(#paint5_linear_2094_9072)"/>
<path d="M179.602 254.736C178.777 254.736 177.97 254.491 177.284 254.033C176.598 253.574 176.063 252.922 175.747 252.16C175.431 251.398 175.349 250.559 175.51 249.749C175.671 248.94 176.068 248.196 176.652 247.613C177.235 247.029 177.979 246.632 178.788 246.471C179.598 246.31 180.437 246.392 181.199 246.708C181.962 247.024 182.613 247.559 183.072 248.245C183.53 248.931 183.775 249.738 183.775 250.563C183.773 251.669 183.333 252.73 182.551 253.512C181.769 254.294 180.708 254.734 179.602 254.736ZM179.602 247.702C179.035 247.702 178.48 247.871 178.009 248.186C177.537 248.501 177.17 248.949 176.953 249.474C176.736 249.998 176.68 250.575 176.791 251.131C176.902 251.687 177.176 252.198 177.577 252.599C177.979 253 178.49 253.272 179.047 253.382C179.603 253.492 180.18 253.434 180.704 253.216C181.228 252.999 181.675 252.63 181.989 252.158C182.304 251.686 182.471 251.131 182.469 250.563C182.468 249.804 182.165 249.076 181.628 248.54C181.09 248.003 180.362 247.702 179.602 247.702Z" fill="white"/>
</g>
<defs>
<linearGradient id="paint0_linear_2094_9072" x1="350.653" y1="155.139" x2="359.993" y2="158.945" gradientUnits="userSpaceOnUse">
<stop stop-color="#FF9666"/>
<stop offset="1" stop-color="#C42D40"/>
</linearGradient>
<linearGradient id="paint1_linear_2094_9072" x1="0.67768" y1="253.714" x2="10.0173" y2="257.52" gradientUnits="userSpaceOnUse">
<stop stop-color="#FF9666"/>
<stop offset="1" stop-color="#C42D40"/>
</linearGradient>
<linearGradient id="paint2_linear_2094_9072" x1="97.3601" y1="405.342" x2="103.131" y2="411.412" gradientUnits="userSpaceOnUse">
<stop stop-color="#FFDD4F"/>
<stop offset="1" stop-color="#FF8F5C"/>
</linearGradient>
<linearGradient id="paint3_linear_2094_9072" x1="424.157" y1="379.417" x2="429.928" y2="385.487" gradientUnits="userSpaceOnUse">
<stop stop-color="#FFDD4F"/>
<stop offset="1" stop-color="#FF8F5C"/>
</linearGradient>
<linearGradient id="paint4_linear_2094_9072" x1="80.708" y1="158.543" x2="89.0411" y2="158.543" gradientUnits="userSpaceOnUse">
<stop stop-color="#5D64C2"/>
<stop offset="1" stop-color="#251978"/>
</linearGradient>
<linearGradient id="paint5_linear_2094_9072" x1="434.782" y1="270.923" x2="443.122" y2="270.923" gradientUnits="userSpaceOnUse">
<stop stop-color="#5D64C2"/>
<stop offset="1" stop-color="#251978"/>
</linearGradient>
<clipPath id="clip0_2094_9072">
<rect width="443.122" height="420.941" fill="white" transform="translate(0 0.074707)"/>
</clipPath>
</defs>
</svg>
