<svg id="Layer_1" data-name="Layer 1" xmlns="http://www.w3.org/2000/svg" viewBox="0 0 1024 1024"><defs><style>.cls-1{fill:none;stroke:#6fb572;stroke-linecap:round;stroke-linejoin:round;stroke-width:34.91px;}.cls-2{fill:#6fb572;fill-rule:evenodd;}</style></defs><title>S_line-1</title><path class="cls-1" d="M34.91,779.64,267.64,482.91,513.16,599.27,756.36,242l232.73,30.25"/><path class="cls-2" d="M34.91,814.55c19.78,0,34.91-15.13,34.91-34.91s-15.13-34.91-34.91-34.91S0,759.85,0,779.64,15.13,814.55,34.91,814.55Z"/><path class="cls-2" d="M267.64,512c19.78,0,34.91-15.13,34.91-34.91s-15.13-34.91-34.91-34.91-34.91,15.13-34.91,34.91S247.85,512,267.64,512Z"/><path class="cls-2" d="M512,628.36c19.78,0,34.91-15.12,34.91-34.91s-15.13-34.9-34.91-34.9-34.91,15.12-34.91,34.9S492.22,628.36,512,628.36Z"/><path class="cls-2" d="M989.09,302.55c19.78,0,34.91-15.13,34.91-34.91s-15.13-34.91-34.91-34.91-34.91,15.12-34.91,34.91S969.31,302.55,989.09,302.55Z"/><path class="cls-2" d="M756.36,279.27c19.79,0,34.91-15.12,34.91-34.91s-15.12-34.91-34.91-34.91-34.91,15.13-34.91,34.91S736.58,279.27,756.36,279.27Z"/></svg>