<svg id="Layer_1" data-name="Layer 1" xmlns="http://www.w3.org/2000/svg" viewBox="0 0 1024 1024"><defs><style>.cls-1{fill:none;stroke:#ede7a4;stroke-linecap:round;stroke-linejoin:round;stroke-width:34.91px;}.cls-2{fill:#ede7a4;fill-rule:evenodd;}</style></defs><title>S_line-2</title><path class="cls-1" d="M34.91,778.64,267.64,481.91,513.16,598.27,756.36,241l232.73,30.25"/><path class="cls-2" d="M34.91,813.55c19.78,0,34.91-15.13,34.91-34.91s-15.13-34.91-34.91-34.91S0,758.85,0,778.64,15.13,813.55,34.91,813.55Z"/><path class="cls-2" d="M267.64,511c19.78,0,34.91-15.13,34.91-34.91s-15.13-34.91-34.91-34.91-34.91,15.13-34.91,34.91S247.85,511,267.64,511Z"/><path class="cls-2" d="M512,627.36c19.78,0,34.91-15.12,34.91-34.91s-15.13-34.9-34.91-34.9-34.91,15.12-34.91,34.9S492.22,627.36,512,627.36Z"/><path class="cls-2" d="M989.09,301.55c19.78,0,34.91-15.13,34.91-34.91s-15.13-34.91-34.91-34.91-34.91,15.12-34.91,34.91S969.31,301.55,989.09,301.55Z"/><path class="cls-2" d="M756.36,278.27c19.79,0,34.91-15.12,34.91-34.91s-15.12-34.91-34.91-34.91-34.91,15.13-34.91,34.91S736.58,278.27,756.36,278.27Z"/></svg>