<?xml version="1.0" encoding="utf-8"?>
<!-- Generator: Adobe Illustrator 22.0.0, SVG Export Plug-In . SVG Version: 6.00 Build 0)  -->
<svg version="1.1" id="Layer_1" xmlns="http://www.w3.org/2000/svg" xmlns:xlink="http://www.w3.org/1999/xlink" x="0px" y="0px"
	 viewBox="0 0 1024 1024" style="enable-background:new 0 0 1024 1024;" xml:space="preserve">
<style type="text/css">
	.st0{fill:#EEEEEE;}
	.st1{fill:#D8CC5D;}
	.st2{fill:#968806;}
	.st3{fill:#EDE7A4;}
</style>
<g>
	<path class="st0" d="M205.7,768.3c0-0.2,0-0.4,0-0.6c0-169.2,137.1-306.3,306.3-306.3s306.3,137.1,306.3,306.3c0,0.2,0,0.4,0,0.6
		H1024c0-0.2,0-0.4,0-0.6c0-282.8-229.2-512-512-512S0,484.9,0,767.7c0,0.2,0,0.4,0,0.6H205.7z"/>
	<path class="st1" d="M419.8,475.5l-65.1-195.2C148.9,346.7,0,539.8,0,767.7c0,0.2,0,0.4,0,0.6h205.7c0-0.2,0-0.4,0-0.6
		C205.7,630.7,295.7,514.7,419.8,475.5z"/>
	<path class="st2" d="M419.5,475.6c29.2-9.2,60.3-14.2,92.5-14.2c32.8,0,64.4,5.2,94.1,14.7l63.2-195.8
		c-49.6-16-102.4-24.6-157.3-24.6c-55.4,0-108.7,8.8-158.7,25.1L419.5,475.6z"/>
	<path class="st3" d="M100.2,463.3C37.3,548.4,0,653.7,0,767.7c0,0.2,0,0.4,0,0.6h205.7c0-0.2,0-0.4,0-0.6
		c0-67.6,21.9-130.1,59-180.8L100.2,463.3z"/>
</g>
</svg>
