<?xml version="1.0" encoding="utf-8"?>
<!-- Generator: Adobe Illustrator 23.0.1, SVG Export Plug-In . SVG Version: 6.00 Build 0)  -->
<svg version="1.1" id="Layer_1" xmlns="http://www.w3.org/2000/svg" xmlns:xlink="http://www.w3.org/1999/xlink" x="0px" y="0px"
	 viewBox="0 0 1024 1024" style="enable-background:new 0 0 1024 1024;" xml:space="preserve">
<style type="text/css">
	.st0{fill:#FFFFFF;}
</style>
<rect class="st0" width="1024" height="1024"/>
<g>
	<g>
		<g>
			<path d="M354.5,92H92v262.5h262.5V92z M302,302H144.5V144.5H302V302z"/>
			<rect x="197" y="197" width="52.5" height="52.5"/>
			<path d="M669.5,92v262.5H932V92H669.5z M879.5,302H722V144.5h157.5V302z"/>
			<rect x="774.5" y="197" width="52.5" height="52.5"/>
			<path d="M92,932h262.5V669.5H92V932z M144.5,722H302v157.5H144.5V722z"/>
			<rect x="197" y="774.5" width="52.5" height="52.5"/>
			<rect x="512" y="92" width="105" height="52.5"/>
			<polygon points="512,302 564.5,302 564.5,249.5 617,249.5 617,197 459.5,197 459.5,144.5 407,144.5 407,197 407,223.25 
				407,249.5 512,249.5 			"/>
			<rect x="407" y="302" width="52.5" height="52.5"/>
			<polygon points="617,354.5 564.5,354.5 564.5,407 407,407 407,459.5 617,459.5 			"/>
			<polygon points="144.5,564.5 197,564.5 197,512 144.5,512 144.5,407 92,407 92,617 144.5,617 			"/>
			<rect x="197" y="407" width="52.5" height="52.5"/>
			<polygon points="407,617 512,617 512,564.5 459.5,564.5 459.5,512 354.5,512 354.5,407 302,407 302,512 249.5,512 249.5,617 
				302,617 302,564.5 328.25,564.5 354.5,564.5 407,564.5 			"/>
			<rect x="564.5" y="512" width="52.5" height="105"/>
			<polygon points="564.5,669.5 407,669.5 407,722 512,722 512,879.5 407,879.5 407,932 564.5,932 564.5,879.5 669.5,879.5 
				669.5,827 564.5,827 			"/>
			<rect x="407" y="774.5" width="52.5" height="52.5"/>
			<rect x="617" y="669.5" width="52.5" height="105"/>
			<polygon points="879.5,774.5 722,774.5 722,932 774.5,932 774.5,827 879.5,827 			"/>
			<rect x="827" y="879.5" width="105" height="52.5"/>
			<rect x="879.5" y="669.5" width="52.5" height="52.5"/>
			<polygon points="722,722 774.5,722 774.5,564.5 669.5,564.5 669.5,617 722,617 			"/>
			<polygon points="827,459.5 774.5,459.5 774.5,407 722,407 722,459.5 669.5,459.5 669.5,512 879.5,512 879.5,459.5 932,459.5 
				932,407 827,407 			"/>
			<rect x="827" y="564.5" width="105" height="52.5"/>
		</g>
	</g>
</g>
</svg>
