<svg id="Layer_1" data-name="Layer 1" xmlns="http://www.w3.org/2000/svg" viewBox="0 0 1024 1024"><defs><style>.cls-1{fill:#0f1934;}</style></defs><title>UPC</title><rect class="cls-1" x="77.37" y="164.89" width="54.35" height="652.19"/><rect class="cls-1" x="187.02" y="164.89" width="43.48" height="521.75"/><rect class="cls-1" x="266.95" y="164.89" width="54.35" height="521.75"/><rect class="cls-1" x="410.81" y="164.89" width="32.61" height="521.75"/><rect class="cls-1" x="355.19" y="164.89" width="19.18" height="521.75"/><rect class="cls-1" x="671.69" y="164.89" width="25.58" height="521.75"/><rect class="cls-1" x="810.44" y="164.89" width="32.61" height="521.75"/><polygon class="cls-1" points="584.25 164.88 573.06 164.88 573.06 686.64 584.25 686.64 601.2 686.64 637 686.64 637 164.88 601.2 164.88 584.25 164.88"/><rect class="cls-1" x="481.15" y="164.89" width="54.35" height="652.83"/><polygon class="cls-1" points="760.57 164.88 737.87 164.88 737.87 686.64 760.57 686.64 764.72 686.64 769.84 686.64 769.84 164.88 764.72 164.88 760.57 164.88"/><rect class="cls-1" x="883.97" y="164.89" width="54.35" height="648.99"/><path class="cls-1" d="M236.74,813.24c0,29.41-10.87,45.55-30.05,45.55-16.95,0-28.3-15.82-28.62-44.43,0-29.1,12.47-44.92,30.05-44.92C226.35,769.44,236.74,785.74,236.74,813.24Zm-47,1.28c0,22.54,6.88,35.16,17.59,35.16,12,0,17.74-14.06,17.74-36,0-21.42-5.44-35.17-17.58-35.17C197.26,778.55,189.74,791,189.74,814.52Z"/><path class="cls-1" d="M274.3,781.91H274l-15,8-2.24-8.79,19-10.07h9.91v86.48H274.46l-.16-75.61Z"/><path class="cls-1" d="M17.58,781.91h-.32l-15,8.15L0,781.27,19,771.2h9.91v86.48H17.74l-.16-75.77Z"/><path class="cls-1" d="M318.42,857.52v-7.2l9.27-9c22.06-20.94,32.13-32.29,32.29-45.24,0-8.79-4.31-16.94-17.1-16.94-7.83,0-14.39,4-18.38,7.35l-3.84-8.15a37.58,37.58,0,0,1,24.46-8.79c18.54,0,26.53,12.79,26.53,25.09,0,16-11.67,28.94-29.89,46.52l-6.87,6.4v.32h38.84v9.75l-55.31-.16Z"/><path class="cls-1" d="M390.83,844.09A39.79,39.79,0,0,0,410,849.52c15,0,19.66-9.59,19.5-16.78-.16-12.15-11-17.26-22.38-17.26h-6.56v-8.8h6.56c8.47,0,19.34-4.47,19.34-14.7,0-6.88-4.48-13-15.19-13A31.26,31.26,0,0,0,394,784.78l-3-8.47c4.48-3.35,13.27-6.71,22.54-6.71,17.11,0,24.78,10.07,24.78,20.62,0,8.95-5.28,16.62-16,20.3v.32c10.55,2.08,19.35,10.07,19.35,22.22C441.67,846.81,431,859,410,859c-9.76,0-18.23-3-22.54-5.75Z"/><path class="cls-1" d="M625.49,781H592.56l-3.35,22.22a41.35,41.35,0,0,1,7-.48c6.71,0,13.27,1.44,18.54,4.63,6.88,3.84,12.31,11.19,12.31,22.22,0,17-13.43,29.57-32.13,29.57-9.43,0-17.42-2.71-21.58-5.27l2.88-9a38.6,38.6,0,0,0,18.38,4.79c11,0,20.46-7.19,20.46-18.86-.16-11-7.51-19.18-24.77-19.18a77,77,0,0,0-12,1L583.93,771h41.56V781Z"/><path class="cls-1" d="M692.79,779.19a43.82,43.82,0,0,0-8.79.48c-18.22,3-28,16.46-30,30.69h.32a25.6,25.6,0,0,1,20.78-9.91c15.18,0,26.05,11,26.05,27.81,0,15.83-10.71,30.38-28.77,30.38-18.38,0-30.53-14.39-30.53-36.77,0-17.1,6.07-30.37,14.7-39a47,47,0,0,1,27.66-12.79,62.16,62.16,0,0,1,8.47-.64l.16,9.75Zm-3.36,49.87c0-12.31-7-19.82-17.74-19.82-7,0-13.43,4.48-16.78,10.55a9.69,9.69,0,0,0-1.44,5.12c.32,14.22,6.87,24.77,19,24.77C682.72,849.84,689.43,841.53,689.43,829.06Z"/><path class="cls-1" d="M769,771v7.67l-37.57,78.65H719.33L756.73,781v-.32h-42.2V771Z"/><path class="cls-1" d="M781.51,835.46c0-10.87,6.55-18.55,17.1-23l-.16-.32c-9.59-4.48-13.75-12-13.75-19.5,0-13.75,11.67-23,26.7-23,16.78,0,25.1,10.55,25.1,21.26,0,7.35-3.52,15.18-14.23,20.14v.32c10.71,4.32,17.42,11.83,17.42,22.38,0,15-12.79,25.09-29.41,25.09C792.38,858.79,781.51,848.08,781.51,835.46ZM828,835c0-10.55-7.35-15.51-19-18.87-10.07,2.88-15.5,9.6-15.5,17.75-.32,8.79,6.23,16.46,17.26,16.46C821.15,850.48,828,843.93,828,835Zm-32.29-43.16c0,8.63,6.56,13.27,16.47,15.82,7.51-2.55,13.11-7.83,13.11-15.66,0-6.88-4.16-14.07-14.71-14.07C801,778.07,795.73,784.3,795.73,791.82Z"/><path class="cls-1" d="M1024,767.84v7.67l-37.56,78.65H974.29l37.4-76.41v-.32h-42.2v-9.59Z"/></svg>