<?xml version="1.0" encoding="utf-8"?>
<!-- Generator: Adobe Illustrator 22.0.0, SVG Export Plug-In . SVG Version: 6.00 Build 0)  -->
<svg version="1.1" id="Layer_1" xmlns="http://www.w3.org/2000/svg" xmlns:xlink="http://www.w3.org/1999/xlink" x="0px" y="0px"
	 viewBox="0 0 1004.9 1024" style="enable-background:new 0 0 1004.9 1024;" xml:space="preserve">
<style type="text/css">
	.st0{fill:#EAEAEA;}
	.st1{fill:#F25136;}
	.st2{opacity:0.15;fill:#F2B657;}
	.st3{opacity:0.35;fill:#F2B657;}
	.st4{fill:#C4261E;}
	.st5{fill:none;stroke:#C4261E;stroke-width:6.0006;stroke-linecap:round;stroke-miterlimit:10;}
</style>
<g id="XMLID_1_">
	<circle id="XMLID_27_" class="st0" cx="502.4" cy="521.6" r="502.4"/>
	
		<ellipse id="XMLID_26_" transform="matrix(0.7071 -0.7071 0.7071 0.7071 -208.1025 502.4247)" class="st1" cx="502.4" cy="502.4" rx="502.4" ry="502.4"/>
	<ellipse id="XMLID_25_" class="st2" cx="506.1" cy="454.2" rx="474.9" ry="431.4"/>
	<path id="XMLID_24_" class="st3" d="M1004.9,505.5c0,17.8-1,35.4-2.8,52.7c-26.3-252.7-240-449.7-499.7-449.7
		c-259.6,0-473.3,197-499.6,449.7C1,540.8,0,523.3,0,505.5C0,228,225,3.1,502.4,3.1C779.9,3.1,1004.9,228,1004.9,505.5z"/>
	<path id="XMLID_23_" class="st3" d="M838.7,317.2c-14.2,4.9-30.4-4.2-36-20.5c-5.6-16.3,1.3-33.5,15.6-38.4
		c14.2-4.9,30.4,4.2,36,20.5C859.9,295.1,853,312.3,838.7,317.2z"/>
	<path id="XMLID_22_" class="st3" d="M874.9,348.5c-5.4,1.9-11.6-1.6-13.8-7.8c-2.2-6.2,0.5-12.8,5.9-14.7
		c5.4-1.9,11.6,1.6,13.8,7.8C883,340,880.3,346.6,874.9,348.5z"/>
	<g id="XMLID_16_">
		<g id="XMLID_19_">
			<circle id="XMLID_21_" class="st4" cx="297.5" cy="476" r="52.4"/>
			<path id="XMLID_20_" class="st4" d="M759.8,476c0,29-23.5,52.4-52.4,52.4S654.9,505,654.9,476s23.5-52.4,52.4-52.4
				S759.8,447.1,759.8,476z"/>
		</g>
		<line id="XMLID_18_" class="st5" x1="362.9" y1="459.9" x2="213.1" y2="412"/>
		<line id="XMLID_17_" class="st5" x1="642" y1="459.9" x2="791.8" y2="412"/>
	</g>
	<g id="XMLID_14_">
		<path id="XMLID_15_" class="st4" d="M385.2,728.7c0-64.8,52.5-117.2,117.2-117.2c64.8,0,117.2,52.5,117.2,117.2H385.2z"/>
	</g>
</g>
</svg>
