<svg xmlns="http://www.w3.org/2000/svg" version="1.0" viewBox="0 0 1024.000000 1024.000000" style="&#10; height: 24px;&#10; width: 24px;&#10;"><defs> <linearGradient id="grad1" x1="0%" y1="0%" x2="100%" y2="0%"> <stop offset="0%" style="stop-color: #2989ff;stop-opacity:1;"/> <stop offset="100%" style="stop-color: #63a8ff;stop-opacity:1;"/> </linearGradient> </defs><g transform="translate(0.000000,1024.000000) scale(0.100000,-0.100000)" fill="url(#grad1)" stroke="none"><path d="M213 10207 c-82 -31 -153 -103 -181 -186 -9 -25 -12 -220 -12 -706 0 -751 -2 -726 71 -809 89 -101 241 -132 361 -73 61 30 105 74 140 140 23 42 23 45 26 544 l3 502 492 3 c489 3 492 3 534 26 66 35 110 79 140 140 23 46 28 70 28 132 0 119 -50 206 -155 268 l-45 27 -685 2 c-508 1 -693 -1 -717 -10z"/><path d="M4995 10196 c-106 -49 -4222 -2439 -4253 -2469 -18 -17 -45 -57 -60 -87 l-27 -55 0 -2465 0 -2465 27 -55 c15 -30 42 -70 60 -87 31 -30 4147 -2420 4253 -2469 70 -33 180 -33 250 0 92 43 4198 2426 4241 2461 25 21 54 59 71 93 l28 57 0 2455 c0 2351 -1 2457 -18 2507 -11 30 -37 72 -60 97 -34 36 -445 279 -2127 1252 -1147 664 -2107 1218 -2135 1230 -70 33 -180 33 -250 0z m1903 -1656 c973 -564 1767 -1028 1763 -1031 -3 -4 -801 -464 -1773 -1022 l-1768 -1015 -1767 1015 c-973 558 -1771 1018 -1774 1022 -7 6 3530 2061 3542 2058 4 -1 803 -463 1777 -1027z m-3857 -2578 l1774 -1019 3 -2047 c1 -1199 -2 -2046 -7 -2044 -38 14 -3237 1874 -3232 1879 3 4 573 332 1266 729 693 397 1275 736 1293 753 89 86 115 236 59 349 -34 69 -101 131 -164 152 -57 20 -158 21 -209 2 -22 -7 -605 -338 -1297 -735 -692 -396 -1261 -721 -1263 -721 -2 0 -4 837 -4 1860 0 1023 2 1860 4 1860 2 0 802 -458 1777 -1018z m5939 -842 c0 -1023 -2 -1860 -4 -1860 -2 0 -570 325 -1263 721 -692 397 -1275 728 -1297 735 -51 19 -152 18 -209 -2 -63 -21 -130 -83 -164 -152 -39 -80 -40 -183 -1 -262 15 -30 42 -69 60 -87 18 -17 600 -356 1293 -753 693 -397 1263 -725 1266 -729 5 -5 -3194 -1865 -3232 -1879 -5 -2 -8 869 -7 2044 l3 2047 1770 1018 c974 559 1773 1018 1778 1018 4 1 7 -836 7 -1859z"/><path d="M8619 10206 c-120 -43 -194 -152 -194 -286 1 -123 56 -213 168 -272 42 -23 45 -23 534 -26 l492 -3 3 -502 c3 -499 3 -502 26 -544 35 -66 79 -110 140 -140 120 -59 272 -28 361 73 74 84 72 57 69 825 -3 771 2 719 -83 804 -85 85 -33 80 -800 82 -538 2 -688 0 -716 -11z"/><path d="M219 1825 c-62 -20 -146 -96 -175 -160 l-24 -50 0 -685 0 -685 24 -52 c32 -69 95 -127 163 -153 54 -20 69 -20 727 -18 l671 3 42 23 c66 35 110 79 140 140 23 46 28 70 28 132 0 158 -99 274 -255 299 -38 7 -245 11 -502 11 l-438 0 0 483 c0 543 0 540 -72 622 -57 65 -126 97 -213 101 -43 3 -88 -2 -116 -11z"/><path d="M9840 1831 c-55 -17 -110 -52 -148 -96 -72 -82 -72 -79 -72 -622 l0 -483 -437 0 c-258 0 -465 -4 -503 -11 -156 -25 -255 -141 -255 -299 1 -123 56 -213 168 -272 l42 -23 671 -3 c658 -2 673 -2 727 18 68 26 131 84 163 153 l24 52 0 685 0 685 -24 50 c-31 67 -113 140 -179 160 -53 16 -135 18 -177 6z"/></g></svg>