<svg width="24" height="24" viewBox="0 0 24 24" fill="none" xmlns="http://www.w3.org/2000/svg">
<path d="M0.452356 0.12206C0.260169 0.194716 0.0937626 0.363467 0.0281376 0.557998C0.0070439 0.616592 1.26497e-05 1.07362 1.26497e-05 2.21269C1.26497e-05 3.97284 -0.00467486 3.91425 0.166419 4.10878C0.375013 4.3455 0.731263 4.41815 1.01251 4.27987C1.15548 4.20956 1.25861 4.10644 1.34064 3.95175C1.39454 3.85331 1.39454 3.84628 1.40157 2.67675L1.40861 1.50019L2.56173 1.49315C3.70782 1.48612 3.71486 1.48612 3.81329 1.43222C3.96798 1.35019 4.07111 1.24706 4.14142 1.10409C4.19532 0.996279 4.20704 0.940029 4.20704 0.794717C4.20704 0.51581 4.08986 0.311904 3.84376 0.166592L3.73829 0.103311L2.13282 0.0986228C0.9422 0.0962791 0.508606 0.100966 0.452356 0.12206Z" fill="white"/>
<path d="M11.6602 0.148241C11.4117 0.263084 1.76484 5.86465 1.69219 5.93496C1.65 5.9748 1.58672 6.06855 1.55156 6.13887L1.48828 6.26777V12.0451V17.8225L1.55156 17.9514C1.58672 18.0217 1.65 18.1154 1.69219 18.1553C1.76484 18.2256 11.4117 23.8271 11.6602 23.942C11.8242 24.0193 12.082 24.0193 12.2461 23.942C12.4617 23.8412 22.0852 18.2561 22.1859 18.174C22.2445 18.1248 22.3125 18.0357 22.3523 17.9561L22.418 17.8225V12.0686C22.418 6.5584 22.4156 6.30996 22.3758 6.19277C22.35 6.12246 22.2891 6.02402 22.2352 5.96543C22.1555 5.88105 21.1922 5.31152 17.25 3.03105C14.5617 1.4748 12.3117 0.176367 12.2461 0.148241C12.082 0.0708981 11.8242 0.0708981 11.6602 0.148241ZM16.1203 4.02949C18.4008 5.35137 20.2617 6.43887 20.2523 6.4459C20.2453 6.45527 18.375 7.5334 16.0969 8.84121L11.9531 11.2201L7.81172 8.84121C5.53125 7.5334 3.66094 6.45527 3.65391 6.4459C3.6375 6.43184 11.9273 1.61543 11.9555 1.62246C11.9648 1.6248 13.8375 2.70762 16.1203 4.02949ZM7.08047 10.0717L11.2383 12.46L11.2453 17.2576C11.2477 20.0678 11.2406 22.0529 11.2289 22.0482C11.1398 22.0154 3.64219 17.6561 3.65391 17.6443C3.66094 17.635 4.99688 16.8662 6.62109 15.9357C8.24531 15.0053 9.60938 14.2107 9.65156 14.1709C9.86016 13.9693 9.92109 13.6178 9.78984 13.3529C9.71016 13.1912 9.55313 13.0459 9.40547 12.9967C9.27188 12.9498 9.03516 12.9475 8.91563 12.992C8.86406 13.0084 7.49766 13.7842 5.87578 14.7146C4.25391 15.6428 2.92031 16.4045 2.91563 16.4045C2.91094 16.4045 2.90625 14.4428 2.90625 12.0451C2.90625 9.64746 2.91094 7.68574 2.91563 7.68574C2.92031 7.68574 4.79531 8.75918 7.08047 10.0717ZM21 12.0451C21 14.4428 20.9953 16.4045 20.9906 16.4045C20.9859 16.4045 19.6547 15.6428 18.0305 14.7146C16.4086 13.7842 15.0422 13.0084 14.9906 12.992C14.8711 12.9475 14.6344 12.9498 14.5008 12.9967C14.3531 13.0459 14.1961 13.1912 14.1164 13.3529C14.025 13.5404 14.0227 13.7818 14.1141 13.967C14.1492 14.0373 14.2125 14.1287 14.2547 14.1709C14.2969 14.2107 15.6609 15.0053 17.2852 15.9357C18.9094 16.8662 20.2453 17.635 20.2523 17.6443C20.2641 17.6561 12.7664 22.0154 12.6773 22.0482C12.6656 22.0529 12.6586 20.0115 12.6609 17.2576L12.668 12.46L16.8164 10.074C19.0992 8.76387 20.9719 7.68809 20.9836 7.68809C20.993 7.68574 21 9.64746 21 12.0451Z" fill="white"/>
<path d="M20.1539 0.124404C19.8727 0.225186 19.6992 0.480654 19.6992 0.794717C19.7016 1.083 19.8305 1.29394 20.093 1.43222C20.1914 1.48612 20.1984 1.48612 21.3445 1.49315L22.4977 1.50019L22.5047 2.67675C22.5117 3.84628 22.5117 3.85331 22.5656 3.95175C22.6477 4.10644 22.7508 4.20956 22.8938 4.27987C23.175 4.41815 23.5313 4.3455 23.7398 4.10878C23.9133 3.9119 23.9086 3.97519 23.9016 2.17519C23.8945 0.368155 23.9062 0.49003 23.707 0.290811C23.5078 0.0915923 23.6297 0.103311 21.832 0.0986233C20.5711 0.093936 20.2195 0.0986233 20.1539 0.124404Z" fill="white"/>
<path d="M0.466406 19.7683C0.321094 19.8152 0.124219 19.9933 0.05625 20.1433L0 20.2605V21.866V23.4715L0.05625 23.5933C0.13125 23.755 0.278906 23.891 0.438281 23.9519C0.564844 23.9988 0.6 23.9988 2.14219 23.9941L3.71484 23.9871L3.81328 23.9332C3.96797 23.8511 4.07109 23.748 4.14141 23.605C4.19531 23.4972 4.20703 23.441 4.20703 23.2957C4.20703 22.9254 3.975 22.6535 3.60938 22.5949C3.52031 22.5785 3.03516 22.5691 2.43281 22.5691H1.40625V21.4371C1.40625 20.1644 1.40625 20.1715 1.2375 19.9793C1.10391 19.8269 0.942188 19.7519 0.738281 19.7425C0.6375 19.7355 0.532031 19.7472 0.466406 19.7683Z" fill="white"/>
<path d="M23.0156 19.7533C22.8867 19.7931 22.7578 19.8752 22.6688 19.9783C22.5 20.1705 22.5 20.1634 22.5 21.4361V22.5681H21.4758C20.8711 22.5681 20.3859 22.5775 20.2969 22.5939C19.9313 22.6525 19.6992 22.9244 19.6992 23.2947C19.7016 23.583 19.8305 23.7939 20.093 23.9322L20.1914 23.9861L21.7641 23.9931C23.3063 23.9978 23.3414 23.9978 23.468 23.9509C23.6273 23.89 23.775 23.7541 23.85 23.5924L23.9062 23.4705V21.865V20.2595L23.85 20.1424C23.7773 19.9853 23.5852 19.8142 23.4305 19.7674C23.3063 19.7299 23.1141 19.7252 23.0156 19.7533Z" fill="white"/>
</svg>
