<?xml version="1.0" encoding="utf-8"?>
<!-- Generator: Adobe Illustrator 22.0.0, SVG Export Plug-In . SVG Version: 6.00 Build 0)  -->
<svg version="1.1" id="Layer_1" xmlns="http://www.w3.org/2000/svg" xmlns:xlink="http://www.w3.org/1999/xlink" x="0px" y="0px"
	 viewBox="0 0 1004.9 1024" style="enable-background:new 0 0 1004.9 1024;" xml:space="preserve">
<style type="text/css">
	.st0{fill:#EAEAEA;}
	.st1{fill:#1CC674;}
	.st2{opacity:0.5;fill:#2BC96A;}
	.st3{fill:#259354;}
	.st4{opacity:0.5;fill:#75F456;}
	.st5{opacity:0.84;fill:#75F456;}
</style>
<g id="XMLID_120_">
	
		<ellipse id="XMLID_131_" transform="matrix(0.7071 -0.7071 0.7071 0.7071 -221.6584 508.0405)" class="st0" cx="502.4" cy="521.6" rx="502.4" ry="502.4"/>
	
		<ellipse id="XMLID_130_" transform="matrix(0.7071 -0.7071 0.7071 0.7071 -208.1019 502.4252)" class="st1" cx="502.4" cy="502.4" rx="502.4" ry="502.4"/>
	<ellipse id="XMLID_129_" class="st2" cx="506.1" cy="458.9" rx="474.9" ry="431.4"/>
	<g id="XMLID_124_">
		<g id="XMLID_126_">
			<path id="XMLID_128_" class="st3" d="M350,471.7c0,29-23.5,52.4-52.4,52.4c-29,0-52.4-23.5-52.4-52.4c0-29,23.5-52.4,52.4-52.4
				C326.5,419.2,350,442.7,350,471.7z"/>
			<path id="XMLID_127_" class="st3" d="M759.8,471.7c0,29-23.5,52.4-52.4,52.4c-29,0-52.4-23.5-52.4-52.4c0-29,23.5-52.4,52.4-52.4
				C736.3,419.2,759.8,442.7,759.8,471.7z"/>
		</g>
		<path id="XMLID_125_" class="st3" d="M619.7,655.3c0,64.8-52.5,117.2-117.2,117.2S385.2,720,385.2,655.3H619.7z"/>
	</g>
	<path id="XMLID_123_" class="st4" d="M1004.9,510.2c0,17.8-1,35.4-2.8,52.7c-26.3-252.7-240-449.7-499.7-449.7
		C242.8,113.3,29,310.3,2.8,563C1,545.6,0,528.1,0,510.2C0,232.8,225,7.8,502.4,7.8C779.9,7.8,1004.9,232.8,1004.9,510.2z"/>
	<path id="XMLID_122_" class="st5" d="M838.7,302.8c-14.2,4.9-30.4-4.2-36-20.5c-5.6-16.3,1.3-33.5,15.6-38.4
		c14.2-4.9,30.4,4.2,36,20.5C859.9,280.7,853,297.9,838.7,302.8z"/>
	<path id="XMLID_121_" class="st5" d="M874.9,334.1c-5.4,1.9-11.6-1.6-13.8-7.8c-2.2-6.2,0.5-12.8,5.9-14.7
		c5.4-1.9,11.6,1.6,13.8,7.8C883,325.6,880.3,332.2,874.9,334.1z"/>
</g>
</svg>
