<svg id="Layer_1" data-name="Layer 1" xmlns="http://www.w3.org/2000/svg" xmlns:xlink="http://www.w3.org/1999/xlink" viewBox="0 0 476.1 443.2"><defs><style>.cls-1{fill:url(#linear-gradient);}.cls-2{fill:url(#linear-gradient-2);}</style><linearGradient id="linear-gradient" x1="195.9" y1="310" x2="267.9" y2="310" gradientTransform="matrix(1, 0, 0, -1, 0, 514)" gradientUnits="userSpaceOnUse"><stop offset="0" stop-color="#2989ff"/><stop offset="1" stop-color="#63a8ff"/></linearGradient><linearGradient id="linear-gradient-2" x1="18" y1="257.4" x2="494.1" y2="257.4" xlink:href="#linear-gradient"/></defs><title>image_SVG</title><path class="cls-1" d="M231.9,240a36,36,0,1,0-36-36A36,36,0,0,0,231.9,240Z" transform="translate(-18 -35)"/><path class="cls-2" d="M443.5,35H68.5A50.49,50.49,0,0,0,18,85.5V427.7a50.55,50.55,0,0,0,50.5,50.5H443.6a50.55,50.55,0,0,0,50.5-50.5V85.5A50.64,50.64,0,0,0,443.5,35ZM460,299.6l-90.9-90.9a17.81,17.81,0,0,0-25.1,0l-.1.1L231.8,340.6l-83.7-83.7a17.53,17.53,0,0,0-12.6-5.2,17.31,17.31,0,0,0-12.5,5.2l-.1.1L52,346.8V93.8A24.8,24.8,0,0,1,76.8,69H435.2A24.8,24.8,0,0,1,460,93.8ZM52,395.7l83.7-103.2L219,375.8a18.37,18.37,0,0,0,11.2,5.5,18.06,18.06,0,0,0,14.3-5.1l.1-.1L356.7,244.3,460,347.7v71.7a24.8,24.8,0,0,1-24.8,24.8H76.8A25,25,0,0,1,52,419.3Z" transform="translate(-18 -35)"/></svg>