<svg width="24" height="22" viewBox="0 0 24 22" fill="none" xmlns="http://www.w3.org/2000/svg">
<path d="M10.7826 10.1756C11.1416 10.1756 11.4924 10.0708 11.7909 9.87441C12.0893 9.67805 12.3219 9.39896 12.4592 9.07242C12.5966 8.74589 12.6325 8.38658 12.5625 8.03994C12.4925 7.6933 12.3197 7.37488 12.0659 7.12496C11.8121 6.87505 11.4887 6.70485 11.1367 6.6359C10.7847 6.56695 10.4198 6.60234 10.0882 6.73759C9.75657 6.87285 9.47314 7.10189 9.27374 7.39576C9.07433 7.68963 8.9679 8.03513 8.9679 8.38857C8.9679 8.86251 9.15909 9.31704 9.49942 9.65217C9.83975 9.9873 10.3013 10.1756 10.7826 10.1756Z" fill="white"/>
<path d="M21.4493 4.91715e-08H2.54568C2.21136 -6.51607e-05 1.8803 0.0647298 1.57141 0.190684C1.26253 0.316637 0.981868 0.501282 0.745466 0.73407C0.509064 0.966858 0.321553 1.24323 0.193644 1.54739C0.0657347 1.85156 -6.61722e-05 2.17756 4.99349e-08 2.50677V19.4932C0.000667329 20.1579 0.269087 20.7951 0.746351 21.2651C1.22361 21.735 1.87073 21.9993 2.54568 22H21.4543C22.1293 21.9993 22.7764 21.735 23.2537 21.2651C23.7309 20.7951 23.9993 20.1579 24 19.4932V2.50677C23.9981 1.84164 23.7286 1.20435 23.2505 0.734493C22.7724 0.264638 22.1247 0.00052289 21.4493 4.91715e-08ZM22.281 13.1345L17.6988 8.62229C17.5306 8.45782 17.3032 8.36551 17.0662 8.36551C16.8291 8.36551 16.6017 8.45782 16.4335 8.62229L16.4285 8.62726L10.7776 15.1697L6.55829 11.0149C6.47528 10.9323 6.37632 10.8669 6.26723 10.8225C6.15814 10.7782 6.04114 10.7558 5.92313 10.7568C5.80587 10.7559 5.68964 10.7783 5.58138 10.8227C5.47311 10.867 5.37504 10.9324 5.29301 11.0149L5.28796 11.0199L1.71393 15.4774V2.91877C1.71393 2.59228 1.84564 2.27916 2.08009 2.04829C2.31454 1.81742 2.63252 1.68773 2.96408 1.68773H21.0309C21.3624 1.68773 21.6804 1.81742 21.9149 2.04829C22.1493 2.27916 22.281 2.59228 22.281 2.91877V13.1345ZM1.71393 17.9048L5.93321 12.782L10.1323 16.917C10.2824 17.07 10.4821 17.1666 10.6969 17.19C10.8285 17.2018 10.9612 17.1853 11.0857 17.1416C11.2102 17.0979 11.3235 17.028 11.4178 16.9368L11.4228 16.9319L17.0737 10.3894L22.281 15.5221V19.0812C22.281 19.4077 22.1493 19.7208 21.9149 19.9517C21.6804 20.1826 21.3624 20.3123 21.0309 20.3123H2.96408C2.63247 20.3097 2.31526 20.1784 2.08124 19.9471C1.84722 19.7157 1.71524 19.4028 1.71393 19.0763V17.9048Z" fill="white"/>
</svg>
