<?xml version="1.0" encoding="utf-8"?>
<!-- Generator: Adobe Illustrator 22.0.0, SVG Export Plug-In . SVG Version: 6.00 Build 0)  -->
<svg version="1.1" id="Layer_1" xmlns="http://www.w3.org/2000/svg" xmlns:xlink="http://www.w3.org/1999/xlink" x="0px" y="0px"
	 viewBox="0 0 512 450" style="enable-background:new 0 0 512 450;" xml:space="preserve">
<style type="text/css">
	.st0{fill:url(#SVGID_1_);}
	.st1{fill:url(#SVGID_2_);}
</style>
<g>
	<g>
		<linearGradient id="SVGID_1_" gradientUnits="userSpaceOnUse" x1="0" y1="225" x2="512" y2="225">
			<stop  offset="0" style="stop-color:#1980FF"/>
			<stop  offset="1" style="stop-color:#6AACFF"/>
		</linearGradient>
		<path class="st0" d="M467,0H45C20.2,0,0,20.2,0,45v360c0,24.8,20.2,45,45,45h422c24.8,0,45-20.2,45-45V45C512,20.2,491.8,0,467,0
			L467,0z M241,390v30h-90v-30H241z M271,390h90v30h-90V390z M30,360V90h452v270H30z M271,60V30h90v30H271z M241,60h-90V30h90V60z
			 M482,45v15h-91V30h76C475.3,30,482,36.7,482,45L482,45z M45,30h76v30H30V45C30,36.7,36.7,30,45,30L45,30z M30,405v-15h91v30H45
			C36.7,420,30,413.3,30,405L30,405z M467,420h-76v-30h91v15C482,413.3,475.3,420,467,420L467,420z M467,420"/>
	</g>
	<linearGradient id="SVGID_2_" gradientUnits="userSpaceOnUse" x1="181" y1="224.9907" x2="331" y2="224.9907">
		<stop  offset="0" style="stop-color:#1980FF"/>
		<stop  offset="1" style="stop-color:#6AACFF"/>
	</linearGradient>
	<path class="st1" d="M325,213l-120-90c-9.9-7.4-24-0.3-24,12v180c0,5.7,3.2,10.9,8.3,13.4c5.1,2.5,11.2,2,15.7-1.4l120-90
		c3.8-2.8,6-7.3,6-12S328.8,215.8,325,213L325,213z M211,285V165l80,60L211,285z M211,285"/>
</g>
</svg>
