<svg width="24" height="22" viewBox="0 0 24 22" fill="none" xmlns="http://www.w3.org/2000/svg">
<path d="M21.8906 0H2.10938C0.946875 0 0 0.946875 0 2.10938V18.9844C0 20.1469 0.946875 21.0938 2.10938 21.0938H21.8906C23.0531 21.0938 24 20.1469 24 18.9844V2.10938C24 0.946875 23.0531 0 21.8906 0ZM11.2969 18.2812V19.6875H7.07812V18.2812H11.2969ZM12.7031 18.2812H16.9219V19.6875H12.7031V18.2812ZM1.40625 16.875V4.21875H22.5938V16.875H1.40625ZM12.7031 2.8125V1.40625H16.9219V2.8125H12.7031ZM11.2969 2.8125H7.07812V1.40625H11.2969V2.8125ZM22.5938 2.10938V2.8125H18.3281V1.40625H21.8906C22.2797 1.40625 22.5938 1.72031 22.5938 2.10938ZM2.10938 1.40625H5.67188V2.8125H1.40625V2.10938C1.40625 1.72031 1.72031 1.40625 2.10938 1.40625ZM1.40625 18.9844V18.2812H5.67188V19.6875H2.10938C1.72031 19.6875 1.40625 19.3734 1.40625 18.9844ZM21.8906 19.6875H18.3281V18.2812H22.5938V18.9844C22.5938 19.3734 22.2797 19.6875 21.8906 19.6875Z" fill="white"/>
<path d="M15.2344 9.98483L9.60938 5.76608C9.14531 5.41921 8.48438 5.75202 8.48438 6.32858V14.7661C8.48438 15.0333 8.63438 15.277 8.87344 15.3942C9.1125 15.5114 9.39844 15.488 9.60938 15.3286L15.2344 11.1098C15.4125 10.9786 15.5156 10.7676 15.5156 10.5473C15.5156 10.327 15.4125 10.1161 15.2344 9.98483ZM9.89062 13.3598V7.73483L13.6406 10.5473L9.89062 13.3598Z" fill="white"/>
</svg>
