<svg width="24" height="24" viewBox="0 0 24 24" fill="none" xmlns="http://www.w3.org/2000/svg">
<path d="M3.05963 0.146624C2.31432 0.277874 1.63697 0.634123 1.08385 1.1849C0.52369 1.7474 0.172128 2.42006 0.0432216 3.18178C-0.00365336 3.456 -0.00365336 3.53803 0.00337789 9.2849L0.00806539 15.1091L0.0713466 15.3552C0.155722 15.6997 0.216659 15.8685 0.350253 16.1521C0.78619 17.0662 1.5901 17.7787 2.53932 18.088C3.08072 18.2638 3.10416 18.2662 4.45416 18.2779L5.66588 18.2896L5.67525 19.5107C5.68697 20.8747 5.68932 20.8982 5.85572 21.4255C6.10416 22.213 6.62447 22.9068 7.32057 23.3755C7.7026 23.6333 8.094 23.8021 8.59791 23.9287L8.844 23.9919L14.6682 23.9966C20.4151 24.0037 20.4971 24.0037 20.7713 23.9568C21.5307 23.8279 22.2081 23.474 22.7682 22.9162C23.4831 22.199 23.8768 21.2544 23.851 20.3146C23.844 20.031 23.8393 19.9958 23.776 19.8669C23.687 19.6865 23.5088 19.5083 23.3284 19.4193C23.1995 19.356 23.1667 19.3513 22.9299 19.3513C22.6862 19.3513 22.6628 19.356 22.5151 19.4287C22.3135 19.5271 22.1213 19.731 22.051 19.9185C22.0159 20.0076 21.9924 20.1458 21.9784 20.3216C21.9526 20.6474 21.8917 20.8841 21.7698 21.1185C21.5799 21.4818 21.3034 21.7513 20.9378 21.9294C20.5135 22.1357 21.151 22.1146 14.8792 22.124C10.7331 22.1287 9.26822 22.124 9.13697 22.1029C8.40103 21.9904 7.80103 21.4419 7.61353 20.713C7.56666 20.5302 7.56666 20.4716 7.56666 14.9287C7.56666 8.62397 7.55025 9.17943 7.75416 8.75756C8.00963 8.23022 8.44791 7.88334 9.01978 7.74975C9.15338 7.71928 9.87525 7.71459 14.776 7.71459C20.3237 7.71459 20.3823 7.71459 20.5651 7.76147C21.1534 7.91381 21.6456 8.34506 21.8542 8.90053C21.9831 9.2474 21.9807 9.14662 21.9807 12.5779C21.9807 15.6974 21.9807 15.7513 22.0276 15.9037C22.1049 16.1544 22.269 16.3419 22.5198 16.4638C22.6628 16.5341 22.6885 16.5388 22.9299 16.5388C23.1667 16.5388 23.1995 16.5341 23.3284 16.4708C23.5088 16.3818 23.6987 16.1896 23.7807 16.0185L23.844 15.8826V12.4607V9.03881L23.7901 8.7974C23.7151 8.46225 23.6378 8.2349 23.5018 7.94897C23.0588 7.02084 22.2503 6.31303 21.2776 6.00365C20.7549 5.83725 20.7245 5.8349 19.3862 5.82318L18.1862 5.81147L18.1768 4.59037C18.1651 3.24037 18.1628 3.20287 18.0057 2.70365C17.7503 1.881 17.2417 1.20131 16.5198 0.718498C16.1448 0.467716 15.7463 0.294279 15.2542 0.172405L15.0081 0.109123L9.16041 0.104435C3.49088 0.102093 3.30572 0.102093 3.05963 0.146624ZM3.45338 3.54272L1.88307 5.11303L1.87603 5.01459C1.87135 4.95834 1.87135 4.5974 1.87838 4.21069C1.88541 3.5685 1.89244 3.4935 1.93932 3.33178C2.04713 2.97084 2.27447 2.62397 2.55807 2.39428C2.79244 2.20209 3.18385 2.02865 3.47682 1.98881C3.51666 1.98412 3.87994 1.97709 4.28541 1.97475L5.02369 1.9724L3.45338 3.54272ZM6.10182 6.19115L1.88307 10.4099L1.87603 9.10443L1.87135 7.79662L4.78228 4.88568L7.69557 1.9724H9.00807H10.3206L6.10182 6.19115ZM14.7667 2.00522C14.9495 2.04037 15.2284 2.13881 15.3221 2.19975C15.3784 2.2349 15.3737 2.23959 13.5878 4.02553L11.7971 5.81615H10.4729H9.14869L11.0167 3.94584C12.0432 2.91928 12.8893 2.05444 12.8987 2.02397L12.9128 1.9724H13.7542C14.3799 1.9724 14.6378 1.98178 14.7667 2.00522ZM16.2854 4.92553V5.81615H15.3901H14.4924L15.3831 4.92553C15.8729 4.43569 16.276 4.0349 16.2784 4.0349C16.2831 4.0349 16.2854 4.43569 16.2854 4.92553ZM3.90572 13.7076C2.57682 15.0365 2.13619 15.4654 2.11275 15.4466C2.06588 15.4068 1.94166 15.0599 1.90416 14.8677C1.88072 14.7388 1.87135 14.488 1.87135 13.8951V13.0935L3.7651 11.1997L5.6565 9.30834L5.66353 10.6255L5.66822 11.9451L3.90572 13.7076ZM5.66822 15.5193V16.3865H4.79635H3.92213L4.78932 15.5193C5.2651 15.0412 5.65885 14.6521 5.66119 14.6521C5.66588 14.6521 5.66822 15.0412 5.66822 15.5193Z" fill="white"/>
</svg>
