<svg id="Layer_1" data-name="Layer 1" xmlns="http://www.w3.org/2000/svg" viewBox="0 0 1024 1024"><defs><style>.cls-1{fill:#0f1934;}</style></defs><title>Contact</title><path class="cls-1" d="M896,0H192a30,30,0,0,0-30,30V162H128a30,30,0,0,0,0,60h34V322H128a30,30,0,0,0,0,60h34V482H128a30,30,0,0,0,0,60h34V642H128a30,30,0,0,0,0,60h34V802H128a30,30,0,0,0,0,60h34V994a30,30,0,0,0,30,30H896a30,30,0,0,0,30-30V30A30,30,0,0,0,896,0ZM866,964H222V862h34a30,30,0,0,0,0-60H222V702h34a30,30,0,0,0,0-60H222V542h34a30,30,0,0,0,0-60H222V382h34a30,30,0,0,0,0-60H222V222h34a30,30,0,0,0,0-60H222V60H866Z"/><path class="cls-1" d="M354,720a30,30,0,0,0,60,0c0-79.63,48.63-162,130-162s130,82.37,130,162a30,30,0,0,0,60,0c0-76.23-34.8-155.19-98.52-195.51A141.72,141.72,0,0,0,686,416c0-78.3-63.7-142-142-142S402,337.7,402,416a141.72,141.72,0,0,0,50.52,108.49C388.8,564.81,354,643.78,354,720ZM462,416a82,82,0,1,1,82,82A82.1,82.1,0,0,1,462,416Z"/></svg>