<svg width="48" height="48" viewBox="0 0 48 48" fill="none" xmlns="http://www.w3.org/2000/svg">
<g filter="url(#filter0_d_9404_17540)">
<rect x="2" y="2" width="40" height="40" rx="5.23602" fill="#EFF0F1"/>
<g clip-path="url(#clip0_9404_17540)">
<path d="M23.371 27.4743L19.5032 31.3422C19.5032 31.3422 19.5032 31.3423 19.5031 31.3423C19.5031 31.3423 19.5031 31.3424 19.503 31.3424C17.9036 32.9419 15.3009 32.942 13.7013 31.3424C12.9264 30.5675 12.4997 29.5372 12.4997 28.4414C12.4997 27.3458 12.9264 26.3157 13.701 25.5407C13.7011 25.5406 13.7012 25.5406 13.7013 25.5405L17.5691 21.6726C18.1031 21.1385 18.1031 20.2726 17.569 19.7386C17.035 19.2046 16.1691 19.2046 15.6351 19.7386L11.7672 23.6065C11.767 23.6068 11.7667 23.6071 11.7664 23.6074C10.4756 24.8987 9.76465 26.6155 9.76465 28.4414C9.76465 30.2678 10.4759 31.9849 11.7673 33.2763C13.1004 34.6093 14.8513 35.2758 16.6023 35.2758C18.3532 35.2758 20.1042 34.6093 21.4371 33.2763C21.4372 33.2763 21.4372 33.2762 21.4372 33.2762L25.305 29.4083C25.8389 28.8743 25.8389 28.0084 25.3049 27.4743C24.771 26.9403 23.9052 26.9403 23.371 27.4743Z" fill="#7E828B"/>
<path d="M35.0437 16.8375C35.0437 15.0111 34.3324 13.2941 33.0409 12.0026C30.3749 9.33666 26.037 9.33675 23.3712 12.0026C23.3711 12.0028 23.3709 12.0029 23.3708 12.003L19.5031 15.8707C18.969 16.4046 18.969 17.2706 19.5031 17.8046C19.7702 18.0717 20.1201 18.2052 20.4701 18.2052C20.82 18.2052 21.1701 18.0717 21.437 17.8046L25.3047 13.937C25.3048 13.9368 25.305 13.9367 25.3052 13.9365C26.9047 12.3371 29.5073 12.337 31.107 13.9365C31.8818 14.7115 32.3086 15.7418 32.3086 16.8375C32.3086 17.9332 31.882 18.9633 31.1072 19.7382L31.107 19.7385L27.2392 23.6064C26.7052 24.1403 26.7052 25.0063 27.2392 25.5403C27.5063 25.8074 27.8563 25.9409 28.2062 25.9409C28.5562 25.9409 28.9062 25.8074 29.1732 25.5403L33.041 21.6724C33.0413 21.6722 33.0415 21.6718 33.0418 21.6715C34.3327 20.3802 35.0437 18.6634 35.0437 16.8375Z" fill="#7E828B"/>
<path d="M17.5695 27.4742C17.8365 27.7412 18.1865 27.8747 18.5364 27.8747C18.8864 27.8747 19.2364 27.7412 19.5034 27.4742L27.2392 19.7384C27.7733 19.2044 27.7733 18.3385 27.2392 17.8044C26.7053 17.2704 25.8393 17.2704 25.3053 17.8044L17.5695 25.5401C17.0354 26.0743 17.0354 26.9402 17.5695 27.4742Z" fill="#7E828B"/>
</g>
</g>
<defs>
<filter id="filter0_d_9404_17540" x="0.254658" y="0.254658" width="46.9814" height="46.9814" filterUnits="userSpaceOnUse" color-interpolation-filters="sRGB">
<feFlood flood-opacity="0" result="BackgroundImageFix"/>
<feColorMatrix in="SourceAlpha" type="matrix" values="0 0 0 0 0 0 0 0 0 0 0 0 0 0 0 0 0 0 127 0" result="hardAlpha"/>
<feOffset dx="1.74534" dy="1.74534"/>
<feGaussianBlur stdDeviation="1.74534"/>
<feComposite in2="hardAlpha" operator="out"/>
<feColorMatrix type="matrix" values="0 0 0 0 0 0 0 0 0 0 0 0 0 0 0 0 0 0 0.12 0"/>
<feBlend mode="normal" in2="BackgroundImageFix" result="effect1_dropShadow_9404_17540"/>
<feBlend mode="normal" in="SourceGraphic" in2="effect1_dropShadow_9404_17540" result="shape"/>
</filter>
<clipPath id="clip0_9404_17540">
<rect width="25.279" height="25.279" fill="white" transform="translate(9.76465 10)"/>
</clipPath>
</defs>
</svg>
