<svg xmlns="http://www.w3.org/2000/svg" xmlns:xlink="http://www.w3.org/1999/xlink" version="1.1" id="Layer_1" x="0px" y="0px" viewBox="0 0 241.9 243" style="enable-background:new 0 0 241.9 243;" xml:space="preserve" width="38px" height="38px" fill="#318dff">
<rect x="22.6" y="133.4" width="110.2" height="12.7"/>
<path d="M168.8,159.4H81.4c-5.6,0-10.1,4.5-10.1,10.1v63.3c0,5.6,4.5,10.1,10.1,10.1h87.4c5.6,0,10.1-4.5,10.1-10.1v-63.3  C178.9,163.9,174.4,159.4,168.8,159.4z M131,213.9l-22,12.7v-25.5v-25.4l22,12.7l22,12.7L131,213.9z"/>
<path d="M10.1,190.8V15.2c0-2.8,2.3-5.1,5.1-5.1h125c2.8,0,5.1,2.3,5.1,5.1v12.4h10.1V15.2c0-8.4-6.8-15.2-15.2-15.2h-125  C6.8,0,0,6.8,0,15.2v175.6c0,8.4,6.8,15.2,15.2,15.2h45.9v-10.1H15.2C12.4,195.9,10.1,193.6,10.1,190.8z"/>
<rect x="145.2" y="127.8" width="10.1" height="21.5"/>
<path d="M22.6,43.5h83.9c1.3-5.3,4.7-9.8,9.2-12.7H22.6V43.5z"/>
<rect x="22.6" y="65" width="83.2" height="12.7"/>
<path d="M22.6,111.9h83.9c-0.4-1.6-0.7-3.3-0.7-5v-7.6H22.6V111.9z"/>
<path d="M22.6,180.3h38.6v-10.8c0-0.6,0.1-1.3,0.2-1.9H22.6V180.3z"/>
<path d="M231.1,37.7H126.8c-6,0-10.8,4.9-10.8,10.8v58.3c0,6,4.9,10.8,10.8,10.8h104.3c6,0,10.8-4.9,10.8-10.8V48.5  C241.9,42.6,237.1,37.7,231.1,37.7z M149.1,51.2c3.9,0,7.1,3.2,7.1,7.1c0,3.9-3.2,7.1-7.1,7.1c-3.9,0-7.1-3.2-7.1-7.1  C142.1,54.4,145.2,51.2,149.1,51.2z M141.3,103l10.2-17.7l10.2-17.7L172,85.3l3.5-6l13.7-23.7l13.7,23.7l13.7,23.7H141.3z"/>
</svg>