<svg width="24" height="24" viewBox="0 0 24 24" fill="none" xmlns="http://www.w3.org/2000/svg">
<g clip-path="url(#clip0_10449_19690)">
<path d="M13.1703 13.1758H2.28638V14.4301H13.1703V13.1758Z" fill="white"/>
<path d="M16.7259 15.7432H8.09384C7.54076 15.7432 7.09631 16.1876 7.09631 16.7407V22.9925C7.09631 23.5456 7.54076 23.9901 8.09384 23.9901H16.7259C17.279 23.9901 17.7235 23.5456 17.7235 22.9925V16.7407C17.7235 16.1876 17.279 15.7432 16.7259 15.7432ZM12.9926 21.1259L10.8198 22.3802V19.8617V17.353L12.9926 18.6074L15.1654 19.8617L12.9926 21.1259Z" fill="white"/>
<path d="M1.05185 18.8444V1.50123C1.05185 1.22469 1.27901 0.997531 1.55556 0.997531H13.9012C14.1778 0.997531 14.4049 1.22469 14.4049 1.50123V2.72593H15.4025V1.50123C15.4025 0.671605 14.7309 0 13.9012 0H1.55556C0.725926 0 0.0543213 0.671605 0.0543213 1.50123V18.8444C0.0543213 19.6741 0.725926 20.3457 1.55556 20.3457H6.08889V19.3481H1.55556C1.27901 19.3481 1.05185 19.121 1.05185 18.8444Z" fill="white"/>
<path d="M15.3926 12.6221H14.395V14.7455H15.3926V12.6221Z" fill="white"/>
<path d="M2.28638 4.29631H10.5728C10.7012 3.77286 11.037 3.32841 11.4814 3.04199H2.28638V4.29631Z" fill="white"/>
<path d="M10.5037 6.41992H2.28638V7.67424H10.5037V6.41992Z" fill="white"/>
<path d="M2.28638 11.0521H10.5728C10.5333 10.894 10.5037 10.7261 10.5037 10.5582V9.80762H2.28638V11.0521Z" fill="white"/>
<path d="M2.28638 17.8071H6.09872V16.7404C6.09872 16.6811 6.1086 16.612 6.11848 16.5527H2.28638V17.8071Z" fill="white"/>
<path d="M22.879 3.72363H12.5778C11.9852 3.72363 11.5111 4.20758 11.5111 4.7903V10.5483C11.5111 11.1409 11.9951 11.615 12.5778 11.615H22.879C23.4716 11.615 23.9457 11.131 23.9457 10.5483V4.7903C23.9457 4.20758 23.4716 3.72363 22.879 3.72363ZM14.7802 5.05697C15.1654 5.05697 15.4815 5.37302 15.4815 5.7582C15.4815 6.14339 15.1654 6.45944 14.7802 6.45944C14.3951 6.45944 14.079 6.14339 14.079 5.7582C14.0889 5.37302 14.3951 5.05697 14.7802 5.05697ZM14.0099 10.173L15.0173 8.42487L16.0247 6.67672L17.042 8.42487L17.3877 7.83228L18.7407 5.49153L20.0938 7.83228L21.4469 10.173H14.0099Z" fill="white"/>
</g>
<defs>
<clipPath id="clip0_10449_19690">
<rect width="24" height="24" fill="white"/>
</clipPath>
</defs>
</svg>
