<?xml version="1.0" encoding="utf-8"?>
<!-- Generator: Adobe Illustrator 22.0.0, SVG Export Plug-In . SVG Version: 6.00 Build 0)  -->
<svg version="1.1" id="Layer_1" xmlns="http://www.w3.org/2000/svg" xmlns:xlink="http://www.w3.org/1999/xlink" x="0px" y="0px"
	 viewBox="0 0 1024 1024" style="enable-background:new 0 0 1024 1024;" xml:space="preserve">
<g>
	<g>
		<path d="M182.8,461.9c0-16.5-10.8-32-29.6-42.7c-17-9.9-39.7-15.3-63.7-15.3c-23.9,0-46.5,5.5-63.7,15.3
			C7.5,429.9-3,445.3-3,461.4v281.9c0,17.2,10,32.4,28.1,42.9c17.2,10,39.8,15.5,63.6,15.5c23.9,0,46.5-5.5,63.7-15.5
			c19.6-11.4,30.5-26.4,30.6-42.3L182.8,461.9z M156.8,743.6c-0.1,6-6.9,13.7-17.7,19.9c-12.9,7.5-31.4,11.8-50.5,11.8
			c-19.2,0-37.6-4.3-50.6-11.8c-6.8-3.9-15-10.7-15-20.3V461.4c0-6.6,5.7-13.8,15.8-19.6c13.3-7.6,31.3-11.9,50.6-11.9
			c19.2,0,37.7,4.3,50.8,11.9c10.3,5.9,16.4,13.4,16.4,20.1L156.8,743.6z"/>
		<path d="M143.3,477c-0.3-9-6.5-17.1-17.3-22.8c-9.6-5.1-22.3-7.9-35.8-7.9s-26.2,2.8-35.8,7.9c-11,5.7-17,13.9-17,23
			c0,9.1,6.1,17.3,17.2,23.2c9.8,5.1,22.5,8,35.8,8c13.3,0,26.1-2.8,35.9-8c11-5.7,17-13.9,17-23L143.3,477z M127.1,477.4
			c-0.2,2.7-3.3,5.9-8.4,8.7c-15.4,8-41.4,8-56.8,0c-6.4-3.4-8.7-6.9-8.7-9c0-2.7,3.2-6.1,8.5-8.8c7.3-3.9,17.4-6,28.3-6
			c10.7,0,21,2.2,28.3,6C123.6,471.1,126.9,474.5,127.1,477.4z"/>
	</g>
	<g>
		<path d="M437.7,298.2c-17-9.9-39.7-15.3-63.7-15.3c-23.9,0-46.5,5.5-63.7,15.4c-18.6,10.8-29,25.8-29.1,42.3l0,463.3
			c0,17.2,10,32.4,28.1,42.9c17.2,10,39.8,15.5,63.6,15.5c23.8,0,46.4-5.5,63.7-15.5c19.6-11.4,30.5-26.4,30.6-42.3l0.1-463.5
			C467.3,324.5,456.5,308.9,437.7,298.2z M441,340.9l-0.1,463.3c-0.1,6-6.9,13.7-17.7,19.9c-12.9,7.5-31.4,11.8-50.5,11.8
			c-19.2,0-37.6-4.3-50.6-11.8c-6.8-3.9-15-10.7-15-20.3V340.7c0.1-6.7,6.1-14.1,16.1-19.9c13.3-7.7,31.3-11.9,50.6-11.9
			c19.2,0,37.7,4.3,50.8,11.9C434.9,326.6,441,334.2,441,340.9z"/>
		<path d="M427.6,356c-0.2-9.1-6.4-17.3-17.3-23c-9.6-5.1-22.3-7.9-35.8-7.9c-13.5,0-26.2,2.8-35.8,7.9c-11,5.7-17,13.9-17,23
			c0,9.1,6.1,17.3,17.2,23.2c9.8,5.1,22.5,8,35.8,8c13.3,0,26.1-2.8,35.9-8c11-5.7,17-13.9,17-23L427.6,356z M411.4,356.4
			c0,2.1-2.2,5.5-8.4,8.7c-15.4,8-41.4,8-56.8,0c-6.4-3.4-8.7-6.9-8.7-9c0-2.7,3.2-6.1,8.5-8.8c7.3-3.9,17.4-6,28.3-6
			c10.8,0,21.1,2.2,28.4,6.2C408.1,350.1,411.4,353.5,411.4,356.4z"/>
	</g>
	<g>
		<path d="M716.1,174c-17.1-9.9-39.8-15.3-63.7-15.3c-23.9,0-46.5,5.5-63.7,15.3c-18.6,10.8-29,25.8-29.1,42.3l0,644.9
			c0,17.2,10,32.4,28.1,42.9c17.2,10,39.8,15.5,63.6,15.5c23.8,0,46.4-5.5,63.7-15.5c19.6-11.4,30.5-26.4,30.6-42.3l0.1-645
			C745.8,200.3,735,184.7,716.1,174z M719.4,216.7l-0.1,644.9c-0.1,6-6.9,13.7-17.7,19.9c-12.9,7.5-31.4,11.8-50.5,11.8
			c-19.2,0-37.6-4.3-50.6-11.8c-6.8-3.9-15-10.7-15-20.3V216.5c0.1-6.7,6.1-14.1,16.1-19.9c13.3-7.7,31.3-11.9,50.6-11.9
			c19.2,0,37.7,4.3,50.8,11.9C713.3,202.4,719.4,210,719.4,216.7z"/>
		<path d="M706,233.9c-0.3-9.1-6.5-17.3-17.3-22.8c-9.6-5.1-22.3-7.9-35.8-7.9c-13.5,0-26.2,2.8-35.8,7.9c-11,5.7-17,13.9-17,23
			c0,9.1,6.1,17.3,17.2,23.2c9.8,5.1,22.5,8,35.8,8c13.5,0,26.3-2.8,35.9-8c11-5.7,17-13.9,17-23L706,233.9z M689.8,234.5
			c-0.1,2.7-3.3,5.9-8.4,8.7c-15.4,8-41.4,8-56.8,0c-6.4-3.4-8.7-6.9-8.7-9c0-2.7,3.2-6.1,8.5-8.8c7.3-3.9,17.4-6,28.3-6
			c10.7,0,21,2.2,28.4,6.1C686.4,228.1,689.6,231.5,689.8,234.5z"/>
	</g>
	<g>
		<path d="M997.4,56.2c-17-9.9-39.7-15.3-63.7-15.3c-23.9,0-46.5,5.5-63.7,15.3C851.3,67,841,82,840.8,98.5l0,826.5
			c0,17.2,10,32.4,28.1,42.9c17.3,9.9,39.8,15.3,63.6,15.3c23.6,0,46.2-5.5,63.7-15.5c19.6-11.4,30.5-26.5,30.6-42.3l0.1-826.5
			C1027,82.4,1016.2,66.9,997.4,56.2z M933.7,66.9c19.2,0,37.7,4.3,50.8,11.9c10.3,5.9,16.4,13.4,16.4,20.1l-0.1,826.3
			c-0.1,6-6.9,13.7-17.7,19.9c-12.9,7.5-31.4,11.8-50.5,11.8c-19.2,0-37.6-4.3-50.6-11.8c-6.8-3.9-15-10.7-15-20.3V98.6
			c0.1-6.7,6.1-14.1,16.1-19.9C896.4,71.1,914.3,66.9,933.7,66.9z"/>
		<path d="M987.2,118c-0.2-9.2-6.4-17.4-17.3-23c-9.6-5.1-22.3-7.9-35.8-7.9s-26.2,2.8-35.8,7.9c-11,5.7-17,13.9-17,23
			c0,9.1,6.1,17.3,17.2,23.2c9.8,5.1,22.5,8,35.8,8c13.4,0,26.2-2.8,35.9-8c11-5.7,17-13.9,17-23L987.2,118z M971.1,118.4
			c0,2.1-2.2,5.5-8.4,8.7c-15.4,8-41.4,8-56.8,0c-6.4-3.4-8.7-6.9-8.7-9c0-2.7,3.2-6.1,8.5-8.8c7.3-3.9,17.4-6,28.3-6
			c10.9,0,21.2,2.2,28.4,6.2C967.7,112.1,971,115.5,971.1,118.4z"/>
	</g>
</g>
</svg>
