<?xml version="1.0" standalone="no"?>
<!DOCTYPE svg PUBLIC "-//W3C//DTD SVG 20010904//EN"
 "http://www.w3.org/TR/2001/REC-SVG-20010904/DTD/svg10.dtd">
<svg version="1.0" xmlns="http://www.w3.org/2000/svg"
 width="1024.000000pt" height="853.000000pt" viewBox="0 0 1024.000000 853.000000"
 preserveAspectRatio="xMidYMid meet">
<metadata>
Created by potrace 1.15, written by Peter Selinger 2001-2017
</metadata>
<g transform="translate(0.000000,853.000000) scale(0.100000,-0.100000)"
fill="#ffffff" stroke="none">
<path d="M300 8510 c-127 -46 -241 -162 -280 -286 -20 -66 -20 -70 -20 -3959
0 -3889 0 -3893 20 -3959 39 -126 161 -248 289 -289 50 -16 333 -17 4811 -17
4478 0 4761 1 4811 17 128 41 250 163 289 289 20 66 20 70 20 3959 0 3889 0
3893 -20 3959 -39 126 -161 248 -289 289 -50 16 -333 17 -4815 17 -4704 -1
-4762 -1 -4816 -20z m9480 -4245 l0 -3805 -4660 0 -4660 0 0 3805 0 3805 4660
0 4660 0 0 -3805z"/>
<path d="M1220 7437 c-49 -16 -123 -93 -138 -143 -16 -55 -18 -5138 -1 -5197
13 -49 73 -115 124 -138 38 -18 188 -19 3915 -19 3727 0 3877 1 3915 19 51 23
111 89 124 138 17 59 15 5142 -1 5197 -16 54 -90 128 -144 144 -57 17 -7741
16 -7794 -1z m7490 -2379 l0 -1923 -104 105 c-968 982 -1327 1339 -1365 1362
-59 35 -152 39 -215 8 -27 -13 -187 -168 -479 -465 -241 -245 -442 -445 -446
-445 -3 0 -456 455 -1006 1011 -620 626 -1015 1019 -1040 1032 -55 29 -155 29
-210 0 -25 -13 -468 -454 -1174 -1167 -624 -630 -1136 -1146 -1137 -1146 -2 0
-4 799 -4 1775 l0 1775 3590 0 3590 0 0 -1922z m-3670 -958 c596 -602 1219
-1231 1384 -1397 l301 -303 -2598 0 -2597 0 0 179 0 179 1208 1220 c664 672
1209 1220 1213 1219 3 -1 493 -495 1089 -1097z m2882 -832 c758 -764 787 -794
788 -830 l0 -38 -664 0 -664 0 -476 482 -477 482 348 348 c191 191 350 348
353 348 3 0 359 -356 792 -792z"/>
<path d="M5940 6549 c-84 -14 -212 -62 -291 -109 -94 -56 -218 -175 -280 -269
-154 -235 -184 -559 -74 -814 52 -121 93 -183 180 -272 176 -179 367 -258 620
-257 228 0 415 76 584 236 177 169 265 381 264 636 -1 150 -22 241 -86 375
-166 343 -539 536 -917 474z m310 -495 c83 -39 150 -106 192 -192 31 -63 33
-73 33 -172 0 -99 -2 -110 -32 -171 -122 -247 -441 -302 -633 -109 -153 152
-157 394 -9 555 83 90 172 126 299 122 70 -2 97 -8 150 -33z"/>
<path d="M1205 1411 c-83 -38 -126 -103 -132 -201 -4 -57 -1 -72 24 -120 22
-43 41 -62 83 -87 l54 -33 1043 0 c1142 0 1082 -3 1146 58 49 47 71 100 71
172 0 72 -22 125 -71 172 -64 61 -4 58 -1140 58 -985 0 -1040 -1 -1078 -19z"/>
<path d="M4214 1417 c-115 -45 -170 -172 -132 -301 16 -52 84 -121 135 -136
26 -8 141 -10 359 -8 l321 3 41 28 c23 15 54 46 69 69 25 37 28 50 28 128 0
78 -3 91 -28 128 -15 23 -46 54 -69 69 l-41 28 -326 2 c-233 1 -335 -2 -357
-10z"/>
</g>
</svg>
