<?xml version="1.0" encoding="utf-8"?>
<!-- Generator: Adobe Illustrator 22.0.0, SVG Export Plug-In . SVG Version: 6.00 Build 0)  -->
<svg version="1.1" id="Layer_1" xmlns="http://www.w3.org/2000/svg" xmlns:xlink="http://www.w3.org/1999/xlink" x="0px" y="0px"
	 viewBox="0 0 1024 1024" style="enable-background:new 0 0 1024 1024;" xml:space="preserve">
<path d="M1024,463.2c0-38.9-16.1-76.1-47.9-110.7c-24.8-27-58.4-51.2-100-72.2l0.5-0.3l-9.9-4.4c-4.8-2.3-9.7-4.6-14.8-6.8l-6.4-2.7
	l-0.3,0.2C756,228.1,642.6,207,524.9,207c-81.2,0-161.5,10.1-232.5,29.1c-84.9,20.2-156.7,50.6-207.7,88.1
	c-4.2,3.1-8.3,6.2-12.2,9.4l-0.2-0.1l-6.2,5.3c-42.2,36.3-64.4,76.3-66,119c0,0.2,0,0.4,0,0.6c-0.1,1.5-0.1,3-0.1,4.6
	c0,8.3,0.8,16.5,2.3,24.7c2.6,95.7,41.3,171.1,115.2,224C208.2,776.6,359.7,817,513,817c127.1,0,299.3-25.7,401.6-97.8
	c10.5-7.4,20.3-15.4,29.3-24.1h0v0c25.5-24.4,45-53.5,58.1-86.9c14.6-37.4,21.7-80,21.7-130.4V472
	C1023.9,469.1,1024,466.1,1024,463.2z M513,789.5c-19,0-37.9-0.6-56.7-1.9v-70.5c22.6,1.6,45.6,2.4,68.6,2.4h0.6
	c154,0,297.4-35.8,391-96.6V683c-5.6,4.7-11.4,9.3-17.6,13.6C817.7,754,669.8,789.5,513,789.5z M29.6,483.4v-3.6H29
	c-0.9-5.5-1.3-11.1-1.3-16.8c0-1.2,0-2.4,0.1-3.6c0-0.3,0-0.6,0-0.8c0-1,0.1-2,0.2-3c0-0.2,0-0.4,0-0.6c1.5-19,8.5-37.7,20.3-55.6
	c0-0.1,0.1-0.1,0.1-0.2c0.6-0.9,1.2-1.8,1.8-2.6c0.4-0.6,0.8-1.2,1.2-1.8c0.1-0.2,0.3-0.4,0.4-0.5c7.2-9.9,16-19.6,26.4-29.2
	l206.2,77.1c-0.1,0.2-0.1,0.4-0.2,0.6c-0.2,0.6-0.4,1.2-0.5,1.9c0,0.1,0,0.1,0,0.2c-1.1,4.1-1.8,8.2-2.1,12.4c0,0.1,0,0.2,0,0.3
	c0,0.7-0.1,1.3-0.1,2c0,0.2,0,0.3,0,0.5c0,0.8,0,1.6,0,2.4c0,59.9,75.9,110.3,185.7,124.1l-35.4,101
	C215.3,670.6,49.3,585,29.6,483.4z M495.8,589.3c9.2,0.6,19,0.9,29.1,0.9c76,0,147.5-18.6,192.2-49.9l184.1,59.9
	c-89,57.6-228.2,91.8-375.6,91.8H525c-21.8,0-43.5-0.7-64.7-2.2L495.8,589.3z M737.6,463.2c0,20-13.9,36.4-27.1,47.4l-4.3,3.4
	c-39.6,30.4-107.3,48.6-181.3,48.6c-13.6,0-26.3-0.6-37.8-1.6l-10.7-1l0,0c-45.6-5.1-87.1-17.3-117.8-34.8
	c-32-18.2-49.6-40.4-49.7-62.6c0-0.9,0-1.8,0.1-2.6c0,0,0,0,0-0.1c0.2-3.6,1-7.1,2.1-10.7c0-0.1,0.1-0.2,0.1-0.3
	c0.2-0.7,0.5-1.4,0.8-2.2c0.1-0.3,0.2-0.6,0.3-0.9c0.2-0.6,0.5-1.2,0.8-1.7c0.2-0.5,0.4-0.9,0.7-1.4c0,0,0-0.1,0.1-0.1
	c4.7-9.5,12.8-18.9,24-27.7c18.4-14.4,44.4-26.7,75.6-35.7l0,0l7.4-2.1c32-8.6,67.9-13.1,104.1-13.1c53.4,0,104.6,9.7,144.3,27.2
	l6.4,2.7l0.1,0C715.1,412.8,737.6,437.8,737.6,463.2z M929,580.1l-187.5-60.9c15.5-17.1,23.6-36.3,23.6-56
	c0-20.1-8.2-39.1-24.2-56.6c-9.7-10.5-22-20.2-36.7-28.8L846.9,297c95,43.6,149.4,104.1,149.4,166.3
	C996.3,504.1,973,544.5,929,580.1z M673.9,363.2c-42-17.3-94.7-26.8-149-26.8c-35.7,0-71.5,4.2-103.8,12.2l-97.3-91.7
	c62.4-14.5,131.6-22.1,201.1-22.1c104.8,0,207.1,17.3,289.6,48.9L673.9,363.2z M390.1,357.5c-31.7,10.8-58.1,25.1-76.5,41.6
	c-6.5,5.8-12.1,12-16.7,18.3L102.9,345C148,312.3,212,284.6,290.3,265L390.1,357.5z M130.1,634.1c77.9,43.2,183.6,71.8,298.8,80.9
	v70.4c-117.2-11.4-225.7-46-295.4-96c-44.9-32.1-75.3-73.6-91.2-123.7C63.9,590.6,93.4,613.7,130.1,634.1z M943.9,603.3
	c0.5-0.4,1.1-0.9,1.6-1.3l15.1-11.7l-1-0.3c10.9-9.9,20.5-20.2,28.7-30.8c-8.2,37.6-22.9,69.2-44.5,95.8V603.3z"/>
</svg>
