<svg width="48" height="48" viewBox="0 0 48 48" fill="none" xmlns="http://www.w3.org/2000/svg">
<g filter="url(#filter0_d_9404_17509)">
<rect x="2" y="2" width="40" height="40" rx="5.23602" fill="#FF961C"/>
<g clip-path="url(#clip0_9404_17509)">
<path d="M24.0057 24.7043C23.4086 25.1024 22.7151 25.3128 22 25.3128C21.285 25.3128 20.5914 25.1024 19.9943 24.7043L10.1598 18.1478C10.1052 18.1114 10.0521 18.0735 10 18.0345V28.7781C10 30.0099 10.9996 30.9874 12.2094 30.9874H31.7906C33.0224 30.9874 34 29.9878 34 28.7781V18.0344C33.9478 18.0735 33.8945 18.1115 33.8398 18.148L24.0057 24.7043Z" fill="white"/>
<path d="M10.9398 16.9777L20.7744 23.5343C21.1466 23.7825 21.5733 23.9066 22 23.9066C22.4267 23.9066 22.8534 23.7825 23.2256 23.5343L33.0602 16.9777C33.6487 16.5856 34 15.9293 34 15.2211C34 14.0032 33.0092 13.0125 31.7914 13.0125H12.2086C10.9908 13.0125 10 14.0032 10 15.2222C10 15.9293 10.3514 16.5856 10.9398 16.9777Z" fill="white"/>
</g>
</g>
<defs>
<filter id="filter0_d_9404_17509" x="0.254658" y="0.254658" width="46.9814" height="46.9814" filterUnits="userSpaceOnUse" color-interpolation-filters="sRGB">
<feFlood flood-opacity="0" result="BackgroundImageFix"/>
<feColorMatrix in="SourceAlpha" type="matrix" values="0 0 0 0 0 0 0 0 0 0 0 0 0 0 0 0 0 0 127 0" result="hardAlpha"/>
<feOffset dx="1.74534" dy="1.74534"/>
<feGaussianBlur stdDeviation="1.74534"/>
<feComposite in2="hardAlpha" operator="out"/>
<feColorMatrix type="matrix" values="0 0 0 0 1 0 0 0 0 0.588235 0 0 0 0 0.109804 0 0 0 0.3 0"/>
<feBlend mode="normal" in2="BackgroundImageFix" result="effect1_dropShadow_9404_17509"/>
<feBlend mode="normal" in="SourceGraphic" in2="effect1_dropShadow_9404_17509" result="shape"/>
</filter>
<clipPath id="clip0_9404_17509">
<rect width="24" height="24" fill="white" transform="translate(10 10)"/>
</clipPath>
</defs>
</svg>
