<svg id="Layer_1" data-name="Layer 1" xmlns="http://www.w3.org/2000/svg" viewBox="0 0 1024 1024"><defs><style>.cls-1{fill:#0f1934;}</style></defs><title>Email</title><path class="cls-1" d="M928,128H96A96.1,96.1,0,0,0,0,224V800a96.1,96.1,0,0,0,96,96H928a96.1,96.1,0,0,0,96-96V224A96.1,96.1,0,0,0,928,128Zm0,64a31.69,31.69,0,0,1,12.26,2.48L512,565.66,83.73,194.48A31.74,31.74,0,0,1,96,192Zm0,640H96a32,32,0,0,1-32-32V262.09l427,370.1a32.06,32.06,0,0,0,41.94,0l427-370.1V800A32,32,0,0,1,928,832Z"/></svg>