<?xml version="1.0" standalone="no"?>
<svg version="1.0" 
    xmlns="http://www.w3.org/2000/svg" width="853.000000pt" height="1024.000000pt" viewBox="0 0 853.000000 1024.000000" preserveAspectRatio="xMidYMid meet">
    <defs xmlns="http://www.w3.org/2000/svg">
        <linearGradient id="grad1" x1="0%" y1="0%" x2="100%" y2="0%">
            <stop offset="0%" style="stop-color: #2989ff;stop-opacity:1;"/>
            <stop offset="100%" style="stop-color: #63a8ff;stop-opacity:1;"/>
        </linearGradient>
    </defs>
    <g transform="translate(0.000000,1024.000000) scale(0.100000,-0.100000)" fill="url(#grad1)" stroke="none">
        <path d="M945 10220 c-116 -25 -187 -51 -305 -111 -122 -63 -204 -125 -310
-236 -165 -171 -262 -356 -310 -592 -20 -98 -20 -128 -20 -4161 0 -4033 0
-4063 20 -4161 48 -236 145 -421 310 -592 46 -49 114 -111 150 -138 90 -69
285 -164 405 -196 l100 -28 3280 0 3280 0 100 28 c120 32 315 127 405 196 140
106 281 275 357 426 71 141 123 343 123 478 l0 75 -111 -75 c-239 -159 -500
-259 -810 -310 -96 -16 -345 -17 -3239 -20 -1864 -2 -3166 0 -3212 5 -43 6
-101 21 -132 35 -72 33 -154 115 -192 192 -26 55 -29 69 -29 165 0 96 3 110
29 165 38 77 120 158 193 193 l58 27 3200 5 3200 6 98 22 c121 28 201 57 315
117 115 59 199 124 302 232 165 171 262 356 310 592 20 98 20 130 20 3361 0
3231 0 3263 -20 3361 -48 236 -145 421 -310 592 -46 49 -114 111 -150 138 -90
69 -285 164 -405 196 l-100 28 -3255 2 c-3161 2 -3258 1 -3345 -17z m6558
-822 c73 -35 155 -116 193 -193 l29 -60 3 -3208 c2 -3130 2 -3208 -17 -3261
-39 -112 -127 -203 -238 -248 l-58 -23 -3215 -5 -3215 -5 -92 -26 -93 -25 0
3383 c0 3296 0 3385 19 3437 39 110 121 198 228 242 l58 24 3170 -3 3170 -2
58 -27z"/>
        <path d="M4015 8305 c-441 -78 -811 -340 -1028 -730 -102 -182 -164 -395 -174
-597 l-6 -118 402 0 401 0 0 48 c0 69 24 155 72 252 60 123 161 222 289 283
112 54 169 67 292 67 181 0 313 -56 447 -190 65 -64 95 -103 122 -160 63 -127
84 -273 57 -388 -17 -71 -92 -218 -151 -297 -28 -38 -177 -196 -329 -350 -152
-154 -304 -318 -338 -364 -134 -182 -198 -370 -216 -638 l-6 -93 404 0 404 0
5 78 c7 124 26 151 294 417 267 265 330 333 430 467 136 182 227 367 279 570
23 86 28 132 32 275 7 207 -9 319 -68 498 -161 484 -566 848 -1069 960 -104
23 -435 29 -545 10z"/>
        <path d="M3850 4035 l0 -405 405 0 405 0 0 405 0 405 -405 0 -405 0 0 -405z"/>
    </g>
</svg>
