<?xml version="1.0" encoding="utf-8"?>
<!-- Generator: Adobe Illustrator 22.0.0, SVG Export Plug-In . SVG Version: 6.00 Build 0)  -->
<svg version="1.1" id="Layer_1" xmlns="http://www.w3.org/2000/svg" xmlns:xlink="http://www.w3.org/1999/xlink" x="0px" y="0px"
	 viewBox="0 0 1024 1024" style="enable-background:new 0 0 1024 1024;" xml:space="preserve">
<path d="M1024,759.9c0-55.7-8.9-110.5-26.5-162.9c-17-50.6-41.8-98.2-73.6-141.3c-31.5-42.6-69.3-79.9-112.2-111
	c-39.6-28.6-82.8-51.3-128.6-67.5l0.1-0.2l-13.5-4.4c0,0-0.1,0-0.1,0l-13.8-4.5l-0.1,0.2c-46.5-13.6-94.7-20.5-143.6-20.5
	c-48.9,0-97.1,6.9-143.5,20.4l-0.1-0.2l-13.7,4.4c-0.2,0.1-0.4,0.1-0.5,0.2c-0.3,0.1-0.6,0.2-0.8,0.3l-14,4.6l0.1,0.2
	c-45.2,16.2-87.8,38.6-126.9,66.9c-39,28.2-73.6,61.5-103.3,99.2l-0.2-0.1l-8.4,11.3c-0.1,0.2-0.3,0.4-0.4,0.6
	C68.3,498.8,43.5,546.3,26.5,597c-16.2,48.4-25.1,99-26.3,150.4c0,0.7,0,1.4-0.1,2.1c-0.1,3.5-0.1,7-0.1,10.4l0,15.2h229l0-14.6
	l0-0.6c0-1.9,0-3.8,0.1-5.7c0-0.6,0-1.1,0-1.7c0-1.3,0.1-2.7,0.1-4c0-0.7,0.1-1.3,0.1-2c0.1-1.2,0.1-2.5,0.2-3.7
	c0-0.7,0.1-1.5,0.2-2.2c0.1-1.2,0.2-2.3,0.2-3.5c0.1-0.8,0.1-1.7,0.2-2.5c0.1-1,0.2-2.1,0.3-3.1c0.1-1,0.2-2,0.3-3
	c0.1-0.9,0.2-1.7,0.3-2.6c0.1-1.2,0.3-2.4,0.5-3.6c0.1-0.6,0.2-1.3,0.2-1.9c0.2-1.5,0.4-3,0.7-4.5c0-0.3,0.1-0.6,0.1-1
	c7-44,24.3-85.6,51-122.1l7.9-10.8c34-42.2,80.4-74.8,135.1-92.1c27.6-8.7,56.3-13.1,85.5-13.1c29.6,0,58.8,4.6,86.8,13.6
	c53.3,17.1,98.6,48.8,132.2,89.8l-0.4,0.3l8.9,12c36.2,48.9,55.4,106.9,55.4,167.9l-0.1,14.6h0l0,1H1024v-1v-13.6l0-0.6
	c0-0.1,0-0.2,0-0.4L1024,759.9z M994.6,746H823.8c-2.5-57-20.2-111.4-51.8-158.8l139.6-97.4C963.3,565.8,991.8,653.8,994.6,746z
	 M29.3,746c0.2-6.2,0.5-12.4,0.9-18.6c0,0,0-0.1,0-0.1c2-30.7,7-60.7,14.5-89.8c0.1-0.3,0.2-0.7,0.3-1c0.6-2.3,1.2-4.6,1.9-6.8
	c0.2-0.8,0.4-1.6,0.7-2.4c0.5-1.6,0.9-3.3,1.4-4.9c0.4-1.5,0.9-2.9,1.3-4.4c0.2-0.8,0.5-1.5,0.7-2.3c14.5-46.3,36-90.3,64.1-130.8
	l136.7,102.6c-23.6,35.5-39.4,74.9-46.9,116.4c0,0,0,0,0,0c-0.3,1.6-0.5,3.1-0.8,4.7c0,0.3-0.1,0.5-0.1,0.8
	c-0.2,1.4-0.4,2.8-0.7,4.2c-0.1,0.4-0.1,0.9-0.2,1.3c-0.2,1.3-0.4,2.6-0.5,3.9c-0.1,0.6-0.1,1.1-0.2,1.7c-0.2,1.2-0.3,2.4-0.4,3.7
	c-0.1,0.6-0.1,1.3-0.2,1.9c-0.1,1.2-0.2,2.3-0.4,3.5c-0.1,0.7-0.1,1.5-0.2,2.2c-0.1,1.1-0.2,2.1-0.3,3.2c-0.1,0.9-0.1,1.8-0.2,2.6
	c-0.1,1-0.1,1.9-0.2,2.9c-0.1,1.4-0.2,2.7-0.2,4.1c0,0.5-0.1,0.9-0.1,1.4H29.3z M269,564L132.1,461.2
	c54.8-69.7,129-124.4,216.6-155.8l54.9,161.8c-25.9,9.6-50.4,22.6-73.1,38.8C307.5,522.4,286.8,541.9,269,564z M431.8,458.2
	L377.7,296c43.5-12.6,88.5-18.9,134.3-18.9c45.8,0,90.9,6.4,134.4,19L624.5,364l-30.8,94.6c-26.5-7.2-53.9-10.8-81.6-10.8
	C484.8,447.8,457.9,451.3,431.8,458.2z M694.4,506.6c-22.5-16.2-46.9-29.3-72.8-39l30.5-94.5l22.2-68c89.8,32,165.6,88.5,221,160.6
	l-140.5,98.1C737.3,542.1,717,522.9,694.4,506.6z"/>
</svg>
