<svg width="21" height="25" viewBox="0 0 21 25" fill="none" xmlns="http://www.w3.org/2000/svg">
<path d="M2.30713 0.0488262C2.02393 0.109861 1.85059 0.173338 1.5625 0.319822C1.26465 0.473631 1.06445 0.624998 0.805664 0.895994C0.402832 1.31347 0.166016 1.76513 0.0488281 2.34131C0 2.58056 0 2.65381 0 12.5C0 22.3462 0 22.4194 0.0488281 22.6587C0.166016 23.2349 0.402832 23.6865 0.805664 24.104C0.917969 24.2236 1.08398 24.375 1.17188 24.4409C1.3916 24.6094 1.86768 24.8413 2.16064 24.9194L2.40479 24.9878H10.4126H18.4204L18.6646 24.9194C18.9575 24.8413 19.4336 24.6094 19.6533 24.4409C19.9951 24.1821 20.3394 23.7695 20.5249 23.4009C20.6982 23.0566 20.8252 22.5635 20.8252 22.2339V22.0508L20.5542 22.2339C19.9707 22.6221 19.3335 22.8662 18.5767 22.9907C18.3423 23.0298 17.7344 23.0322 10.6689 23.0396C6.11816 23.0444 2.93945 23.0396 2.82715 23.0273C2.72217 23.0127 2.58057 22.9761 2.50488 22.9419C2.3291 22.8613 2.12891 22.6611 2.03613 22.4731C1.97266 22.3389 1.96533 22.3047 1.96533 22.0703C1.96533 21.8359 1.97266 21.8018 2.03613 21.6675C2.12891 21.4795 2.3291 21.2817 2.50732 21.1963L2.64893 21.1304L10.4614 21.1182L18.2739 21.1035L18.5132 21.0498C18.8086 20.9814 19.0039 20.9106 19.2822 20.7642C19.563 20.6201 19.7681 20.4614 20.0195 20.1978C20.4224 19.7803 20.6592 19.3286 20.7764 18.7524C20.8252 18.5132 20.8252 18.4351 20.8252 10.5469C20.8252 2.65869 20.8252 2.58056 20.7764 2.34131C20.6592 1.76513 20.4224 1.31347 20.0195 0.895994C19.9072 0.776365 19.7412 0.624998 19.6533 0.55908C19.4336 0.390623 18.9575 0.158689 18.6646 0.0805645L18.4204 0.0122051L10.4736 0.00732231C2.75635 0.0024395 2.51953 0.00488091 2.30713 0.0488262ZM18.3179 2.05566C18.4961 2.14111 18.6963 2.33887 18.7891 2.52685L18.8599 2.67334L18.8672 10.5054C18.8721 18.147 18.8721 18.3374 18.8257 18.4668C18.7305 18.7402 18.5156 18.9624 18.2446 19.0723L18.103 19.1284L10.2539 19.1406L2.40479 19.1528L2.18018 19.2163L1.95312 19.2773V11.0181C1.95312 2.97119 1.95312 2.7539 1.99951 2.62695C2.09473 2.3584 2.29492 2.14355 2.55615 2.03613L2.69775 1.97754L10.437 1.98486L18.1763 1.98974L18.3179 2.05566Z" fill="white"/>
<path d="M9.80225 4.72412C8.72559 4.91455 7.82227 5.5542 7.29248 6.50635C7.04346 6.95068 6.89209 7.4707 6.86768 7.96387L6.85303 8.25195H7.83447H8.81348V8.13477C8.81348 7.96631 8.87207 7.75635 8.98926 7.51953C9.13574 7.21924 9.38232 6.97754 9.69482 6.82861C9.96826 6.69678 10.1074 6.66504 10.4077 6.66504C10.8496 6.66504 11.1719 6.80176 11.499 7.12891C11.6577 7.28516 11.731 7.38037 11.7969 7.51953C11.9507 7.82959 12.002 8.18604 11.936 8.4668C11.8945 8.64014 11.7114 8.99902 11.5674 9.1919C11.499 9.28467 11.1353 9.67041 10.7642 10.0464C10.3931 10.4224 10.022 10.8228 9.93897 10.9351C9.61182 11.3794 9.45557 11.8384 9.41162 12.4927L9.39697 12.7197H10.3833H11.3696L11.3818 12.5293C11.3989 12.2266 11.4453 12.1606 12.0996 11.5112C12.7515 10.8643 12.9053 10.6982 13.1494 10.3711C13.4814 9.92676 13.7036 9.4751 13.8306 8.97949C13.8867 8.76953 13.8989 8.65723 13.9087 8.30811C13.9258 7.80274 13.8867 7.5293 13.7427 7.09229C13.3496 5.91065 12.3608 5.02197 11.1328 4.74854C10.8789 4.69238 10.0708 4.67774 9.80225 4.72412Z" fill="white"/>
<path d="M9.39941 15.1489V16.1377H10.3882H11.377V15.1489V14.1602H10.3882H9.39941V15.1489Z" fill="white"/>
</svg>
