<svg id="svg" xmlns="http://www.w3.org/2000/svg" xmlns:xlink="http://www.w3.org/1999/xlink" width="400" height="400" viewBox="0, 0, 400,400"><g id="svgg"><path id="path0" d="M43.750 11.719 L 43.750 23.438 90.625 23.438 L 137.500 23.438 137.500 11.719 L 137.500 0.000 90.625 0.000 L 43.750 0.000 43.750 11.719 M184.375 11.719 L 184.375 23.438 231.250 23.438 L 278.125 23.438 278.125 11.719 L 278.125 0.000 231.250 0.000 L 184.375 0.000 184.375 11.719 M325.000 11.719 L 325.000 23.438 362.500 23.438 L 400.000 23.438 400.000 11.719 L 400.000 0.000 362.500 0.000 L 325.000 0.000 325.000 11.719 M0.000 50.000 L 0.000 96.875 11.719 96.875 L 23.438 96.875 23.438 50.000 L 23.438 3.125 11.719 3.125 L 0.000 3.125 0.000 50.000 M376.563 112.500 L 376.563 159.375 388.281 159.375 L 400.000 159.375 400.000 112.500 L 400.000 65.625 388.281 65.625 L 376.563 65.625 376.563 112.500 M178.906 92.998 C 170.437 94.002,163.317 100.239,160.654 108.987 C 160.067 110.917,159.988 115.041,159.866 149.968 L 159.730 188.803 157.892 187.025 C 148.862 178.291,138.638 176.141,128.674 180.881 C 114.311 187.715,113.900 205.571,127.609 227.212 C 128.812 229.110,139.001 247.089,150.251 267.164 C 171.857 305.717,171.402 304.972,174.186 306.344 L 175.977 307.227 220.703 307.227 L 265.430 307.227 266.992 306.383 C 270.531 304.474,271.142 303.282,273.591 293.512 C 277.868 276.452,280.742 258.186,282.036 239.844 C 282.812 228.847,282.999 185.841,282.286 182.507 C 279.790 170.837,269.262 163.745,256.810 165.343 L 254.441 165.647 253.490 163.585 C 249.747 155.469,238.022 149.889,229.492 152.166 C 228.855 152.336,228.499 151.959,227.559 150.113 C 224.036 143.196,215.529 138.404,207.373 138.742 L 204.360 138.867 204.201 124.805 C 204.064 112.724,203.944 110.439,203.350 108.594 C 199.900 97.859,190.186 91.662,178.906 92.998 M184.766 112.714 L 185.742 113.689 185.938 168.725 L 186.133 223.761 187.319 225.449 C 191.584 231.516,199.994 230.782,203.648 224.023 C 204.489 222.467,204.493 222.332,204.688 190.689 L 204.883 158.916 205.979 157.974 C 207.546 156.626,209.498 156.704,210.968 158.173 L 212.109 159.315 212.109 190.329 C 212.109 216.668,212.197 221.638,212.691 223.303 C 215.041 231.214,226.210 231.817,229.655 224.219 C 230.430 222.509,230.452 221.780,230.460 197.580 L 230.469 172.700 231.348 171.677 C 232.765 170.031,235.090 169.915,236.761 171.408 L 238.086 172.592 238.281 198.141 L 238.477 223.691 239.570 225.343 C 244.162 232.280,254.571 231.224,256.869 223.588 C 257.310 222.122,257.422 218.212,257.422 204.209 C 257.422 186.253,257.472 185.605,258.951 184.496 C 260.667 183.209,263.536 183.885,264.399 185.779 C 265.135 187.394,265.003 233.323,264.239 241.431 C 263.046 254.099,260.755 268.416,257.726 282.131 L 256.108 289.457 219.783 289.357 L 183.457 289.258 164.478 255.664 C 154.040 237.188,144.676 220.825,143.670 219.302 C 136.777 208.868,133.678 199.115,136.915 198.046 C 141.865 196.413,150.855 205.936,158.303 220.703 C 162.235 228.497,164.436 230.461,169.251 230.467 C 172.599 230.470,175.375 228.468,177.327 224.643 C 178.119 223.089,178.125 222.690,178.125 168.941 C 178.125 109.675,177.984 113.257,180.376 111.924 C 181.762 111.152,183.519 111.468,184.766 112.714 M0.000 190.625 L 0.000 237.500 11.719 237.500 L 23.438 237.500 23.438 190.625 L 23.438 143.750 11.719 143.750 L 0.000 143.750 0.000 190.625 M376.563 253.125 L 376.563 300.000 388.281 300.000 L 400.000 300.000 400.000 253.125 L 400.000 206.250 388.281 206.250 L 376.563 206.250 376.563 253.125 M0.000 331.250 L 0.000 378.125 11.719 378.125 L 23.438 378.125 23.438 331.250 L 23.438 284.375 11.719 284.375 L 0.000 284.375 0.000 331.250 M376.563 361.719 L 376.563 376.563 341.406 376.563 L 306.250 376.563 306.250 388.281 L 306.250 400.000 353.125 400.000 L 400.000 400.000 400.000 373.438 L 400.000 346.875 388.281 346.875 L 376.563 346.875 376.563 361.719 M25.000 388.281 L 25.000 400.000 71.875 400.000 L 118.750 400.000 118.750 388.281 L 118.750 376.563 71.875 376.563 L 25.000 376.563 25.000 388.281 M165.625 388.281 L 165.625 400.000 212.500 400.000 L 259.375 400.000 259.375 388.281 L 259.375 376.563 212.500 376.563 L 165.625 376.563 165.625 388.281 " stroke="none" fill="#ffffff" fill-rule="evenodd"></path></g></svg>