<?xml version="1.0" standalone="no"?>
<!DOCTYPE svg PUBLIC "-//W3C//DTD SVG 20010904//EN"
 "http://www.w3.org/TR/2001/REC-SVG-20010904/DTD/svg10.dtd">
<svg version="1.0" xmlns="http://www.w3.org/2000/svg"
 width="612.000000pt" height="612.000000pt" viewBox="0 0 612.000000 612.000000"
 preserveAspectRatio="xMidYMid meet">
<g transform="translate(0.000000,612.000000) scale(0.100000,-0.100000)"
fill="#000000" stroke="none">
<path d="M2600 6025 c-399 -67 -785 -211 -1110 -415 -351 -220 -637 -485 -857
-797 -157 -223 -212 -317 -298 -509 -131 -292 -209 -556 -250 -844 -14 -95
-16 -176 -13 -450 4 -294 7 -349 27 -450 55 -285 131 -519 255 -789 170 -369
460 -742 792 -1019 95 -79 324 -235 458 -312 191 -110 509 -236 744 -295 246
-62 305 -68 654 -73 297 -3 342 -2 475 18 260 38 508 111 788 231 394 170 772
448 1059 778 370 426 633 1003 710 1559 21 152 22 623 1 779 -29 224 -107 516
-193 728 -198 486 -474 862 -897 1222 -78 66 -313 224 -440 296 -214 121 -562
253 -810 308 -242 53 -309 59 -647 58 -277 -1 -329 -3 -448 -24z m730 -185
c336 -35 686 -134 962 -271 201 -101 429 -251 572 -377 35 -31 94 -84 131
-116 67 -59 210 -223 317 -363 98 -129 241 -376 316 -549 45 -103 120 -343
157 -503 120 -528 76 -1108 -127 -1636 -84 -217 -277 -550 -401 -692 -23 -26
-75 -87 -115 -136 -124 -148 -395 -384 -548 -475 -27 -16 -79 -48 -117 -71
-164 -101 -354 -185 -562 -250 -338 -104 -489 -126 -870 -126 -268 0 -314 3
-430 23 -279 50 -578 144 -790 251 -189 96 -391 225 -519 333 -54 46 -128 108
-164 138 -59 50 -152 152 -307 341 -114 138 -303 470 -372 654 -92 244 -152
494 -183 755 -16 139 -14 473 5 615 28 222 106 534 177 715 60 152 215 434
323 586 49 70 65 90 217 264 41 47 136 140 212 207 197 174 354 280 596 402
261 132 556 224 855 265 61 9 121 17 135 19 53 9 440 6 530 -3z"/>
<path d="M1770 5383 c-29 -10 -245 -144 -330 -203 -108 -76 -344 -301 -424
-405 -202 -262 -304 -435 -410 -697 -125 -307 -188 -578 -207 -885 -20 -333
28 -695 131 -987 104 -294 225 -520 400 -746 210 -270 591 -600 693 -600 32 0
71 32 87 70 21 50 0 81 -104 154 -109 78 -247 196 -335 286 -149 152 -252 292
-408 557 -49 83 -124 279 -167 439 -71 262 -89 396 -89 664 -1 283 24 464 93
700 10 36 22 81 25 100 6 37 92 255 127 324 130 257 285 473 473 661 146 146
271 244 421 328 55 31 110 66 122 77 49 46 36 113 -27 148 -40 23 -46 24 -71
15z"/>
<path d="M3203 4720 c-75 -33 -103 -112 -64 -176 20 -32 74 -64 110 -64 40 0
90 28 111 62 42 69 15 144 -64 182 -42 20 -42 20 -93 -4z"/>
<path d="M3143 4435 c-68 -21 -125 -59 -188 -126 -83 -90 -131 -202 -150 -349
-7 -56 20 -105 70 -126 30 -12 39 -12 69 0 43 18 56 42 72 137 23 130 72 216
146 255 38 20 85 18 96 -3 35 -68 18 -187 -58 -402 -131 -377 -211 -617 -354
-1063 -70 -219 -149 -559 -182 -778 -23 -155 -16 -365 15 -445 31 -79 91 -138
166 -161 69 -22 133 -12 241 40 87 41 247 147 268 178 46 65 -18 158 -99 145
-18 -3 -65 -28 -103 -56 -85 -62 -169 -102 -228 -109 -43 -4 -44 -4 -61 34
-23 55 -21 234 6 394 33 200 103 478 191 755 16 50 31 104 34 120 7 36 128
397 219 650 137 382 173 537 156 670 -14 112 -66 190 -154 231 -56 26 -109 29
-172 9z"/>
</g>
</svg>
