<?xml version="1.0" standalone="no"?>
<!DOCTYPE svg PUBLIC "-//W3C//DTD SVG 20010904//EN"
 "http://www.w3.org/TR/2001/REC-SVG-20010904/DTD/svg10.dtd">
<svg version="1.0" xmlns="http://www.w3.org/2000/svg"
 width="1024.000000pt" height="871.000000pt" viewBox="0 0 1024.000000 871.000000"
 preserveAspectRatio="xMidYMid meet">
<metadata>
Created by potrace 1.15, written by Peter Selinger 2001-2017
</metadata>
<g transform="translate(0.000000,871.000000) scale(0.100000,-0.100000)"
fill="#000000" stroke="none">
<path d="M0 4355 l0 -4355 103 0 c318 0 779 107 1171 271 1099 462 2025 1403
2711 2754 191 378 352 757 520 1225 330 923 663 1613 1073 2220 796 1180 1783
1848 3042 2059 380 64 607 81 1163 88 l457 6 0 43 0 44 -5120 0 -5120 0 0
-4355z"/>
</g>
</svg>
