<svg width="48" height="48" viewBox="0 0 48 48" fill="none" xmlns="http://www.w3.org/2000/svg">
<g filter="url(#filter0_d_9404_17517)">
<rect x="2" y="2" width="40" height="40" rx="5.23602" fill="#0077B5"/>
<path d="M16.8182 12.4091C16.8182 13.0833 16.6182 13.7425 16.2436 14.3031C15.8691 14.8637 15.3366 15.3007 14.7137 15.5587C14.0908 15.8167 13.4053 15.8842 12.744 15.7527C12.0827 15.6211 11.4753 15.2965 10.9985 14.8197C10.5217 14.3429 10.197 13.7355 10.0655 13.0742C9.93397 12.4129 10.0015 11.7274 10.2595 11.1045C10.5175 10.4816 10.9545 9.94913 11.5151 9.57454C12.0757 9.19994 12.7348 9 13.4091 9C14.3132 9 15.1804 9.35917 15.8197 9.9985C16.459 10.6378 16.8182 11.5049 16.8182 12.4091Z" fill="white"/>
<path d="M16.0455 18.0909V33.1523C16.0461 33.2634 16.0247 33.3735 15.9826 33.4764C15.9405 33.5792 15.8785 33.6727 15.8001 33.7515C15.7218 33.8302 15.6286 33.8928 15.526 33.9354C15.4234 33.9781 15.3134 34 15.2023 34H11.6091C11.498 34.0003 11.3879 33.9787 11.2852 33.9363C11.1825 33.8939 11.0892 33.8316 11.0106 33.7531C10.9321 33.6745 10.8698 33.5812 10.8274 33.4785C10.785 33.3758 10.7634 33.2657 10.7637 33.1546V18.0909C10.7637 17.8667 10.8527 17.6517 11.0113 17.4931C11.1699 17.3346 11.3849 17.2455 11.6091 17.2455H15.2023C15.4261 17.2461 15.6406 17.3354 15.7987 17.4939C15.9567 17.6524 16.0455 17.8671 16.0455 18.0909Z" fill="white"/>
<path d="M34.8271 25.9318V33.2228C34.8274 33.3249 34.8075 33.4261 34.7685 33.5206C34.7296 33.615 34.6723 33.7008 34.6001 33.773C34.5279 33.8453 34.442 33.9025 34.3476 33.9415C34.2532 33.9804 34.152 34.0003 34.0498 34H30.1862C30.084 34.0003 29.9828 33.9804 29.8884 33.9415C29.7939 33.9025 29.7081 33.8453 29.6359 33.773C29.5637 33.7008 29.5064 33.615 29.4675 33.5206C29.4285 33.4261 29.4086 33.3249 29.4089 33.2228V26.1568C29.4089 25.1023 29.718 21.5387 26.6521 21.5387C24.2771 21.5387 23.793 23.9773 23.6975 25.0728V33.2228C23.6976 33.427 23.6172 33.6229 23.4739 33.7684C23.3306 33.9138 23.1358 33.997 22.9316 34H19.1998C19.0978 34 18.9969 33.9799 18.9027 33.9408C18.8085 33.9017 18.723 33.8444 18.651 33.7722C18.579 33.7 18.522 33.6143 18.4831 33.52C18.4443 33.4257 18.4245 33.3247 18.4248 33.2228V18.025C18.4245 17.9231 18.4443 17.822 18.4831 17.7278C18.522 17.6335 18.579 17.5478 18.651 17.4756C18.723 17.4033 18.8085 17.3461 18.9027 17.307C18.9969 17.2679 19.0978 17.2478 19.1998 17.2478H22.9316C23.1378 17.2478 23.3355 17.3296 23.4812 17.4754C23.627 17.6212 23.7089 17.8189 23.7089 18.025V19.3387C24.5907 18.0159 25.8975 16.9955 28.6862 16.9955C34.8634 16.9955 34.8271 22.7637 34.8271 25.9318Z" fill="white"/>
</g>
<defs>
<filter id="filter0_d_9404_17517" x="0.254658" y="0.254658" width="46.9814" height="46.9814" filterUnits="userSpaceOnUse" color-interpolation-filters="sRGB">
<feFlood flood-opacity="0" result="BackgroundImageFix"/>
<feColorMatrix in="SourceAlpha" type="matrix" values="0 0 0 0 0 0 0 0 0 0 0 0 0 0 0 0 0 0 127 0" result="hardAlpha"/>
<feOffset dx="1.74534" dy="1.74534"/>
<feGaussianBlur stdDeviation="1.74534"/>
<feComposite in2="hardAlpha" operator="out"/>
<feColorMatrix type="matrix" values="0 0 0 0 0 0 0 0 0 0.466667 0 0 0 0 0.709804 0 0 0 0.3 0"/>
<feBlend mode="normal" in2="BackgroundImageFix" result="effect1_dropShadow_9404_17517"/>
<feBlend mode="normal" in="SourceGraphic" in2="effect1_dropShadow_9404_17517" result="shape"/>
</filter>
</defs>
</svg>
