<?xml version="1.0" encoding="utf-8"?>
<!-- Generator: Adobe Illustrator 24.3.0, SVG Export Plug-In . SVG Version: 6.00 Build 0)  -->
<svg version="1.1" id="Capa_1" xmlns="http://www.w3.org/2000/svg" xmlns:xlink="http://www.w3.org/1999/xlink" x="0px" y="0px"
	 viewBox="0 0 454 512" style="enable-background:new 0 0 454 512;" xml:space="preserve">
<style type="text/css">
	.st0{fill:url(#SVGID_1_);}
</style>
<linearGradient id="SVGID_1_" gradientUnits="userSpaceOnUse" x1="-9.094947e-13" y1="265.997" x2="453.9772" y2="265.997" gradientTransform="matrix(1 0 0 -1 0 522)">
	<stop  offset="0" style="stop-color:#1980FF"/>
	<stop  offset="1" style="stop-color:#6AACFF"/>
</linearGradient>
<path class="st0" d="M454,0L131.7,63.9V357c-38.9-26-91.4-15.5-117.4,23.3s-15.5,91.4,23.3,117.4c38.9,26,91.4,15.5,117.4-23.3
	c7.5-11.3,12.2-24.2,13.7-37.6h0.5V207.7l247.1-49v123.1c-38.9-26-91.4-15.5-117.4,23.3c-26,38.9-15.5,91.4,23.3,117.4
	c38.9,26,91.4,15.5,117.4-23.3c11.1-16.6,16-36.6,13.7-56.4h0.6V0z M84.6,474.4c-26,0-47-21-47-47c0-26,21-47,47-47s47,21,47,47l0,0
	C131.6,453.3,110.6,474.3,84.6,474.4z M369.3,399.1c-26,0-47-21-47-47s21-47,47-47s47,21,47,47l0,0
	C416.3,378.1,395.2,399.1,369.3,399.1z M416.3,120.3l-247.1,49V94.8l247.1-49V120.3z"/>
</svg>
