<svg width="22" height="24" viewBox="0 0 22 24" fill="none" xmlns="http://www.w3.org/2000/svg">
<g clip-path="url(#clip0_10449_19683)">
<path d="M21.2813 0L6.17347 2.99531V16.7344C4.35003 15.5156 1.8891 16.0078 0.670346 17.8266C-0.548404 19.6453 -0.0562166 22.1109 1.76253 23.3297C3.58597 24.5484 6.04691 24.0562 7.26566 22.2375C7.61722 21.7078 7.83753 21.1031 7.90785 20.475H7.93128V9.73594L19.5141 7.43906V13.2094C17.6907 11.9906 15.2297 12.4828 14.011 14.3016C12.7922 16.125 13.2844 18.5859 15.1032 19.8047C16.9266 21.0234 19.3875 20.5312 20.6063 18.7125C21.1266 17.9344 21.3563 16.9969 21.2485 16.0687H21.2766V0H21.2813ZM3.96566 22.2375C2.74691 22.2375 1.76253 21.2531 1.76253 20.0344C1.76253 18.8156 2.74691 17.8312 3.96566 17.8312C5.18441 17.8312 6.16878 18.8156 6.16878 20.0344C6.16878 21.2484 5.18441 22.2328 3.96566 22.2375ZM17.311 18.7078C16.0922 18.7078 15.1078 17.7234 15.1078 16.5047C15.1078 15.2859 16.0922 14.3016 17.311 14.3016C18.5297 14.3016 19.5141 15.2859 19.5141 16.5047C19.5141 17.7234 18.525 18.7078 17.311 18.7078ZM19.5141 5.63906L7.93128 7.93594V4.44375L19.5141 2.14687V5.63906Z" fill="white"/>
</g>
<defs>
<clipPath id="clip0_10449_19683">
<rect width="21.2812" height="24" fill="white"/>
</clipPath>
</defs>
</svg>
