<svg width="24" height="14" viewBox="0 0 24 14" fill="none" xmlns="http://www.w3.org/2000/svg">
<path d="M0.785156 0.0327625C0.426562 0.147479 0.164063 0.400321 0.0492188 0.744469L0 0.887278V6.99999V13.1127L0.0492188 13.2555C0.15 13.5552 0.332812 13.7588 0.632812 13.904L0.808594 13.9883H12H23.1914L23.3672 13.904C23.6672 13.7588 23.85 13.5552 23.9508 13.2555L24 13.1127V6.99999V0.887278L23.9508 0.744469C23.85 0.444803 23.6672 0.241124 23.3672 0.095973L23.1914 0.011692L12.0352 0.00701046C3.06094 0.00466919 0.860156 0.00935173 0.785156 0.0327625ZM22.7344 6.99999V12.7592H12H1.26562V6.99999V1.24079H12H22.7344V6.99999Z" fill="white"/>
<path d="M2.77734 2.35094C2.66953 2.39776 2.55703 2.50077 2.50078 2.60846C2.45156 2.69977 2.44921 2.73254 2.44218 3.46532C2.43749 3.96866 2.44218 4.26599 2.46093 4.34558C2.4914 4.48839 2.60859 4.63589 2.75156 4.71314C2.84531 4.76465 2.86406 4.76465 3.6914 4.76465C4.51406 4.76465 4.53749 4.76231 4.63124 4.71314C4.75781 4.64525 4.88906 4.49542 4.91952 4.38538C4.95468 4.25896 4.95468 2.80746 4.91718 2.6904C4.88203 2.56866 4.75781 2.42585 4.63359 2.36732C4.53515 2.3205 4.49765 2.31816 3.68906 2.31816C3.04921 2.3205 2.83124 2.32752 2.77734 2.35094Z" fill="white"/>
<path d="M7.76953 2.35094C7.66171 2.39776 7.54921 2.50077 7.49296 2.60846C7.44374 2.69977 7.4414 2.73254 7.43437 3.46532C7.42968 3.96866 7.43437 4.26599 7.45312 4.34558C7.48359 4.48839 7.60078 4.63589 7.74374 4.71314C7.83749 4.76465 7.85624 4.76465 8.68359 4.76465C9.50624 4.76465 9.52968 4.76231 9.62343 4.71314C9.74999 4.64525 9.88124 4.49542 9.91171 4.38538C9.94687 4.25896 9.94687 2.80746 9.90937 2.6904C9.87421 2.56866 9.73828 2.41649 9.62343 2.36264C9.53671 2.32284 9.45468 2.31816 8.68359 2.3205C8.03906 2.3205 7.82343 2.32752 7.76953 2.35094Z" fill="white"/>
<path d="M11.4703 2.36264C11.3508 2.41649 11.2172 2.57334 11.182 2.69977C11.1609 2.76766 11.1562 3.03689 11.1609 3.59408C11.168 4.28237 11.1727 4.39943 11.2078 4.4603C11.2617 4.55863 11.3602 4.65461 11.4727 4.71548C11.5641 4.76231 11.5922 4.76465 12.4102 4.76465C13.1883 4.76465 13.2609 4.76231 13.3359 4.72017C13.4508 4.6593 13.5422 4.57033 13.6008 4.4603C13.65 4.369 13.6523 4.34324 13.6523 3.53555C13.6523 2.72318 13.65 2.70211 13.6008 2.60846C13.5422 2.49843 13.4297 2.39542 13.3195 2.34859C13.2609 2.32518 13.057 2.31816 12.4055 2.31816C11.6414 2.31816 11.557 2.32284 11.4703 2.36264Z" fill="white"/>
<path d="M15.1992 2.36265C15.1477 2.38607 15.0727 2.44225 15.0305 2.48439C14.8852 2.63891 14.8828 2.6553 14.8828 3.54259V4.3456L14.9438 4.46734C14.9766 4.53523 15.0398 4.61717 15.0844 4.64995C15.2344 4.767 15.3211 4.77637 16.125 4.77637C16.957 4.77637 17.032 4.767 17.1961 4.62419C17.3695 4.4767 17.3766 4.43924 17.3859 3.62687C17.3906 3.17737 17.3836 2.85898 17.3695 2.77235C17.3344 2.58975 17.2453 2.46566 17.0883 2.38372L16.9641 2.31817H16.1273C15.3656 2.31817 15.2859 2.32286 15.1992 2.36265Z" fill="white"/>
<path d="M19.2281 2.36199C19.1133 2.41349 18.968 2.57737 18.9375 2.68975C18.9234 2.73891 18.9141 3.11349 18.9141 3.56065V4.34493L18.975 4.46667C19.0477 4.61416 19.1859 4.71717 19.3547 4.75463C19.4297 4.76868 19.7555 4.7757 20.243 4.77102C20.9391 4.76399 21.0187 4.75931 21.0937 4.71951C21.2086 4.65864 21.3 4.56968 21.3586 4.45965C21.4078 4.36834 21.4102 4.34259 21.4102 3.5349V2.70379L21.3469 2.59376C21.3094 2.53523 21.2531 2.46266 21.218 2.43456C21.0727 2.31985 21.0469 2.3175 20.1586 2.3175C19.3992 2.3175 19.3148 2.32219 19.2281 2.36199Z" fill="white"/>
<path d="M2.7539 6.0517C2.63203 6.09618 2.44921 6.28582 2.4164 6.40521C2.38124 6.53398 2.38124 8.07679 2.41874 8.19618C2.4539 8.31558 2.58046 8.46307 2.70468 8.52863C2.79843 8.57779 2.82421 8.58013 3.63984 8.58715C4.61953 8.59418 4.66875 8.58715 4.83984 8.41625C5.01093 8.24535 5.02031 8.1915 5.01093 7.241C5.0039 6.45906 5.00156 6.4216 4.95234 6.33264C4.88671 6.2109 4.79296 6.12428 4.66406 6.06575C4.56328 6.01893 4.51406 6.01659 3.70312 6.01893C3.02578 6.01893 2.8289 6.02595 2.7539 6.0517Z" fill="white"/>
<path d="M6.9 6.07272C6.83438 6.10316 6.74766 6.16871 6.70547 6.21787C6.56719 6.38409 6.55782 6.46135 6.56719 7.35567C6.57422 8.25935 6.57422 8.25466 6.75703 8.43259C6.91641 8.5871 6.97735 8.59413 7.93828 8.5871C8.74922 8.58008 8.77969 8.57774 8.87344 8.52858C8.98594 8.47005 9.11016 8.33426 9.15469 8.22657C9.18047 8.1657 9.1875 7.9667 9.1875 7.29714V6.4473L9.12891 6.32791C9.06328 6.19914 8.94844 6.09613 8.81485 6.04931C8.75157 6.0259 8.51016 6.01888 7.875 6.01888C7.02422 6.01654 7.01953 6.01654 6.9 6.07272Z" fill="white"/>
<path d="M10.793 6.05867C10.6547 6.12422 10.5563 6.21553 10.4953 6.33961C10.4414 6.44964 10.4414 6.45667 10.4414 7.29245C10.4414 8.10014 10.4438 8.13994 10.4906 8.24061C10.5492 8.36703 10.6406 8.46068 10.7695 8.53091C10.8609 8.57774 10.8867 8.58008 11.7539 8.58008C12.6234 8.58008 12.6469 8.57774 12.7406 8.52857C12.8648 8.46068 12.9984 8.31319 13.0313 8.20081C13.05 8.13994 13.0547 7.83794 13.05 7.25499L13.043 6.39814L12.9727 6.28342C12.9281 6.21319 12.8578 6.14295 12.7875 6.09847L12.6727 6.02824L11.7797 6.02121C10.9523 6.01653 10.8797 6.01887 10.793 6.05867Z" fill="white"/>
<path d="M14.7352 6.04965C14.5992 6.09881 14.4938 6.19246 14.4281 6.3259L14.3672 6.44764V7.29748C14.3672 8.23627 14.3695 8.24798 14.5148 8.40015C14.557 8.44463 14.632 8.50082 14.6836 8.52891C14.775 8.57808 14.8078 8.58042 15.6094 8.58744C16.1602 8.59213 16.4766 8.5851 16.5445 8.56871C16.6992 8.52891 16.8328 8.4259 16.9102 8.2831L16.9805 8.15902V7.3045C16.9805 6.45701 16.9805 6.44998 16.9266 6.33995C16.8656 6.21587 16.7672 6.12457 16.6289 6.06136C16.5445 6.02156 16.4578 6.01687 15.6797 6.01922C15.0258 6.01922 14.8031 6.02624 14.7352 6.04965Z" fill="white"/>
<path d="M19.6687 6.56461C19.5234 6.61144 19.4203 6.7004 19.35 6.84087L19.2891 6.96261V7.57833V8.19405H18.6281C17.8781 8.19405 17.843 8.20107 17.6836 8.38602C17.5617 8.53117 17.55 8.62247 17.5594 9.44655C17.5664 10.1372 17.5687 10.177 17.618 10.266C17.6812 10.3853 17.7516 10.4509 17.8828 10.5094C17.9859 10.5563 18.0281 10.5586 19.6523 10.5586C20.6672 10.5586 21.3469 10.5492 21.3961 10.5352C21.5086 10.5047 21.6352 10.4111 21.7031 10.3081L21.7617 10.2215L21.7687 8.60609C21.7734 7.48234 21.7687 6.96027 21.75 6.8994C21.7172 6.78702 21.607 6.6606 21.4828 6.59505C21.3891 6.54588 21.3609 6.54354 20.5781 6.53886C19.9477 6.53418 19.7484 6.5412 19.6687 6.56461Z" fill="white"/>
<path d="M7.2586 9.42042C7.10391 9.4766 6.99844 9.56323 6.92578 9.69433L6.85547 9.82075L6.84844 10.6238C6.83907 11.5181 6.84844 11.5953 6.98672 11.7616C7.02891 11.8107 7.11563 11.8763 7.18125 11.9067L7.30078 11.9629H11.4727C15.4617 11.9629 15.6492 11.9605 15.7383 11.9184C15.8461 11.8692 15.968 11.7569 16.0266 11.6492C16.0617 11.586 16.0664 11.4783 16.0734 10.7221C16.0805 9.97058 16.0758 9.85587 16.0406 9.7669C15.9914 9.6358 15.8859 9.5164 15.7641 9.45085L15.668 9.39935L11.5078 9.39466C8.04844 9.38998 7.3336 9.39466 7.2586 9.42042Z" fill="white"/>
<path d="M2.71875 9.55385C2.60625 9.59833 2.50078 9.699 2.44688 9.8184C2.39062 9.93779 2.39062 9.94482 2.39062 10.7478V11.5602L2.45625 11.6819C2.49375 11.7545 2.55938 11.8341 2.62031 11.8786L2.72344 11.9512H3.56016H4.39688L4.49531 11.8856C4.54922 11.8505 4.62188 11.7779 4.65703 11.7241L4.72266 11.6258L4.72969 10.7947C4.73672 9.88629 4.73203 9.83947 4.6125 9.70134C4.46016 9.52809 4.45547 9.52809 3.56953 9.53044C3.10781 9.53044 2.75391 9.5398 2.71875 9.55385Z" fill="white"/>
</svg>
