<svg id="Layer_1" data-name="Layer 1" xmlns="http://www.w3.org/2000/svg" viewBox="0 0 1024 1024"><defs><style>.cls-1{fill:#0f1934;stroke:#0f1934;stroke-miterlimit:10;stroke-width:4.59px;}</style></defs><title>Phone</title><path class="cls-1" d="M860.46,610.41c-22.25-23.17-49.09-35.56-77.54-35.56-28.21,0-55.28,12.16-78.45,35.33L632,682.44c-6-3.21-11.92-6.2-17.66-9.18-8.26-4.13-16.06-8-22.71-12.16-67.9-43.12-129.6-99.32-188.79-172-28.67-36.24-47.94-66.75-61.93-97.72,18.81-17.2,36.24-35.1,53.22-52.3,6.42-6.42,12.84-13.08,19.27-19.5,48.17-48.17,48.17-110.57,0-158.74L350.75,98.18c-7.11-7.11-14.45-14.45-21.33-21.79-13.77-14.23-28.22-28.91-43.13-42.67C264,11.7,237.43,0,209.45,0s-55.06,11.7-78,33.72l-.45.46L53,112.86C23.64,142.22,6.89,178,3.22,219.53c-5.5,67,14.23,129.37,29.37,170.2C69.75,490,125.26,582.88,208.07,682.44c100.47,120,221.36,214.71,359.46,281.46,52.76,25,123.18,54.59,201.86,59.64,4.82.23,9.86.46,14.45.46,53,0,97.49-19,132.36-56.89.23-.46.69-.69.92-1.15,11.93-14.45,25.69-27.52,40.14-41.52,9.86-9.4,20-19.26,29.82-29.59,22.71-23.62,34.64-51.15,34.64-79.37,0-28.44-12.16-55.74-35.33-78.68ZM942.58,852c-.23,0-.23.23,0,0-9,9.63-18.12,18.35-28,28-14.91,14.22-30.05,29.14-44.27,45.88-23.17,24.77-50.46,36.47-86.25,36.47-3.44,0-7.11,0-10.55-.23-68.13-4.35-131.44-31-178.93-53.67C464.76,845.53,350.75,756.3,256,643.21c-78.22-94.28-130.52-181.45-165.16-275-21.33-57.12-29.13-101.62-25.69-143.6,2.29-26.84,12.62-49.09,31.66-68.13L175,78.22c11.24-10.55,23.17-16.28,34.87-16.28,14.45,0,26.15,8.71,33.49,16l.68.69c14,13.08,27.3,26.61,41.3,41.06,7.11,7.34,14.45,14.68,21.79,22.25l62.62,62.63c24.32,24.31,24.32,46.79,0,71.11-6.65,6.65-13.07,13.3-19.73,19.73-19.27,19.72-37.62,38.07-57.57,56-.46.46-.92.68-1.15,1.14-19.73,19.73-16.06,39-11.93,52.08l.69,2.06c16.29,39.45,39.22,76.62,74.09,120.89l.23.23c63.31,78,130.07,138.78,203.7,185.35a312.29,312.29,0,0,0,28.22,15.36c8.25,4.13,16,8,22.71,12.16.91.46,1.83,1.15,2.75,1.61A49.72,49.72,0,0,0,634.51,748c19,0,31-11.93,34.87-15.82l78.45-78.46c7.8-7.8,20.18-17.2,34.63-17.2,14.23,0,25.93,9,33,16.74l.46.46,126.39,126.4C966,803.56,966,827.64,942.58,852Z"/></svg>