<svg id="Layer_1" data-name="Layer 1" xmlns="http://www.w3.org/2000/svg" viewBox="0 0 1024 1024"><defs><style>.cls-1{fill:#0f1934;stroke:#0f1934;stroke-miterlimit:10;stroke-width:19.2px;}</style></defs><title>pie chart</title><path class="cls-1" d="M874.1,149.9C674.22-50,350-50,149.9,149.9-50,349.78-50,674,149.9,874.1,349.78,1074,674,1074,874.1,874.1,1074,674,1074,350,874.1,149.9ZM989.5,494.83H529V34.5C779.6,43.25,980.75,244.4,989.5,494.83ZM494.83,34.5V504.85L162.06,837.62A477.81,477.81,0,0,1,494.83,34.5Zm17.06,955.21a474.58,474.58,0,0,1-325.72-128L511.89,536.21,837.62,861.72A473.57,473.57,0,0,1,511.89,989.71ZM861.72,837.62,553.28,529H989.5A473.31,473.31,0,0,1,861.72,837.62Z"/></svg>