<?xml version="1.0" standalone="no"?>
<!DOCTYPE svg PUBLIC "-//W3C//DTD SVG 20010904//EN"
 "http://www.w3.org/TR/2001/REC-SVG-20010904/DTD/svg10.dtd">
<svg version="1.0" xmlns="http://www.w3.org/2000/svg"
 width="1024.000000pt" height="871.000000pt" viewBox="0 0 1024.000000 871.000000"
 preserveAspectRatio="xMidYMid meet">
<metadata>
Created by potrace 1.15, written by Peter Selinger 2001-2017
</metadata>
<g transform="translate(0.000000,871.000000) scale(0.100000,-0.100000)"
fill="#000000" stroke="none">
<path d="M0 8666 l0 -43 458 -6 c448 -6 566 -12 847 -43 1427 -159 2498 -830
3357 -2104 410 -607 743 -1297 1073 -2220 168 -468 329 -847 520 -1225 686
-1351 1612 -2292 2711 -2754 392 -164 853 -271 1171 -271 l103 0 0 4355 0
4355 -5120 0 -5120 0 0 -44z"/>
</g>
</svg>
