<?xml version="1.0" encoding="utf-8"?>
<!-- Generator: Adobe Illustrator 22.0.0, SVG Export Plug-In . SVG Version: 6.00 Build 0)  -->
<svg version="1.1" id="Layer_1" xmlns="http://www.w3.org/2000/svg" xmlns:xlink="http://www.w3.org/1999/xlink" x="0px" y="0px"
	 viewBox="0 0 1024.3 349.4" style="enable-background:new 0 0 1024.3 349.4;" xml:space="preserve">
<style type="text/css">
	.st0{fill:#FFD364;}
</style>
<path id="XMLID_8_" class="st0" d="M477.2,42.1l35.2,197.7l35.2-197.7c3.9-21.9-13-42.1-35.2-42.1h0C490.2,0,473.3,20.1,477.2,42.1z
	"/>
<path id="XMLID_9_" class="st0" d="M1013.9,207.1L872.2,349.4L956,166.9c9.3-20.2,34.6-27.2,52.9-14.5l0,0
	C1027.2,165.2,1029.6,191.3,1013.9,207.1z"/>
<path id="XMLID_2_" class="st0" d="M10.4,207.1l141.7,142.3L68.3,166.9c-9.3-20.2-34.6-27.2-52.9-14.5l0,0
	C-2.9,165.2-5.3,191.3,10.4,207.1z"/>
</svg>
