<?xml version="1.0" standalone="no"?>
<svg version="1.0" 
    xmlns="http://www.w3.org/2000/svg" width="1024.000000pt" height="598.000000pt" viewBox="0 0 1024.000000 598.000000" preserveAspectRatio="xMidYMid meet">
    <defs xmlns="http://www.w3.org/2000/svg">
        <linearGradient id="grad1" x1="0%" y1="0%" x2="100%" y2="0%">
            <stop offset="0%" style="stop-color: #2989ff;stop-opacity:1;"/>
            <stop offset="100%" style="stop-color: #63a8ff;stop-opacity:1;"/>
        </linearGradient>
    </defs>
    <g transform="translate(0.000000,598.000000) scale(0.100000,-0.100000)" fill="url(#grad1)" stroke="none">
        <path d="M335 5966 c-153 -49 -265 -157 -314 -304 l-21 -61 0 -2611 0 -2611
21 -61 c43 -128 121 -215 249 -277 l75 -36 4775 0 4775 0 75 36 c128 62 206
149 249 277 l21 61 0 2611 0 2611 -21 61 c-43 128 -121 215 -249 277 l-75 36
-4760 2 c-3829 1 -4768 -1 -4800 -11z m9365 -2976 l0 -2460 -4580 0 -4580 0 0
2460 0 2460 4580 0 4580 0 0 -2460z"/>
        <path d="M1185 4976 c-46 -20 -94 -64 -118 -110 -21 -39 -22 -53 -25 -366 -2
-215 0 -342 8 -376 13 -61 63 -124 124 -157 40 -22 48 -22 401 -22 351 0 361
1 401 22 54 29 110 93 123 140 15 54 15 674 -1 724 -15 52 -68 113 -121 138
-42 20 -58 21 -403 21 -273 -1 -366 -4 -389 -14z"/>
        <path d="M3315 4976 c-46 -20 -94 -64 -118 -110 -21 -39 -22 -53 -25 -366 -2
-215 0 -342 8 -376 13 -61 63 -124 124 -157 40 -22 48 -22 401 -22 351 0 361
1 401 22 54 29 110 93 123 140 15 54 15 674 -1 724 -15 52 -73 117 -122 140
-37 17 -72 19 -401 18 -275 0 -367 -3 -390 -13z"/>
        <path d="M4894 4971 c-51 -23 -108 -90 -123 -144 -9 -29 -11 -144 -9 -382 3
-294 5 -344 20 -370 23 -42 65 -83 113 -109 39 -20 51 -21 400 -21 332 0 363
1 395 19 49 26 88 64 113 111 21 39 22 50 22 395 0 347 -1 356 -22 396 -25 47
-73 91 -120 111 -25 10 -112 13 -390 13 -326 0 -362 -2 -399 -19z"/>
        <path d="M6485 4971 c-22 -10 -54 -34 -72 -52 -62 -66 -63 -73 -63 -452 l0
-343 26 -52 c14 -29 41 -64 60 -78 64 -50 101 -54 444 -54 355 0 387 4 457 65
74 63 77 79 81 426 2 192 -1 328 -7 365 -15 78 -53 131 -120 166 l-53 28 -357
0 c-325 0 -359 -2 -396 -19z"/>
        <path d="M8204 4971 c-49 -22 -111 -92 -124 -140 -6 -21 -10 -181 -10 -372 l0
-335 26 -52 c31 -63 90 -107 162 -123 32 -6 171 -9 379 -7 297 3 331 5 363 22
49 26 88 64 113 111 21 39 22 50 22 395 l0 355 -27 47 c-16 25 -40 56 -55 68
-62 49 -73 50 -452 50 -324 0 -360 -2 -397 -19z"/>
        <path d="M1175 3395 c-52 -19 -130 -100 -144 -151 -15 -55 -15 -714 1 -765 15
-51 69 -114 122 -142 40 -21 51 -22 399 -25 418 -3 439 0 512 73 73 73 77 96
73 502 -3 334 -4 350 -25 388 -28 52 -68 89 -123 114 -43 20 -64 21 -410 20
-289 0 -373 -3 -405 -14z"/>
        <path d="M2944 3386 c-28 -13 -65 -41 -83 -62 -59 -71 -63 -104 -59 -486 3
-386 3 -384 81 -460 68 -66 94 -69 504 -66 346 3 359 4 399 25 48 25 101 83
120 129 11 26 14 111 14 397 l0 363 -25 51 c-28 55 -77 99 -134 119 -27 10
-130 13 -401 13 -363 1 -365 1 -416 -23z"/>
        <path d="M4605 3392 c-59 -28 -101 -67 -127 -120 -23 -47 -23 -50 -23 -407 0
-345 1 -362 21 -405 25 -54 64 -94 119 -124 39 -20 50 -21 420 -21 371 0 381
1 421 22 53 29 110 92 124 140 8 26 10 155 8 404 l-3 366 -30 49 c-19 30 -49
60 -79 79 l-49 30 -381 3 c-353 2 -384 1 -421 -16z"/>
        <path d="M6287 3396 c-58 -21 -103 -61 -131 -118 l-26 -52 0 -363 c0 -401 1
-406 63 -471 18 -19 50 -43 72 -55 39 -21 53 -22 395 -25 235 -2 370 1 399 8
66 17 123 61 156 122 l30 53 0 365 c0 362 0 365 -23 412 -26 53 -68 92 -127
119 -36 17 -73 19 -405 18 -279 0 -374 -3 -403 -13z"/>
        <path d="M8392 3176 c-62 -20 -106 -58 -136 -118 l-26 -52 0 -263 0 -263 -282
0 c-320 0 -335 -3 -403 -82 -52 -62 -57 -101 -53 -453 3 -295 4 -312 25 -350
27 -51 57 -79 113 -104 44 -20 62 -21 755 -21 433 0 723 4 744 10 48 13 102
53 131 97 l25 37 3 690 c2 480 0 703 -8 729 -14 48 -61 102 -114 130 -40 21
-52 22 -386 24 -269 2 -354 -1 -388 -11z"/>
        <path d="M3097 1956 c-66 -24 -111 -61 -142 -117 l-30 -54 -3 -343 c-4 -382 0
-415 59 -486 18 -21 55 -49 83 -62 l51 -24 1780 0 c1702 0 1782 1 1820 19 46
21 98 69 123 115 15 27 17 73 20 396 3 321 1 370 -14 408 -21 56 -66 107 -118
135 l-41 22 -1775 2 c-1476 2 -1781 0 -1813 -11z"/>
        <path d="M1160 1899 c-48 -19 -93 -62 -116 -113 -24 -51 -24 -54 -24 -397 l0
-347 28 -52 c16 -31 44 -65 70 -84 l44 -31 357 0 357 0 42 28 c23 15 54 46 69
69 l28 42 3 355 c3 388 1 408 -50 467 -65 74 -67 74 -445 73 -197 0 -348 -4
-363 -10z"/>
    </g>
</svg>
