<svg width="38" height="38" viewBox="0 0 38 38" fill="none" xmlns="http://www.w3.org/2000/svg">
<path d="M14.25 8.3125L14.4008 11.6268C14.5219 14.2907 15.6345 16.8131 17.5201 18.6987C19.4057 20.5843 21.9281 21.6968 24.5919 21.8179L27.9062 21.9688L24.5919 22.1196C21.9281 22.2407 19.4057 23.3532 17.5201 25.2388C15.6345 27.1244 14.5219 29.6468 14.4008 32.3107L14.25 35.625L14.0992 32.3107C13.9781 29.6468 12.8655 27.1244 10.9799 25.2388C9.09432 23.3532 6.57194 22.2407 3.90806 22.1196L0.59375 21.9688L3.90806 21.8179C6.57194 21.6968 9.09432 20.5843 10.9799 18.6987C12.8655 16.8131 13.9781 14.2907 14.0992 11.6268L14.25 8.3125Z" fill="white"/>
<path d="M29.6875 9.5L29.8656 11.6185C29.9826 13.0174 30.5914 14.3296 31.584 15.3222C32.5766 16.3148 33.8889 16.9237 35.2877 17.0406L37.4062 17.2188L35.2877 17.3969C33.8889 17.5138 32.5766 18.1227 31.584 19.1153C30.5914 20.1079 29.9826 21.4201 29.8656 22.819L29.6875 24.9375L29.5094 22.819C29.3924 21.4201 28.7836 20.1079 27.791 19.1153C26.7984 18.1227 25.4861 17.5138 24.0873 17.3969L21.9688 17.2188L24.0873 17.0406C25.4861 16.9237 26.7984 16.3148 27.791 15.3222C28.7836 14.3296 29.3924 13.0174 29.5094 11.6185L29.6875 9.5Z" fill="white"/>
<path d="M22.5625 2.375L22.6741 2.93253C22.816 3.64167 23.1703 4.29085 23.69 4.79378C24.2097 5.2967 24.8701 5.62956 25.5835 5.74809L26.7188 5.9375L25.666 6.11266C24.9342 6.23529 24.2589 6.5834 23.7344 7.10839C23.2099 7.63338 22.8625 8.30904 22.7406 9.04103L22.5625 10.0938L22.3844 9.04103C22.2619 8.30958 21.9143 7.63458 21.3898 7.11016C20.8654 6.58575 20.1904 6.23808 19.459 6.11563L18.4062 5.9375L19.5433 5.74809C20.2567 5.62956 20.9171 5.2967 21.4368 4.79378C21.9565 4.29085 22.3108 3.64167 22.4527 2.93253L22.5625 2.375Z" fill="white"/>
</svg>
