<svg xmlns="http://www.w3.org/2000/svg" version="1.0" viewBox="0 0 1024.000000 1024.000000" style="&#10; height: 24px;&#10; width: 24px;&#10;"><defs xmlns="http://www.w3.org/2000/svg"> <linearGradient id="grad1" x1="0%" y1="0%" x2="100%" y2="0%"> <stop offset="0%" style="stop-color: #2989ff;stop-opacity:1;"/> <stop offset="100%" style="stop-color: #63a8ff;stop-opacity:1;"/> </linearGradient> </defs><g transform="translate(0.000000,1024.000000) scale(0.100000,-0.100000)" fill="url(#grad1)" stroke="none"><path d="M230 10210 c0 -5 -11 -10 -24 -10 -15 0 -26 -7 -29 -20 -3 -11 -14 -20 -25 -20 -11 0 -22 -9 -25 -20 -3 -11 -12 -20 -20 -20 -8 0 -17 -9 -20 -20 -3 -12 -14 -20 -26 -20 -17 0 -21 -6 -21 -35 0 -19 -4 -35 -10 -35 -7 0 -10 -733 -10 -2180 0 -1447 3 -2180 10 -2180 6 0 10 -16 10 -35 0 -29 4 -35 21 -35 12 0 23 -8 26 -19 3 -11 13 -21 24 -24 10 -3 19 -12 19 -21 0 -10 8 -16 21 -16 12 0 23 -8 26 -19 4 -14 15 -21 42 -23 27 -2 36 -7 35 -20 -2 -17 107 -18 2158 -18 1582 0 2157 3 2152 11 -9 15 14 29 47 29 18 0 28 6 32 20 3 11 14 20 25 20 11 0 22 9 25 20 3 12 14 20 26 20 12 0 20 3 20 8 -4 22 3 32 21 32 17 0 20 7 20 40 0 33 3 40 20 40 20 0 20 7 20 2170 0 2163 0 2170 -20 2170 -17 0 -20 7 -20 40 0 33 -3 40 -20 40 -18 0 -21 4 -19 28 0 4 -10 9 -23 12 -13 3 -23 12 -23 20 0 8 -11 17 -25 20 -16 4 -24 12 -24 23 1 12 -6 17 -27 17 -16 0 -29 5 -29 10 0 7 -733 10 -2180 10 -1447 0 -2180 -3 -2180 -10z m3755 -2380 l0 -1570 -1575 0 -1575 0 0 1570 0 1570 1575 0 1575 0 0 -1570z"/><path d="M7370 10210 c0 -6 -28 -10 -64 -10 -55 0 -64 -3 -62 -17 1 -15 -10 -18 -70 -21 -62 -2 -73 -6 -77 -22 -4 -17 -14 -20 -58 -20 -29 0 -49 -3 -46 -7 16 -15 -18 -33 -65 -33 -33 0 -47 -4 -42 -11 9 -16 -15 -29 -55 -29 -19 0 -31 -3 -28 -7 13 -13 -16 -33 -48 -33 -24 0 -34 -5 -38 -20 -4 -15 -14 -20 -42 -20 -24 0 -34 -4 -29 -11 8 -14 -14 -29 -42 -29 -13 0 -24 -8 -27 -20 -4 -15 -14 -20 -38 -20 -18 0 -29 -3 -26 -7 11 -11 -14 -33 -38 -33 -15 0 -22 -6 -21 -17 1 -12 -9 -20 -29 -24 -16 -4 -26 -7 -21 -8 15 -2 -16 -31 -34 -31 -10 0 -20 -9 -23 -20 -3 -11 -14 -20 -25 -20 -11 0 -22 -9 -25 -20 -3 -12 -14 -20 -25 -20 -13 0 -19 -6 -18 -17 0 -12 -7 -19 -21 -21 -13 -2 -23 -9 -23 -17 0 -7 -11 -16 -25 -19 -14 -4 -23 -11 -20 -16 4 -6 -9 -17 -27 -25 -18 -8 -28 -15 -23 -15 6 0 0 -9 -12 -19 -12 -10 -20 -21 -17 -24 3 -3 -4 -10 -15 -17 -12 -6 -21 -17 -21 -24 0 -8 -9 -16 -21 -19 -12 -3 -18 -10 -15 -16 4 -5 -2 -16 -12 -23 -10 -7 -21 -21 -25 -30 -3 -10 -13 -18 -22 -18 -8 0 -15 -9 -15 -20 0 -13 -7 -20 -20 -20 -13 0 -20 -7 -20 -20 0 -11 -7 -20 -16 -20 -8 0 -13 -4 -9 -9 3 -5 1 -12 -5 -16 -5 -3 -10 -15 -10 -27 0 -11 -8 -22 -20 -25 -11 -3 -20 -14 -20 -24 0 -12 -7 -19 -20 -19 -16 0 -20 -7 -20 -36 0 -27 -5 -37 -19 -41 -12 -3 -21 -17 -26 -39 -3 -20 -12 -34 -20 -34 -9 0 -15 -10 -15 -25 0 -18 -5 -25 -20 -25 -16 0 -20 -7 -20 -36 0 -37 -24 -75 -33 -51 -3 6 -6 -5 -6 -26 -1 -49 -19 -86 -32 -66 -6 9 -9 -4 -9 -38 0 -43 -3 -53 -20 -58 -17 -5 -20 -15 -20 -60 0 -44 -3 -53 -20 -58 -16 -4 -20 -14 -20 -50 0 -68 -10 -109 -26 -103 -11 4 -14 -12 -14 -78 0 -75 -2 -84 -20 -89 -20 -5 -20 -14 -20 -417 0 -403 0 -412 20 -417 18 -5 20 -14 20 -89 0 -66 3 -82 14 -78 16 6 26 -35 26 -107 0 -42 3 -49 20 -49 18 0 20 -7 20 -56 0 -47 3 -57 20 -61 17 -4 20 -14 20 -57 0 -35 3 -46 10 -36 7 11 11 9 19 -13 6 -16 11 -40 11 -54 0 -15 3 -23 7 -20 11 12 32 -27 33 -60 0 -23 6 -33 20 -38 13 -4 20 -15 20 -30 0 -17 4 -23 14 -19 9 4 16 -6 20 -32 5 -24 14 -38 27 -41 14 -4 19 -14 19 -39 0 -27 4 -34 20 -34 13 0 20 -7 20 -19 0 -11 9 -23 20 -26 12 -4 20 -15 20 -28 0 -13 9 -29 20 -37 11 -8 20 -22 20 -32 0 -11 7 -18 20 -18 13 0 20 -7 20 -19 0 -10 9 -21 20 -24 13 -3 20 -14 20 -28 0 -12 3 -19 7 -16 9 10 34 -13 27 -25 -3 -5 3 -12 15 -15 12 -3 21 -11 21 -19 0 -7 9 -18 21 -24 11 -7 18 -14 15 -17 -3 -3 5 -14 17 -24 12 -10 18 -19 12 -19 -5 0 5 -7 23 -15 18 -8 31 -19 27 -25 -3 -5 6 -12 20 -16 14 -3 25 -12 25 -20 0 -8 9 -14 20 -14 18 0 25 -10 21 -32 0 -5 8 -8 20 -8 12 0 23 -8 26 -20 3 -11 14 -20 25 -20 11 0 22 -8 25 -18 2 -10 18 -23 35 -30 16 -6 27 -16 23 -21 -4 -7 4 -11 20 -11 18 0 29 -6 32 -19 3 -11 17 -21 34 -25 17 -3 29 -12 29 -21 0 -9 9 -15 26 -15 17 0 28 -6 31 -20 3 -11 13 -20 23 -20 29 0 50 -11 50 -26 0 -8 9 -14 19 -14 30 0 51 -11 51 -26 0 -9 12 -14 34 -14 33 0 62 -20 49 -33 -3 -4 9 -7 28 -7 40 0 64 -13 55 -29 -5 -7 8 -11 41 -11 53 0 79 -12 69 -29 -5 -7 9 -11 42 -11 47 0 81 -18 65 -33 -3 -4 21 -7 55 -7 69 0 92 -6 92 -26 0 -11 18 -14 76 -14 75 0 120 -13 109 -31 -4 -5 144 -9 395 -9 251 0 399 4 395 9 -11 19 34 31 111 31 43 0 74 3 71 7 -4 3 -2 12 4 20 8 8 35 13 82 13 39 0 67 3 64 7 -16 15 19 33 66 33 28 0 47 3 44 7 -15 14 18 33 59 33 31 0 44 4 44 14 0 17 22 26 61 26 20 0 28 4 23 11 -9 16 15 29 55 29 19 0 31 3 28 7 -13 12 15 33 44 33 18 0 29 5 29 14 0 15 21 26 50 26 10 0 20 9 23 20 4 15 14 20 38 20 18 0 29 3 26 7 -10 10 13 33 33 33 10 0 20 9 23 20 3 14 14 20 32 20 16 0 24 4 20 11 -4 5 7 15 23 21 17 7 33 20 35 30 3 10 14 18 26 18 13 0 21 6 21 16 0 9 9 18 20 21 11 3 20 11 20 19 0 7 11 16 25 20 14 3 25 12 25 19 0 7 11 16 25 19 14 4 23 11 20 16 -3 5 3 14 14 20 27 14 70 57 64 64 -3 2 5 9 16 16 12 6 21 17 21 25 0 8 7 15 15 15 9 0 15 9 15 21 0 12 8 23 20 26 11 3 20 12 20 20 0 8 9 17 20 20 11 3 20 14 20 24 0 12 7 19 20 19 13 0 20 7 20 20 0 11 5 20 11 20 5 0 7 5 4 10 -3 6 1 13 9 16 9 3 16 14 16 24 0 10 9 22 20 25 11 3 20 15 20 26 0 12 7 19 20 19 16 0 20 7 20 34 0 25 5 35 19 39 13 3 22 17 26 41 4 21 13 36 21 36 8 0 14 9 14 21 0 12 8 23 20 26 14 4 20 14 20 32 0 42 12 73 25 67 9 -3 15 12 19 46 5 38 10 48 21 44 12 -4 15 4 15 38 0 35 4 45 20 49 17 4 20 14 20 60 0 46 3 55 20 60 16 4 20 14 20 50 0 68 10 109 26 103 11 -4 14 9 14 59 0 37 4 65 10 65 7 0 10 160 10 460 0 300 -3 460 -10 460 -6 0 -10 28 -10 65 0 50 -3 63 -14 59 -16 -6 -26 35 -26 103 0 36 -4 46 -20 50 -17 5 -20 14 -20 58 0 45 -3 55 -20 60 -16 5 -20 15 -20 50 0 33 -3 43 -14 39 -15 -6 -25 22 -27 76 0 19 -3 29 -6 23 -2 -7 -9 -13 -14 -13 -6 0 -7 5 -4 10 3 6 1 10 -4 10 -6 0 -11 18 -11 40 0 33 -3 40 -20 40 -16 0 -20 7 -20 30 0 21 -4 28 -14 24 -11 -4 -17 4 -21 29 -5 23 -14 37 -26 40 -14 4 -19 14 -19 41 0 29 -4 36 -20 36 -13 0 -20 7 -20 19 0 10 -9 21 -20 24 -12 3 -20 14 -20 25 0 11 -7 23 -16 26 -8 3 -12 10 -9 16 3 5 1 10 -4 10 -6 0 -11 9 -11 20 0 13 -7 20 -20 20 -13 0 -20 7 -20 20 0 12 -7 20 -16 20 -9 0 -18 9 -21 19 -3 11 -13 21 -24 24 -11 3 -19 14 -19 26 0 12 -6 21 -15 21 -8 0 -15 7 -15 15 0 8 -9 19 -20 25 -11 6 -18 15 -15 20 3 5 -4 12 -15 15 -12 4 -19 12 -17 18 2 7 -9 18 -25 24 -16 7 -27 17 -24 22 3 5 -5 12 -19 15 -14 4 -25 13 -25 20 0 8 -10 16 -22 18 -15 2 -22 9 -22 21 1 11 -5 17 -18 17 -11 0 -22 8 -25 19 -3 11 -15 21 -27 23 -13 2 -20 10 -20 21 1 11 -5 17 -21 17 -24 0 -49 22 -38 33 3 4 -6 7 -21 7 -19 0 -29 6 -33 20 -3 11 -13 20 -23 20 -20 0 -43 23 -33 33 3 4 -8 7 -26 7 -24 0 -34 5 -38 20 -4 14 -14 20 -35 20 -21 0 -31 6 -35 20 -4 14 -14 20 -35 20 -21 0 -31 6 -35 20 -4 15 -14 20 -38 20 -29 0 -71 28 -49 32 5 0 -11 4 -36 7 -31 4 -45 11 -45 21 0 11 -14 16 -50 20 -40 4 -50 9 -49 23 2 14 -7 17 -51 17 -34 0 -57 5 -65 15 -7 8 -9 16 -4 17 5 1 -25 4 -66 7 -63 5 -75 9 -74 24 2 14 -7 17 -62 17 -36 0 -64 4 -64 10 0 7 -160 10 -460 10 -300 0 -460 -3 -460 -10z m555 -817 l40 -6 -30 -13 c-26 -11 -11 -13 119 -14 143 0 148 -1 143 -20 -5 -19 0 -20 69 -20 67 0 74 -2 74 -19 0 -17 8 -20 53 -23 42 -2 52 -6 51 -20 -2 -15 6 -18 42 -18 37 0 44 -3 44 -20 0 -16 7 -20 36 -20 27 0 37 -5 41 -20 4 -14 14 -20 34 -20 22 0 29 -5 29 -20 0 -16 7 -20 30 -20 23 0 30 -4 30 -20 0 -15 7 -20 25 -20 15 0 25 -6 25 -15 0 -8 11 -17 25 -21 14 -3 30 -15 36 -25 5 -11 16 -19 23 -19 8 0 16 -9 19 -20 3 -11 9 -19 14 -18 13 4 73 -54 73 -69 0 -7 7 -13 15 -13 8 0 15 -7 15 -15 0 -8 9 -19 20 -25 11 -6 18 -15 15 -21 -4 -5 -1 -9 4 -9 6 0 11 -8 11 -19 0 -10 9 -21 20 -24 11 -3 20 -12 20 -20 0 -8 9 -17 21 -20 12 -3 20 -13 19 -24 -4 -38 1 -51 21 -56 18 -5 20 -11 15 -34 -4 -18 -3 -23 3 -14 13 20 28 6 35 -34 4 -21 13 -35 21 -35 14 0 20 -28 17 -72 -1 -11 4 -15 12 -12 20 8 29 -13 28 -64 0 -36 4 -45 19 -49 16 -5 19 -15 19 -69 0 -48 4 -64 14 -64 21 0 26 -32 26 -170 1 -99 4 -120 12 -100 11 24 11 24 19 -15 10 -49 9 -139 -1 -180 l-7 -30 -11 25 c-8 20 -11 -1 -12 -100 0 -138 -5 -170 -26 -170 -10 0 -14 -16 -14 -64 0 -54 -3 -64 -19 -69 -15 -4 -19 -13 -19 -49 1 -51 -8 -72 -28 -64 -8 3 -13 -1 -12 -12 3 -43 -3 -72 -16 -72 -8 0 -18 -16 -23 -37 -6 -24 -15 -38 -24 -37 -11 1 -14 -6 -11 -22 3 -19 0 -24 -17 -24 -20 0 -27 -18 -22 -58 1 -8 -7 -16 -18 -19 -12 -3 -21 -14 -21 -24 0 -12 -7 -19 -20 -19 -13 0 -20 -7 -20 -20 0 -11 -5 -20 -11 -20 -5 0 -7 -5 -4 -10 3 -6 -1 -13 -10 -16 -9 -4 -21 -17 -26 -30 -5 -13 -14 -23 -21 -22 -7 2 -12 -4 -13 -12 0 -8 -10 -20 -23 -26 -13 -6 -22 -15 -21 -20 1 -5 -8 -13 -20 -19 -11 -5 -21 -15 -21 -21 0 -7 -11 -15 -25 -18 -14 -4 -23 -11 -19 -17 3 -5 -8 -15 -24 -21 -17 -7 -33 -20 -35 -30 -3 -10 -14 -18 -25 -18 -11 0 -22 -9 -25 -20 -3 -14 -14 -20 -31 -20 -17 0 -26 -6 -26 -15 0 -9 -12 -18 -29 -21 -17 -4 -32 -12 -35 -20 -3 -7 -21 -16 -40 -20 -20 -3 -36 -12 -36 -19 0 -7 -17 -16 -37 -20 -20 -4 -42 -13 -48 -22 -6 -8 -32 -17 -58 -20 -31 -4 -47 -10 -47 -19 0 -10 -14 -14 -47 -14 -62 0 -93 -9 -93 -26 0 -11 -19 -14 -82 -15 -81 -1 -208 -14 -178 -18 40 -6 -33 -20 -105 -20 -85 -1 -128 6 -120 19 4 7 -48 12 -220 23 -22 1 -39 6 -37 12 5 14 -27 24 -81 24 -33 1 -49 6 -53 16 -4 8 -16 15 -29 15 -43 0 -85 13 -85 25 0 8 -18 16 -40 20 -23 4 -40 12 -40 20 0 7 -16 16 -36 19 -19 4 -37 13 -40 20 -3 8 -18 16 -35 20 -17 3 -29 12 -29 21 0 9 -9 15 -26 15 -17 0 -28 6 -31 20 -3 11 -14 20 -25 20 -11 0 -22 8 -25 19 -3 12 -17 22 -33 26 -16 4 -30 14 -33 26 -3 10 -12 19 -21 19 -9 0 -16 7 -16 15 0 9 -9 15 -21 15 -12 0 -23 8 -26 19 -3 11 -13 21 -24 24 -11 3 -19 14 -19 26 0 12 -6 21 -15 21 -8 0 -15 7 -15 15 0 8 -9 19 -20 25 -11 6 -18 15 -15 21 4 5 1 9 -4 9 -6 0 -11 9 -11 20 0 13 -7 20 -20 20 -13 0 -20 7 -20 19 0 10 -9 21 -20 24 -15 4 -20 14 -20 41 0 29 -4 36 -20 36 -13 0 -20 7 -20 20 0 11 -6 20 -14 20 -9 0 -17 15 -21 40 -4 23 -12 40 -20 40 -8 0 -16 17 -20 40 -4 22 -12 40 -20 40 -13 0 -25 43 -25 91 0 19 -5 29 -15 29 -15 0 -16 4 -19 79 -1 25 -8 47 -14 49 -7 2 -12 10 -12 18 0 8 -5 14 -11 14 -7 0 -8 11 -4 30 8 38 -5 206 -15 190 -12 -19 -20 28 -20 120 0 92 8 139 20 120 10 -17 23 141 15 184 -5 24 -3 36 4 36 6 0 11 6 11 14 0 8 5 16 12 18 7 3 12 27 14 59 2 70 2 69 18 69 9 0 15 17 18 52 3 30 12 56 21 63 8 6 18 28 22 48 4 20 13 37 20 37 8 0 16 17 20 40 4 25 12 40 21 40 8 0 14 9 14 20 0 13 7 20 20 20 16 0 20 7 20 36 0 27 5 37 20 41 11 3 20 14 20 24 0 12 7 19 19 19 14 0 21 10 25 35 4 22 13 35 22 35 9 0 18 9 21 20 3 11 10 20 17 20 6 0 16 10 21 23 6 12 16 21 23 20 7 -2 12 6 12 17 0 18 11 25 33 21 5 -1 11 8 14 19 3 11 12 20 20 20 8 0 17 9 20 19 3 11 17 21 34 25 17 3 29 12 29 21 0 9 9 15 25 15 18 0 25 5 25 20 0 15 7 20 26 20 17 0 28 6 31 20 4 14 14 20 34 20 22 0 29 5 29 20 0 17 7 20 40 20 33 0 40 3 40 20 0 17 7 20 44 20 39 0 44 2 39 20 -5 18 0 20 55 20 51 0 60 3 58 18 -1 14 9 17 67 20 57 2 67 6 65 20 -3 15 13 18 147 22 110 4 142 7 120 14 l-30 9 25 7 c32 10 153 12 205 3z"/><path d="M256 4809 c9 -15 -14 -29 -47 -29 -18 0 -28 -6 -32 -20 -3 -11 -14 -20 -25 -20 -11 0 -22 -9 -25 -20 -3 -11 -12 -20 -20 -20 -8 0 -17 -9 -20 -20 -3 -12 -14 -20 -26 -20 -17 0 -21 -6 -21 -35 0 -19 -4 -35 -10 -35 -6 0 -10 -68 -10 -185 0 -117 4 -185 10 -185 6 0 10 -15 10 -33 0 -26 6 -36 25 -45 14 -6 25 -18 25 -27 0 -8 7 -15 16 -15 9 0 18 -9 21 -20 3 -11 14 -20 24 -20 12 0 19 -7 19 -20 0 -13 7 -20 20 -20 13 0 20 -7 20 -20 0 -13 7 -20 19 -20 10 0 21 -9 24 -20 3 -11 12 -20 20 -20 8 0 17 -9 20 -20 3 -11 12 -20 21 -20 9 0 16 -7 16 -15 0 -8 7 -15 16 -15 9 0 18 -9 21 -19 3 -11 13 -21 24 -24 10 -3 19 -12 19 -20 0 -8 9 -17 20 -20 11 -3 20 -12 20 -21 0 -9 6 -16 14 -16 8 0 18 -9 21 -20 3 -11 12 -20 20 -20 8 0 17 -9 20 -20 3 -11 12 -20 20 -20 8 0 17 -9 20 -20 3 -11 12 -20 20 -20 8 0 17 -9 20 -20 3 -11 12 -20 20 -20 8 0 17 -9 20 -20 3 -11 12 -20 20 -20 8 0 17 -9 20 -20 3 -11 13 -20 21 -20 13 0 18 -12 15 -32 0 -5 8 -8 19 -8 18 0 25 -10 21 -32 0 -5 8 -8 19 -8 18 0 25 -10 21 -32 0 -5 8 -8 19 -8 18 0 25 -10 21 -32 0 -5 8 -8 19 -8 18 0 25 -10 21 -32 0 -5 8 -8 19 -8 18 0 25 -10 21 -32 0 -5 8 -8 19 -8 18 0 25 -10 21 -32 0 -5 8 -8 19 -8 18 0 25 -10 21 -32 0 -5 8 -8 19 -8 18 0 25 -10 21 -32 0 -5 8 -8 19 -8 18 0 25 -10 21 -32 0 -5 8 -8 19 -8 13 0 20 -7 20 -20 0 -13 7 -20 20 -20 13 0 20 -7 20 -20 0 -13 7 -20 20 -20 13 0 20 -7 20 -20 0 -13 7 -20 20 -20 13 0 20 -7 20 -20 0 -13 7 -20 20 -20 13 0 20 -7 20 -20 0 -13 7 -20 20 -20 13 0 20 -7 20 -20 0 -13 7 -20 20 -20 13 0 20 -7 20 -20 0 -13 7 -20 20 -20 13 0 20 -7 20 -20 0 -13 7 -20 20 -20 13 0 20 -7 20 -20 0 -13 7 -20 20 -20 13 0 20 -7 20 -20 0 -13 7 -20 20 -20 13 0 20 -7 20 -20 0 -13 7 -20 20 -20 13 0 20 -7 20 -20 0 -13 7 -20 20 -20 13 0 20 -7 20 -20 0 -13 7 -20 20 -20 13 0 20 -7 20 -20 0 -13 7 -20 20 -20 13 0 20 -7 20 -20 0 -13 7 -20 20 -20 13 0 20 -7 20 -20 0 -13 7 -20 20 -20 13 0 20 -7 20 -20 0 -13 7 -20 20 -20 13 0 20 -7 20 -20 0 -13 -7 -20 -20 -20 -13 0 -20 -7 -20 -20 0 -13 -7 -20 -20 -20 -13 0 -20 -7 -20 -20 0 -13 -7 -20 -20 -20 -13 0 -20 -7 -20 -20 0 -13 -7 -20 -20 -20 -13 0 -20 -7 -20 -20 0 -13 -7 -20 -20 -20 -13 0 -20 -7 -20 -20 0 -13 -7 -20 -20 -20 -13 0 -20 -7 -20 -20 0 -13 -7 -20 -20 -20 -13 0 -20 -7 -20 -20 0 -13 -7 -20 -20 -20 -13 0 -20 -7 -20 -20 0 -13 -7 -20 -20 -20 -13 0 -20 -7 -20 -20 0 -13 -7 -20 -20 -20 -13 0 -20 -7 -20 -20 0 -13 -7 -20 -20 -20 -13 0 -20 -7 -20 -20 0 -13 -7 -20 -20 -20 -13 0 -20 -7 -20 -20 0 -13 -7 -20 -20 -20 -13 0 -20 -7 -20 -20 0 -13 -7 -20 -20 -20 -13 0 -20 -7 -20 -20 0 -13 -7 -20 -20 -20 -13 0 -20 -7 -20 -20 0 -13 -7 -20 -20 -20 -13 0 -20 -7 -20 -20 0 -13 -7 -20 -20 -20 -13 0 -20 -7 -20 -20 0 -13 -7 -20 -20 -20 -11 0 -19 -3 -19 -7 4 -23 -3 -33 -21 -33 -11 0 -19 -3 -19 -7 4 -23 -3 -33 -21 -33 -11 0 -19 -3 -19 -7 4 -23 -3 -33 -21 -33 -11 0 -19 -3 -19 -8 4 -22 -3 -32 -21 -32 -11 0 -19 -3 -19 -8 4 -22 -3 -32 -21 -32 -11 0 -19 -3 -19 -7 4 -23 -3 -33 -21 -33 -11 0 -19 -3 -19 -8 4 -22 -3 -32 -21 -32 -11 0 -19 -3 -19 -8 3 -20 -2 -32 -15 -32 -8 0 -18 -9 -21 -20 -3 -11 -12 -20 -20 -20 -8 0 -17 -9 -20 -20 -3 -11 -12 -20 -20 -20 -8 0 -17 -9 -20 -20 -3 -11 -11 -20 -16 -20 -5 0 -34 -25 -64 -55 -29 -30 -58 -55 -64 -55 -6 0 -11 -7 -11 -16 0 -9 -9 -18 -20 -21 -11 -3 -20 -12 -20 -20 0 -8 -9 -17 -20 -20 -11 -3 -20 -12 -20 -20 0 -8 -9 -17 -20 -20 -11 -3 -20 -12 -20 -20 0 -8 -9 -17 -20 -20 -11 -3 -20 -12 -20 -20 0 -8 -9 -17 -20 -20 -11 -3 -20 -12 -20 -20 0 -8 -9 -17 -20 -20 -11 -3 -20 -12 -20 -20 0 -8 -9 -17 -20 -20 -11 -3 -20 -12 -20 -20 0 -8 -9 -17 -20 -20 -11 -3 -20 -12 -20 -20 0 -8 -9 -17 -19 -20 -11 -3 -21 -13 -24 -24 -3 -11 -14 -19 -26 -19 -14 0 -19 -5 -14 -16 4 -10 -1 -17 -16 -21 -11 -3 -21 -12 -21 -19 0 -8 -11 -19 -25 -24 -20 -8 -25 -16 -25 -45 0 -19 -4 -35 -10 -35 -6 0 -10 -67 -10 -180 0 -113 4 -180 10 -180 6 0 10 -18 10 -39 0 -33 4 -40 23 -43 14 -2 21 -9 21 -21 -1 -11 5 -17 18 -17 11 0 22 -8 25 -20 3 -11 14 -20 25 -20 11 0 22 -9 25 -20 4 -14 14 -20 34 -20 16 0 29 -4 29 -10 0 -6 67 -10 180 -10 113 0 180 4 180 10 0 6 13 10 30 10 22 0 28 4 24 15 -5 11 3 17 25 21 21 5 31 12 31 25 0 12 7 19 20 19 13 0 20 7 20 20 0 13 7 20 20 20 13 0 20 7 20 20 0 13 7 20 20 20 13 0 20 7 20 20 0 13 7 20 20 20 13 0 20 7 20 20 0 13 7 20 20 20 13 0 20 7 20 20 0 13 7 20 20 20 13 0 20 7 20 20 0 13 7 20 20 20 13 0 20 7 20 20 0 13 7 20 20 20 13 0 20 7 20 20 0 13 7 20 20 20 13 0 20 7 20 20 0 13 7 20 20 20 13 0 20 7 20 20 0 13 7 20 20 20 13 0 20 7 20 20 0 13 7 20 20 20 13 0 20 7 20 20 0 13 7 20 20 20 13 0 20 7 20 20 0 13 7 20 20 20 13 0 20 7 20 20 0 13 7 20 20 20 13 0 20 7 20 20 0 13 7 20 20 20 13 0 20 7 20 20 0 13 7 20 20 20 13 0 20 7 20 20 0 13 7 20 20 20 13 0 20 7 20 20 0 13 7 20 20 20 13 0 20 7 20 20 0 13 7 20 20 20 13 0 20 7 20 20 0 13 7 20 20 20 13 0 20 7 20 20 0 13 7 20 20 20 13 0 20 7 20 20 0 13 7 20 20 20 13 0 20 7 20 20 0 13 7 20 20 20 11 0 19 3 19 8 -4 22 3 32 21 32 11 0 19 3 19 8 -4 22 3 32 21 32 11 0 19 3 19 8 -4 22 3 32 21 32 11 0 19 3 19 8 -4 22 3 32 21 32 11 0 19 3 19 8 -4 22 3 32 21 32 11 0 19 3 19 8 -3 20 2 32 15 32 8 0 18 9 21 20 3 11 11 20 16 20 5 0 34 25 64 55 29 30 58 55 63 55 5 0 12 9 15 20 3 11 12 20 20 20 8 0 17 9 20 20 3 11 12 20 20 20 8 0 17 9 20 20 3 11 12 20 20 20 8 0 17 9 20 20 3 11 12 20 20 20 8 0 17 9 20 20 3 11 12 20 20 20 8 0 17 9 20 20 3 12 14 20 25 20 12 0 19 6 18 17 0 9 8 19 19 22 11 3 20 13 20 21 0 8 9 17 20 20 11 3 20 12 20 20 0 9 11 16 28 18 22 3 27 -1 27 -17 0 -14 6 -21 20 -21 13 0 20 -7 20 -20 0 -13 7 -20 20 -20 13 0 20 -7 20 -20 0 -13 7 -20 20 -20 13 0 20 -7 20 -20 0 -13 7 -20 20 -20 13 0 20 -7 20 -20 0 -13 7 -20 20 -20 13 0 20 -7 20 -20 0 -13 7 -20 20 -20 13 0 20 -7 20 -20 0 -13 7 -20 20 -20 13 0 20 -7 20 -20 0 -13 7 -20 20 -20 13 0 20 -7 20 -20 0 -13 7 -20 19 -20 10 0 21 -9 24 -20 3 -11 12 -20 20 -20 8 0 17 -9 20 -20 3 -11 12 -20 21 -20 9 0 16 -6 16 -14 0 -7 9 -16 20 -19 11 -3 20 -12 20 -20 0 -8 9 -17 20 -20 11 -3 20 -12 20 -20 0 -8 9 -17 20 -20 11 -3 20 -12 20 -21 0 -9 6 -16 14 -16 8 0 18 -9 21 -20 3 -11 12 -20 20 -20 8 0 17 -9 20 -20 3 -11 12 -20 20 -20 8 0 17 -9 20 -20 3 -11 12 -20 20 -20 8 0 17 -9 20 -20 3 -11 12 -20 20 -20 8 0 17 -9 20 -20 3 -11 12 -20 20 -20 8 0 17 -9 20 -20 3 -11 13 -20 21 -20 13 0 18 -12 15 -32 0 -5 8 -8 19 -8 18 0 25 -10 21 -32 0 -5 8 -8 19 -8 18 0 25 -10 21 -32 0 -5 8 -8 19 -8 18 0 25 -10 21 -32 0 -5 8 -8 19 -8 18 0 25 -10 21 -32 0 -5 8 -8 19 -8 18 0 25 -10 21 -32 0 -5 8 -8 19 -8 18 0 25 -10 21 -32 0 -5 8 -8 19 -8 18 0 25 -10 21 -32 0 -5 8 -8 19 -8 13 0 20 -7 20 -20 0 -13 7 -20 20 -20 13 0 20 -7 20 -20 0 -13 7 -20 20 -20 13 0 20 -7 20 -20 0 -13 7 -20 20 -20 18 0 25 -10 21 -33 0 -4 8 -7 19 -7 13 0 20 -7 20 -20 0 -13 7 -20 20 -20 13 0 20 -7 20 -20 0 -13 7 -20 20 -20 13 0 20 -7 20 -20 0 -13 7 -20 20 -20 13 0 20 -7 20 -20 0 -13 7 -20 20 -20 13 0 20 -7 20 -20 0 -13 7 -20 20 -20 13 0 20 -7 20 -20 0 -13 7 -20 20 -20 13 0 20 -7 20 -20 0 -13 7 -20 20 -20 13 0 20 -7 20 -20 0 -13 7 -20 20 -20 13 0 20 -7 20 -20 0 -13 7 -20 20 -20 18 0 24 -10 22 -31 -1 -4 13 -9 29 -13 22 -4 30 -10 25 -21 -4 -11 2 -15 24 -15 17 0 30 -4 30 -10 0 -6 67 -10 180 -10 113 0 180 4 180 10 0 6 13 10 29 10 20 0 30 6 34 20 3 11 14 20 25 20 11 0 22 9 25 20 3 12 14 20 26 20 12 0 20 3 20 8 -4 22 3 32 21 32 17 0 20 7 20 40 0 33 3 40 20 40 19 0 20 7 20 176 0 167 -1 176 -20 181 -15 4 -20 14 -20 39 0 28 -5 36 -26 44 -16 7 -24 16 -21 25 4 9 -2 15 -16 17 -12 2 -22 10 -22 18 0 8 -9 17 -20 20 -11 3 -20 12 -20 20 0 8 -9 17 -20 20 -11 3 -20 12 -20 20 0 8 -9 17 -20 20 -11 3 -20 12 -20 20 0 8 -9 17 -20 20 -11 3 -20 12 -20 20 0 8 -9 17 -20 20 -11 3 -20 12 -20 20 0 8 -9 17 -20 20 -11 3 -20 12 -20 20 0 8 -9 18 -20 21 -11 3 -19 11 -17 18 1 6 -9 16 -24 21 -14 6 -22 14 -19 20 3 6 -6 15 -20 20 -14 5 -23 14 -20 20 3 6 -6 15 -20 20 -15 6 -23 15 -20 21 4 6 -2 13 -14 16 -12 3 -21 11 -21 18 0 8 -9 17 -20 20 -11 3 -20 12 -20 20 0 8 -9 17 -20 20 -11 3 -20 13 -20 21 0 8 -9 14 -20 14 -13 0 -20 7 -20 20 0 12 -7 20 -16 20 -9 0 -18 9 -21 20 -3 11 -14 20 -24 20 -12 0 -19 7 -19 20 0 12 -7 20 -16 20 -9 0 -18 9 -21 20 -3 11 -14 20 -24 20 -12 0 -19 7 -19 20 0 12 -7 20 -16 20 -9 0 -18 9 -21 20 -3 11 -14 20 -24 20 -12 0 -19 7 -19 20 0 12 -7 20 -16 20 -9 0 -18 9 -21 20 -3 11 -14 20 -24 20 -12 0 -19 7 -19 19 0 10 -9 21 -20 24 -11 3 -20 12 -20 21 0 9 -8 16 -20 16 -13 0 -20 7 -20 19 0 10 -9 21 -20 24 -11 3 -20 12 -20 20 0 8 -9 17 -20 20 -11 3 -20 12 -20 20 0 8 -9 17 -20 20 -11 3 -20 12 -20 21 0 9 -8 16 -20 16 -13 0 -20 7 -20 19 0 10 -9 21 -20 24 -11 3 -20 12 -20 20 0 8 -9 17 -20 20 -11 3 -20 12 -20 20 0 8 -9 17 -20 20 -11 3 -20 12 -20 20 0 8 -9 17 -20 20 -11 3 -20 12 -20 20 0 8 -9 17 -20 20 -11 3 -20 12 -20 20 0 8 -9 17 -20 20 -11 3 -20 12 -20 20 0 8 -9 17 -20 20 -11 3 -20 12 -20 20 0 8 -9 17 -20 20 -11 3 -20 12 -20 20 0 8 -9 17 -20 20 -11 3 -20 12 -20 20 0 8 -9 17 -20 20 -11 3 -20 12 -20 20 0 8 -9 17 -20 20 -11 3 -20 12 -20 20 0 8 -9 17 -20 20 -11 3 -20 12 -20 20 0 8 -9 17 -20 20 -11 3 -20 12 -20 20 0 8 -9 17 -20 20 -11 3 -20 12 -20 21 0 9 8 16 20 16 13 0 20 7 20 20 0 13 7 20 20 20 13 0 20 7 20 20 0 13 7 20 20 20 13 0 20 7 20 20 0 13 7 20 20 20 13 0 20 7 20 20 0 13 7 20 20 20 13 0 20 7 20 20 0 13 7 20 20 20 13 0 20 7 20 20 0 13 7 20 20 20 13 0 20 7 20 20 0 13 7 20 20 20 13 0 20 7 20 20 0 13 7 20 20 20 13 0 20 7 20 20 0 13 7 20 20 20 13 0 20 7 20 20 0 13 7 20 20 20 13 0 20 7 20 20 0 13 7 20 20 20 13 0 20 7 20 20 0 13 7 20 20 20 13 0 20 7 20 20 0 13 7 20 20 20 13 0 20 7 20 20 0 13 7 20 20 20 13 0 20 7 20 20 0 13 7 20 20 20 13 0 20 7 20 20 0 13 7 20 20 20 13 0 20 7 20 20 0 13 7 20 20 20 13 0 20 7 20 20 0 13 7 20 20 20 13 0 20 7 20 20 0 13 7 20 20 20 13 0 20 7 20 20 0 13 7 20 20 20 13 0 20 7 20 20 0 13 7 20 20 20 13 0 20 7 20 20 0 13 7 20 20 20 13 0 20 7 20 20 0 13 7 20 20 20 13 0 20 7 20 20 0 13 7 20 20 20 13 0 20 7 20 20 0 13 7 20 20 20 13 0 20 7 20 20 0 13 7 20 20 20 13 0 20 7 20 20 0 13 7 20 20 20 13 0 20 7 20 20 0 13 7 20 20 20 13 0 20 7 20 20 0 13 7 20 20 20 11 0 19 3 19 8 -4 22 3 32 21 32 11 0 19 3 19 8 -4 22 3 32 21 32 11 0 19 3 19 8 -4 22 3 32 21 32 11 0 19 3 19 8 -4 22 3 32 21 32 11 0 19 3 19 8 -4 22 3 32 21 32 11 0 19 3 19 8 -3 20 2 32 15 32 8 0 18 9 21 20 3 11 11 20 16 20 5 0 34 25 64 55 29 30 58 55 63 55 5 0 12 9 15 20 3 11 12 20 20 20 8 0 17 9 20 20 3 11 12 20 21 20 9 0 16 7 16 16 0 9 9 18 20 21 11 3 20 12 20 19 0 8 11 20 25 26 19 9 25 19 25 43 0 24 5 34 20 38 19 5 20 14 20 181 0 169 -1 176 -20 176 -17 0 -20 7 -20 40 0 33 -3 40 -20 40 -18 0 -25 10 -21 33 0 4 -8 7 -20 7 -12 0 -23 8 -26 19 -3 11 -16 22 -29 25 -13 4 -24 13 -24 21 0 10 -10 15 -27 15 -35 0 -58 14 -49 29 5 8 -39 11 -157 11 -156 0 -165 -1 -170 -20 -4 -16 -14 -20 -43 -20 -20 0 -34 -3 -31 -7 11 -10 -13 -33 -34 -33 -11 0 -18 -3 -18 -7 4 -23 -3 -33 -21 -33 -13 0 -20 -7 -20 -20 0 -13 -7 -20 -20 -20 -13 0 -20 -7 -20 -20 0 -13 -7 -20 -20 -20 -13 0 -20 -7 -20 -20 0 -13 -7 -20 -20 -20 -13 0 -20 -7 -20 -20 0 -13 -7 -20 -20 -20 -13 0 -20 -7 -20 -20 0 -13 -7 -20 -20 -20 -13 0 -20 -7 -20 -20 0 -13 -7 -20 -20 -20 -13 0 -20 -7 -20 -20 0 -13 -7 -20 -20 -20 -13 0 -20 -7 -20 -20 0 -13 -7 -20 -20 -20 -13 0 -20 -7 -20 -20 0 -13 -7 -20 -20 -20 -13 0 -20 -7 -20 -20 0 -13 -7 -20 -20 -20 -13 0 -20 -7 -20 -20 0 -13 -7 -20 -20 -20 -13 0 -20 -7 -20 -20 0 -13 -7 -20 -20 -20 -13 0 -20 -7 -20 -20 0 -13 -7 -20 -20 -20 -11 0 -19 -3 -19 -7 4 -23 -3 -33 -21 -33 -13 0 -20 -7 -20 -20 0 -13 -7 -20 -20 -20 -11 0 -19 -3 -19 -7 4 -23 -3 -33 -21 -33 -11 0 -19 -3 -19 -7 4 -23 -3 -33 -21 -33 -11 0 -19 -3 -19 -7 4 -23 -3 -33 -21 -33 -11 0 -19 -3 -19 -7 4 -23 -3 -33 -21 -33 -11 0 -19 -3 -19 -7 4 -23 -3 -33 -21 -33 -11 0 -19 -3 -19 -7 3 -21 -2 -33 -15 -33 -8 0 -18 -9 -21 -20 -3 -11 -11 -20 -16 -20 -5 0 -34 -25 -64 -55 -29 -30 -58 -55 -64 -55 -6 0 -11 -7 -11 -16 0 -9 -9 -18 -19 -21 -11 -3 -21 -13 -24 -24 -3 -10 -12 -19 -21 -19 -9 0 -16 -7 -16 -16 0 -9 -9 -18 -20 -21 -11 -3 -20 -12 -20 -20 0 -8 -9 -17 -20 -20 -11 -3 -20 -12 -20 -20 0 -8 -9 -17 -20 -20 -11 -3 -20 -12 -20 -20 0 -8 -9 -17 -20 -20 -11 -3 -20 -12 -20 -20 0 -8 -9 -17 -19 -20 -11 -3 -21 -13 -24 -24 -3 -11 -14 -19 -25 -19 -12 0 -19 -6 -18 -17 0 -9 -8 -19 -19 -22 -11 -3 -20 -13 -20 -21 0 -8 -9 -17 -20 -20 -11 -3 -20 -12 -20 -20 0 -8 -10 -16 -22 -18 -15 -2 -20 -8 -16 -18 4 -10 -2 -17 -15 -21 -11 -2 -22 -13 -25 -24 -3 -10 -12 -19 -20 -19 -8 0 -17 -9 -20 -20 -3 -11 -12 -20 -21 -20 -9 0 -16 -8 -16 -20 0 -13 -7 -20 -19 -20 -10 0 -21 -9 -24 -20 -3 -11 -12 -20 -21 -20 -10 0 -16 -8 -16 -21 0 -16 -5 -20 -27 -17 -17 2 -28 9 -28 18 0 8 -9 17 -20 20 -11 3 -20 12 -20 20 0 8 -9 17 -20 20 -11 3 -20 12 -20 20 0 8 -9 17 -20 20 -11 3 -20 12 -20 20 0 8 -9 17 -20 20 -11 3 -20 12 -20 20 0 8 -9 17 -20 20 -11 3 -20 12 -20 20 0 8 -9 17 -20 20 -11 3 -20 12 -20 20 0 8 -9 17 -20 20 -11 3 -20 12 -20 20 0 8 -9 17 -20 20 -11 3 -20 12 -20 20 0 8 -9 17 -20 20 -11 3 -20 12 -20 20 0 8 -9 17 -20 20 -11 3 -20 12 -20 20 0 8 -9 18 -20 21 -11 3 -19 12 -17 21 2 11 -6 18 -20 20 -13 2 -23 10 -23 18 0 8 -9 18 -20 21 -11 3 -19 11 -17 18 1 6 -9 16 -24 21 -14 6 -22 14 -19 20 3 6 -6 15 -20 20 -14 5 -23 14 -20 20 3 6 -6 15 -20 20 -15 6 -23 15 -20 21 4 6 -2 13 -14 16 -12 3 -21 11 -21 18 0 8 -9 17 -20 20 -11 3 -20 12 -20 20 0 8 -9 17 -20 20 -11 3 -20 13 -20 21 0 8 -9 14 -20 14 -13 0 -20 7 -20 19 0 10 -9 21 -20 24 -11 3 -20 12 -20 21 0 9 -8 16 -20 16 -13 0 -20 7 -20 20 0 12 -7 20 -16 20 -9 0 -18 9 -21 20 -3 11 -14 20 -24 20 -12 0 -19 7 -19 20 0 12 -7 20 -16 20 -9 0 -18 9 -21 20 -3 11 -14 20 -24 20 -12 0 -19 7 -19 20 0 13 -7 20 -20 20 -13 0 -20 7 -20 20 0 13 -7 20 -20 20 -13 0 -20 7 -20 20 0 13 -7 20 -20 20 -13 0 -20 7 -20 20 0 12 -7 20 -16 20 -9 0 -18 9 -21 20 -3 11 -14 20 -24 20 -12 0 -19 7 -19 19 0 10 -9 21 -20 24 -11 3 -20 12 -20 20 0 8 -9 17 -20 20 -11 3 -20 12 -20 20 0 8 -9 17 -20 20 -11 3 -20 12 -20 20 0 8 -9 17 -20 20 -11 3 -20 12 -20 21 0 9 -8 16 -20 16 -13 0 -20 7 -20 20 0 12 -7 20 -16 20 -9 0 -18 9 -21 20 -3 11 -14 20 -24 20 -12 0 -19 7 -19 20 0 12 -7 20 -16 20 -9 0 -18 9 -21 20 -3 11 -14 20 -24 20 -12 0 -19 7 -19 20 0 13 -7 20 -20 20 -13 0 -20 7 -20 20 0 13 -7 20 -20 20 -13 0 -20 7 -20 20 0 13 -7 20 -19 20 -21 0 -45 23 -34 33 3 4 -11 7 -31 7 -29 0 -39 4 -43 20 -5 19 -14 20 -170 20 -118 0 -162 -3 -157 -11z"/><path d="M9657 4800 c-4 -16 -14 -20 -43 -20 -20 0 -34 -3 -31 -7 11 -10 -13 -33 -34 -33 -12 0 -19 -7 -19 -20 0 -13 -7 -20 -20 -20 -12 0 -20 -7 -20 -16 0 -9 -9 -18 -20 -21 -11 -3 -20 -14 -20 -24 0 -12 -7 -19 -19 -19 -10 0 -21 -9 -24 -20 -3 -11 -12 -20 -21 -20 -9 0 -16 -8 -16 -20 0 -13 -7 -20 -20 -20 -12 0 -20 -7 -20 -16 0 -9 -9 -18 -20 -21 -11 -3 -20 -14 -20 -24 0 -12 -7 -19 -19 -19 -10 0 -21 -9 -24 -20 -3 -11 -12 -20 -21 -20 -9 0 -16 -8 -16 -20 0 -13 -7 -20 -19 -20 -10 0 -21 -9 -24 -20 -3 -11 -12 -20 -21 -20 -9 0 -16 -8 -16 -20 0 -13 -7 -20 -19 -20 -10 0 -21 -9 -24 -20 -3 -11 -12 -20 -21 -20 -9 0 -16 -8 -16 -20 0 -13 -7 -20 -20 -20 -13 0 -20 -7 -20 -20 0 -13 -7 -20 -20 -20 -13 0 -20 -7 -20 -20 0 -13 -7 -20 -20 -20 -13 0 -20 -7 -20 -20 0 -13 -7 -20 -20 -20 -13 0 -20 -7 -20 -20 0 -13 -7 -20 -20 -20 -13 0 -20 -7 -20 -20 0 -13 -7 -20 -20 -20 -13 0 -20 -7 -20 -20 0 -13 -7 -20 -20 -20 -13 0 -20 -7 -20 -20 0 -13 -7 -20 -20 -20 -13 0 -20 -7 -20 -20 0 -13 -7 -20 -20 -20 -13 0 -20 -7 -20 -20 0 -13 -7 -20 -20 -20 -11 0 -19 -3 -19 -7 4 -23 -3 -33 -22 -33 -11 0 -17 -4 -14 -10 3 -5 -5 -15 -19 -21 -14 -7 -23 -16 -20 -20 3 -5 -6 -14 -20 -20 -14 -7 -23 -16 -20 -20 3 -5 -7 -14 -21 -19 -14 -5 -23 -14 -20 -20 3 -6 -6 -15 -20 -20 -15 -6 -23 -15 -20 -21 4 -6 -2 -13 -13 -16 -11 -2 -22 -13 -25 -24 -3 -10 -12 -19 -20 -19 -8 0 -17 -9 -20 -20 -3 -12 -14 -20 -25 -20 -12 0 -19 -6 -18 -17 0 -9 -8 -19 -19 -22 -11 -3 -20 -13 -20 -21 0 -8 -9 -17 -20 -20 -11 -3 -20 -12 -20 -20 0 -8 -9 -17 -20 -20 -11 -3 -20 -12 -20 -20 0 -8 -9 -17 -20 -20 -11 -3 -20 -12 -20 -20 0 -8 -9 -17 -20 -20 -11 -3 -20 -12 -20 -20 0 -8 -9 -17 -20 -20 -11 -3 -20 -12 -20 -20 0 -8 -9 -17 -20 -20 -11 -3 -20 -12 -20 -20 0 -8 -9 -17 -20 -20 -11 -3 -20 -12 -20 -20 0 -8 -9 -17 -20 -20 -11 -3 -20 -12 -20 -20 0 -8 -9 -17 -20 -20 -11 -3 -20 -12 -20 -20 0 -8 -9 -17 -20 -20 -11 -3 -20 -12 -20 -20 0 -8 -9 -17 -20 -20 -11 -3 -20 -12 -20 -20 0 -8 -9 -17 -20 -20 -11 -3 -20 -12 -20 -20 0 -8 -9 -17 -20 -20 -11 -3 -20 -12 -20 -20 0 -8 -10 -16 -22 -18 -15 -2 -20 -8 -16 -18 4 -10 -2 -17 -15 -21 -11 -2 -22 -13 -25 -24 -3 -10 -12 -19 -20 -19 -8 0 -17 -9 -20 -20 -3 -11 -12 -20 -20 -20 -8 0 -17 -9 -20 -20 -3 -11 -12 -20 -20 -20 -8 0 -17 -9 -20 -20 -3 -11 -12 -20 -20 -20 -8 0 -17 -9 -20 -20 -3 -11 -12 -20 -20 -20 -8 0 -17 -9 -20 -20 -3 -11 -12 -20 -20 -20 -8 0 -17 -9 -20 -20 -3 -11 -12 -20 -20 -20 -8 0 -17 -9 -20 -20 -3 -11 -12 -20 -20 -20 -8 0 -17 -9 -20 -20 -3 -11 -12 -20 -20 -20 -8 0 -17 -9 -20 -20 -3 -11 -12 -20 -20 -20 -8 0 -17 -9 -20 -20 -3 -11 -12 -20 -20 -20 -8 0 -17 -9 -20 -20 -3 -11 -12 -20 -20 -20 -8 0 -17 -9 -20 -20 -3 -11 -12 -20 -20 -20 -8 0 -17 -9 -20 -20 -3 -11 -12 -20 -20 -20 -8 0 -17 -9 -20 -20 -3 -11 -12 -20 -21 -20 -9 0 -16 -7 -16 -16 0 -9 -9 -18 -19 -21 -11 -3 -21 -13 -24 -24 -3 -10 -12 -19 -20 -19 -8 0 -17 -9 -20 -20 -3 -11 -12 -20 -20 -20 -8 0 -17 -9 -20 -20 -3 -11 -12 -20 -20 -20 -8 0 -17 -9 -20 -20 -3 -11 -12 -20 -21 -20 -9 0 -16 -8 -16 -20 0 -13 -7 -20 -19 -20 -10 0 -21 -9 -24 -20 -3 -11 -12 -20 -21 -20 -9 0 -16 -8 -16 -20 0 -13 -7 -20 -19 -20 -10 0 -21 -9 -24 -20 -3 -11 -12 -20 -21 -20 -9 0 -16 -8 -16 -20 0 -13 -7 -20 -19 -20 -10 0 -21 -9 -24 -20 -3 -11 -12 -20 -21 -20 -9 0 -16 -8 -16 -20 0 -13 -7 -20 -19 -20 -10 0 -21 -9 -24 -20 -3 -11 -12 -20 -21 -20 -9 0 -16 -8 -16 -20 0 -13 -7 -20 -19 -20 -10 0 -21 -9 -24 -20 -3 -11 -12 -20 -21 -20 -9 0 -16 -8 -16 -20 0 -13 -7 -20 -20 -20 -13 0 -20 -7 -20 -20 0 -13 -7 -20 -20 -20 -13 0 -20 -7 -20 -20 0 -13 -7 -20 -20 -20 -13 0 -20 -7 -20 -20 0 -13 -7 -20 -20 -20 -13 0 -20 -7 -20 -20 0 -13 -7 -20 -20 -20 -13 0 -20 -7 -20 -20 0 -13 -7 -20 -20 -20 -13 0 -20 -7 -20 -20 0 -13 -7 -20 -20 -20 -13 0 -20 -7 -20 -20 0 -13 -7 -20 -20 -20 -13 0 -20 -7 -20 -20 0 -13 -7 -20 -20 -20 -13 0 -20 -7 -20 -20 0 -13 -7 -20 -20 -20 -11 0 -19 -3 -19 -7 4 -23 -3 -33 -22 -33 -11 0 -17 -4 -14 -10 3 -5 -5 -15 -19 -21 -14 -7 -23 -16 -20 -20 3 -5 -6 -14 -20 -20 -14 -7 -23 -16 -20 -20 3 -5 -7 -14 -21 -19 -14 -5 -23 -14 -20 -20 3 -6 -6 -15 -20 -20 -15 -6 -23 -15 -20 -21 4 -6 -2 -13 -13 -16 -11 -2 -22 -13 -25 -24 -3 -10 -12 -19 -20 -19 -8 0 -17 -9 -20 -20 -3 -12 -14 -20 -25 -20 -12 0 -19 -6 -18 -17 0 -9 -8 -19 -19 -22 -11 -3 -20 -13 -20 -21 0 -8 -9 -17 -20 -20 -11 -3 -20 -12 -20 -20 0 -8 -9 -17 -20 -20 -11 -3 -20 -12 -20 -20 0 -8 -9 -17 -20 -20 -11 -3 -20 -12 -20 -20 0 -8 -9 -17 -20 -20 -11 -3 -20 -12 -20 -20 0 -8 -9 -17 -20 -20 -11 -3 -20 -12 -20 -20 0 -8 -10 -16 -22 -18 -14 -2 -23 -10 -23 -22 0 -10 -9 -20 -20 -23 -15 -4 -20 -14 -20 -41 0 -29 -4 -36 -20 -36 -19 0 -20 -7 -20 -180 0 -173 1 -180 20 -180 17 0 20 -7 20 -40 0 -33 3 -40 20 -40 13 0 20 -7 20 -20 0 -14 7 -20 21 -20 12 0 23 -8 26 -19 3 -11 15 -21 27 -23 13 -2 20 -10 20 -21 -1 -12 6 -17 27 -17 16 0 29 -4 29 -10 0 -7 732 -10 2175 -10 1443 0 2175 3 2175 10 0 6 13 10 29 10 20 0 30 6 34 20 3 11 14 20 25 20 11 0 22 9 25 20 3 12 14 20 26 20 14 0 19 5 15 15 -4 10 3 18 20 25 20 7 26 16 26 40 0 16 5 30 10 30 7 0 10 733 10 2180 0 1447 -3 2180 -10 2180 -5 0 -10 15 -10 34 0 28 -4 35 -22 38 -15 2 -22 9 -22 21 1 11 -5 17 -18 17 -11 0 -22 8 -25 20 -3 11 -14 20 -25 20 -11 0 -22 9 -25 20 -4 14 -14 20 -32 20 -33 0 -56 14 -47 29 5 8 -39 11 -157 11 -156 0 -165 -1 -170 -20z m-252 -2690 l0 -1270 -1274 0 c-1273 0 -1274 0 -1256 20 10 11 26 20 37 20 10 0 17 3 17 8 -4 22 3 32 21 32 11 0 19 3 19 8 -4 22 3 32 21 32 11 0 19 3 19 8 -4 22 3 32 21 32 11 0 19 3 19 8 -3 20 2 32 15 32 8 0 18 9 21 20 3 11 12 20 20 20 8 0 17 9 20 20 3 11 12 20 20 20 8 0 17 9 20 20 3 11 12 20 20 20 8 0 17 9 20 20 3 11 12 20 20 20 8 0 17 9 20 20 3 11 12 20 20 20 8 0 17 9 20 20 3 11 12 20 20 20 8 0 17 9 20 20 3 11 10 20 15 20 13 0 60 46 60 59 0 6 7 11 15 11 8 0 19 9 25 20 6 11 17 20 25 20 8 0 15 9 15 20 0 13 7 20 20 20 13 0 20 7 20 20 0 13 7 20 20 20 13 0 20 7 20 20 0 13 7 20 20 20 13 0 20 7 20 20 0 13 7 20 20 20 13 0 20 7 20 20 0 13 7 20 20 20 13 0 20 7 20 20 0 13 7 20 20 20 13 0 20 7 20 20 0 13 7 20 20 20 13 0 20 7 20 20 0 13 7 20 20 20 13 0 20 7 20 20 0 13 7 20 20 20 13 0 20 7 20 20 0 13 7 20 20 20 13 0 20 7 20 20 0 13 7 20 20 20 13 0 20 7 20 20 0 13 7 20 20 20 13 0 20 7 20 20 0 13 7 20 20 20 13 0 20 7 20 20 0 13 7 20 20 20 13 0 20 7 20 20 0 13 7 20 20 20 13 0 20 7 20 20 0 13 7 20 20 20 13 0 20 7 20 20 0 13 7 20 20 20 13 0 20 7 20 20 0 13 7 20 20 20 13 0 20 7 20 20 0 13 7 20 20 20 13 0 20 7 20 20 0 13 7 20 20 20 13 0 20 7 20 20 0 13 7 20 20 20 13 0 20 7 20 20 0 13 7 20 20 20 13 0 20 7 20 20 0 13 7 20 20 20 13 0 20 7 20 20 0 13 7 20 20 20 13 0 20 7 20 20 0 13 7 20 20 20 13 0 20 7 20 20 0 13 7 20 20 20 13 0 20 7 20 20 0 13 7 20 20 20 13 0 20 7 20 20 0 13 7 20 20 20 13 0 20 7 20 20 0 13 7 20 20 20 13 0 20 7 20 20 0 13 7 20 20 20 13 0 20 7 20 20 0 13 7 20 20 20 13 0 20 7 20 20 0 13 7 20 20 20 13 0 20 7 20 20 0 13 7 20 20 20 13 0 20 7 20 20 0 13 7 20 20 20 13 0 20 7 20 20 0 13 7 20 20 20 13 0 20 7 20 20 0 13 7 20 20 20 13 0 20 7 20 20 0 13 7 20 20 20 13 0 20 7 20 20 0 13 7 20 20 20 13 0 20 7 20 20 0 13 7 20 20 20 13 0 20 7 20 20 0 13 7 20 20 20 13 0 20 7 20 20 0 13 7 20 20 20 13 0 20 7 20 20 0 13 7 20 20 20 13 0 20 7 20 20 0 13 7 20 20 20 13 0 20 7 20 20 0 13 7 20 20 20 13 0 20 7 20 20 0 13 7 20 20 20 13 0 20 7 20 20 0 13 7 20 20 20 11 0 19 3 19 8 -4 22 3 32 21 32 11 0 19 3 19 8 -3 20 2 32 16 32 8 0 15 7 15 15 0 8 3 15 8 15 4 0 7 -572 7 -1270z"/></g></svg>