<svg width="24" height="24" viewBox="0 0 24 24" fill="none" xmlns="http://www.w3.org/2000/svg">
<path d="M0.492188 0.117187C0.492188 0.128906 0.466406 0.140625 0.435938 0.140625C0.400781 0.140625 0.375 0.157031 0.367969 0.1875C0.360938 0.213281 0.335156 0.234375 0.309375 0.234375C0.283594 0.234375 0.257813 0.255468 0.250781 0.28125C0.24375 0.307031 0.222656 0.328125 0.203906 0.328125C0.185156 0.328125 0.164063 0.349218 0.157031 0.375C0.15 0.403125 0.124219 0.421875 0.0960938 0.421875C0.05625 0.421875 0.046875 0.435937 0.046875 0.503906C0.046875 0.548437 0.0375 0.585937 0.0234375 0.585937C0.00703125 0.585937 0 2.30391 0 5.69531C0 9.08672 0.00703125 10.8047 0.0234375 10.8047C0.0375 10.8047 0.046875 10.8422 0.046875 10.8867C0.046875 10.9547 0.05625 10.9687 0.0960938 10.9687C0.124219 10.9687 0.15 10.9875 0.157031 11.0133C0.164063 11.0391 0.1875 11.0625 0.213281 11.0695C0.236719 11.0766 0.257813 11.0977 0.257813 11.1187C0.257813 11.1422 0.276563 11.1562 0.307031 11.1562C0.335156 11.1562 0.360938 11.175 0.367969 11.2008C0.377344 11.2336 0.403125 11.25 0.466406 11.2547C0.529688 11.2594 0.550781 11.2711 0.548438 11.3016C0.54375 11.3414 0.799219 11.3438 5.60625 11.3438C9.31406 11.3438 10.6617 11.3367 10.65 11.318C10.6289 11.2828 10.6828 11.25 10.7602 11.25C10.8023 11.25 10.8258 11.2359 10.8352 11.2031C10.8422 11.1773 10.868 11.1562 10.8938 11.1562C10.9195 11.1562 10.9453 11.1352 10.9523 11.1094C10.9594 11.0812 10.9852 11.0625 11.0133 11.0625C11.0414 11.0625 11.0602 11.0555 11.0602 11.0437C11.0508 10.9922 11.0672 10.9687 11.1094 10.9687C11.1492 10.9687 11.1563 10.9523 11.1563 10.875C11.1563 10.7977 11.1633 10.7812 11.2031 10.7812C11.25 10.7812 11.25 10.7648 11.25 5.69531C11.25 0.625781 11.25 0.609375 11.2031 0.609375C11.1633 0.609375 11.1563 0.592968 11.1563 0.515625C11.1563 0.438281 11.1492 0.421875 11.1094 0.421875C11.0672 0.421875 11.0602 0.4125 11.0648 0.35625C11.0648 0.346875 11.0414 0.335156 11.0109 0.328125C10.9805 0.321093 10.957 0.3 10.957 0.28125C10.957 0.2625 10.9313 0.241406 10.8984 0.234375C10.8609 0.225 10.8422 0.20625 10.8422 0.180468C10.8445 0.152343 10.8281 0.140625 10.7789 0.140625C10.7414 0.140625 10.7109 0.128906 10.7109 0.117187C10.7109 0.100781 8.99297 0.0937496 5.60156 0.0937496C2.21016 0.0937496 0.492188 0.100781 0.492188 0.117187ZM9.29297 5.69531V9.375H5.60156H1.91016V5.69531V2.01562H5.60156H9.29297V5.69531Z" fill="#B7BAC2"/>
<path d="M17.2266 0.117187C17.2266 0.13125 17.1609 0.140625 17.0766 0.140625C16.9477 0.140625 16.9266 0.147656 16.9313 0.180468C16.9336 0.215625 16.9078 0.222656 16.7672 0.229687C16.6219 0.234375 16.5961 0.24375 16.5867 0.28125C16.5773 0.321093 16.5539 0.328125 16.4508 0.328125C16.3828 0.328125 16.3359 0.335156 16.343 0.344531C16.3805 0.379687 16.3008 0.421875 16.1906 0.421875C16.1133 0.421875 16.0805 0.43125 16.0922 0.447656C16.1133 0.485156 16.057 0.515625 15.9633 0.515625C15.9188 0.515625 15.8906 0.522656 15.8977 0.532031C15.9281 0.5625 15.8602 0.609375 15.7852 0.609375C15.7289 0.609375 15.7055 0.621093 15.6961 0.65625C15.6867 0.691406 15.6633 0.703125 15.5977 0.703125C15.5414 0.703125 15.518 0.7125 15.5297 0.728906C15.5484 0.761718 15.4969 0.796875 15.4313 0.796875C15.4008 0.796875 15.375 0.815625 15.368 0.84375C15.3586 0.878906 15.3352 0.890625 15.2789 0.890625C15.2367 0.890625 15.2109 0.897656 15.218 0.907031C15.2438 0.932812 15.1852 0.984375 15.1289 0.984375C15.0938 0.984375 15.0773 0.998437 15.0797 1.02422C15.082 1.05234 15.0586 1.07109 15.0117 1.08047C14.9742 1.08984 14.9508 1.09687 14.9625 1.09922C14.9977 1.10391 14.925 1.17187 14.8828 1.17187C14.8594 1.17187 14.8359 1.19297 14.8289 1.21875C14.8219 1.24453 14.7961 1.26562 14.7703 1.26562C14.7445 1.26562 14.7188 1.28672 14.7117 1.3125C14.7047 1.34062 14.6789 1.35937 14.6531 1.35937C14.6227 1.35937 14.6086 1.37344 14.6109 1.39922C14.6109 1.42734 14.5945 1.44375 14.5617 1.44844C14.5313 1.45312 14.5078 1.46953 14.5078 1.48828C14.5078 1.50469 14.482 1.52578 14.4492 1.53281C14.4164 1.54219 14.3953 1.55859 14.4023 1.57031C14.4117 1.58437 14.3813 1.61016 14.3391 1.62891C14.2969 1.64766 14.2734 1.66406 14.2852 1.66406C14.2992 1.66406 14.2852 1.68516 14.257 1.70859C14.2289 1.73203 14.2102 1.75781 14.2172 1.76484C14.2242 1.77187 14.2078 1.78828 14.182 1.80469C14.1539 1.81875 14.1328 1.84453 14.1328 1.86094C14.1328 1.87969 14.1117 1.89844 14.0836 1.90547C14.0555 1.9125 14.0414 1.92891 14.0484 1.94297C14.0578 1.95469 14.0438 1.98047 14.0203 1.99687C13.9969 2.01328 13.9711 2.04609 13.9617 2.06719C13.9547 2.09062 13.9313 2.10937 13.9102 2.10937C13.8914 2.10937 13.875 2.13047 13.875 2.15625C13.875 2.18672 13.8586 2.20312 13.8281 2.20312C13.7977 2.20312 13.7813 2.21953 13.7813 2.25C13.7813 2.27578 13.7648 2.29687 13.7438 2.29687C13.725 2.29687 13.7133 2.30625 13.7227 2.31797C13.7297 2.32969 13.725 2.34609 13.7109 2.35547C13.6992 2.3625 13.6875 2.39062 13.6875 2.41875C13.6875 2.44453 13.6688 2.47031 13.6406 2.47734C13.6148 2.48437 13.5938 2.51016 13.5938 2.53359C13.5938 2.56172 13.5773 2.57812 13.5469 2.57812C13.5094 2.57812 13.5 2.59453 13.5 2.6625C13.5 2.72578 13.4883 2.74922 13.4555 2.75859C13.4273 2.76562 13.4063 2.79844 13.3945 2.85C13.3875 2.89687 13.3664 2.92969 13.3477 2.92969C13.3266 2.92969 13.3125 2.95312 13.3125 2.98828C13.3125 3.03047 13.3008 3.04687 13.2656 3.04687C13.2281 3.04687 13.2188 3.06328 13.2188 3.13125C13.2188 3.21797 13.1625 3.30703 13.1414 3.25078C13.1344 3.23672 13.1273 3.2625 13.1273 3.31172C13.125 3.42656 13.0828 3.51328 13.0523 3.46641C13.0383 3.44531 13.0313 3.47578 13.0313 3.55547C13.0313 3.65625 13.0242 3.67969 12.9844 3.69141C12.9445 3.70312 12.9375 3.72656 12.9375 3.83203C12.9375 3.93516 12.9305 3.95625 12.8906 3.96797C12.8531 3.97734 12.8438 4.00078 12.8438 4.08516C12.8438 4.24453 12.8203 4.34062 12.7828 4.32656C12.757 4.31719 12.75 4.35469 12.75 4.50937C12.75 4.68516 12.7453 4.70625 12.7031 4.71797C12.6562 4.72969 12.6562 4.75078 12.6562 5.69531C12.6562 6.63984 12.6562 6.66094 12.7031 6.67266C12.7453 6.68437 12.75 6.70547 12.75 6.88125C12.75 7.03594 12.757 7.07344 12.7828 7.06406C12.8203 7.05 12.8438 7.14609 12.8438 7.31484C12.8438 7.41328 12.8508 7.42969 12.8906 7.42969C12.9328 7.42969 12.9375 7.44609 12.9375 7.56094C12.9375 7.67109 12.9445 7.69453 12.9844 7.70391C13.0242 7.71328 13.0313 7.73672 13.0313 7.8375C13.0313 7.91953 13.0383 7.94531 13.0547 7.92187C13.0711 7.89609 13.0805 7.90078 13.0992 7.95234C13.1133 7.98984 13.125 8.04609 13.125 8.07891C13.125 8.11406 13.132 8.13281 13.1414 8.12578C13.1672 8.09766 13.2164 8.18906 13.2188 8.26641C13.2188 8.32031 13.2328 8.34375 13.2656 8.35547C13.2961 8.36484 13.3125 8.39062 13.3125 8.42578C13.3125 8.46562 13.3219 8.47969 13.3453 8.47031C13.3664 8.46094 13.3828 8.48437 13.3922 8.54531C13.4039 8.60156 13.425 8.63437 13.4555 8.64141C13.4883 8.65078 13.5 8.67422 13.5 8.73281C13.5 8.79609 13.5094 8.8125 13.5469 8.8125C13.5773 8.8125 13.5938 8.82891 13.5938 8.85703C13.5938 8.88281 13.6148 8.91094 13.6406 8.91797C13.6688 8.92734 13.6875 8.95312 13.6875 8.98359C13.6875 9.01406 13.7086 9.05156 13.7344 9.07031C13.7602 9.08906 13.7813 9.12187 13.7813 9.14531C13.7813 9.17109 13.7977 9.1875 13.8281 9.1875C13.8586 9.1875 13.875 9.20391 13.875 9.23203C13.875 9.25547 13.8961 9.28125 13.9219 9.28828C13.9523 9.29531 13.9688 9.32109 13.9688 9.35391C13.9688 9.38203 13.9758 9.39844 13.9852 9.39141C14.0063 9.36797 14.0648 9.42187 14.0484 9.45C14.0414 9.46172 14.0555 9.47812 14.0836 9.48516C14.1117 9.49219 14.1328 9.51094 14.1328 9.52969C14.1328 9.54609 14.1539 9.57187 14.182 9.58594C14.2078 9.60234 14.2242 9.61875 14.2172 9.62578C14.2102 9.63281 14.2289 9.65859 14.257 9.68203C14.2852 9.70547 14.2992 9.72656 14.2852 9.72656C14.2734 9.72656 14.2969 9.74297 14.3391 9.76172C14.3813 9.78047 14.4117 9.80625 14.4023 9.82031C14.3953 9.83203 14.4164 9.84844 14.4492 9.85781C14.482 9.86484 14.5078 9.88594 14.5078 9.90469C14.5078 9.92344 14.5289 9.9375 14.5547 9.9375C14.5969 9.9375 14.6133 9.96094 14.6039 10.0125C14.6039 10.0242 14.6227 10.0312 14.6508 10.0312C14.6789 10.0312 14.7047 10.05 14.7117 10.0781C14.7188 10.1039 14.7445 10.125 14.7703 10.125C14.7961 10.125 14.8219 10.1437 14.8289 10.1672C14.8336 10.1906 14.8711 10.2211 14.9109 10.2375C14.9484 10.2516 14.9742 10.275 14.9648 10.2867C14.9555 10.3031 14.9742 10.3125 15.0117 10.3125C15.0539 10.3125 15.0797 10.3266 15.0867 10.357C15.0938 10.3828 15.1266 10.4062 15.1664 10.4156C15.2063 10.4227 15.2344 10.4437 15.2344 10.4648C15.2344 10.4859 15.2555 10.5 15.2953 10.5C15.3352 10.5 15.3609 10.5141 15.368 10.5469C15.375 10.5727 15.3984 10.5937 15.4219 10.5937C15.4898 10.5937 15.5391 10.6195 15.5391 10.6547C15.5391 10.6734 15.5602 10.6875 15.5836 10.6875C15.6539 10.6875 15.7031 10.7133 15.7031 10.7484C15.7031 10.7695 15.7313 10.7812 15.7828 10.7812C15.8602 10.7812 15.9281 10.8281 15.8977 10.8586C15.8906 10.868 15.9188 10.875 15.9633 10.875C16.057 10.875 16.1133 10.9055 16.0922 10.943C16.0805 10.9594 16.1109 10.9687 16.1883 10.9687C16.3125 10.9687 16.3734 10.9969 16.35 11.0367C16.3383 11.0531 16.3711 11.0625 16.4484 11.0625C16.5586 11.0625 16.6383 11.1047 16.6008 11.1398C16.5938 11.1492 16.65 11.1562 16.7297 11.1562C16.8914 11.1562 16.9453 11.1703 16.9453 11.2172C16.9453 11.243 16.9875 11.25 17.1234 11.25C17.2992 11.25 17.4047 11.2805 17.3789 11.3227C17.3695 11.3344 17.7164 11.3438 18.3047 11.3438C18.893 11.3438 19.2398 11.3344 19.2305 11.3227C19.2047 11.2781 19.3102 11.25 19.4906 11.25C19.5914 11.25 19.6641 11.243 19.657 11.2336C19.6477 11.2266 19.6523 11.2055 19.6664 11.1867C19.6852 11.168 19.7484 11.1562 19.8586 11.1562C19.95 11.1562 20.0156 11.1492 20.0086 11.1398C19.9711 11.1047 20.0531 11.0625 20.1633 11.0625C20.2289 11.0625 20.2734 11.0555 20.2664 11.0461C20.2313 11.0133 20.3086 10.9687 20.4047 10.9687C20.4773 10.9687 20.5078 10.9594 20.5078 10.9359C20.5078 10.8961 20.5594 10.875 20.6508 10.875C20.6977 10.875 20.7164 10.8656 20.7047 10.8492C20.6836 10.8117 20.7398 10.7812 20.8336 10.7812C20.8781 10.7812 20.9063 10.7742 20.8992 10.7648C20.8688 10.7367 20.9344 10.6875 21.0023 10.6875C21.0445 10.6875 21.0703 10.6758 21.0703 10.6547C21.0703 10.6195 21.1195 10.5937 21.1875 10.5937C21.2109 10.5937 21.2344 10.5727 21.2414 10.5469C21.2508 10.5117 21.2742 10.5 21.3305 10.5C21.3727 10.5 21.3984 10.493 21.3914 10.4836C21.368 10.4602 21.4219 10.4062 21.4688 10.4062C21.4922 10.4062 21.5156 10.3852 21.5227 10.3594C21.5297 10.3266 21.5555 10.3125 21.5977 10.3125C21.6352 10.3125 21.6539 10.3031 21.6445 10.2867C21.6352 10.275 21.6609 10.2516 21.6984 10.2375C21.7383 10.2211 21.7758 10.1906 21.7805 10.1672C21.7875 10.1437 21.8133 10.125 21.8414 10.125C21.8719 10.125 21.8906 10.1109 21.8906 10.0875C21.8906 10.0664 21.9117 10.0453 21.9375 10.0383C21.9633 10.0312 21.9844 10.0125 21.9844 9.99375C21.9844 9.97734 22.0102 9.95625 22.043 9.94687C22.0758 9.93984 22.1016 9.91875 22.1016 9.90234C22.1016 9.88594 22.1273 9.86484 22.1602 9.85781C22.193 9.84844 22.2141 9.83203 22.207 9.82031C22.2 9.80859 22.2141 9.7875 22.2398 9.77344C22.3031 9.74062 22.4039 9.63984 22.3898 9.62344C22.3828 9.61875 22.4016 9.60234 22.4273 9.58594C22.4555 9.57187 22.4766 9.54609 22.4766 9.52734C22.4766 9.50859 22.493 9.49219 22.5117 9.49219C22.5328 9.49219 22.5469 9.47109 22.5469 9.44297C22.5469 9.41484 22.5656 9.38906 22.5938 9.38203C22.6195 9.375 22.6406 9.35391 22.6406 9.33516C22.6406 9.31641 22.6617 9.29531 22.6875 9.28828C22.7133 9.28125 22.7344 9.25547 22.7344 9.23203C22.7344 9.20391 22.7508 9.1875 22.7813 9.1875C22.8117 9.1875 22.8281 9.17109 22.8281 9.14062C22.8281 9.11484 22.8398 9.09375 22.8539 9.09375C22.8656 9.09375 22.8703 9.08203 22.8633 9.07031C22.8563 9.05625 22.8656 9.03984 22.8844 9.03281C22.9055 9.02578 22.9219 9 22.9219 8.97656C22.9219 8.95312 22.943 8.925 22.9688 8.91797C22.9945 8.91094 23.0156 8.88281 23.0156 8.85703C23.0156 8.82891 23.032 8.8125 23.0625 8.8125C23.1 8.8125 23.1094 8.79609 23.1094 8.73281C23.1094 8.67422 23.1211 8.65078 23.1539 8.64141C23.1844 8.63437 23.2055 8.60156 23.2148 8.54531C23.2242 8.49609 23.2453 8.46094 23.2641 8.46094C23.2828 8.46094 23.2969 8.43984 23.2969 8.41172C23.2969 8.38359 23.3156 8.35781 23.3438 8.35078C23.3766 8.34141 23.3906 8.31797 23.3906 8.27578C23.3906 8.17734 23.4188 8.10469 23.4492 8.11875C23.4703 8.12578 23.4844 8.09062 23.4938 8.01094C23.5055 7.92187 23.5172 7.89844 23.543 7.90781C23.5711 7.91719 23.5781 7.89844 23.5781 7.81875C23.5781 7.73672 23.5875 7.71328 23.625 7.70391C23.6648 7.69453 23.6719 7.67109 23.6719 7.56328C23.6719 7.45547 23.6789 7.43437 23.7188 7.42266C23.7563 7.41328 23.7656 7.38984 23.7656 7.30547C23.7656 7.14609 23.7891 7.05 23.8266 7.06406C23.8523 7.07344 23.8594 7.04297 23.8594 6.92578C23.8594 6.83906 23.8688 6.77344 23.8828 6.77344C23.8992 6.77344 23.9063 6.39844 23.9063 5.69531C23.9063 4.99219 23.8992 4.61719 23.8828 4.61719C23.8688 4.61719 23.8594 4.55156 23.8594 4.46484C23.8594 4.34766 23.8523 4.31719 23.8266 4.32656C23.7891 4.34062 23.7656 4.24453 23.7656 4.08516C23.7656 4.00078 23.7563 3.97734 23.7188 3.96797C23.6789 3.95625 23.6719 3.93516 23.6719 3.83203C23.6719 3.72656 23.6648 3.70312 23.625 3.69141C23.5875 3.67969 23.5781 3.65625 23.5781 3.57422C23.5781 3.49687 23.5711 3.47344 23.5453 3.48281C23.5102 3.49687 23.4867 3.43125 23.482 3.30469C23.482 3.26016 23.475 3.23672 23.468 3.25078C23.4633 3.26719 23.4469 3.28125 23.4352 3.28125C23.4211 3.28125 23.4188 3.26953 23.4258 3.25781C23.4328 3.24375 23.4281 3.23437 23.4164 3.23437C23.4023 3.23437 23.3906 3.19219 23.3906 3.14062C23.3906 3.06328 23.3836 3.04687 23.3438 3.04687C23.3063 3.04687 23.2969 3.03047 23.2969 2.97656C23.2969 2.92734 23.2875 2.91094 23.2641 2.92031C23.2383 2.92969 23.2242 2.91094 23.2148 2.85234C23.2031 2.79844 23.182 2.76562 23.1539 2.75859C23.1211 2.74922 23.1094 2.72578 23.1094 2.6625C23.1094 2.59453 23.1 2.57812 23.0625 2.57812C23.032 2.57812 23.0156 2.56172 23.0156 2.53359C23.0156 2.51016 22.9945 2.48437 22.9688 2.47734C22.9406 2.47031 22.9219 2.44453 22.9219 2.41875C22.9219 2.39297 22.9055 2.36484 22.8844 2.35781C22.8656 2.35078 22.8563 2.33437 22.8633 2.32031C22.8703 2.30859 22.8656 2.29687 22.8539 2.29687C22.8398 2.29687 22.8281 2.27578 22.8281 2.25C22.8281 2.21953 22.8117 2.20312 22.7813 2.20312C22.7508 2.20312 22.7344 2.18672 22.7344 2.15625C22.7344 2.12812 22.718 2.10937 22.6969 2.10937C22.6758 2.10937 22.6547 2.08828 22.6477 2.06484C22.6406 2.03906 22.6172 2.01562 22.5914 2.00859C22.5656 2.00156 22.5469 1.97578 22.5469 1.94766C22.5469 1.91953 22.5328 1.89844 22.5117 1.89844C22.493 1.89844 22.4766 1.88203 22.4766 1.86328C22.4766 1.84453 22.4555 1.81875 22.4297 1.80469C22.4039 1.79062 22.3875 1.76953 22.3945 1.75781C22.4016 1.74609 22.3852 1.72969 22.3594 1.72266C22.3313 1.71328 22.3148 1.69453 22.3195 1.68047C22.3242 1.66406 22.2984 1.63828 22.2609 1.62422C22.2234 1.60781 22.1977 1.58437 22.2047 1.57266C22.2117 1.56094 22.193 1.54453 22.1602 1.5375C22.1273 1.52812 22.1016 1.50703 22.1016 1.49062C22.1016 1.47187 22.0781 1.45312 22.05 1.44844C22.0148 1.44375 21.9984 1.42734 21.9984 1.39922C22.0008 1.37344 21.9867 1.35937 21.9563 1.35937C21.9305 1.35937 21.9047 1.34062 21.8977 1.31484C21.8906 1.28906 21.8625 1.26562 21.8344 1.26094C21.8039 1.25625 21.7875 1.2375 21.7875 1.21172C21.7898 1.18594 21.7758 1.17187 21.7383 1.17187C21.682 1.17187 21.6234 1.12031 21.6492 1.09453C21.6563 1.08516 21.6352 1.07812 21.6 1.07812C21.5555 1.07812 21.532 1.06406 21.5227 1.03125C21.5156 1.00547 21.4922 0.984375 21.4688 0.984375C21.4219 0.984375 21.368 0.930468 21.3914 0.907031C21.3984 0.897656 21.3727 0.890625 21.3305 0.890625C21.2742 0.890625 21.2508 0.878906 21.2414 0.84375C21.232 0.810937 21.2086 0.796875 21.1594 0.796875C21.1102 0.796875 21.0867 0.782812 21.0773 0.75C21.068 0.717187 21.0445 0.703125 20.9953 0.703125C20.9461 0.703125 20.9227 0.689062 20.9133 0.65625C20.9039 0.621093 20.8805 0.609375 20.8242 0.609375C20.7563 0.609375 20.6578 0.54375 20.7094 0.534375C20.7211 0.534375 20.6836 0.525 20.625 0.517968C20.5523 0.508593 20.5195 0.492187 20.5195 0.46875C20.5195 0.442968 20.4867 0.43125 20.4023 0.421875C20.3086 0.4125 20.2852 0.400781 20.2875 0.367968C20.2922 0.335156 20.2711 0.328125 20.168 0.328125C20.0883 0.328125 20.0344 0.316406 20.0156 0.292968C19.9992 0.274218 19.9945 0.255468 20.0063 0.253125C20.018 0.250781 19.9477 0.24375 19.8516 0.236718C19.7039 0.225 19.6758 0.215625 19.6781 0.180468C19.6828 0.147656 19.6617 0.140625 19.5328 0.140625C19.4484 0.140625 19.3828 0.13125 19.3828 0.117187C19.3828 0.100781 19.0078 0.0937496 18.3047 0.0937496C17.6016 0.0937496 17.2266 0.100781 17.2266 0.117187ZM18.5273 2.03203L18.6211 2.04609L18.5508 2.07656C18.4898 2.10234 18.525 2.10703 18.8297 2.10937C19.1648 2.10937 19.1766 2.11172 19.1648 2.15625C19.1531 2.20078 19.1648 2.20312 19.3266 2.20312C19.4836 2.20312 19.5 2.20781 19.5 2.24766C19.5 2.2875 19.5188 2.29453 19.6242 2.30156C19.7227 2.30625 19.7461 2.31562 19.7438 2.34844C19.7391 2.38359 19.7578 2.39062 19.8422 2.39062C19.9289 2.39062 19.9453 2.39766 19.9453 2.4375C19.9453 2.475 19.9617 2.48437 20.0297 2.48437C20.093 2.48437 20.1164 2.49609 20.1258 2.53125C20.1352 2.56406 20.1586 2.57812 20.2055 2.57812C20.257 2.57812 20.2734 2.58984 20.2734 2.625C20.2734 2.6625 20.2898 2.67187 20.3438 2.67187C20.3977 2.67187 20.4141 2.68125 20.4141 2.71875C20.4141 2.75391 20.4305 2.76562 20.4727 2.76562C20.5078 2.76562 20.5313 2.77969 20.5313 2.80078C20.5313 2.81953 20.557 2.84062 20.5898 2.85C20.6227 2.85703 20.6602 2.88516 20.6742 2.90859C20.6859 2.93437 20.7117 2.95312 20.7281 2.95312C20.7469 2.95312 20.7656 2.97422 20.7727 3C20.7797 3.02578 20.7938 3.04453 20.8055 3.04219C20.8359 3.03281 20.9766 3.16875 20.9766 3.20391C20.9766 3.22031 20.993 3.23437 21.0117 3.23437C21.0305 3.23437 21.0469 3.25078 21.0469 3.26953C21.0469 3.28828 21.068 3.31406 21.0938 3.32812C21.1195 3.34219 21.1359 3.36328 21.1289 3.37734C21.1195 3.38906 21.1266 3.39844 21.1383 3.39844C21.1523 3.39844 21.1641 3.41719 21.1641 3.44297C21.1641 3.46641 21.1852 3.49219 21.2109 3.49922C21.2367 3.50625 21.2578 3.52734 21.2578 3.54609C21.2578 3.56484 21.2789 3.58594 21.307 3.59297C21.3352 3.6 21.3539 3.62344 21.3516 3.64922C21.3422 3.73828 21.3539 3.76875 21.4008 3.78047C21.443 3.79219 21.4477 3.80625 21.4359 3.86016C21.4266 3.90234 21.4289 3.91406 21.443 3.89297C21.4734 3.84609 21.5086 3.87891 21.525 3.97266C21.5344 4.02187 21.5555 4.05469 21.5742 4.05469C21.607 4.05469 21.6211 4.12031 21.6141 4.22344C21.6117 4.24922 21.6234 4.25859 21.6422 4.25156C21.6891 4.23281 21.7102 4.28203 21.7078 4.40156C21.7078 4.48594 21.7172 4.50703 21.7523 4.51641C21.7898 4.52812 21.7969 4.55156 21.7969 4.67812C21.7969 4.79062 21.8063 4.82812 21.8297 4.82812C21.8789 4.82812 21.8906 4.90312 21.8906 5.22656C21.893 5.45859 21.9 5.50781 21.9188 5.46094C21.9445 5.40469 21.9445 5.40469 21.9633 5.49609C21.9867 5.61094 21.9844 5.82187 21.9609 5.91797L21.9445 5.98828L21.9188 5.92969C21.9 5.88281 21.893 5.93203 21.8906 6.16406C21.8906 6.4875 21.8789 6.5625 21.8297 6.5625C21.8063 6.5625 21.7969 6.6 21.7969 6.7125C21.7969 6.83906 21.7898 6.8625 21.7523 6.87422C21.7172 6.88359 21.7078 6.90469 21.7078 6.98906C21.7102 7.10859 21.6891 7.15781 21.6422 7.13906C21.6234 7.13203 21.6117 7.14141 21.6141 7.16719C21.6211 7.26797 21.607 7.33594 21.5766 7.33594C21.5578 7.33594 21.5344 7.37344 21.5227 7.42266C21.5086 7.47891 21.4875 7.51172 21.4664 7.50937C21.4406 7.50703 21.4336 7.52344 21.4406 7.56094C21.4477 7.60547 21.4406 7.61719 21.4008 7.61719C21.3539 7.61719 21.3375 7.65937 21.3492 7.75312C21.3516 7.77187 21.3328 7.79062 21.307 7.79766C21.2789 7.80469 21.2578 7.83047 21.2578 7.85391C21.2578 7.88203 21.2414 7.89844 21.2109 7.89844C21.1805 7.89844 21.1641 7.91484 21.1641 7.94531C21.1641 7.97109 21.1523 7.99219 21.1383 7.99219C21.1266 7.99219 21.1219 8.00391 21.1289 8.01562C21.1359 8.02969 21.1266 8.04609 21.1055 8.05312C21.0844 8.0625 21.0563 8.09297 21.0445 8.12344C21.0328 8.15391 21.0117 8.17734 20.9953 8.175C20.9789 8.17031 20.9672 8.18437 20.9648 8.20312C20.9648 8.22187 20.9414 8.25 20.9109 8.26406C20.8805 8.27812 20.8594 8.29922 20.8617 8.31094C20.8641 8.32266 20.843 8.34141 20.8148 8.35547C20.7891 8.36719 20.7656 8.39062 20.7656 8.40469C20.7656 8.42109 20.7398 8.43984 20.707 8.44687C20.6742 8.45625 20.6531 8.47266 20.6625 8.48672C20.6695 8.49844 20.6438 8.52187 20.6063 8.53594C20.5664 8.55234 20.5289 8.58281 20.5242 8.60625C20.5172 8.62969 20.4914 8.64844 20.4656 8.64844C20.4398 8.64844 20.4141 8.66953 20.407 8.69531C20.4 8.72812 20.3742 8.74219 20.3344 8.74219C20.2945 8.74219 20.2734 8.75625 20.2734 8.77734C20.2734 8.79844 20.2453 8.81953 20.2055 8.82656C20.1656 8.83594 20.1305 8.85469 20.1234 8.87344C20.1164 8.88984 20.0742 8.91094 20.0297 8.92031C19.9828 8.92734 19.9453 8.94844 19.9453 8.96484C19.9453 8.98125 19.9055 9.00234 19.8586 9.01172C19.8117 9.02109 19.7602 9.04219 19.7461 9.06328C19.732 9.08203 19.6711 9.10312 19.6102 9.11016C19.5375 9.11953 19.5 9.13359 19.5 9.15469C19.5 9.17812 19.4672 9.1875 19.3898 9.1875C19.2445 9.1875 19.1719 9.20859 19.1719 9.24844C19.1719 9.27422 19.1273 9.28125 18.9797 9.28359C18.7898 9.28594 18.4922 9.31641 18.5625 9.32578C18.6563 9.33984 18.4852 9.37266 18.3164 9.37266C18.1172 9.375 18.0164 9.35859 18.0352 9.32812C18.0445 9.31172 17.9227 9.3 17.5195 9.27422C17.468 9.27187 17.4281 9.26016 17.4328 9.24609C17.4445 9.21328 17.3695 9.18984 17.243 9.18984C17.1656 9.1875 17.1281 9.17578 17.1188 9.15234C17.1094 9.13359 17.0813 9.11719 17.0508 9.11719C16.95 9.11719 16.8516 9.08672 16.8516 9.05859C16.8516 9.03984 16.8094 9.02109 16.7578 9.01172C16.7039 9.00234 16.6641 8.98359 16.6641 8.96484C16.6641 8.94844 16.6266 8.92734 16.5797 8.92031C16.5352 8.91094 16.493 8.88984 16.4859 8.87344C16.4789 8.85469 16.4438 8.83594 16.4039 8.82656C16.3641 8.81953 16.3359 8.79844 16.3359 8.77734C16.3359 8.75625 16.3148 8.74219 16.275 8.74219C16.2352 8.74219 16.2094 8.72812 16.2023 8.69531C16.1953 8.66953 16.1695 8.64844 16.1438 8.64844C16.118 8.64844 16.0922 8.62969 16.0852 8.60391C16.0781 8.57578 16.0453 8.55234 16.0078 8.54297C15.9703 8.53359 15.9375 8.51016 15.9305 8.48203C15.9234 8.45859 15.9023 8.4375 15.8813 8.4375C15.8602 8.4375 15.8438 8.42109 15.8438 8.40234C15.8438 8.38125 15.8227 8.36719 15.7945 8.36719C15.7664 8.36719 15.7406 8.34844 15.7336 8.32266C15.7266 8.29687 15.7031 8.27344 15.6773 8.26641C15.6516 8.25937 15.6328 8.23359 15.6328 8.20547C15.6328 8.17734 15.6188 8.15625 15.5977 8.15625C15.5789 8.15625 15.5625 8.13984 15.5625 8.12109C15.5625 8.10234 15.5414 8.07656 15.5156 8.0625C15.4898 8.04844 15.4734 8.02734 15.4805 8.01328C15.4898 8.00156 15.4828 7.99219 15.4711 7.99219C15.457 7.99219 15.4453 7.97109 15.4453 7.94531C15.4453 7.91484 15.4289 7.89844 15.3984 7.89844C15.368 7.89844 15.3516 7.88203 15.3516 7.85391C15.3516 7.83047 15.3305 7.80469 15.3047 7.79766C15.2695 7.78828 15.2578 7.76484 15.2578 7.70156C15.2578 7.63359 15.2484 7.61719 15.2109 7.61719C15.1805 7.61719 15.1641 7.60078 15.1641 7.57031C15.1641 7.54453 15.15 7.52344 15.1313 7.52344C15.1102 7.52344 15.0914 7.48828 15.082 7.42969C15.0727 7.37578 15.0539 7.33594 15.0352 7.33594C15.0164 7.33594 14.9977 7.29609 14.9883 7.24219C14.9789 7.19062 14.9602 7.14844 14.9414 7.14844C14.9109 7.14844 14.8828 7.04766 14.8828 6.93516C14.8828 6.89062 14.8711 6.86719 14.8477 6.86719C14.8125 6.86719 14.8102 6.85781 14.8031 6.68203C14.8008 6.62344 14.7844 6.57187 14.7703 6.56719C14.7539 6.5625 14.7422 6.54375 14.7422 6.525C14.7422 6.50625 14.7305 6.49219 14.7164 6.49219C14.7 6.49219 14.6977 6.46641 14.707 6.42187C14.7258 6.33281 14.6953 5.93906 14.6719 5.97656C14.6438 6.02109 14.625 5.91094 14.625 5.69531C14.625 5.47969 14.6438 5.36953 14.6719 5.41406C14.6953 5.45391 14.7258 5.08359 14.707 4.98281C14.6953 4.92656 14.7 4.89844 14.7164 4.89844C14.7305 4.89844 14.7422 4.88437 14.7422 4.86562C14.7422 4.84687 14.7539 4.82812 14.7703 4.82344C14.7867 4.81641 14.7984 4.76016 14.8031 4.68516C14.8078 4.52109 14.8078 4.52344 14.8453 4.52344C14.8664 4.52344 14.8805 4.48359 14.8875 4.40156C14.8945 4.33125 14.9156 4.27031 14.9367 4.25391C14.9555 4.23984 14.9789 4.18828 14.9883 4.14141C14.9977 4.09453 15.0188 4.05469 15.0352 4.05469C15.0539 4.05469 15.0727 4.01484 15.082 3.96094C15.0914 3.90234 15.1102 3.86719 15.1313 3.86719C15.15 3.86719 15.1641 3.84609 15.1641 3.82031C15.1641 3.78984 15.1805 3.77344 15.2109 3.77344C15.2484 3.77344 15.2578 3.75703 15.2578 3.68906C15.2578 3.62578 15.2695 3.60234 15.3047 3.59297C15.3305 3.58594 15.3516 3.56016 15.3516 3.53672C15.3516 3.50859 15.368 3.49219 15.3961 3.49219C15.4289 3.49219 15.4453 3.46875 15.4547 3.41016C15.4641 3.35859 15.4852 3.32812 15.5063 3.32812C15.5273 3.32812 15.5484 3.30703 15.5555 3.28125C15.5625 3.25547 15.5789 3.23437 15.5953 3.23437C15.6094 3.23437 15.6328 3.21094 15.6445 3.18047C15.6586 3.15234 15.682 3.13125 15.6984 3.13359C15.7148 3.13828 15.7266 3.11953 15.7266 3.09375C15.7266 3.05156 15.7523 3.03516 15.8039 3.04453C15.8156 3.04687 15.8297 3.02578 15.8367 3C15.8438 2.97422 15.8648 2.95312 15.8836 2.95312C15.9023 2.95312 15.9234 2.93203 15.9305 2.90859C15.9375 2.88281 15.9703 2.85937 16.0102 2.85C16.05 2.84297 16.0781 2.82187 16.0781 2.80078C16.0781 2.77969 16.0992 2.76562 16.1367 2.76562C16.1789 2.76562 16.1953 2.75391 16.1953 2.71875C16.1953 2.68359 16.2117 2.67187 16.2563 2.67187C16.2961 2.67187 16.3219 2.65781 16.3289 2.625C16.3383 2.59219 16.3617 2.57812 16.4086 2.57812C16.4602 2.57812 16.4766 2.56641 16.4766 2.53125C16.4766 2.49141 16.493 2.48437 16.5703 2.48437C16.6477 2.48437 16.6641 2.47734 16.6641 2.4375C16.6641 2.39766 16.6805 2.39062 16.7672 2.39062C16.8586 2.39062 16.8703 2.38594 16.8586 2.34375C16.8469 2.30156 16.8586 2.29687 16.9875 2.29687C17.107 2.29687 17.1281 2.28984 17.1234 2.25469C17.1211 2.22187 17.1445 2.21484 17.2805 2.20781C17.4141 2.20312 17.4375 2.19375 17.4328 2.16094C17.4258 2.12578 17.4633 2.11875 17.7773 2.10937C18.0352 2.1 18.1102 2.09297 18.0586 2.07656L17.9883 2.05547L18.0469 2.03906C18.1219 2.01562 18.4055 2.01094 18.5273 2.03203Z" fill="#B7BAC2"/>
<path d="M0.553125 12.7758C0.574219 12.8109 0.520313 12.8437 0.442969 12.8437C0.400781 12.8437 0.377344 12.8578 0.367969 12.8906C0.360938 12.9164 0.335156 12.9375 0.309375 12.9375C0.283594 12.9375 0.257813 12.9586 0.250781 12.9844C0.24375 13.0102 0.222656 13.0312 0.203906 13.0312C0.185156 13.0312 0.164063 13.0523 0.157031 13.0781C0.15 13.1062 0.124219 13.125 0.0960938 13.125C0.05625 13.125 0.046875 13.1391 0.046875 13.207C0.046875 13.2516 0.0375 13.2891 0.0234375 13.2891C0.009375 13.2891 0 13.4484 0 13.7227C0 13.9969 0.009375 14.1562 0.0234375 14.1562C0.0375 14.1562 0.046875 14.1914 0.046875 14.2336C0.046875 14.2945 0.0609375 14.318 0.105469 14.3391C0.138281 14.3531 0.164063 14.3812 0.164063 14.4023C0.164063 14.4211 0.180469 14.4375 0.201563 14.4375C0.222656 14.4375 0.24375 14.4586 0.250781 14.4844C0.257813 14.5102 0.283594 14.5312 0.307031 14.5312C0.335156 14.5312 0.351563 14.5477 0.351563 14.5781C0.351563 14.6086 0.367969 14.625 0.398438 14.625C0.428906 14.625 0.445313 14.6414 0.445313 14.6719C0.445313 14.7023 0.461719 14.7187 0.489844 14.7187C0.513281 14.7187 0.539063 14.7398 0.546094 14.7656C0.553125 14.7914 0.574219 14.8125 0.592969 14.8125C0.611719 14.8125 0.632813 14.8336 0.639844 14.8594C0.646875 14.8852 0.667969 14.9062 0.689063 14.9062C0.710156 14.9062 0.726563 14.9227 0.726563 14.9414C0.726563 14.9602 0.742969 14.9766 0.764063 14.9766C0.785156 14.9766 0.80625 14.9977 0.813281 15.0211C0.820313 15.0469 0.84375 15.0703 0.869531 15.0773C0.892969 15.0844 0.914063 15.1055 0.914063 15.1242C0.914063 15.143 0.935156 15.1641 0.960938 15.1711C0.986719 15.1781 1.00781 15.1992 1.00781 15.2203C1.00781 15.2414 1.02188 15.2578 1.04063 15.2578C1.05938 15.2578 1.08281 15.2789 1.08984 15.3047C1.09688 15.3305 1.11797 15.3516 1.13672 15.3516C1.15547 15.3516 1.17656 15.3727 1.18359 15.3984C1.19063 15.4242 1.21172 15.4453 1.23047 15.4453C1.24922 15.4453 1.27031 15.4664 1.27734 15.4922C1.28438 15.518 1.30547 15.5391 1.32422 15.5391C1.34297 15.5391 1.36406 15.5602 1.37109 15.5859C1.37813 15.6117 1.39922 15.6328 1.41797 15.6328C1.43672 15.6328 1.45781 15.6539 1.46484 15.6797C1.47188 15.7055 1.49297 15.7266 1.51172 15.7266C1.53047 15.7266 1.55156 15.7477 1.55859 15.7734C1.56563 15.7992 1.58906 15.8203 1.60781 15.8203C1.63828 15.8203 1.65 15.8484 1.64297 15.8953C1.64297 15.907 1.66172 15.9141 1.6875 15.9141C1.72969 15.9141 1.74609 15.9375 1.73672 15.9891C1.73672 16.0008 1.75547 16.0078 1.78125 16.0078C1.82344 16.0078 1.83984 16.0312 1.83047 16.0828C1.83047 16.0945 1.84922 16.1016 1.875 16.1016C1.91719 16.1016 1.93359 16.125 1.92422 16.1766C1.92422 16.1883 1.94297 16.1953 1.96875 16.1953C2.01094 16.1953 2.02734 16.2187 2.01797 16.2703C2.01797 16.282 2.03672 16.2891 2.0625 16.2891C2.10469 16.2891 2.12109 16.3125 2.11172 16.3641C2.11172 16.3758 2.13047 16.3828 2.15625 16.3828C2.19844 16.3828 2.21484 16.4062 2.20547 16.4578C2.20547 16.4695 2.22422 16.4766 2.25 16.4766C2.29219 16.4766 2.30859 16.5 2.29922 16.5516C2.29922 16.5633 2.31797 16.5703 2.34375 16.5703C2.38594 16.5703 2.40234 16.5937 2.39297 16.6453C2.39297 16.657 2.41172 16.6641 2.4375 16.6641C2.47969 16.6641 2.49609 16.6875 2.48672 16.7391C2.48672 16.7508 2.50547 16.7578 2.53125 16.7578C2.56172 16.7578 2.57813 16.7742 2.57813 16.8047C2.57813 16.8352 2.59453 16.8516 2.625 16.8516C2.65547 16.8516 2.67188 16.868 2.67188 16.8984C2.67188 16.9289 2.68828 16.9453 2.71875 16.9453C2.74922 16.9453 2.76563 16.9617 2.76563 16.9922C2.76563 17.0227 2.78203 17.0391 2.8125 17.0391C2.84297 17.0391 2.85938 17.0555 2.85938 17.0859C2.85938 17.1164 2.87578 17.1328 2.90625 17.1328C2.93672 17.1328 2.95313 17.1492 2.95313 17.1797C2.95313 17.2102 2.96953 17.2266 3 17.2266C3.03047 17.2266 3.04688 17.243 3.04688 17.2734C3.04688 17.3039 3.06328 17.3203 3.09375 17.3203C3.12422 17.3203 3.14063 17.3367 3.14063 17.3672C3.14063 17.3977 3.15703 17.4141 3.1875 17.4141C3.21797 17.4141 3.23438 17.4305 3.23438 17.4609C3.23438 17.4914 3.25078 17.5078 3.28125 17.5078C3.31172 17.5078 3.32813 17.5242 3.32813 17.5547C3.32813 17.5852 3.34453 17.6016 3.375 17.6016C3.40547 17.6016 3.42188 17.618 3.42188 17.6484C3.42188 17.6789 3.43828 17.6953 3.46875 17.6953C3.49922 17.6953 3.51563 17.7117 3.51563 17.7422C3.51563 17.7727 3.53203 17.7891 3.5625 17.7891C3.59297 17.7891 3.60938 17.8055 3.60938 17.8359C3.60938 17.8664 3.62578 17.8828 3.65625 17.8828C3.68672 17.8828 3.70313 17.8992 3.70313 17.9297C3.70313 17.9602 3.71953 17.9766 3.75 17.9766C3.78047 17.9766 3.79688 17.993 3.79688 18.0234C3.79688 18.0539 3.81328 18.0703 3.84375 18.0703C3.87422 18.0703 3.89063 18.0867 3.89063 18.1172C3.89063 18.1477 3.90703 18.1641 3.9375 18.1641C3.96797 18.1641 3.98438 18.1805 3.98438 18.2109C3.98438 18.2414 4.00078 18.2578 4.03125 18.2578C4.06172 18.2578 4.07813 18.2742 4.07813 18.3047C4.07813 18.3352 4.09453 18.3516 4.125 18.3516C4.15547 18.3516 4.17188 18.368 4.17188 18.3984C4.17188 18.4289 4.15547 18.4453 4.125 18.4453C4.09453 18.4453 4.07813 18.4617 4.07813 18.4922C4.07813 18.5227 4.06172 18.5391 4.03125 18.5391C4.00078 18.5391 3.98438 18.5555 3.98438 18.5859C3.98438 18.6164 3.96797 18.6328 3.9375 18.6328C3.90703 18.6328 3.89063 18.6492 3.89063 18.6797C3.89063 18.7102 3.87422 18.7266 3.84375 18.7266C3.81328 18.7266 3.79688 18.743 3.79688 18.7734C3.79688 18.8039 3.78047 18.8203 3.75 18.8203C3.71953 18.8203 3.70313 18.8367 3.70313 18.8672C3.70313 18.8977 3.68672 18.9141 3.65625 18.9141C3.62578 18.9141 3.60938 18.9305 3.60938 18.9609C3.60938 18.9914 3.59297 19.0078 3.5625 19.0078C3.53203 19.0078 3.51563 19.0242 3.51563 19.0547C3.51563 19.0852 3.49922 19.1016 3.46875 19.1016C3.43828 19.1016 3.42188 19.118 3.42188 19.1484C3.42188 19.1789 3.40547 19.1953 3.375 19.1953C3.34453 19.1953 3.32813 19.2117 3.32813 19.2422C3.32813 19.2727 3.31172 19.2891 3.28125 19.2891C3.25078 19.2891 3.23438 19.3055 3.23438 19.3359C3.23438 19.3664 3.21797 19.3828 3.1875 19.3828C3.15703 19.3828 3.14063 19.3992 3.14063 19.4297C3.14063 19.4602 3.12422 19.4766 3.09375 19.4766C3.06328 19.4766 3.04688 19.493 3.04688 19.5234C3.04688 19.5539 3.03047 19.5703 3 19.5703C2.96953 19.5703 2.95313 19.5867 2.95313 19.6172C2.95313 19.6477 2.93672 19.6641 2.90625 19.6641C2.87578 19.6641 2.85938 19.6805 2.85938 19.7109C2.85938 19.7414 2.84297 19.7578 2.8125 19.7578C2.78203 19.7578 2.76563 19.7742 2.76563 19.8047C2.76563 19.8352 2.74922 19.8516 2.71875 19.8516C2.68828 19.8516 2.67188 19.868 2.67188 19.8984C2.67188 19.9289 2.65547 19.9453 2.625 19.9453C2.59453 19.9453 2.57813 19.9617 2.57813 19.9922C2.57813 20.0227 2.56172 20.0391 2.53125 20.0391C2.50547 20.0391 2.48672 20.0461 2.48672 20.0555C2.49609 20.1094 2.47969 20.1328 2.4375 20.1328C2.41172 20.1328 2.39297 20.1398 2.39297 20.1492C2.40234 20.2031 2.38594 20.2266 2.34375 20.2266C2.31797 20.2266 2.29922 20.2336 2.29922 20.243C2.30859 20.2969 2.29219 20.3203 2.25 20.3203C2.22422 20.3203 2.20547 20.3273 2.20547 20.3391C2.21484 20.3906 2.19844 20.4141 2.15625 20.4141C2.13047 20.4141 2.11172 20.4211 2.11172 20.4328C2.12109 20.4844 2.10469 20.5078 2.0625 20.5078C2.03672 20.5078 2.01797 20.5148 2.01797 20.5242C2.02734 20.5781 2.01094 20.6016 1.96875 20.6016C1.94297 20.6016 1.92422 20.6086 1.92422 20.6203C1.93359 20.6719 1.91719 20.6953 1.875 20.6953C1.84922 20.6953 1.83047 20.7023 1.83047 20.7141C1.8375 20.7609 1.82578 20.7891 1.79531 20.7891C1.77656 20.7891 1.75313 20.8102 1.74609 20.8359C1.73906 20.8617 1.71797 20.8828 1.69922 20.8828C1.68047 20.8828 1.65938 20.9039 1.65234 20.9297C1.64531 20.9555 1.62422 20.9766 1.60547 20.9766C1.58672 20.9766 1.56563 20.9977 1.55859 21.0234C1.55156 21.0492 1.53281 21.0703 1.52109 21.0703C1.50938 21.0703 1.44141 21.1289 1.37109 21.1992C1.30313 21.2695 1.23516 21.3281 1.22109 21.3281C1.20703 21.3281 1.19531 21.3445 1.19531 21.3656C1.19531 21.3867 1.17422 21.4078 1.14844 21.4148C1.12266 21.4219 1.10156 21.443 1.10156 21.4617C1.10156 21.4805 1.08047 21.5016 1.05469 21.5086C1.02891 21.5156 1.00781 21.5367 1.00781 21.5555C1.00781 21.5742 0.986719 21.5953 0.960938 21.6023C0.935156 21.6094 0.914063 21.6305 0.914063 21.6492C0.914063 21.668 0.892969 21.6891 0.867188 21.6961C0.841406 21.7031 0.820313 21.7242 0.820313 21.743C0.820313 21.7617 0.799219 21.7828 0.773438 21.7898C0.747656 21.7969 0.726563 21.818 0.726563 21.8367C0.726563 21.8555 0.705469 21.8766 0.679688 21.8836C0.653906 21.8906 0.632813 21.9117 0.632813 21.9305C0.632813 21.9492 0.611719 21.9703 0.585938 21.9773C0.560156 21.9844 0.539063 22.0055 0.539063 22.0242C0.539063 22.043 0.517969 22.0641 0.492188 22.0711C0.466406 22.0781 0.445313 22.0992 0.445313 22.118C0.445313 22.1367 0.424219 22.1578 0.400781 22.1648C0.375 22.1719 0.351563 22.1953 0.344531 22.2211C0.3375 22.2469 0.311719 22.2656 0.283594 22.2656C0.250781 22.2656 0.239063 22.2773 0.250781 22.3031C0.260156 22.3266 0.248438 22.343 0.213281 22.3523C0.1875 22.3594 0.164063 22.3805 0.164063 22.3969C0.164063 22.4156 0.138281 22.4414 0.105469 22.4531C0.0585938 22.4719 0.046875 22.4906 0.046875 22.5586C0.046875 22.6031 0.0375 22.6406 0.0234375 22.6406C0.009375 22.6406 0 22.7977 0 23.0625C0 23.3273 0.009375 23.4844 0.0234375 23.4844C0.0375 23.4844 0.046875 23.5266 0.046875 23.5758C0.046875 23.6531 0.05625 23.6695 0.100781 23.6766C0.133594 23.6812 0.15 23.6977 0.15 23.7258C0.147656 23.7516 0.161719 23.7656 0.192188 23.7656C0.217969 23.7656 0.24375 23.7844 0.250781 23.8125C0.257813 23.8383 0.283594 23.8594 0.309375 23.8594C0.335156 23.8594 0.360938 23.8805 0.367969 23.9062C0.377344 23.9391 0.400781 23.9531 0.447656 23.9531C0.485156 23.9531 0.515625 23.9625 0.515625 23.9766C0.515625 23.9906 0.672656 24 0.9375 24C1.20234 24 1.35938 23.9906 1.35938 23.9766C1.35938 23.9625 1.38984 23.9531 1.42969 23.9531C1.48125 23.9531 1.49531 23.9437 1.48594 23.918C1.47422 23.8922 1.49297 23.8781 1.54453 23.8687C1.59375 23.857 1.61719 23.8406 1.61719 23.8102C1.61719 23.782 1.63359 23.7656 1.66406 23.7656C1.69453 23.7656 1.71094 23.7492 1.71094 23.7187C1.71094 23.6883 1.72734 23.6719 1.75781 23.6719C1.78828 23.6719 1.80469 23.6555 1.80469 23.625C1.80469 23.5945 1.82109 23.5781 1.85156 23.5781C1.88203 23.5781 1.89844 23.5617 1.89844 23.5312C1.89844 23.5008 1.91484 23.4844 1.94531 23.4844C1.97578 23.4844 1.99219 23.468 1.99219 23.4375C1.99219 23.407 2.00859 23.3906 2.03906 23.3906C2.06953 23.3906 2.08594 23.3742 2.08594 23.3437C2.08594 23.3133 2.10234 23.2969 2.13281 23.2969C2.16328 23.2969 2.17969 23.2805 2.17969 23.25C2.17969 23.2195 2.19609 23.2031 2.22656 23.2031C2.25703 23.2031 2.27344 23.1867 2.27344 23.1562C2.27344 23.1258 2.28984 23.1094 2.32031 23.1094C2.35078 23.1094 2.36719 23.093 2.36719 23.0625C2.36719 23.032 2.38359 23.0156 2.41406 23.0156C2.44453 23.0156 2.46094 22.9992 2.46094 22.9687C2.46094 22.9383 2.47734 22.9219 2.50781 22.9219C2.53828 22.9219 2.55469 22.9055 2.55469 22.875C2.55469 22.8445 2.57109 22.8281 2.60156 22.8281C2.63203 22.8281 2.64844 22.8117 2.64844 22.7812C2.64844 22.7508 2.66484 22.7344 2.69531 22.7344C2.72578 22.7344 2.74219 22.718 2.74219 22.6875C2.74219 22.657 2.75859 22.6406 2.78906 22.6406C2.81953 22.6406 2.83594 22.6242 2.83594 22.5937C2.83594 22.5633 2.85234 22.5469 2.88281 22.5469C2.91328 22.5469 2.92969 22.5305 2.92969 22.5C2.92969 22.4695 2.94609 22.4531 2.97656 22.4531C3.00703 22.4531 3.02344 22.4367 3.02344 22.4062C3.02344 22.3758 3.03984 22.3594 3.07031 22.3594C3.10078 22.3594 3.11719 22.343 3.11719 22.3125C3.11719 22.282 3.13359 22.2656 3.16406 22.2656C3.19453 22.2656 3.21094 22.2492 3.21094 22.2187C3.21094 22.1883 3.22734 22.1719 3.25781 22.1719C3.28828 22.1719 3.30469 22.1555 3.30469 22.125C3.30469 22.0945 3.32109 22.0781 3.35156 22.0781C3.38203 22.0781 3.39844 22.0617 3.39844 22.0312C3.39844 22.0008 3.41484 21.9844 3.44531 21.9844C3.47578 21.9844 3.49219 21.968 3.49219 21.9375C3.49219 21.907 3.50859 21.8906 3.53906 21.8906C3.56953 21.8906 3.58594 21.8742 3.58594 21.8437C3.58594 21.8133 3.60234 21.7969 3.63281 21.7969C3.66328 21.7969 3.67969 21.7805 3.67969 21.75C3.67969 21.7195 3.69609 21.7031 3.72656 21.7031C3.75703 21.7031 3.77344 21.6867 3.77344 21.6562C3.77344 21.6258 3.78984 21.6094 3.82031 21.6094C3.84609 21.6094 3.86484 21.6023 3.86484 21.5906C3.85547 21.5391 3.87188 21.5156 3.91406 21.5156C3.93984 21.5156 3.95859 21.5086 3.95859 21.4969C3.94922 21.4453 3.96563 21.4219 4.00781 21.4219C4.03359 21.4219 4.05234 21.4148 4.05234 21.4031C4.04297 21.3516 4.05938 21.3281 4.10156 21.3281C4.12734 21.3281 4.14609 21.3211 4.14609 21.3094C4.13672 21.2578 4.15313 21.2344 4.19531 21.2344C4.22109 21.2344 4.23984 21.2273 4.23984 21.2156C4.23047 21.1641 4.24688 21.1406 4.28906 21.1406C4.31484 21.1406 4.33359 21.1336 4.33359 21.1219C4.32656 21.075 4.33828 21.0469 4.36875 21.0469C4.3875 21.0469 4.41094 21.0258 4.41797 21C4.425 20.9742 4.44375 20.9531 4.45547 20.9531C4.46719 20.9531 4.53516 20.8945 4.60547 20.8242C4.67344 20.7539 4.74141 20.6953 4.75313 20.6953C4.76484 20.6953 4.78125 20.6742 4.78828 20.6484C4.79531 20.6227 4.81641 20.6016 4.83516 20.6016C4.85391 20.6016 4.875 20.5805 4.88203 20.5547C4.88906 20.5289 4.91016 20.5078 4.92891 20.5078C4.94766 20.5078 4.96875 20.4867 4.97578 20.4609C4.98281 20.4352 5.00391 20.4141 5.02266 20.4141C5.04141 20.4141 5.0625 20.393 5.06953 20.3672C5.07656 20.3414 5.09766 20.3203 5.11641 20.3203C5.13516 20.3203 5.15625 20.2992 5.16328 20.2734C5.17031 20.2477 5.19141 20.2266 5.21016 20.2266C5.22891 20.2266 5.25 20.2055 5.25703 20.1797C5.26406 20.1516 5.28984 20.1328 5.31563 20.1328C5.34375 20.1328 5.36016 20.1187 5.35781 20.093C5.35781 20.0719 5.37656 20.0484 5.40234 20.0414C5.42813 20.0344 5.44922 20.0109 5.44922 19.9922C5.44922 19.9734 5.47031 19.9523 5.49609 19.9453C5.52188 19.9383 5.54297 19.9172 5.54297 19.8984C5.54297 19.8773 5.56875 19.8609 5.60859 19.8562C5.66016 19.8492 5.67188 19.8586 5.67188 19.8961C5.67188 19.9289 5.68594 19.9453 5.71875 19.9453C5.74922 19.9453 5.76563 19.9617 5.76563 19.9922C5.76563 20.0227 5.78203 20.0391 5.8125 20.0391C5.84297 20.0391 5.85938 20.0555 5.85938 20.0859C5.85938 20.1164 5.87578 20.1328 5.90625 20.1328C5.93672 20.1328 5.95313 20.1492 5.95313 20.1797C5.95313 20.2102 5.96953 20.2266 6 20.2266C6.03047 20.2266 6.04688 20.243 6.04688 20.2734C6.04688 20.3039 6.06328 20.3203 6.09375 20.3203C6.12422 20.3203 6.14063 20.3367 6.14063 20.3672C6.14063 20.3977 6.15703 20.4141 6.1875 20.4141C6.21797 20.4141 6.23438 20.4305 6.23438 20.4609C6.23438 20.4914 6.25078 20.5078 6.28125 20.5078C6.31172 20.5078 6.32813 20.5242 6.32813 20.5547C6.32813 20.5852 6.34453 20.6016 6.375 20.6016C6.40547 20.6016 6.42188 20.618 6.42188 20.6484C6.42188 20.6789 6.43828 20.6953 6.46641 20.6953C6.48984 20.6953 6.51563 20.7164 6.52266 20.7422C6.52969 20.768 6.55078 20.7891 6.56953 20.7891C6.58828 20.7891 6.60938 20.8102 6.61641 20.8359C6.62344 20.8617 6.64453 20.8828 6.66563 20.8828C6.68672 20.8828 6.70313 20.8969 6.70313 20.9156C6.70313 20.932 6.72422 20.9531 6.75 20.9602C6.77578 20.9672 6.79688 20.9883 6.79688 21.007C6.79688 21.0258 6.81797 21.0469 6.84375 21.0539C6.86953 21.0609 6.89063 21.082 6.89063 21.1008C6.89063 21.1195 6.91172 21.1406 6.9375 21.1477C6.96328 21.1547 6.98438 21.1758 6.98438 21.1969C6.98438 21.218 6.99844 21.2344 7.01719 21.2344C7.03594 21.2344 7.05938 21.2555 7.06641 21.2812C7.07344 21.307 7.09453 21.3281 7.11328 21.3281C7.13203 21.3281 7.15313 21.3492 7.16016 21.375C7.16719 21.4008 7.18828 21.4219 7.20703 21.4219C7.22578 21.4219 7.24688 21.443 7.25391 21.4687C7.26094 21.4945 7.28203 21.5156 7.30078 21.5156C7.31953 21.5156 7.34063 21.5367 7.34766 21.5625C7.35469 21.5883 7.37578 21.6094 7.39453 21.6094C7.41328 21.6094 7.43438 21.6305 7.44141 21.6562C7.44844 21.682 7.46953 21.7031 7.48828 21.7031C7.50703 21.7031 7.52813 21.7242 7.53516 21.75C7.54219 21.7758 7.56563 21.7969 7.58438 21.7969C7.61484 21.7969 7.62656 21.825 7.61953 21.8719C7.61953 21.8836 7.63828 21.8906 7.66406 21.8906C7.70625 21.8906 7.72266 21.9141 7.71328 21.9656C7.71328 21.9773 7.73203 21.9844 7.75781 21.9844C7.8 21.9844 7.81641 22.0078 7.80703 22.0594C7.80703 22.0711 7.82578 22.0781 7.85156 22.0781C7.89375 22.0781 7.91016 22.1016 7.90078 22.1531C7.90078 22.1648 7.91953 22.1719 7.94531 22.1719C7.9875 22.1719 8.00391 22.1953 7.99453 22.2469C7.99453 22.2586 8.01328 22.2656 8.03906 22.2656C8.08125 22.2656 8.09766 22.2891 8.08828 22.3406C8.08828 22.3523 8.10703 22.3594 8.13281 22.3594C8.175 22.3594 8.19141 22.3828 8.18203 22.4344C8.18203 22.4461 8.20078 22.4531 8.22656 22.4531C8.26875 22.4531 8.28516 22.4766 8.27578 22.5281C8.27578 22.5398 8.29453 22.5469 8.32031 22.5469C8.35078 22.5469 8.36719 22.5633 8.36719 22.5937C8.36719 22.6242 8.38359 22.6406 8.41406 22.6406C8.44453 22.6406 8.46094 22.657 8.46094 22.6875C8.46094 22.718 8.47734 22.7344 8.50781 22.7344C8.53828 22.7344 8.55469 22.7508 8.55469 22.7812C8.55469 22.8117 8.57109 22.8281 8.60156 22.8281C8.64375 22.8281 8.66016 22.8516 8.65078 22.9055C8.65078 22.9148 8.66953 22.9219 8.69531 22.9219C8.72578 22.9219 8.74219 22.9383 8.74219 22.9687C8.74219 22.9992 8.75859 23.0156 8.78906 23.0156C8.81953 23.0156 8.83594 23.032 8.83594 23.0625C8.83594 23.093 8.85234 23.1094 8.88281 23.1094C8.91328 23.1094 8.92969 23.1258 8.92969 23.1562C8.92969 23.1867 8.94609 23.2031 8.97656 23.2031C9.00703 23.2031 9.02344 23.2195 9.02344 23.25C9.02344 23.2805 9.03984 23.2969 9.07031 23.2969C9.10078 23.2969 9.11719 23.3133 9.11719 23.3437C9.11719 23.3742 9.13359 23.3906 9.16406 23.3906C9.19453 23.3906 9.21094 23.407 9.21094 23.4375C9.21094 23.468 9.22734 23.4844 9.25781 23.4844C9.28828 23.4844 9.30469 23.5008 9.30469 23.5312C9.30469 23.5617 9.32109 23.5781 9.35156 23.5781C9.38203 23.5781 9.39844 23.5945 9.39844 23.625C9.39844 23.6555 9.41484 23.6719 9.44531 23.6719C9.47578 23.6719 9.49219 23.6883 9.49219 23.7187C9.49219 23.7492 9.50859 23.7656 9.53906 23.7656C9.58125 23.7656 9.59531 23.7891 9.59063 23.8383C9.58828 23.8477 9.62109 23.8594 9.65859 23.8687C9.71016 23.8781 9.72891 23.8922 9.71719 23.918C9.70781 23.9437 9.72188 23.9531 9.77344 23.9531C9.81328 23.9531 9.84375 23.9625 9.84375 23.9766C9.84375 23.9906 10.0008 24 10.2656 24C10.5305 24 10.6875 23.9906 10.6875 23.9766C10.6875 23.9625 10.718 23.9531 10.7555 23.9531C10.8023 23.9531 10.8258 23.9391 10.8352 23.9062C10.8422 23.8805 10.868 23.8594 10.8938 23.8594C10.9195 23.8594 10.9453 23.8383 10.9523 23.8125C10.9594 23.7844 10.9852 23.7656 11.0133 23.7656C11.0414 23.7656 11.0602 23.7586 11.0602 23.7469C11.0508 23.6953 11.0672 23.6719 11.1094 23.6719C11.1492 23.6719 11.1563 23.6555 11.1563 23.5781C11.1563 23.5008 11.1633 23.4844 11.2031 23.4844C11.2477 23.4844 11.25 23.468 11.25 23.0719C11.25 22.6805 11.2477 22.6594 11.2031 22.6477C11.168 22.6383 11.1563 22.6148 11.1563 22.5562C11.1563 22.4906 11.1445 22.4719 11.0953 22.4531C11.0578 22.4367 11.0391 22.4156 11.0461 22.3945C11.0555 22.3734 11.0414 22.3594 11.0086 22.3547C10.9805 22.35 10.957 22.3312 10.957 22.3125C10.957 22.2937 10.9359 22.2727 10.9102 22.2656C10.8844 22.2586 10.8633 22.2375 10.8633 22.2187C10.8633 22.2 10.8422 22.1789 10.8164 22.1719C10.7906 22.1648 10.7695 22.1437 10.7695 22.125C10.7695 22.1062 10.7484 22.0852 10.7227 22.0781C10.6969 22.0711 10.6758 22.05 10.6758 22.0312C10.6758 22.0125 10.6547 21.9914 10.6289 21.9844C10.6031 21.9773 10.582 21.9562 10.582 21.9375C10.582 21.9187 10.5609 21.8977 10.5352 21.8906C10.5094 21.8836 10.4883 21.8625 10.4883 21.8437C10.4883 21.825 10.4672 21.8039 10.4414 21.7969C10.4156 21.7898 10.3945 21.7687 10.3945 21.75C10.3945 21.7312 10.3734 21.7078 10.3477 21.7008C10.3219 21.6937 10.3031 21.675 10.3078 21.6586C10.3102 21.6445 10.2867 21.6211 10.2516 21.6094C10.2188 21.5953 10.2 21.5766 10.207 21.5625C10.2141 21.5484 10.193 21.5273 10.1602 21.5156C10.1273 21.5039 10.1063 21.4828 10.1133 21.4687C10.1203 21.4547 10.0992 21.4336 10.0664 21.4219C10.0313 21.4078 10.0125 21.3867 10.0195 21.3727C10.0289 21.3586 10.0148 21.3422 9.98672 21.3352C9.95859 21.3281 9.9375 21.3094 9.9375 21.293C9.9375 21.2742 9.91641 21.2531 9.89063 21.2461C9.86484 21.2391 9.84375 21.218 9.84375 21.1992C9.84375 21.1805 9.82266 21.1594 9.79688 21.1523C9.77109 21.1453 9.75 21.1219 9.75 21.1031C9.75 21.0844 9.72891 21.0703 9.70313 21.0703C9.67266 21.0703 9.65625 21.0539 9.65625 21.0234C9.65625 20.9953 9.63984 20.9766 9.61875 20.9766C9.59766 20.9766 9.57656 20.9555 9.56953 20.9297C9.5625 20.9039 9.53672 20.8828 9.51328 20.8828C9.48516 20.8828 9.46875 20.8664 9.46875 20.8359C9.46875 20.8078 9.45234 20.7891 9.43125 20.7891C9.41016 20.7891 9.38906 20.768 9.38203 20.7422C9.375 20.7164 9.34922 20.6953 9.32578 20.6953C9.29766 20.6953 9.28125 20.6789 9.28125 20.6484C9.28125 20.6203 9.26484 20.6016 9.24375 20.6016C9.22266 20.6016 9.20156 20.5805 9.19453 20.5547C9.1875 20.5289 9.16172 20.5078 9.13828 20.5078C9.11016 20.5078 9.09375 20.4914 9.09375 20.4609C9.09375 20.4328 9.07734 20.4141 9.05625 20.4141C9.03516 20.4141 9.01406 20.393 9.00703 20.3672C9 20.3414 8.97422 20.3203 8.95078 20.3203C8.92266 20.3203 8.90625 20.3039 8.90625 20.2758C8.90625 20.2523 8.88516 20.2266 8.85938 20.2195C8.83359 20.2125 8.8125 20.1914 8.8125 20.1703C8.8125 20.1492 8.79375 20.1328 8.76563 20.1328C8.73516 20.1328 8.71875 20.1164 8.71875 20.0883C8.71875 20.0648 8.69766 20.0391 8.67188 20.032C8.64609 20.025 8.625 20.0039 8.625 19.9852C8.625 19.9664 8.60391 19.9453 8.57813 19.9383C8.55234 19.9312 8.53125 19.9102 8.53125 19.8914C8.53125 19.8727 8.51016 19.8516 8.48438 19.8445C8.45859 19.8375 8.4375 19.8164 8.4375 19.7953C8.4375 19.7742 8.41875 19.7578 8.39063 19.7578C8.36016 19.7578 8.34375 19.7414 8.34375 19.7133C8.34375 19.6898 8.32266 19.6641 8.29688 19.657C8.27109 19.65 8.25 19.6289 8.25 19.6102C8.25 19.5914 8.22891 19.5703 8.20313 19.5633C8.17734 19.5562 8.15625 19.5352 8.15625 19.5164C8.15625 19.4977 8.13516 19.4766 8.10938 19.4695C8.08359 19.4625 8.0625 19.4414 8.0625 19.4227C8.0625 19.4039 8.04141 19.3828 8.01563 19.3758C7.98984 19.3687 7.96875 19.3477 7.96875 19.3289C7.96875 19.3102 7.94766 19.2891 7.92188 19.282C7.89609 19.275 7.875 19.2539 7.875 19.2352C7.875 19.2164 7.85391 19.1953 7.82813 19.1883C7.80234 19.1812 7.78125 19.1602 7.78125 19.1414C7.78125 19.1227 7.76016 19.1016 7.73438 19.0945C7.70859 19.0875 7.6875 19.0664 7.6875 19.0477C7.6875 19.0289 7.66641 19.0078 7.64063 19.0008C7.61484 18.9937 7.59375 18.9727 7.59375 18.9539C7.59375 18.9352 7.57266 18.9141 7.54688 18.907C7.52109 18.9 7.5 18.8789 7.5 18.8602C7.5 18.8414 7.47891 18.8203 7.45313 18.8133C7.42734 18.8062 7.40625 18.7852 7.40625 18.7664C7.40625 18.7477 7.38516 18.7266 7.35938 18.7195C7.33359 18.7125 7.3125 18.6914 7.3125 18.6727C7.3125 18.6539 7.29141 18.6328 7.26563 18.6258C7.23984 18.6187 7.21875 18.5977 7.21875 18.5789C7.21875 18.5602 7.19766 18.5391 7.17188 18.532C7.14609 18.525 7.125 18.5039 7.125 18.4852C7.125 18.4664 7.10391 18.4453 7.07813 18.4383C7.05234 18.4312 7.03125 18.4102 7.03125 18.3891C7.03125 18.368 7.05 18.3516 7.07813 18.3516C7.10859 18.3516 7.125 18.3352 7.125 18.3047C7.125 18.2742 7.14141 18.2578 7.17188 18.2578C7.20234 18.2578 7.21875 18.2414 7.21875 18.2109C7.21875 18.1805 7.23516 18.1641 7.26563 18.1641C7.29609 18.1641 7.3125 18.1477 7.3125 18.1172C7.3125 18.0867 7.32891 18.0703 7.35938 18.0703C7.38984 18.0703 7.40625 18.0539 7.40625 18.0234C7.40625 17.993 7.42266 17.9766 7.45313 17.9766C7.48359 17.9766 7.5 17.9602 7.5 17.9297C7.5 17.8992 7.51641 17.8828 7.54688 17.8828C7.57734 17.8828 7.59375 17.8664 7.59375 17.8359C7.59375 17.8055 7.61016 17.7891 7.64063 17.7891C7.67109 17.7891 7.6875 17.7727 7.6875 17.7422C7.6875 17.7117 7.70391 17.6953 7.73438 17.6953C7.76484 17.6953 7.78125 17.6789 7.78125 17.6484C7.78125 17.618 7.79766 17.6016 7.82813 17.6016C7.85859 17.6016 7.875 17.5852 7.875 17.5547C7.875 17.5242 7.89141 17.5078 7.92188 17.5078C7.95234 17.5078 7.96875 17.4914 7.96875 17.4609C7.96875 17.4305 7.98516 17.4141 8.01563 17.4141C8.04609 17.4141 8.0625 17.3977 8.0625 17.3672C8.0625 17.3367 8.07891 17.3203 8.10938 17.3203C8.13984 17.3203 8.15625 17.3039 8.15625 17.2734C8.15625 17.243 8.17266 17.2266 8.20313 17.2266C8.23359 17.2266 8.25 17.2102 8.25 17.1797C8.25 17.1492 8.26641 17.1328 8.29688 17.1328C8.32734 17.1328 8.34375 17.1164 8.34375 17.0859C8.34375 17.0555 8.36016 17.0391 8.39063 17.0391C8.42109 17.0391 8.4375 17.0227 8.4375 16.9922C8.4375 16.9617 8.45391 16.9453 8.48438 16.9453C8.51484 16.9453 8.53125 16.9289 8.53125 16.8984C8.53125 16.868 8.54766 16.8516 8.57813 16.8516C8.60859 16.8516 8.625 16.8352 8.625 16.8047C8.625 16.7742 8.64141 16.7578 8.67188 16.7578C8.70234 16.7578 8.71875 16.7414 8.71875 16.7109C8.71875 16.6805 8.73516 16.6641 8.76563 16.6641C8.79609 16.6641 8.8125 16.6477 8.8125 16.6172C8.8125 16.5867 8.82891 16.5703 8.85938 16.5703C8.88984 16.5703 8.90625 16.5539 8.90625 16.5234C8.90625 16.493 8.92266 16.4766 8.95313 16.4766C8.98359 16.4766 9 16.4602 9 16.4297C9 16.3992 9.01641 16.3828 9.04688 16.3828C9.07734 16.3828 9.09375 16.3664 9.09375 16.3359C9.09375 16.3055 9.11016 16.2891 9.14063 16.2891C9.17109 16.2891 9.1875 16.2727 9.1875 16.2422C9.1875 16.2117 9.20391 16.1953 9.23438 16.1953C9.26484 16.1953 9.28125 16.1789 9.28125 16.1484C9.28125 16.118 9.29766 16.1016 9.32813 16.1016C9.35859 16.1016 9.375 16.0852 9.375 16.0547C9.375 16.0242 9.39141 16.0078 9.42188 16.0078C9.45234 16.0078 9.46875 15.9914 9.46875 15.9609C9.46875 15.9305 9.48516 15.9141 9.51563 15.9141C9.54609 15.9141 9.5625 15.8977 9.5625 15.8672C9.5625 15.8367 9.57891 15.8203 9.60938 15.8203C9.63984 15.8203 9.65625 15.8039 9.65625 15.7734C9.65625 15.743 9.67266 15.7266 9.70313 15.7266C9.73359 15.7266 9.75 15.7102 9.75 15.6797C9.75 15.6492 9.76641 15.6328 9.79688 15.6328C9.82266 15.6328 9.84141 15.6258 9.84141 15.6141C9.83203 15.5625 9.84844 15.5391 9.89063 15.5391C9.91641 15.5391 9.93516 15.532 9.93516 15.5203C9.92578 15.4687 9.94219 15.4453 9.98438 15.4453C10.0102 15.4453 10.0289 15.4383 10.0289 15.4266C10.0195 15.375 10.0359 15.3516 10.0781 15.3516C10.1039 15.3516 10.1227 15.3445 10.1227 15.3328C10.1133 15.2812 10.1297 15.2578 10.1719 15.2578C10.1977 15.2578 10.2164 15.2508 10.2164 15.2391C10.207 15.1875 10.2234 15.1641 10.2656 15.1641C10.2914 15.1641 10.3102 15.157 10.3102 15.1453C10.3031 15.0984 10.3148 15.0703 10.3453 15.0703C10.3641 15.0703 10.3875 15.0492 10.3945 15.0234C10.4016 14.9977 10.4203 14.9766 10.432 14.9766C10.4438 14.9766 10.5117 14.918 10.582 14.8477C10.65 14.7773 10.718 14.7187 10.7297 14.7187C10.7414 14.7187 10.7578 14.6977 10.7648 14.6719C10.7719 14.6461 10.793 14.625 10.8117 14.625C10.8305 14.625 10.8516 14.6039 10.8586 14.5781C10.8656 14.5523 10.8867 14.5312 10.9078 14.5312C10.9289 14.5312 10.9453 14.5148 10.9453 14.4937C10.9453 14.4727 10.9664 14.4516 10.9922 14.4445C11.018 14.4375 11.0391 14.4164 11.0391 14.4C11.0391 14.3812 11.0648 14.3531 11.0977 14.3391C11.1422 14.318 11.1563 14.2945 11.1563 14.2383C11.1563 14.182 11.168 14.1586 11.2031 14.1492C11.2477 14.1375 11.25 14.1164 11.25 13.725C11.25 13.3289 11.2477 13.3125 11.2031 13.3125C11.1633 13.3125 11.1563 13.2961 11.1563 13.2187C11.1563 13.1414 11.1492 13.125 11.1094 13.125C11.0672 13.125 11.0508 13.1016 11.0602 13.0477C11.0602 13.0383 11.0414 13.0312 11.0133 13.0312C10.9852 13.0312 10.9594 13.0125 10.9523 12.9867C10.9453 12.9609 10.9148 12.9352 10.8844 12.9281C10.8539 12.9187 10.8281 12.8977 10.8281 12.8789C10.8281 12.8555 10.8047 12.8437 10.7648 12.8437C10.6828 12.8437 10.6289 12.8109 10.65 12.7758C10.6617 12.757 10.5586 12.75 10.282 12.75C9.91641 12.75 9.89531 12.7523 9.88359 12.7969C9.87422 12.8344 9.85078 12.8437 9.78281 12.8437C9.73594 12.8437 9.70313 12.8508 9.71016 12.8602C9.73594 12.8836 9.67969 12.9375 9.63047 12.9375C9.60469 12.9375 9.58828 12.9445 9.58828 12.9539C9.59766 13.0078 9.58125 13.0312 9.53906 13.0312C9.50859 13.0312 9.49219 13.0477 9.49219 13.0781C9.49219 13.1086 9.47578 13.125 9.44531 13.125C9.41484 13.125 9.39844 13.1414 9.39844 13.1719C9.39844 13.2023 9.38203 13.2187 9.35156 13.2187C9.32109 13.2187 9.30469 13.2352 9.30469 13.2656C9.30469 13.2961 9.28828 13.3125 9.25781 13.3125C9.22734 13.3125 9.21094 13.3289 9.21094 13.3594C9.21094 13.3898 9.19453 13.4062 9.16406 13.4062C9.13359 13.4062 9.11719 13.4227 9.11719 13.4531C9.11719 13.4836 9.10078 13.5 9.07031 13.5C9.03984 13.5 9.02344 13.5164 9.02344 13.5469C9.02344 13.5773 9.00703 13.5937 8.97656 13.5937C8.94609 13.5937 8.92969 13.6102 8.92969 13.6406C8.92969 13.6711 8.91328 13.6875 8.88281 13.6875C8.85234 13.6875 8.83594 13.7039 8.83594 13.7344C8.83594 13.7648 8.81953 13.7812 8.78906 13.7812C8.75859 13.7812 8.74219 13.7977 8.74219 13.8281C8.74219 13.8586 8.72578 13.875 8.69531 13.875C8.66484 13.875 8.64844 13.8914 8.64844 13.9219C8.64844 13.9523 8.63203 13.9687 8.60156 13.9687C8.57109 13.9687 8.55469 13.9852 8.55469 14.0156C8.55469 14.0461 8.53828 14.0625 8.50781 14.0625C8.47734 14.0625 8.46094 14.0789 8.46094 14.1094C8.46094 14.1398 8.44453 14.1562 8.41406 14.1562C8.38359 14.1562 8.36719 14.1727 8.36719 14.2031C8.36719 14.2336 8.35078 14.25 8.32031 14.25C8.29453 14.25 8.27578 14.257 8.27578 14.2664C8.28516 14.3203 8.26875 14.3437 8.22656 14.3437C8.19609 14.3437 8.17969 14.3602 8.17969 14.3906C8.17969 14.4211 8.16328 14.4375 8.13281 14.4375C8.10703 14.4375 8.08828 14.4445 8.08828 14.4539C8.09766 14.5078 8.08125 14.5312 8.03906 14.5312C8.01328 14.5312 7.99453 14.5383 7.99453 14.5477C8.00391 14.6016 7.9875 14.625 7.94531 14.625C7.91953 14.625 7.90078 14.632 7.90078 14.6414C7.91016 14.6953 7.89375 14.7187 7.85156 14.7187C7.82578 14.7187 7.80703 14.7258 7.80703 14.7352C7.81641 14.7891 7.8 14.8125 7.75781 14.8125C7.73203 14.8125 7.71328 14.8195 7.71328 14.8289C7.72266 14.8828 7.70625 14.9062 7.66406 14.9062C7.63828 14.9062 7.61953 14.9133 7.61953 14.9227C7.62656 14.9719 7.61484 15 7.58438 15C7.56563 15 7.54219 15.0211 7.53516 15.0469C7.52813 15.0727 7.50938 15.0937 7.49766 15.0937C7.48594 15.0937 7.41797 15.1523 7.34766 15.2227C7.27969 15.293 7.21172 15.3516 7.19766 15.3516C7.18359 15.3516 7.17188 15.368 7.17188 15.3891C7.17188 15.4102 7.15078 15.4312 7.12734 15.4383C7.10156 15.4453 7.07813 15.4687 7.07109 15.4945C7.06406 15.518 7.04297 15.5391 7.02188 15.5391C7.00078 15.5391 6.98438 15.5555 6.98438 15.5766C6.98438 15.5977 6.96328 15.6187 6.9375 15.6258C6.91172 15.6328 6.89063 15.6539 6.89063 15.6727C6.89063 15.6914 6.86953 15.7125 6.84375 15.7195C6.81797 15.7266 6.79688 15.7477 6.79688 15.7664C6.79688 15.7852 6.77578 15.8062 6.75 15.8133C6.72422 15.8203 6.70313 15.8414 6.70313 15.8602C6.70313 15.8789 6.68203 15.9 6.65625 15.907C6.63047 15.9141 6.60938 15.9352 6.60938 15.9539C6.60938 15.9727 6.58828 15.9937 6.56484 16.0008C6.53906 16.0078 6.51563 16.0312 6.50859 16.057C6.50156 16.0828 6.47578 16.1016 6.45 16.1016C6.42188 16.1016 6.40547 16.1156 6.40781 16.1414C6.40781 16.1625 6.38906 16.1859 6.36328 16.193C6.3375 16.2 6.31641 16.2234 6.31641 16.2422C6.31641 16.2609 6.29531 16.282 6.26953 16.2891C6.24375 16.2961 6.22266 16.3172 6.22266 16.3359C6.22266 16.3547 6.19922 16.3734 6.17109 16.3781C6.13594 16.3828 6.12422 16.3969 6.13359 16.4203C6.14297 16.4437 6.12891 16.4602 6.09844 16.4695C6.07266 16.4742 6.04688 16.5 6.03984 16.5258C6.03281 16.5492 6.01172 16.5703 5.99297 16.5703C5.97422 16.5703 5.95313 16.5914 5.94609 16.6172C5.93906 16.643 5.91797 16.6641 5.89688 16.6641C5.87578 16.6641 5.85938 16.6828 5.85938 16.7109C5.85938 16.7414 5.84297 16.7578 5.81484 16.7578C5.79141 16.7578 5.76563 16.7789 5.75859 16.8047C5.75156 16.8305 5.73047 16.8516 5.70938 16.8516C5.68594 16.8516 5.67188 16.8703 5.67188 16.9008C5.67188 16.9383 5.66016 16.9477 5.60859 16.9406C5.56875 16.9359 5.54297 16.9195 5.54297 16.8984C5.54297 16.8797 5.52188 16.8586 5.49609 16.8516C5.47031 16.8445 5.44922 16.8234 5.44922 16.8047C5.44922 16.7859 5.42813 16.7648 5.40234 16.7578C5.37656 16.7508 5.35547 16.7297 5.35547 16.7109C5.35547 16.6922 5.33438 16.6711 5.30859 16.6641C5.28281 16.657 5.26172 16.6359 5.26172 16.6172C5.26172 16.5984 5.24063 16.5773 5.21484 16.5703C5.18906 16.5633 5.16797 16.5422 5.16797 16.5234C5.16797 16.5047 5.14688 16.4836 5.12109 16.4766C5.09531 16.4695 5.07422 16.4484 5.07422 16.4297C5.07422 16.4109 5.05313 16.3898 5.02734 16.3828C5.00156 16.3758 4.98047 16.3547 4.98047 16.3359C4.98047 16.3172 4.95938 16.2961 4.93359 16.2891C4.90781 16.282 4.88672 16.2609 4.88672 16.2422C4.88672 16.2234 4.86563 16.2023 4.83984 16.1953C4.81406 16.1883 4.79297 16.1672 4.79297 16.1484C4.79297 16.1297 4.77188 16.1086 4.74609 16.1016C4.72031 16.0945 4.69922 16.0734 4.69922 16.0547C4.69922 16.0359 4.67813 16.0148 4.65234 16.0078C4.62656 16.0008 4.60547 15.9797 4.60547 15.9609C4.60547 15.9422 4.58438 15.9187 4.55859 15.9117C4.53281 15.9047 4.51406 15.8836 4.51875 15.8625C4.52344 15.8367 4.50469 15.8203 4.47188 15.8156C4.44141 15.8109 4.41797 15.7922 4.41797 15.7734C4.41797 15.7547 4.39688 15.7312 4.37109 15.7242C4.34531 15.7172 4.32656 15.6984 4.33125 15.682C4.33359 15.668 4.31016 15.6445 4.275 15.6328C4.24219 15.6187 4.22344 15.6 4.23047 15.5859C4.2375 15.5719 4.21641 15.5508 4.18359 15.5391C4.15078 15.5273 4.12969 15.5062 4.13672 15.4922C4.14375 15.4781 4.12266 15.457 4.08984 15.4453C4.05469 15.4312 4.03594 15.4102 4.04297 15.3961C4.05234 15.382 4.03828 15.3656 4.01016 15.3586C3.98203 15.3516 3.96094 15.3328 3.96094 15.3164C3.96094 15.2977 3.93984 15.2766 3.91406 15.2695C3.88828 15.2625 3.86719 15.2414 3.86719 15.2227C3.86719 15.2039 3.84609 15.1828 3.82031 15.1758C3.79453 15.1687 3.77344 15.1453 3.77344 15.1266C3.77344 15.1078 3.75234 15.0937 3.72656 15.0937C3.69609 15.0937 3.67969 15.0773 3.67969 15.0492C3.67969 15.0258 3.65859 15 3.63281 14.993C3.60703 14.9859 3.58594 14.9648 3.58594 14.9437C3.58594 14.9227 3.56719 14.9062 3.53906 14.9062C3.50859 14.9062 3.49219 14.8898 3.49219 14.8594C3.49219 14.8312 3.47578 14.8125 3.45469 14.8125C3.43359 14.8125 3.4125 14.7914 3.40547 14.7656C3.39844 14.7398 3.37266 14.7187 3.34922 14.7187C3.32109 14.7187 3.30469 14.7023 3.30469 14.6719C3.30469 14.6437 3.28828 14.625 3.26719 14.625C3.24609 14.625 3.225 14.6039 3.21797 14.5781C3.21094 14.5523 3.18516 14.5312 3.16172 14.5312C3.13359 14.5312 3.11719 14.5148 3.11719 14.4844C3.11719 14.4539 3.10078 14.4375 3.07031 14.4375C3.03984 14.4375 3.02344 14.4211 3.02344 14.3906C3.02344 14.3602 3.00703 14.3437 2.97656 14.3437C2.94609 14.3437 2.92969 14.3273 2.92969 14.2969C2.92969 14.2664 2.91328 14.25 2.88281 14.25C2.85234 14.25 2.83594 14.2336 2.83594 14.2031C2.83594 14.175 2.81953 14.1562 2.79844 14.1562C2.77734 14.1562 2.75625 14.1352 2.74922 14.1094C2.74219 14.0836 2.71641 14.0625 2.69297 14.0625C2.66484 14.0625 2.64844 14.0461 2.64844 14.018C2.64844 13.9945 2.62734 13.9687 2.60156 13.9617C2.57578 13.9547 2.55469 13.9336 2.55469 13.9148C2.55469 13.8961 2.53359 13.875 2.50781 13.868C2.48203 13.8609 2.46094 13.8398 2.46094 13.8211C2.46094 13.8023 2.43984 13.7812 2.41406 13.7742C2.38828 13.7672 2.36719 13.7461 2.36719 13.7273C2.36719 13.7086 2.34609 13.6875 2.32031 13.6805C2.29453 13.6734 2.27344 13.6523 2.27344 13.6312C2.27344 13.6102 2.25469 13.5937 2.22656 13.5937C2.19609 13.5937 2.17969 13.5773 2.17969 13.5469C2.17969 13.5187 2.16328 13.5 2.14219 13.5C2.12109 13.5 2.1 13.4789 2.09297 13.4531C2.08594 13.4273 2.06016 13.4062 2.03672 13.4062C2.00859 13.4062 1.99219 13.3898 1.99219 13.3594C1.99219 13.3312 1.97578 13.3125 1.95469 13.3125C1.93359 13.3125 1.9125 13.2914 1.90547 13.2656C1.89844 13.2398 1.87266 13.2187 1.84922 13.2187C1.82109 13.2187 1.80469 13.2023 1.80469 13.1719C1.80469 13.1414 1.78828 13.125 1.75781 13.125C1.72734 13.125 1.71094 13.1086 1.71094 13.0781C1.71094 13.0477 1.69453 13.0312 1.66406 13.0312C1.63359 13.0312 1.61719 13.0148 1.61719 12.9844C1.61719 12.9539 1.60078 12.9375 1.57266 12.9375C1.52344 12.9375 1.46719 12.8836 1.49297 12.8602C1.5 12.8508 1.46719 12.8437 1.42031 12.8437C1.35234 12.8437 1.32891 12.8344 1.31953 12.7969C1.30781 12.7523 1.28672 12.75 0.921094 12.75C0.644531 12.75 0.541406 12.757 0.553125 12.7758Z" fill="#B7BAC2"/>
<path d="M22.5867 12.7969C22.5773 12.8344 22.5539 12.8437 22.4859 12.8437C22.4391 12.8437 22.4063 12.8508 22.4133 12.8602C22.4391 12.8836 22.3828 12.9375 22.3336 12.9375C22.3055 12.9375 22.2891 12.9539 22.2891 12.9844C22.2891 13.0148 22.2727 13.0312 22.2422 13.0312C22.2141 13.0312 22.1953 13.0477 22.1953 13.0687C22.1953 13.0898 22.1742 13.1109 22.1484 13.118C22.1227 13.125 22.1016 13.1508 22.1016 13.1742C22.1016 13.2023 22.0852 13.2187 22.057 13.2187C22.0336 13.2187 22.0078 13.2398 22.0008 13.2656C21.9938 13.2914 21.9727 13.3125 21.9516 13.3125C21.9305 13.3125 21.9141 13.3312 21.9141 13.3594C21.9141 13.3898 21.8977 13.4062 21.8672 13.4062C21.8391 13.4062 21.8203 13.4227 21.8203 13.4437C21.8203 13.4648 21.7992 13.4859 21.7734 13.493C21.7477 13.5 21.7266 13.5258 21.7266 13.5492C21.7266 13.5773 21.7102 13.5937 21.682 13.5937C21.6586 13.5937 21.6328 13.6148 21.6258 13.6406C21.6188 13.6664 21.5977 13.6875 21.5766 13.6875C21.5555 13.6875 21.5391 13.7062 21.5391 13.7344C21.5391 13.7648 21.5227 13.7812 21.4945 13.7812C21.4711 13.7812 21.4453 13.8023 21.4383 13.8281C21.4313 13.8539 21.4102 13.875 21.3891 13.875C21.368 13.875 21.3516 13.8937 21.3516 13.9219C21.3516 13.9523 21.3352 13.9687 21.307 13.9687C21.2836 13.9687 21.2578 13.9898 21.2508 14.0156C21.2438 14.0414 21.2227 14.0625 21.2016 14.0625C21.1805 14.0625 21.1641 14.0812 21.1641 14.1094C21.1641 14.1398 21.1477 14.1562 21.1172 14.1562C21.0867 14.1562 21.0703 14.1727 21.0703 14.2031C21.0703 14.2336 21.0539 14.25 21.0234 14.25C20.993 14.25 20.9766 14.2664 20.9766 14.2969C20.9766 14.3273 20.9602 14.3437 20.9297 14.3437C20.8992 14.3437 20.8828 14.3602 20.8828 14.3906C20.8828 14.4211 20.8664 14.4375 20.8359 14.4375C20.8055 14.4375 20.7891 14.4539 20.7891 14.4844C20.7891 14.5148 20.7727 14.5312 20.7422 14.5312C20.7117 14.5312 20.6953 14.5477 20.6953 14.5781C20.6953 14.6086 20.6789 14.625 20.6484 14.625C20.618 14.625 20.6016 14.6414 20.6016 14.6719C20.6016 14.7023 20.5852 14.7187 20.5547 14.7187C20.5242 14.7187 20.5078 14.7352 20.5078 14.7656C20.5078 14.7961 20.4914 14.8125 20.4609 14.8125C20.4305 14.8125 20.4141 14.8289 20.4141 14.8594C20.4141 14.8898 20.3977 14.9062 20.3672 14.9062C20.3367 14.9062 20.3203 14.9227 20.3203 14.9531C20.3203 14.9836 20.3039 15 20.2734 15C20.2477 15 20.2289 15.007 20.2289 15.0164C20.2383 15.0703 20.2219 15.0937 20.1773 15.0937C20.1516 15.0937 20.1375 15.1031 20.1445 15.1172C20.1516 15.1289 20.1328 15.1523 20.1 15.1664C20.0672 15.1828 20.0461 15.2039 20.0531 15.2133C20.0602 15.225 20.0391 15.2461 20.0063 15.2602C19.9734 15.2766 19.9523 15.2977 19.9594 15.307C19.9664 15.3187 19.943 15.3398 19.9102 15.3516C19.8773 15.3633 19.8563 15.3844 19.8633 15.3984C19.8703 15.4125 19.8492 15.4336 19.8164 15.4453C19.7813 15.4594 19.7625 15.4805 19.7695 15.4945C19.7789 15.5086 19.7648 15.525 19.7391 15.532C19.7133 15.5367 19.6875 15.5625 19.6805 15.5883C19.6734 15.6117 19.6523 15.6328 19.6336 15.6328C19.6148 15.6328 19.5938 15.6539 19.5867 15.6797C19.5797 15.7078 19.5539 15.7266 19.5281 15.7266C19.5 15.7266 19.4836 15.7406 19.4859 15.7664C19.4859 15.7875 19.4672 15.8109 19.4414 15.818C19.4156 15.825 19.3945 15.8484 19.3945 15.8672C19.3945 15.8859 19.3734 15.907 19.3477 15.9141C19.3219 15.9211 19.3008 15.9422 19.3008 15.9609C19.3008 15.9797 19.2797 16.0008 19.2539 16.0078C19.2281 16.0148 19.207 16.0359 19.207 16.0547C19.207 16.0734 19.1859 16.0945 19.1602 16.1016C19.1344 16.1086 19.1133 16.1297 19.1133 16.1484C19.1133 16.1672 19.0922 16.1883 19.0664 16.1953C19.0406 16.2023 19.0195 16.2234 19.0195 16.2422C19.0195 16.2609 18.9984 16.282 18.9727 16.2891C18.9469 16.2961 18.9258 16.3172 18.9258 16.3359C18.9258 16.3547 18.9047 16.3758 18.8789 16.3828C18.8531 16.3898 18.832 16.4109 18.832 16.4297C18.832 16.4484 18.8109 16.4695 18.7852 16.4766C18.7594 16.4836 18.7383 16.5047 18.7383 16.5234C18.7383 16.5422 18.7172 16.5633 18.6914 16.5703C18.6656 16.5773 18.6445 16.5984 18.6445 16.6172C18.6445 16.6359 18.6234 16.657 18.5977 16.6641C18.5719 16.6711 18.5508 16.6922 18.5508 16.7109C18.5508 16.7297 18.5297 16.7508 18.5039 16.7578C18.4781 16.7648 18.457 16.7859 18.457 16.8047C18.457 16.8234 18.4359 16.8445 18.4102 16.8516C18.3844 16.8586 18.3633 16.8797 18.3633 16.8984C18.3633 16.9172 18.3422 16.9383 18.3164 16.9453C18.2906 16.9523 18.2695 16.9734 18.2695 16.9922C18.2695 17.0109 18.2484 17.032 18.2227 17.0391C18.1969 17.0461 18.1758 17.0672 18.1758 17.0859C18.1758 17.1047 18.1523 17.1234 18.1242 17.1281C18.0891 17.1328 18.0773 17.1469 18.0867 17.1703C18.0961 17.1937 18.082 17.2102 18.0516 17.2195C18.0258 17.2242 18 17.25 17.993 17.2758C17.9859 17.2992 17.9648 17.3203 17.9461 17.3203C17.9273 17.3203 17.9063 17.3414 17.8992 17.3672C17.8922 17.393 17.8711 17.4141 17.8523 17.4141C17.8336 17.4141 17.8125 17.4352 17.8055 17.4609C17.7984 17.4867 17.7773 17.5078 17.7586 17.5078C17.7398 17.5078 17.7188 17.5289 17.7117 17.5547C17.7047 17.5805 17.6836 17.6016 17.6648 17.6016C17.6461 17.6016 17.625 17.6227 17.618 17.6484C17.6109 17.6742 17.5898 17.6953 17.5711 17.6953C17.5523 17.6953 17.5313 17.7164 17.5242 17.7422C17.5172 17.768 17.4961 17.7891 17.4773 17.7891C17.4586 17.7891 17.4375 17.8102 17.4305 17.8359C17.4234 17.8617 17.4023 17.8828 17.3836 17.8828C17.3648 17.8828 17.3438 17.9039 17.3367 17.9297C17.3297 17.9555 17.3086 17.9766 17.2898 17.9766C17.2711 17.9766 17.25 17.9977 17.243 18.0234C17.2359 18.0492 17.2148 18.0703 17.1961 18.0703C17.1773 18.0703 17.1563 18.0914 17.1492 18.1172C17.1422 18.143 17.1211 18.1641 17.1023 18.1641C17.0836 18.1641 17.0625 18.1852 17.0555 18.2109C17.0484 18.2367 17.0273 18.2578 17.0086 18.2578C16.9898 18.2578 16.9688 18.2789 16.9617 18.3047C16.9547 18.3305 16.9336 18.3516 16.9148 18.3516C16.8961 18.3516 16.875 18.3727 16.868 18.3984C16.8609 18.4242 16.8398 18.4453 16.8211 18.4453C16.8023 18.4453 16.7813 18.4664 16.7742 18.4922C16.7672 18.518 16.7461 18.5391 16.7273 18.5391C16.7086 18.5391 16.6875 18.5602 16.6805 18.5859C16.6734 18.6117 16.6523 18.6328 16.6313 18.6328C16.6102 18.6328 16.5938 18.6492 16.5938 18.6703C16.5938 18.6914 16.5727 18.7125 16.5492 18.7195C16.5234 18.7266 16.5 18.75 16.493 18.7758C16.4859 18.7992 16.4648 18.8203 16.4461 18.8203C16.4273 18.8203 16.4063 18.8414 16.3992 18.8672C16.3922 18.893 16.3711 18.9141 16.3523 18.9141C16.3336 18.9141 16.3125 18.9352 16.3055 18.9609C16.2984 18.9867 16.2773 19.0078 16.2586 19.0078C16.2398 19.0078 16.2188 19.0289 16.2117 19.0547C16.2047 19.0805 16.1836 19.1016 16.1625 19.1016C16.1414 19.1016 16.125 19.1203 16.125 19.1484C16.125 19.1789 16.1086 19.1953 16.0805 19.1953C16.057 19.1953 16.0313 19.2164 16.0242 19.2422C16.0172 19.268 15.9961 19.2891 15.975 19.2891C15.9539 19.2891 15.9375 19.3078 15.9375 19.3359C15.9375 19.3664 15.9211 19.3828 15.893 19.3828C15.8695 19.3828 15.8438 19.4039 15.8367 19.4297C15.8297 19.4555 15.8086 19.4766 15.7875 19.4766C15.7664 19.4766 15.75 19.4953 15.75 19.5234C15.75 19.5539 15.7336 19.5703 15.7055 19.5703C15.682 19.5703 15.6563 19.5914 15.6492 19.6172C15.6422 19.643 15.6211 19.6641 15.6 19.6641C15.5789 19.6641 15.5625 19.6828 15.5625 19.7109C15.5625 19.7414 15.5461 19.7578 15.518 19.7578C15.4945 19.7578 15.4688 19.7789 15.4617 19.8047C15.4547 19.8305 15.4336 19.8516 15.4125 19.8516C15.3914 19.8516 15.375 19.8703 15.375 19.8984C15.375 19.9289 15.3586 19.9453 15.3305 19.9453C15.307 19.9453 15.2813 19.9664 15.2742 19.9922C15.2672 20.018 15.2461 20.0391 15.225 20.0391C15.2039 20.0391 15.1875 20.0578 15.1875 20.0859C15.1875 20.1164 15.1711 20.1328 15.1406 20.1328C15.1102 20.1328 15.0938 20.1492 15.0938 20.1797C15.0938 20.2102 15.0773 20.2266 15.0469 20.2266C15.0164 20.2266 15 20.243 15 20.2734C15 20.3039 14.9836 20.3203 14.9531 20.3203C14.9227 20.3203 14.9063 20.3367 14.9063 20.3672C14.9063 20.3977 14.8898 20.4141 14.8594 20.4141C14.8289 20.4141 14.8125 20.4305 14.8125 20.4609C14.8125 20.4914 14.7961 20.5078 14.7656 20.5078C14.7352 20.5078 14.7188 20.5242 14.7188 20.5547C14.7188 20.5852 14.7023 20.6016 14.6719 20.6016C14.6414 20.6016 14.625 20.618 14.625 20.6484C14.625 20.6789 14.6086 20.6953 14.5781 20.6953C14.5477 20.6953 14.5313 20.7117 14.5313 20.7422C14.5313 20.7727 14.5148 20.7891 14.4844 20.7891C14.4539 20.7891 14.4375 20.8055 14.4375 20.8359C14.4375 20.8664 14.4211 20.8828 14.3906 20.8828C14.3602 20.8828 14.3438 20.8992 14.3438 20.9297C14.3438 20.9602 14.3273 20.9766 14.2969 20.9766C14.2711 20.9766 14.2523 20.9836 14.2523 20.993C14.2617 21.0469 14.2453 21.0703 14.2008 21.0703C14.175 21.0703 14.1609 21.0797 14.168 21.0937C14.175 21.1055 14.1563 21.1289 14.1234 21.143C14.0906 21.1594 14.0695 21.1805 14.0766 21.1898C14.0836 21.2016 14.0625 21.2227 14.0297 21.2367C13.9969 21.2531 13.9758 21.2742 13.9828 21.2836C13.9898 21.2953 13.9664 21.3164 13.9336 21.3281C13.9008 21.3398 13.8797 21.3609 13.8867 21.375C13.8938 21.3891 13.8727 21.4102 13.8398 21.4219C13.8047 21.4359 13.7859 21.457 13.793 21.4711C13.8023 21.4852 13.7883 21.5016 13.7625 21.5086C13.7367 21.5133 13.7109 21.5391 13.7039 21.5648C13.6969 21.5883 13.6758 21.6094 13.657 21.6094C13.6383 21.6094 13.6172 21.6305 13.6102 21.6562C13.6031 21.6844 13.5773 21.7031 13.5516 21.7031C13.5234 21.7031 13.507 21.7172 13.5094 21.743C13.5094 21.7641 13.4906 21.7875 13.4648 21.7945C13.4391 21.8016 13.418 21.825 13.418 21.8437C13.418 21.8625 13.3969 21.8836 13.3711 21.8906C13.3453 21.8977 13.3242 21.9187 13.3242 21.9375C13.3242 21.9562 13.3031 21.9773 13.2773 21.9844C13.2516 21.9914 13.2305 22.0125 13.2305 22.0312C13.2305 22.05 13.2094 22.0711 13.1836 22.0781C13.1578 22.0852 13.1367 22.1062 13.1367 22.125C13.1367 22.1437 13.1156 22.1648 13.0898 22.1719C13.0641 22.1789 13.043 22.2 13.043 22.2187C13.043 22.2375 13.0219 22.2586 12.9961 22.2656C12.9703 22.2727 12.9492 22.2937 12.9492 22.3125C12.9492 22.3312 12.9258 22.35 12.8977 22.3547C12.8648 22.3594 12.8438 22.3781 12.8438 22.4062C12.8438 22.4297 12.8227 22.4531 12.7969 22.4602C12.7617 22.4695 12.75 22.493 12.75 22.5562C12.75 22.6242 12.7406 22.6406 12.7031 22.6406C12.6586 22.6406 12.6562 22.657 12.6562 23.0625C12.6562 23.468 12.6586 23.4844 12.7031 23.4844C12.743 23.4844 12.75 23.5008 12.75 23.5781C12.75 23.6555 12.757 23.6719 12.7969 23.6719C12.8273 23.6719 12.8438 23.6883 12.8438 23.7187C12.8438 23.7516 12.8602 23.7656 12.893 23.7656C12.9211 23.7656 12.9469 23.7844 12.9539 23.8102C12.9609 23.8359 12.9891 23.8594 13.0172 23.8641C13.0477 23.8687 13.0641 23.8875 13.0641 23.9133C13.0617 23.9414 13.0781 23.9531 13.1273 23.9531C13.1648 23.9531 13.1953 23.9625 13.1953 23.9766C13.1953 23.993 14.9109 24 18.293 24C21.675 24 23.3906 23.993 23.3906 23.9766C23.3906 23.9625 23.4211 23.9531 23.4586 23.9531C23.5055 23.9531 23.5289 23.9391 23.5383 23.9062C23.5453 23.8805 23.5711 23.8594 23.5969 23.8594C23.6227 23.8594 23.6484 23.8383 23.6555 23.8125C23.6625 23.7844 23.6883 23.7656 23.7164 23.7656C23.7492 23.7656 23.7609 23.7539 23.7516 23.7305C23.7422 23.707 23.7586 23.6883 23.7984 23.6719C23.8453 23.6555 23.8594 23.6344 23.8594 23.5781C23.8594 23.5406 23.8711 23.5078 23.8828 23.5078C23.8992 23.5078 23.9063 21.7898 23.9063 18.3984C23.9063 15.007 23.8992 13.2891 23.8828 13.2891C23.8711 13.2891 23.8594 13.2539 23.8594 13.2094C23.8594 13.1437 23.85 13.1273 23.8078 13.1203C23.7727 13.1156 23.7563 13.0992 23.7563 13.0711C23.7586 13.0453 23.7445 13.0312 23.7141 13.0312C23.6883 13.0312 23.6625 13.0125 23.6555 12.9844C23.6484 12.9586 23.6227 12.9375 23.5969 12.9375C23.5711 12.9375 23.5453 12.9164 23.5383 12.8906C23.5289 12.8578 23.5055 12.8437 23.4633 12.8437C23.3859 12.8437 23.332 12.8109 23.3531 12.7758C23.3648 12.757 23.2617 12.75 22.9852 12.75C22.6195 12.75 22.5984 12.7523 22.5867 12.7969ZM21.9961 19.1016V22.0781H19.0102C16.0266 22.0781 16.0242 22.0781 16.0664 22.0312C16.0898 22.0055 16.1273 21.9844 16.1531 21.9844C16.1766 21.9844 16.193 21.9773 16.193 21.9656C16.1836 21.9141 16.2 21.8906 16.2422 21.8906C16.268 21.8906 16.2867 21.8836 16.2867 21.8719C16.2773 21.8203 16.2938 21.7969 16.3359 21.7969C16.3617 21.7969 16.3805 21.7898 16.3805 21.7781C16.3711 21.7266 16.3875 21.7031 16.4297 21.7031C16.4555 21.7031 16.4742 21.6961 16.4742 21.6844C16.4672 21.6375 16.4789 21.6094 16.5094 21.6094C16.5281 21.6094 16.5516 21.5883 16.5586 21.5625C16.5656 21.5367 16.5867 21.5156 16.6055 21.5156C16.6242 21.5156 16.6453 21.4945 16.6523 21.4687C16.6594 21.443 16.6805 21.4219 16.6992 21.4219C16.718 21.4219 16.7391 21.4008 16.7461 21.375C16.7531 21.3492 16.7742 21.3281 16.793 21.3281C16.8117 21.3281 16.8328 21.307 16.8398 21.2812C16.8469 21.2555 16.868 21.2344 16.8867 21.2344C16.9055 21.2344 16.9266 21.2133 16.9336 21.1875C16.9406 21.1617 16.9617 21.1406 16.9805 21.1406C16.9992 21.1406 17.0203 21.1195 17.0273 21.0937C17.0344 21.068 17.0555 21.0469 17.0742 21.0469C17.093 21.0469 17.1141 21.0258 17.1211 21C17.1281 20.9742 17.1445 20.9531 17.1563 20.9531C17.1867 20.9531 17.2969 20.8453 17.2969 20.8148C17.2969 20.8008 17.3133 20.7891 17.332 20.7891C17.3508 20.7891 17.3766 20.768 17.3906 20.7422C17.4047 20.7164 17.4305 20.6953 17.4492 20.6953C17.468 20.6953 17.4844 20.6742 17.4844 20.6484C17.4844 20.618 17.5008 20.6016 17.5313 20.6016C17.5617 20.6016 17.5781 20.5852 17.5781 20.5547C17.5781 20.5242 17.5945 20.5078 17.625 20.5078C17.6555 20.5078 17.6719 20.4914 17.6719 20.4609C17.6719 20.4305 17.6883 20.4141 17.7188 20.4141C17.7492 20.4141 17.7656 20.3977 17.7656 20.3672C17.7656 20.3367 17.782 20.3203 17.8125 20.3203C17.843 20.3203 17.8594 20.3039 17.8594 20.2734C17.8594 20.243 17.8758 20.2266 17.9063 20.2266C17.9367 20.2266 17.9531 20.2102 17.9531 20.1797C17.9531 20.1492 17.9695 20.1328 18 20.1328C18.0305 20.1328 18.0469 20.1164 18.0469 20.0859C18.0469 20.0555 18.0633 20.0391 18.0938 20.0391C18.1242 20.0391 18.1406 20.0227 18.1406 19.9922C18.1406 19.9617 18.157 19.9453 18.1875 19.9453C18.218 19.9453 18.2344 19.9289 18.2344 19.8984C18.2344 19.868 18.2508 19.8516 18.2813 19.8516C18.3117 19.8516 18.3281 19.8352 18.3281 19.8047C18.3281 19.7742 18.3445 19.7578 18.375 19.7578C18.4055 19.7578 18.4219 19.7414 18.4219 19.7109C18.4219 19.6805 18.4383 19.6641 18.4688 19.6641C18.4992 19.6641 18.5156 19.6477 18.5156 19.6172C18.5156 19.5867 18.532 19.5703 18.5625 19.5703C18.593 19.5703 18.6094 19.5539 18.6094 19.5234C18.6094 19.493 18.6258 19.4766 18.6563 19.4766C18.6867 19.4766 18.7031 19.4602 18.7031 19.4297C18.7031 19.3992 18.7195 19.3828 18.75 19.3828C18.7805 19.3828 18.7969 19.3664 18.7969 19.3359C18.7969 19.3055 18.8133 19.2891 18.8438 19.2891C18.8742 19.2891 18.8906 19.2727 18.8906 19.2422C18.8906 19.2117 18.907 19.1953 18.9375 19.1953C18.968 19.1953 18.9844 19.1789 18.9844 19.1484C18.9844 19.118 19.0008 19.1016 19.0313 19.1016C19.0617 19.1016 19.0781 19.0852 19.0781 19.0547C19.0781 19.0242 19.0945 19.0078 19.125 19.0078C19.1555 19.0078 19.1719 18.9914 19.1719 18.9609C19.1719 18.9305 19.1883 18.9141 19.2188 18.9141C19.2492 18.9141 19.2656 18.8977 19.2656 18.8672C19.2656 18.8367 19.282 18.8203 19.3125 18.8203C19.343 18.8203 19.3594 18.8039 19.3594 18.7734C19.3594 18.743 19.3758 18.7266 19.4063 18.7266C19.4367 18.7266 19.4531 18.7102 19.4531 18.6797C19.4531 18.6492 19.4695 18.6328 19.5 18.6328C19.5305 18.6328 19.5469 18.6164 19.5469 18.5859C19.5469 18.5555 19.5633 18.5391 19.5938 18.5391C19.6242 18.5391 19.6406 18.5227 19.6406 18.4922C19.6406 18.4617 19.657 18.4453 19.6875 18.4453C19.718 18.4453 19.7344 18.4289 19.7344 18.3984C19.7344 18.368 19.7508 18.3516 19.7813 18.3516C19.8117 18.3516 19.8281 18.3352 19.8281 18.3047C19.8281 18.2742 19.8445 18.2578 19.875 18.2578C19.9055 18.2578 19.9219 18.2414 19.9219 18.2109C19.9219 18.1805 19.9383 18.1641 19.9688 18.1641C19.9992 18.1641 20.0156 18.1477 20.0156 18.1172C20.0156 18.0867 20.032 18.0703 20.0625 18.0703C20.093 18.0703 20.1094 18.0539 20.1094 18.0234C20.1094 17.993 20.1258 17.9766 20.1563 17.9766C20.1867 17.9766 20.2031 17.9602 20.2031 17.9297C20.2031 17.8992 20.2195 17.8828 20.25 17.8828C20.2805 17.8828 20.2969 17.8664 20.2969 17.8359C20.2969 17.8055 20.3133 17.7891 20.3438 17.7891C20.3742 17.7891 20.3906 17.7727 20.3906 17.7422C20.3906 17.7117 20.407 17.6953 20.4375 17.6953C20.468 17.6953 20.4844 17.6789 20.4844 17.6484C20.4844 17.618 20.5008 17.6016 20.5313 17.6016C20.5617 17.6016 20.5781 17.5852 20.5781 17.5547C20.5781 17.5242 20.5945 17.5078 20.625 17.5078C20.6555 17.5078 20.6719 17.4914 20.6719 17.4609C20.6719 17.4305 20.6883 17.4141 20.7188 17.4141C20.7492 17.4141 20.7656 17.3977 20.7656 17.3672C20.7656 17.3367 20.782 17.3203 20.8125 17.3203C20.843 17.3203 20.8594 17.3039 20.8594 17.2734C20.8594 17.243 20.8758 17.2266 20.9063 17.2266C20.9367 17.2266 20.9531 17.2102 20.9531 17.1797C20.9531 17.1492 20.9695 17.1328 21 17.1328C21.0305 17.1328 21.0469 17.1164 21.0469 17.0859C21.0469 17.0555 21.0633 17.0391 21.0938 17.0391C21.1242 17.0391 21.1406 17.0227 21.1406 16.9922C21.1406 16.9617 21.157 16.9453 21.1875 16.9453C21.218 16.9453 21.2344 16.9289 21.2344 16.8984C21.2344 16.868 21.2508 16.8516 21.2813 16.8516C21.3117 16.8516 21.3281 16.8352 21.3281 16.8047C21.3281 16.7742 21.3445 16.7578 21.375 16.7578C21.4055 16.7578 21.4219 16.7414 21.4219 16.7109C21.4219 16.6805 21.4383 16.6641 21.4688 16.6641C21.4992 16.6641 21.5156 16.6477 21.5156 16.6172C21.5156 16.5867 21.532 16.5703 21.5625 16.5703C21.593 16.5703 21.6094 16.5539 21.6094 16.5234C21.6094 16.493 21.6258 16.4766 21.6563 16.4766C21.6867 16.4766 21.7031 16.4602 21.7031 16.4297C21.7031 16.3992 21.7195 16.3828 21.75 16.3828C21.7758 16.3828 21.7945 16.3758 21.7945 16.3641C21.7852 16.3125 21.8016 16.2891 21.8438 16.2891C21.8695 16.2891 21.8883 16.282 21.8883 16.2703C21.8813 16.2234 21.893 16.1953 21.9258 16.1953C21.9445 16.1953 21.9609 16.1789 21.9609 16.1602C21.9609 16.1414 21.968 16.125 21.9797 16.125C21.9891 16.125 21.9961 17.4656 21.9961 19.1016Z" fill="#B7BAC2"/>
</svg>
