<svg width="48" height="48" viewBox="0 0 48 48" fill="none" xmlns="http://www.w3.org/2000/svg">
<g filter="url(#filter0_d_9404_17514)">
<rect x="2" y="2" width="40" height="40" rx="5.23602" fill="#25A2DF"/>
<path d="M11.1175 20.3069L32.4016 12.1004C33.3895 11.7436 34.2522 12.3414 33.9321 13.8352L33.934 13.8333L30.31 30.9066C30.0414 32.1171 29.3221 32.4114 28.3159 31.8411L22.7971 27.7738L20.1352 30.3382C19.8409 30.6325 19.5925 30.8809 19.0222 30.8809L19.4141 25.2646L29.6422 16.0243C30.0874 15.6325 29.5429 15.4117 28.956 15.8017L16.3162 23.7598L10.8673 22.06C9.68446 21.6847 9.65871 20.8771 11.1175 20.3069Z" fill="white"/>
</g>
<defs>
<filter id="filter0_d_9404_17514" x="0.254658" y="0.254658" width="46.9814" height="46.9814" filterUnits="userSpaceOnUse" color-interpolation-filters="sRGB">
<feFlood flood-opacity="0" result="BackgroundImageFix"/>
<feColorMatrix in="SourceAlpha" type="matrix" values="0 0 0 0 0 0 0 0 0 0 0 0 0 0 0 0 0 0 127 0" result="hardAlpha"/>
<feOffset dx="1.74534" dy="1.74534"/>
<feGaussianBlur stdDeviation="1.74534"/>
<feComposite in2="hardAlpha" operator="out"/>
<feColorMatrix type="matrix" values="0 0 0 0 0.145098 0 0 0 0 0.635294 0 0 0 0 0.87451 0 0 0 0.3 0"/>
<feBlend mode="normal" in2="BackgroundImageFix" result="effect1_dropShadow_9404_17514"/>
<feBlend mode="normal" in="SourceGraphic" in2="effect1_dropShadow_9404_17514" result="shape"/>
</filter>
</defs>
</svg>
