<svg width="25" height="20" viewBox="0 0 25 20" fill="none" xmlns="http://www.w3.org/2000/svg">
<path d="M0.57373 0.625C0.349121 0.72998 0.124512 0.959473 0.0341797 1.17188C0.00488281 1.24512 0 2.49512 0 10.293V19.3311L0.065918 19.4629C0.148926 19.6313 0.371094 19.8535 0.539551 19.9365L0.671387 20L12.4805 19.9951L24.2871 19.9878L24.4531 19.873C24.6338 19.751 24.7729 19.5874 24.8535 19.4092C24.9023 19.2969 24.9023 19.2798 24.8975 10.2539L24.8901 1.21094L24.8047 1.06934C24.6997 0.893555 24.4922 0.700684 24.3286 0.625L24.2065 0.566406H12.4512H0.695801L0.57373 0.625ZM22.9248 3.72803V4.91211H12.4512H1.97754V3.72803V2.54395H12.4512H22.9248V3.72803ZM7.08008 12.4683V18.0469H4.52881H1.97754V12.4683V6.88965H4.52881H7.08008V12.4683ZM22.9248 12.4683V18.0469H15.9912H9.05762V12.4683V6.88965H15.9912H22.9248V12.4683Z" fill="white"/>
</svg>
