<svg xmlns="http://www.w3.org/2000/svg" version="1.0" viewBox="0 0 1024.000000 1024.000000" style="&#10; height: 24px;&#10; width: 24px;&#10;"><defs xmlns="http://www.w3.org/2000/svg"> <linearGradient id="grad1" x1="0%" y1="0%" x2="100%" y2="0%"> <stop offset="0%" style="stop-color: #2989ff;stop-opacity:1;"/> <stop offset="100%" style="stop-color: #63a8ff;stop-opacity:1;"/> </linearGradient> </defs><g transform="translate(0.000000,1024.000000) scale(0.100000,-0.100000)" fill="url(#grad1)" stroke="none"><path d="M255 9076 c-92 -43 -184 -137 -221 -224 -12 -30 -14 -542 -14 -3736 l0 -3702 27 -54 c34 -69 125 -160 194 -194 l54 -26 4837 2 4836 3 68 47 c74 50 131 117 164 190 20 46 20 53 18 3750 l-3 3704 -35 58 c-43 72 -128 151 -195 182 l-50 24 -4815 0 -4815 0 -50 -24z m9155 -1271 l0 -485 -4290 0 -4290 0 0 485 0 485 4290 0 4290 0 0 -485z m-6490 -3580 l0 -2285 -1045 0 -1045 0 0 2285 0 2285 1045 0 1045 0 0 -2285z m6490 0 l0 -2285 -2840 0 -2840 0 0 2285 0 2285 2840 0 2840 0 0 -2285z"/></g></svg>