<svg id="Layer_1" data-name="Layer 1" xmlns="http://www.w3.org/2000/svg" viewBox="0 0 1024 1024"><defs><style>.cls-1{fill:#0f1934;stroke:#0f1934;stroke-miterlimit:10;stroke-width:7.2px;}</style></defs><title>Text</title><path class="cls-1" d="M819.25,1024H204.75A128.05,128.05,0,0,1,76.81,896.06V127.94A128.05,128.05,0,0,1,204.75,0h614.5A128.05,128.05,0,0,1,947.19,127.94V896.06C947.43,966.63,889.82,1024,819.25,1024ZM204.75,51.13a77,77,0,0,0-76.81,76.81V896.06a77,77,0,0,0,76.81,76.81h614.5a77,77,0,0,0,76.81-76.81V127.94a77,77,0,0,0-76.81-76.81Z"/><path class="cls-1" d="M717,665.62H307.25a25.68,25.68,0,1,1,0-51.36H717a25.68,25.68,0,1,1,0,51.36Z"/><path class="cls-1" d="M717,870.38H307.25a25.69,25.69,0,1,1,0-51.37H717a25.69,25.69,0,1,1,0,51.37Z"/><path class="cls-1" d="M717,460.63H307.25a25.57,25.57,0,1,1,0-51.13H717a25.57,25.57,0,1,1,0,51.13Z"/><path class="cls-1" d="M717,255.88H307.25a25.69,25.69,0,1,1,0-51.37H717a25.69,25.69,0,1,1,0,51.37Z"/></svg>