<svg width="25" height="19" viewBox="0 0 25 19" fill="none" xmlns="http://www.w3.org/2000/svg">
<path d="M4.83399 7.79395C3.01514 11.9712 1.521 15.3989 1.51856 15.4111C1.51124 15.4282 1.81885 15.4331 2.417 15.4307L3.3252 15.4233L4.4629 12.8159L5.59815 10.2109L8.16163 10.2158L10.7275 10.2231L11.8628 12.8281L12.9981 15.4355H13.8965C14.4507 15.4355 14.7949 15.4258 14.7949 15.4111C14.7949 15.3721 8.1836 0.21582 8.16163 0.208496C8.15186 0.203613 6.65284 3.61914 4.83399 7.79395ZM9.09424 6.4707C9.58741 7.60352 9.98536 8.53369 9.98047 8.54102C9.97315 8.5459 9.1504 8.54834 8.14698 8.5459L6.32569 8.53857L7.20215 6.52441C8.24952 4.12207 8.1543 4.33203 8.17872 4.37598C8.18848 4.39551 8.60108 5.33789 9.09424 6.4707Z" fill="white"/>
<path d="M18.6304 6.9541C16.8481 7.24219 15.4053 8.63135 15.0391 10.4111C14.7217 11.9663 15.2466 13.5581 16.4258 14.6128C16.9824 15.1133 17.6855 15.4648 18.4619 15.6357C18.6841 15.6846 18.7817 15.6895 19.3115 15.6895C19.8437 15.6895 19.939 15.6846 20.166 15.6357C20.7397 15.5112 21.2768 15.2817 21.748 14.9644L22.0215 14.7788V15.1084V15.4355H22.8516H23.6816V11.3096V7.18359H22.8516H22.0215V7.51563V7.84766L21.9678 7.80859C21.3623 7.37402 20.8203 7.12744 20.1733 6.98584C19.8511 6.91748 18.9746 6.89795 18.6304 6.9541ZM19.917 8.64844C21.2744 8.98047 22.185 10.3037 21.9946 11.666C21.9116 12.2642 21.6406 12.8135 21.2158 13.2383C20.1562 14.3027 18.4741 14.3076 17.4194 13.2505C16.7065 12.5352 16.438 11.5098 16.7139 10.5625C17.0117 9.52734 17.8735 8.76807 18.9355 8.59961C19.1601 8.56543 19.6826 8.58984 19.917 8.64844Z" fill="white"/>
<path d="M0 18.1699V19H12.5H25V18.1699V17.3398H12.5H0V18.1699Z" fill="white"/>
</svg>
