<svg id="Layer_1" data-name="Layer 1" xmlns="http://www.w3.org/2000/svg" xmlns:xlink="http://www.w3.org/1999/xlink" viewBox="0 0 516 455.8"><defs><style>.cls-1{stroke-miterlimit:10;stroke-width:4px;fill:url(#New_Gradient_Swatch_1);stroke:url(#New_Gradient_Swatch_1-2);}</style><linearGradient id="New_Gradient_Swatch_1" y1="256" x2="512" y2="256" gradientUnits="userSpaceOnUse"><stop offset="0" stop-color="#1980ff"/><stop offset="1" stop-color="#4c99fb"/></linearGradient><linearGradient id="New_Gradient_Swatch_1-2" x1="-2" y1="256" x2="514" y2="256" xlink:href="#New_Gradient_Swatch_1"/></defs><title>Tools2</title><path class="cls-1" d="M512,141.1a50.7,50.7,0,0,0-50.7-50.7H361.4V74.3a44.21,44.21,0,0,0-44.2-44.2H194.8a44.21,44.21,0,0,0-44.2,44.2V90.4H50.7A50.7,50.7,0,0,0,0,141.1V256H30.1V431.2a50.7,50.7,0,0,0,50.7,50.7H431.2a50.7,50.7,0,0,0,50.7-50.7V256H512ZM180.7,74.3a14.08,14.08,0,0,1,14.1-14.1H317.3a14.08,14.08,0,0,1,14.1,14.1V90.4H180.7ZM155.5,451.8H356.4m95.4-20.6a20.63,20.63,0,0,1-20.6,20.6H80.8a20.63,20.63,0,0,1-20.6-20.6V256h45.2v15.1a45.2,45.2,0,0,0,90.4,0V256H316.3v15.1a45.2,45.2,0,0,0,90.4,0V256h45.2V431.2ZM135.5,271.1V225.9h30.1v45.2a15.05,15.05,0,1,1-30.1,0Zm210.9,0V225.9h30.1v45.2a15.05,15.05,0,1,1-30.1,0Zm135.5-45.2H406.6V195.8H316.2v30.1H195.8V195.8H105.4v30.1H30.1V141.1a20.63,20.63,0,0,1,20.6-20.6H461.3a20.63,20.63,0,0,1,20.6,20.6v84.8Z" transform="translate(2 -28.1)"/></svg>