<svg width="26" height="23" viewBox="0 0 26 23" fill="none" xmlns="http://www.w3.org/2000/svg">
<path d="M25 6.15936C25 5.53436 24.7496 4.93496 24.3039 4.49301C23.8582 4.05107 23.2537 3.80279 22.6234 3.80279H17.9406V3.05445C17.9405 2.50961 17.7222 1.98713 17.3337 1.60187C16.9451 1.21661 16.4182 1.00012 15.8688 1H10.1313C9.58179 1.00012 9.05488 1.21661 8.66635 1.60187C8.27783 1.98713 8.0595 2.50961 8.05938 3.05445V3.80279H3.37656C2.74626 3.80279 2.14177 4.05107 1.69608 4.49301C1.25039 4.93496 1 5.53436 1 6.15936L1 11.5H2.41094V19.6434C2.41094 20.2684 2.66132 20.8678 3.10702 21.3098C3.55271 21.7517 4.1572 22 4.7875 22H21.2125C21.8428 22 22.4473 21.7517 22.893 21.3098C23.3387 20.8678 23.5891 20.2684 23.5891 19.6434V11.5H25V6.15936ZM9.47031 3.05445C9.47019 2.96835 9.4872 2.88307 9.52037 2.8035C9.55354 2.72393 9.60222 2.65164 9.66362 2.59075C9.72502 2.52987 9.79793 2.4816 9.87817 2.44871C9.95842 2.41582 10.0444 2.39895 10.1313 2.39907H15.8734C15.9603 2.39895 16.0463 2.41582 16.1265 2.44871C16.2068 2.4816 16.2797 2.52987 16.3411 2.59075C16.4025 2.65164 16.4511 2.72393 16.4843 2.8035C16.5175 2.88307 16.5345 2.96835 16.5344 3.05445V3.80279H9.47031V3.05445ZM8.28906 20.6009H17.7062H8.28906ZM22.1781 19.6434C22.1778 19.8973 22.0759 20.1406 21.8949 20.3201C21.7139 20.4996 21.4685 20.6006 21.2125 20.6009H4.7875C4.53151 20.6006 4.28612 20.4996 4.10511 20.3201C3.9241 20.1406 3.82225 19.8973 3.82188 19.6434V11.5H5.94063V12.2019C5.94063 12.7591 6.16385 13.2934 6.56119 13.6874C6.95854 14.0814 7.49745 14.3028 8.05938 14.3028C8.6213 14.3028 9.16022 14.0814 9.55756 13.6874C9.9549 13.2934 10.1781 12.7591 10.1781 12.2019V11.5H15.8266V12.2019C15.8266 12.7591 16.0498 13.2934 16.4471 13.6874C16.8445 14.0814 17.3834 14.3028 17.9453 14.3028C18.5072 14.3028 19.0462 14.0814 19.4435 13.6874C19.8408 13.2934 20.0641 12.7591 20.0641 12.2019V11.5H22.1828V19.6434H22.1781ZM7.35156 12.2019V10.1009H8.7625V12.2019C8.7625 12.2937 8.74425 12.3847 8.7088 12.4696C8.67335 12.5544 8.62138 12.6315 8.55587 12.6965C8.49036 12.7615 8.41259 12.813 8.327 12.8481C8.24141 12.8833 8.14967 12.9014 8.05703 12.9014C7.96439 12.9014 7.87265 12.8833 7.78706 12.8481C7.70147 12.813 7.6237 12.7615 7.55819 12.6965C7.49268 12.6315 7.44072 12.5544 7.40526 12.4696C7.36981 12.3847 7.35156 12.2937 7.35156 12.2019ZM17.2375 12.2019V10.1009H18.6484V12.2019C18.6484 12.3874 18.5741 12.5653 18.4418 12.6965C18.3095 12.8277 18.1301 12.9014 17.943 12.9014C17.7559 12.9014 17.5764 12.8277 17.4441 12.6965C17.3118 12.5653 17.2375 12.3874 17.2375 12.2019ZM23.5891 10.1009H20.0594V8.70186H15.8219V10.1009H10.1781V8.70186H5.94063V10.1009H2.41094V6.15936C2.41131 5.90553 2.51316 5.6622 2.69417 5.48271C2.87518 5.30323 3.12058 5.20223 3.37656 5.20186H22.6234C22.8794 5.20223 23.1248 5.30323 23.3058 5.48271C23.4868 5.6622 23.5887 5.90553 23.5891 6.15936V10.1009Z" fill="white"/>
<path d="M8.28906 20.6009H17.7062M25 6.15936C25 5.53436 24.7496 4.93496 24.3039 4.49301C23.8582 4.05107 23.2537 3.80279 22.6234 3.80279H17.9406V3.05445C17.9405 2.50961 17.7222 1.98713 17.3337 1.60187C16.9451 1.21661 16.4182 1.00012 15.8688 1H10.1313C9.58179 1.00012 9.05488 1.21661 8.66635 1.60187C8.27783 1.98713 8.0595 2.50961 8.05938 3.05445V3.80279H3.37656C2.74626 3.80279 2.14177 4.05107 1.69608 4.49301C1.25039 4.93496 1 5.53436 1 6.15936L1 11.5H2.41094V19.6434C2.41094 20.2684 2.66132 20.8678 3.10702 21.3098C3.55271 21.7517 4.1572 22 4.7875 22H21.2125C21.8428 22 22.4473 21.7517 22.893 21.3098C23.3387 20.8678 23.5891 20.2684 23.5891 19.6434V11.5H25V6.15936ZM9.47031 3.05445C9.47019 2.96835 9.4872 2.88307 9.52037 2.8035C9.55354 2.72393 9.60222 2.65164 9.66362 2.59075C9.72502 2.52987 9.79793 2.4816 9.87817 2.44871C9.95842 2.41582 10.0444 2.39895 10.1313 2.39907H15.8734C15.9603 2.39895 16.0463 2.41582 16.1265 2.44871C16.2068 2.4816 16.2797 2.52987 16.3411 2.59075C16.4025 2.65164 16.4511 2.72393 16.4843 2.8035C16.5175 2.88307 16.5345 2.96835 16.5344 3.05445V3.80279H9.47031V3.05445ZM22.1781 19.6434C22.1778 19.8973 22.0759 20.1406 21.8949 20.3201C21.7139 20.4996 21.4685 20.6006 21.2125 20.6009H4.7875C4.53151 20.6006 4.28612 20.4996 4.10511 20.3201C3.9241 20.1406 3.82225 19.8973 3.82188 19.6434V11.5H5.94063V12.2019C5.94063 12.7591 6.16385 13.2934 6.56119 13.6874C6.95854 14.0814 7.49745 14.3028 8.05938 14.3028C8.6213 14.3028 9.16022 14.0814 9.55756 13.6874C9.9549 13.2934 10.1781 12.7591 10.1781 12.2019V11.5H15.8266V12.2019C15.8266 12.7591 16.0498 13.2934 16.4471 13.6874C16.8445 14.0814 17.3834 14.3028 17.9453 14.3028C18.5072 14.3028 19.0462 14.0814 19.4435 13.6874C19.8408 13.2934 20.0641 12.7591 20.0641 12.2019V11.5H22.1828V19.6434H22.1781ZM7.35156 12.2019V10.1009H8.7625V12.2019C8.7625 12.2937 8.74425 12.3847 8.7088 12.4696C8.67335 12.5544 8.62138 12.6315 8.55587 12.6965C8.49036 12.7615 8.41259 12.813 8.327 12.8481C8.24141 12.8833 8.14967 12.9014 8.05703 12.9014C7.96439 12.9014 7.87265 12.8833 7.78706 12.8481C7.70147 12.813 7.6237 12.7615 7.55819 12.6965C7.49268 12.6315 7.44072 12.5544 7.40526 12.4696C7.36981 12.3847 7.35156 12.2937 7.35156 12.2019ZM17.2375 12.2019V10.1009H18.6484V12.2019C18.6484 12.3874 18.5741 12.5653 18.4418 12.6965C18.3095 12.8277 18.1301 12.9014 17.943 12.9014C17.7559 12.9014 17.5764 12.8277 17.4441 12.6965C17.3118 12.5653 17.2375 12.3874 17.2375 12.2019ZM23.5891 10.1009H20.0594V8.70186H15.8219V10.1009H10.1781V8.70186H5.94063V10.1009H2.41094V6.15936C2.41131 5.90553 2.51316 5.6622 2.69417 5.48271C2.87518 5.30323 3.12058 5.20223 3.37656 5.20186H22.6234C22.8794 5.20223 23.1248 5.30323 23.3058 5.48271C23.4868 5.6622 23.5887 5.90553 23.5891 6.15936V10.1009Z" stroke="white" stroke-width="0.2" stroke-miterlimit="10"/>
</svg>
