<svg width="24" height="18" viewBox="0 0 24 18" fill="none" xmlns="http://www.w3.org/2000/svg">
<path d="M8.24434 0.846093C6.1584 1.06641 4.2834 2.26406 3.19121 4.06875C2.62637 5.00391 2.31465 6.01875 2.23731 7.17188L2.2209 7.39687L2.11309 7.45781C1.80371 7.63359 1.28809 8.08359 1.00449 8.42812C0.549806 8.98359 0.212306 9.70078 0.0669939 10.418C-0.0056624 10.7789 -0.0220686 11.5242 0.0318376 11.9062C0.329494 13.9711 1.97012 15.5391 4.05137 15.75C4.20137 15.7641 5.17168 15.7734 6.63418 15.7734H8.97559V15.0117V14.25H6.60137C4.01856 14.25 4.02559 14.25 3.59903 14.1164C3.01543 13.9336 2.45528 13.5352 2.09199 13.043C1.66309 12.4664 1.44512 11.6836 1.52246 10.9945C1.60215 10.2727 1.88106 9.68672 2.38731 9.18516C2.76231 8.81016 3.18184 8.55703 3.62715 8.43281C3.73965 8.4 3.81465 8.36719 3.80996 8.35312C3.77481 8.25703 3.74434 7.71797 3.75606 7.37109C3.7959 6.16406 4.22949 5.05547 5.02168 4.13672C5.84199 3.18281 6.95996 2.57109 8.24903 2.37422C8.61231 2.32031 9.3084 2.32031 9.67871 2.37422C10.8107 2.54297 11.8232 3.04453 12.6178 3.83203C13.2342 4.43906 13.6631 5.1375 13.9561 6.01641C13.9631 6.03516 14.0498 5.98828 14.1951 5.88984C14.4576 5.71172 14.7084 5.5875 15.0107 5.48672C15.3506 5.37422 15.5475 5.34141 15.9482 5.32734C16.5295 5.30859 16.9725 5.39766 17.4834 5.63906C17.7506 5.76562 17.8818 5.84531 18.1303 6.0375C18.6084 6.40781 19.0279 6.99375 19.2271 7.57969C19.2975 7.78125 19.3795 8.13281 19.3818 8.22891C19.3818 8.2875 19.3842 8.2875 19.6701 8.31562C20.2584 8.37187 20.7904 8.58047 21.2475 8.92969C21.6623 9.25312 22.0443 9.78047 22.2271 10.2844C22.3889 10.7344 22.4381 11.3672 22.349 11.8195C22.1381 12.8977 21.3459 13.7906 20.3053 14.1164C19.8787 14.25 19.8857 14.25 17.3029 14.25H14.9287V15.0117V15.7734H17.2701C18.7326 15.7734 19.7029 15.7641 19.8529 15.75C21.9365 15.5391 23.5748 13.9711 23.8725 11.9062C23.9311 11.5008 23.9076 10.7555 23.8256 10.3711C23.7014 9.7875 23.4225 9.14297 23.0897 8.67187C22.8857 8.38125 22.3209 7.81875 22.0303 7.61016C21.742 7.40625 21.1982 7.13203 20.8654 7.02187C20.7201 6.97266 20.6006 6.92109 20.6006 6.90703C20.6006 6.85312 20.3943 6.42656 20.2654 6.20391C19.199 4.39453 17.1037 3.46875 15.0553 3.90469C14.9006 3.9375 14.7553 3.97031 14.7295 3.975C14.692 3.98438 14.6568 3.94453 14.5467 3.77812C14.3428 3.46406 14.0357 3.09141 13.7217 2.77734C12.6248 1.68047 11.2045 1.00547 9.65528 0.843749C9.39512 0.817968 8.50449 0.817968 8.24434 0.846093Z" fill="white"/>
<path d="M10.0771 9.76406C9.05292 10.9969 8.21151 12.0141 8.20682 12.0258C8.20214 12.0375 8.65214 12.0469 9.32479 12.0469H10.4521V15.0234V18H11.9521H13.4521V15.0234V12.0469H14.5795C15.2521 12.0469 15.7021 12.0375 15.6974 12.0258C15.6881 11.9953 11.9662 7.52578 11.9521 7.52578C11.9451 7.52578 11.1014 8.5336 10.0771 9.76406Z" fill="white"/>
</svg>
