<svg xmlns="http://www.w3.org/2000/svg" version="1.0" viewBox="0 0 1024.000000 1024.000000" style="&#10; height: 24px;&#10; width: 24px;&#10;"><defs xmlns="http://www.w3.org/2000/svg"> <linearGradient id="grad1" x1="0%" y1="0%" x2="100%" y2="0%"> <stop offset="0%" style="stop-color: #2989ff;stop-opacity:1;"/> <stop offset="100%" style="stop-color: #63a8ff;stop-opacity:1;"/> </linearGradient> </defs><g transform="translate(0.000000,1024.000000) scale(0.100000,-0.100000)" fill="url(#grad1)" stroke="none"><path d="M3538 8769 c-890 -94 -1690 -605 -2156 -1375 -241 -399 -374 -832 -407 -1324 l-7 -96 -46 -26 c-132 -75 -352 -267 -473 -414 -194 -237 -338 -543 -400 -849 -31 -154 -38 -472 -15 -635 127 -881 827 -1550 1715 -1640 64 -6 478 -10 1102 -10 l999 0 0 325 0 325 -1013 0 c-1102 0 -1099 0 -1281 57 -249 78 -488 248 -643 458 -183 246 -276 580 -243 874 34 308 153 558 369 772 160 160 339 268 529 321 48 14 80 28 78 34 -15 41 -28 271 -23 419 17 515 202 988 540 1380 350 407 827 668 1377 752 155 23 452 23 610 0 483 -72 915 -286 1254 -622 263 -259 446 -557 571 -932 3 -8 40 12 102 54 112 76 219 129 348 172 145 48 229 62 400 68 248 8 437 -30 655 -133 114 -54 170 -88 276 -170 204 -158 383 -408 468 -658 30 -86 65 -236 66 -277 0 -25 1 -25 123 -37 251 -24 478 -113 673 -262 177 -138 340 -363 418 -578 69 -192 90 -462 52 -655 -90 -460 -428 -841 -872 -980 -182 -57 -179 -57 -1281 -57 l-1013 0 0 -325 0 -325 999 0 c624 0 1038 4 1102 10 889 90 1588 759 1715 1640 25 173 15 491 -20 655 -53 249 -172 524 -314 725 -87 124 -328 364 -452 453 -123 87 -355 204 -497 251 -62 21 -113 43 -113 49 0 23 -88 205 -143 300 -455 772 -1349 1167 -2223 981 -66 -14 -128 -28 -139 -30 -16 -4 -31 13 -78 84 -87 134 -218 293 -352 427 -468 468 -1074 756 -1735 825 -111 11 -491 11 -602 -1z"/><path d="M4320 4964 c-437 -526 -796 -960 -798 -965 -2 -5 190 -9 477 -9 l481 0 0 -1270 0 -1270 640 0 640 0 0 1270 0 1270 481 0 c287 0 479 4 477 9 -4 13 -1592 1920 -1598 1920 -3 0 -363 -430 -800 -955z"/></g></svg>