


<svg id="Layer_1" data-name="Layer 1" xmlns="http://www.w3.org/2000/svg" viewBox="0 0 1024 1024"><defs><style>.cls-1{fill:#0f1934;}</style></defs><title>URL</title><path class="cls-1" d="M874,150C777.33,53.26,648.76,0,512,0S246.67,53.26,150,150,0,375.24,0,512,53.26,777.33,150,874s225.28,150,362,150,265.33-53.26,362-150,150-225.28,150-362S970.74,246.67,874,150Zm-4.26,631.36a638.75,638.75,0,0,0-95.91-53.58c14.68-57.23,23.4-119.38,25.57-183.74h159.4A445.51,445.51,0,0,1,869.78,781.32ZM65.16,544h159.4c2.18,64.37,10.89,126.51,25.57,183.74a637.87,637.87,0,0,0-95.91,53.58A445.51,445.51,0,0,1,65.16,544Zm89.06-301.31a637.77,637.77,0,0,0,95.9,53.58C235.45,353.5,226.73,415.64,224.56,480H65.16A445.48,445.48,0,0,1,154.22,242.69Zm567-85.16A432.26,432.26,0,0,0,683.38,98.1a449.54,449.54,0,0,1,144,96A574.78,574.78,0,0,1,755,234.47,574.06,574.06,0,0,0,721.25,157.53ZM695.32,258.34A575.65,575.65,0,0,1,512,288a575.65,575.65,0,0,1-183.32-29.66C369.6,141.83,437.22,64,512,64s142.4,77.83,183.32,194.34ZM288.61,480c2.11-56.68,9.77-110.84,21.87-160.23A639.58,639.58,0,0,0,512,352a639.58,639.58,0,0,0,201.52-32.23c12.11,49.39,19.76,103.54,21.87,160.23Zm446.78,64c-2.11,56.69-9.77,110.85-21.87,160.24a645.93,645.93,0,0,0-403,0c-12.1-49.39-19.76-103.55-21.87-160.24ZM302.75,157.53A575.34,575.34,0,0,0,269,234.47a574.78,574.78,0,0,1-72.31-40.37,449.54,449.54,0,0,1,144-96A432.26,432.26,0,0,0,302.75,157.53ZM269,789.55a576.89,576.89,0,0,0,33.77,76.92,434.16,434.16,0,0,0,37.87,59.43,449.54,449.54,0,0,1-143.94-96A574.59,574.59,0,0,1,269,789.55Zm59.71-23.88a581.17,581.17,0,0,1,366.64,0C654.39,882.17,586.78,960,512,960S369.61,882.17,328.68,765.67Zm392.57,100.8A574.32,574.32,0,0,0,755,789.55a574,574,0,0,1,72.31,40.36,449.47,449.47,0,0,1-144,96A432.26,432.26,0,0,0,721.25,866.47ZM799.44,480c-2.18-64.36-10.89-126.5-25.57-183.73a637.38,637.38,0,0,0,95.91-53.58A445.53,445.53,0,0,1,958.84,480Z"/></svg>