<?xml version="1.0" encoding="UTF-8"?>
<svg xmlns="http://www.w3.org/2000/svg" xmlns:xlink="http://www.w3.org/1999/xlink" width="150pt" height="150pt" viewBox="0 0 150 150" version="1.1">
<g id="surface1">
<path style=" stroke:none;fill-rule:nonzero;fill:rgb(9.803922%,50.196078%,100%);fill-opacity:1;" d="M 150 75 C 150 116.425781 116.425781 150 75 150 C 33.574219 150 0 116.425781 0 75 C 0 33.574219 33.574219 0 75 0 C 116.425781 0 150 33.574219 150 75 Z M 150 75 "/>
<path style=" stroke:none;fill-rule:nonzero;fill:rgb(100%,100%,100%);fill-opacity:1;" d="M 113.789062 75 L 56.910156 113.789062 L 56.910156 36.210938 Z M 113.789062 75 "/>
<path style=" stroke:none;fill-rule:nonzero;fill:rgb(100%,100%,100%);fill-opacity:1;" d="M 56.910156 116.382812 C 56.5 116.382812 56.074219 116.28125 55.695312 116.074219 C 54.84375 115.632812 54.316406 114.757812 54.316406 113.789062 L 54.316406 36.210938 C 54.316406 35.242188 54.84375 34.378906 55.695312 33.925781 C 56.542969 33.484375 57.570312 33.53125 58.359375 34.070312 L 115.269531 72.859375 C 115.957031 73.34375 116.398438 74.136719 116.398438 75 C 116.398438 75.863281 115.972656 76.65625 115.269531 77.140625 L 58.359375 115.929688 C 57.921875 116.234375 57.40625 116.382812 56.910156 116.382812 Z M 59.472656 41.101562 L 59.472656 108.898438 L 109.203125 75 Z M 59.472656 41.101562 "/>
</g>
</svg>
