<svg width="48" height="48" viewBox="0 0 48 48" fill="none" xmlns="http://www.w3.org/2000/svg">
<g filter="url(#filter0_d_9404_17535)">
<rect x="2.67578" y="2" width="40" height="40" rx="5.23602" fill="#29A71A"/>
<path d="M31.6884 12.7582C29.5612 10.6097 26.7363 9.29214 23.7232 9.0431C20.71 8.79407 17.7071 9.62996 15.256 11.4C12.8049 13.17 11.067 15.7577 10.3558 18.6963C9.64459 21.6348 10.0069 24.7308 11.3773 27.4258L10.0321 33.9568C10.0181 34.0218 10.0177 34.089 10.0309 34.1542C10.0441 34.2194 10.0706 34.2811 10.1087 34.3356C10.1646 34.4182 10.2444 34.4818 10.3374 34.5179C10.4304 34.5541 10.5322 34.561 10.6292 34.5377L17.0301 33.0205C19.7175 34.3562 22.7916 34.6952 25.7055 33.9771C28.6194 33.2591 31.184 31.5305 32.943 29.099C34.702 26.6675 35.5413 23.6908 35.3116 20.6986C35.0818 17.7063 33.798 14.8927 31.6884 12.7582ZM29.6926 28.6874C28.2208 30.1551 26.3256 31.1239 24.2739 31.4574C22.2223 31.7908 20.1178 31.4721 18.2569 30.5461L17.3647 30.1046L13.4405 31.034L13.4521 30.9852L14.2653 27.0354L13.8285 26.1735C12.8777 24.3061 12.5422 22.1857 12.8703 20.116C13.1983 18.0463 14.173 16.1336 15.6547 14.6517C17.5164 12.7906 20.0412 11.745 22.6737 11.745C25.3062 11.745 27.8309 12.7906 29.6926 14.6517C29.7085 14.6699 29.7256 14.687 29.7438 14.7028C31.5824 16.5688 32.6089 19.086 32.5993 21.7056C32.5897 24.3253 31.5449 26.8349 29.6926 28.6874Z" fill="white"/>
<path d="M29.3439 25.7894C28.8629 26.5469 28.1032 27.4739 27.1482 27.7039C25.4754 28.1082 22.908 27.7178 19.7134 24.7392L19.6739 24.7044C16.8649 22.0999 16.1353 19.9321 16.3119 18.2128C16.4095 17.237 17.2227 16.3541 17.9081 15.7779C18.0165 15.6854 18.145 15.6196 18.2833 15.5856C18.4217 15.5517 18.5661 15.5506 18.7049 15.5824C18.8438 15.6143 18.9733 15.6781 19.083 15.769C19.1928 15.8598 19.2797 15.975 19.337 16.1055L20.3709 18.4289C20.4381 18.5795 20.463 18.7456 20.4429 18.9094C20.4229 19.0731 20.3586 19.2283 20.2571 19.3583L19.7343 20.0367C19.6221 20.1768 19.5544 20.3472 19.5399 20.5261C19.5254 20.705 19.5648 20.8841 19.653 21.0404C19.9457 21.5539 20.6474 22.309 21.4257 23.0083C22.2993 23.7983 23.2682 24.5208 23.8816 24.7671C24.0457 24.8342 24.2261 24.8505 24.3996 24.8141C24.5732 24.7777 24.7318 24.6901 24.8551 24.5627L25.4615 23.9516C25.5785 23.8362 25.724 23.7539 25.8832 23.7131C26.0423 23.6723 26.2095 23.6744 26.3676 23.7193L28.8234 24.4163C28.9589 24.4578 29.0831 24.5298 29.1864 24.6267C29.2898 24.7236 29.3697 24.8429 29.4199 24.9754C29.4701 25.1079 29.4894 25.2501 29.4762 25.3912C29.463 25.5323 29.4178 25.6685 29.3439 25.7894Z" fill="white"/>
</g>
<defs>
<filter id="filter0_d_9404_17535" x="0.93044" y="0.254658" width="46.9814" height="46.9814" filterUnits="userSpaceOnUse" color-interpolation-filters="sRGB">
<feFlood flood-opacity="0" result="BackgroundImageFix"/>
<feColorMatrix in="SourceAlpha" type="matrix" values="0 0 0 0 0 0 0 0 0 0 0 0 0 0 0 0 0 0 127 0" result="hardAlpha"/>
<feOffset dx="1.74534" dy="1.74534"/>
<feGaussianBlur stdDeviation="1.74534"/>
<feComposite in2="hardAlpha" operator="out"/>
<feColorMatrix type="matrix" values="0 0 0 0 0.160784 0 0 0 0 0.654902 0 0 0 0 0.101961 0 0 0 0.3 0"/>
<feBlend mode="normal" in2="BackgroundImageFix" result="effect1_dropShadow_9404_17535"/>
<feBlend mode="normal" in="SourceGraphic" in2="effect1_dropShadow_9404_17535" result="shape"/>
</filter>
</defs>
</svg>
