<svg id="Layer_1" data-name="Layer 1" xmlns="http://www.w3.org/2000/svg" viewBox="0 0 1024 1024"><defs><style>.cls-1{fill:#0f1934;}</style></defs><title>wifi</title><circle class="cls-1" cx="510" cy="867" r="66"/><path class="cls-1" d="M1013.26,309.73C881.8,168.68,703.79,91,512,91S142.2,168.68,10.74,309.73a40,40,0,0,0,58.52,54.54C185.42,239.64,342.65,171,512,171s326.57,68.64,442.73,193.27a40,40,0,1,0,58.52-54.54Z"/><path class="cls-1" d="M866.39,474.92C769.21,377,643.35,323.09,512,323.09S254.75,377,157.6,474.92a40,40,0,0,0,56.79,56.35c82-82.65,187.7-128.17,297.6-128.18S727.56,448.61,809.6,531.27a40,40,0,0,0,56.79-56.35Z"/><path class="cls-1" d="M706.3,640.58C654.26,589,579.67,557,511.62,557h-2.94C440.63,557,366,589,314,640.58a40,40,0,0,0,56.3,56.84C407.35,660.71,461.66,637,508.68,637h2.94c47,0,101.33,23.71,138.37,60.42a40,40,0,0,0,56.31-56.84Z"/></svg>